M48
; DRILL file {KiCad (5.1.5)-3} date 22.09.2020 23:53:38
; FORMAT={-:-/ absolute / metric / decimal}
; #@! TF.CreationDate,2020-09-22T23:53:38+02:00
; #@! TF.GenerationSoftware,Kicad,Pcbnew,(5.1.5)-3
; #@! TF.FileFunction,Plated,1,2,PTH
FMAT,2
METRIC
T1C0.300
T2C0.800
T3C1.000
T4C1.016
T5C1.500
T6C1.700
%
G90
G05
T1
X86.0Y-83.2
X87.9Y-125.1
X88.0Y-92.75
X88.0Y-100.9
X88.0Y-112.9
X88.0Y-91.0
X88.01Y-93.91
X88.01Y-95.63
X88.01Y-106.95
X88.01Y-119.05
X88.01Y-131.05
X88.01Y-136.37
X88.1Y-83.3
X88.1Y-138.0
X88.95Y-80.35
X89.5Y-91.0
X89.73Y-93.91
X89.73Y-138.09
X90.0Y-92.75
X90.5Y-83.9
X90.5Y-84.7
X91.0Y-86.0
X91.0Y-87.0
X91.0Y-88.0
X91.0Y-89.0
X91.0Y-90.0
X91.0Y-91.0
X91.0Y-115.0
X91.0Y-117.0
X91.0Y-119.0
X91.0Y-121.0
X91.0Y-123.0
X91.0Y-125.0
X91.0Y-127.0
X91.0Y-129.0
X91.0Y-131.0
X91.0Y-133.0
X91.0Y-135.0
X91.3Y-83.9
X91.3Y-84.7
X91.65Y-66.5
X92.0Y-92.75
X93.0Y-115.0
X93.0Y-117.0
X93.0Y-119.0
X93.0Y-121.0
X93.0Y-123.0
X93.0Y-125.0
X93.0Y-127.0
X93.0Y-129.0
X93.0Y-131.0
X93.0Y-133.0
X93.0Y-135.0
X93.5Y-91.0
X94.0Y-92.75
X95.0Y-115.0
X95.0Y-117.0
X95.0Y-119.0
X95.0Y-121.0
X95.0Y-123.0
X95.0Y-125.0
X95.0Y-127.0
X95.0Y-129.0
X95.0Y-131.0
X95.0Y-133.0
X95.0Y-135.0
X95.05Y-138.09
X95.1Y-93.9
X96.0Y-91.0
X96.0Y-92.75
X96.7Y-83.3
X97.0Y-115.0
X97.0Y-117.0
X97.0Y-119.0
X97.0Y-121.0
X97.0Y-123.0
X97.0Y-125.0
X97.0Y-127.0
X97.0Y-129.0
X97.0Y-131.0
X97.0Y-133.0
X97.0Y-135.0
X98.0Y-91.0
X98.0Y-92.75
X99.0Y-115.0
X99.0Y-117.0
X99.0Y-119.0
X99.0Y-121.0
X99.0Y-123.0
X99.0Y-125.0
X99.0Y-127.0
X99.0Y-129.0
X99.0Y-131.0
X99.0Y-133.0
X99.0Y-135.0
X100.0Y-71.0
X100.0Y-72.0
X100.0Y-74.0
X100.0Y-76.0
X100.0Y-88.0
X100.0Y-89.5
X100.0Y-91.0
X100.0Y-92.75
X100.05Y-78.007
X100.05Y-80.0
X100.05Y-82.0
X100.05Y-84.0
X100.05Y-86.0
X101.0Y-71.0
X101.0Y-115.0
X101.0Y-117.0
X101.0Y-119.0
X101.0Y-121.0
X101.0Y-123.0
X101.0Y-125.0
X101.0Y-127.0
X101.0Y-129.0
X101.0Y-131.0
X101.0Y-133.0
X101.0Y-135.0
X101.0Y-138.1
X101.05Y-93.91
X101.5Y-72.75
X101.5Y-74.75
X101.5Y-76.75
X101.5Y-78.75
X101.5Y-80.75
X101.5Y-82.75
X101.5Y-84.75
X101.5Y-86.75
X101.5Y-88.75
X101.5Y-90.75
X101.5Y-92.75
X103.0Y-71.0
X103.0Y-96.0
X103.0Y-115.0
X103.0Y-117.0
X103.0Y-119.0
X103.0Y-121.0
X103.0Y-123.0
X103.0Y-125.0
X103.0Y-127.0
X103.0Y-129.0
X103.0Y-131.0
X103.0Y-133.0
X103.0Y-135.0
X103.5Y-72.75
X105.0Y-71.0
X105.0Y-96.0
X105.0Y-98.0
X105.0Y-100.0
X105.0Y-102.0
X105.0Y-104.0
X105.0Y-106.0
X105.0Y-115.0
X105.0Y-117.0
X105.0Y-119.0
X105.0Y-121.0
X105.0Y-123.0
X105.0Y-125.0
X105.0Y-127.0
X105.0Y-129.0
X105.0Y-131.0
X105.0Y-133.0
X105.0Y-135.0
X105.5Y-72.75
X107.0Y-71.0
X107.0Y-93.9
X107.0Y-96.0
X107.0Y-98.0
X107.0Y-100.0
X107.0Y-102.0
X107.0Y-104.0
X107.0Y-106.0
X107.0Y-115.0
X107.0Y-117.0
X107.0Y-119.0
X107.0Y-121.0
X107.0Y-123.0
X107.0Y-125.0
X107.0Y-127.0
X107.0Y-129.0
X107.0Y-131.0
X107.0Y-133.0
X107.0Y-135.0
X107.05Y-138.09
X107.5Y-72.75
X109.0Y-71.0
X109.0Y-96.0
X109.0Y-98.0
X109.0Y-100.0
X109.0Y-102.0
X109.0Y-104.0
X109.0Y-106.0
X109.0Y-112.0
X109.0Y-113.0
X109.0Y-115.0
X109.0Y-117.0
X109.0Y-119.2
X109.0Y-121.0
X109.0Y-123.0
X109.0Y-125.0
X109.0Y-127.0
X109.0Y-129.0
X109.0Y-131.0
X109.0Y-133.0
X109.0Y-135.0
X109.5Y-72.75
X111.0Y-71.0
X111.0Y-96.0
X111.0Y-98.0
X111.0Y-100.0
X111.0Y-102.0
X111.0Y-104.0
X111.0Y-106.0
X111.0Y-115.0
X111.0Y-117.0
X111.0Y-119.0
X111.0Y-121.0
X111.0Y-123.0
X111.0Y-125.0
X111.0Y-127.0
X111.0Y-129.0
X111.0Y-131.0
X111.0Y-133.0
X111.0Y-135.0
X111.5Y-72.75
X112.8Y-112.0
X113.0Y-71.0
X113.0Y-96.0
X113.0Y-98.0
X113.0Y-100.0
X113.0Y-102.0
X113.0Y-104.0
X113.0Y-106.0
X113.0Y-107.0
X113.1Y-138.2
X113.15Y-93.91
X113.5Y-72.75
X113.9Y-117.0
X114.0Y-107.7
X114.2Y-112.8
X115.0Y-71.0
X115.0Y-96.0
X115.0Y-98.0
X115.0Y-100.0
X115.0Y-102.0
X115.0Y-104.0
X115.0Y-106.0
X115.0Y-107.0
X115.5Y-72.75
X115.8Y-112.8
X115.8Y-114.3
X115.8Y-115.6
X115.8Y-116.9
X116.0Y-109.3
X116.0Y-110.3
X116.0Y-111.3
X116.1Y-107.8
X116.8Y-109.3
X116.8Y-110.3
X116.8Y-111.3
X117.0Y-96.0
X117.0Y-98.0
X117.0Y-100.0
X117.0Y-102.0
X117.0Y-104.0
X117.0Y-106.0
X117.0Y-107.0
X117.0Y-118.4
X117.1Y-112.8
X117.1Y-114.3
X117.1Y-115.6
X117.1Y-116.9
X117.5Y-71.0
X117.5Y-72.75
X117.9Y-49.8
X118.1Y-107.8
X118.3Y-114.3
X118.5Y-115.5
X119.0Y-96.0
X119.0Y-98.0
X119.0Y-100.0
X119.0Y-102.0
X119.0Y-104.0
X119.0Y-106.0
X119.0Y-107.0
X119.0Y-118.5
X119.0Y-120.5
X119.0Y-122.5
X119.1Y-93.9
X119.15Y-138.09
X119.5Y-71.0
X119.5Y-72.75
X120.335Y-66.535
X120.5Y-109.5
X121.0Y-96.0
X121.0Y-98.0
X121.0Y-100.0
X121.0Y-102.0
X121.0Y-104.0
X121.0Y-106.0
X121.0Y-120.5
X121.0Y-122.5
X121.5Y-71.0
X121.5Y-72.75
X121.6Y-64.9
X123.0Y-96.0
X123.0Y-98.0
X123.0Y-100.0
X123.0Y-102.0
X123.0Y-104.0
X123.0Y-106.0
X123.0Y-120.5
X123.0Y-122.5
X123.1Y-62.2
X123.5Y-71.0
X123.5Y-72.75
X125.0Y-96.0
X125.0Y-98.0
X125.0Y-100.0
X125.0Y-102.0
X125.0Y-104.0
X125.0Y-106.0
X125.0Y-108.2
X125.0Y-112.5
X125.0Y-114.5
X125.0Y-120.5
X125.0Y-122.5
X125.15Y-93.91
X125.15Y-138.09
X125.5Y-71.0
X125.5Y-72.75
X126.0Y-112.5
X126.2Y-64.6
X126.275Y-53.0
X127.0Y-96.0
X127.0Y-98.0
X127.0Y-100.0
X127.0Y-102.0
X127.0Y-104.0
X127.0Y-106.0
X127.0Y-108.2
X127.0Y-109.5
X127.0Y-111.5
X127.0Y-112.5
X127.0Y-114.5
X127.0Y-116.5
X127.0Y-118.5
X127.0Y-120.5
X127.0Y-122.5
X127.05Y-110.5
X127.5Y-71.0
X127.5Y-72.75
X128.0Y-47.1
X128.95Y-56.75
X129.0Y-96.0
X129.0Y-98.0
X129.0Y-100.0
X129.0Y-102.0
X129.0Y-104.0
X129.0Y-106.0
X129.0Y-108.2
X129.0Y-110.5
X129.0Y-112.5
X129.0Y-114.5
X129.0Y-116.5
X129.0Y-118.5
X129.0Y-120.5
X129.0Y-122.5
X129.5Y-71.0
X129.5Y-72.75
X130.47Y-93.91
X130.47Y-138.09
X131.0Y-96.0
X131.0Y-98.0
X131.0Y-100.0
X131.0Y-102.0
X131.0Y-104.0
X131.0Y-106.0
X131.05Y-64.875
X131.5Y-71.0
X131.5Y-72.75
X132.19Y-93.91
X132.19Y-95.63
X132.19Y-100.95
X132.19Y-112.95
X132.19Y-125.05
X132.19Y-136.37
X132.19Y-138.09
X132.2Y-107.0
X132.2Y-119.1
X132.2Y-131.1
X132.5Y-49.6
X133.5Y-71.0
X133.5Y-72.75
X133.7Y-59.7
X135.5Y-71.0
X135.5Y-72.75
X137.5Y-71.0
X137.5Y-72.75
X139.5Y-71.0
X139.5Y-72.75
X141.5Y-71.0
X141.5Y-72.75
X143.5Y-71.0
X143.5Y-72.75
X145.5Y-71.0
X145.5Y-72.75
X147.5Y-71.0
X147.5Y-72.75
X149.5Y-71.0
X149.5Y-72.75
X151.5Y-71.0
X151.5Y-72.75
X153.5Y-71.0
X153.5Y-72.75
X155.5Y-71.0
X155.5Y-72.75
X157.5Y-71.0
X157.5Y-72.75
X159.5Y-71.0
X159.5Y-72.75
X161.5Y-71.0
X161.5Y-72.75
X163.5Y-71.0
X163.5Y-72.75
X165.5Y-71.0
X165.5Y-72.75
X167.4Y-67.5
X167.5Y-71.0
X167.5Y-72.75
X169.5Y-71.0
X169.5Y-72.75
X171.5Y-71.0
X171.5Y-72.75
X173.5Y-71.0
X173.5Y-72.75
X175.5Y-71.0
X175.5Y-72.75
X177.5Y-71.0
X177.5Y-72.75
X179.3Y-67.7
X179.5Y-71.0
X179.5Y-72.75
X181.5Y-71.0
X181.5Y-72.75
X183.5Y-71.0
X183.5Y-72.75
X185.5Y-71.0
X185.5Y-72.75
X187.5Y-71.0
X187.5Y-72.75
X189.5Y-71.0
X189.5Y-72.75
X191.5Y-71.0
X191.5Y-72.75
X192.2Y-67.6
X192.5Y-72.75
X192.5Y-74.0
X192.5Y-76.0
X192.5Y-78.0
X192.5Y-80.0
X192.5Y-82.0
X192.5Y-84.0
X192.5Y-86.0
X192.5Y-88.0
X192.5Y-90.0
X192.5Y-92.0
X192.5Y-94.0
X192.5Y-96.0
X192.5Y-98.0
X192.5Y-100.0
X192.5Y-102.0
X192.5Y-104.0
X192.5Y-106.0
X192.5Y-108.0
X192.5Y-110.0
X192.5Y-112.0
X192.5Y-114.0
X192.5Y-116.0
X192.5Y-118.0
X192.5Y-120.0
X192.5Y-122.0
X192.5Y-124.0
X192.5Y-126.0
X192.5Y-128.0
X192.5Y-130.0
X192.5Y-132.0
X192.5Y-134.0
X192.5Y-136.0
X192.5Y-138.0
X192.5Y-140.0
X192.5Y-142.0
X193.5Y-71.0
X194.5Y-71.0
X194.5Y-72.0
X194.5Y-74.0
X194.5Y-76.0
X194.5Y-78.0
X194.5Y-80.0
X194.5Y-82.0
X194.5Y-84.0
X194.5Y-86.0
X194.5Y-88.0
X194.5Y-90.0
X194.5Y-92.0
X194.5Y-94.0
X194.5Y-96.0
X194.5Y-98.0
X194.5Y-100.0
X194.5Y-102.0
X194.5Y-104.0
X194.5Y-106.0
X194.5Y-108.0
X194.5Y-110.0
X194.5Y-112.0
X194.5Y-114.0
X194.5Y-116.0
X194.5Y-118.0
X194.5Y-120.0
X194.5Y-122.0
X194.5Y-124.0
X194.5Y-126.0
X194.5Y-128.0
X194.5Y-130.0
X194.5Y-132.0
X194.5Y-134.0
X194.5Y-136.0
X194.5Y-138.0
X194.5Y-140.0
X194.5Y-142.0
X200.975Y-112.1
X201.775Y-112.1
X202.7Y-65.6
X203.575Y-117.275
X204.9Y-119.0
X205.4Y-64.0
X205.4Y-120.5
X205.85Y-117.35
X207.2Y-110.7
X207.7Y-63.4
X208.25Y-114.775
X208.62Y-119.604
X208.625Y-117.8
X208.9Y-70.0
X208.9Y-110.625
X208.975Y-116.1
X210.275Y-65.625
X210.383Y-112.202
X210.5Y-116.1
X211.425Y-63.35
X211.975Y-58.8
X213.025Y-63.55
X215.4Y-114.7
X215.54Y-63.44
X215.6Y-72.4
X216.25Y-60.85
X216.6Y-55.1
X217.85Y-105.7
T2
X222.08Y-58.42
X222.08Y-60.96
X222.08Y-63.5
X222.08Y-66.04
X222.08Y-68.58
X229.7Y-58.42
X229.7Y-60.96
X229.7Y-63.5
X229.7Y-66.04
X229.7Y-68.58
X95.0Y-70.2
X95.0Y-66.5
X189.7Y-139.3
X222.03Y-112.44
X222.03Y-114.98
X222.03Y-117.52
X222.03Y-120.06
X222.03Y-122.6
X229.65Y-112.44
X229.65Y-114.98
X229.65Y-117.52
X229.65Y-120.06
X229.65Y-122.6
X95.0Y-74.3
T3
X76.76Y-53.73
X76.76Y-56.27
X76.76Y-58.81
X76.76Y-61.35
X76.76Y-63.89
X76.76Y-66.43
X76.76Y-68.97
X76.76Y-71.51
X76.76Y-74.05
X76.76Y-76.59
X76.76Y-79.13
X76.76Y-81.67
X76.76Y-84.21
X76.76Y-86.75
X76.76Y-89.29
X76.76Y-91.83
X76.76Y-94.37
X76.76Y-96.91
X76.76Y-99.45
X76.76Y-101.99
X76.76Y-104.53
X76.76Y-107.07
X76.76Y-109.61
X76.76Y-112.15
X76.76Y-114.69
X76.76Y-117.23
X76.76Y-119.77
X76.76Y-122.31
X76.76Y-124.85
X76.76Y-127.39
X76.76Y-129.93
X76.76Y-132.47
X81.84Y-53.73
X81.84Y-56.27
X81.84Y-58.81
X81.84Y-61.35
X81.84Y-63.89
X81.84Y-66.43
X81.84Y-68.97
X81.84Y-71.51
X81.84Y-74.05
X81.84Y-76.59
X81.84Y-79.13
X81.84Y-81.67
X81.84Y-84.21
X81.84Y-86.75
X81.84Y-89.29
X81.84Y-91.83
X81.84Y-94.37
X81.84Y-96.91
X81.84Y-99.45
X81.84Y-101.99
X81.84Y-104.53
X81.84Y-107.07
X81.84Y-109.61
X81.84Y-112.15
X81.84Y-114.69
X81.84Y-117.23
X81.84Y-119.77
X81.84Y-122.31
X81.84Y-124.85
X81.84Y-127.39
X81.84Y-129.93
X81.84Y-132.47
T4
X152.387Y-127.227
X152.387Y-129.767
X152.397Y-76.467
X152.397Y-79.007
X154.927Y-127.227
X154.927Y-129.767
X154.937Y-76.467
X154.937Y-79.007
X157.467Y-127.227
X157.467Y-129.767
X157.477Y-76.467
X157.477Y-79.007
X160.007Y-127.227
X160.007Y-129.767
X160.017Y-76.467
X160.017Y-79.007
X162.547Y-127.227
X162.547Y-129.767
X162.557Y-76.467
X162.557Y-79.007
X165.087Y-127.227
X165.087Y-129.767
X165.097Y-76.467
X165.097Y-79.007
X167.627Y-127.227
X167.627Y-129.767
X167.637Y-76.467
X167.637Y-79.007
X170.167Y-127.227
X170.167Y-129.767
X170.177Y-76.467
X170.177Y-79.007
X172.707Y-127.227
X172.707Y-129.767
X172.717Y-76.467
X172.717Y-79.007
X175.247Y-127.227
X175.247Y-129.767
X175.257Y-76.467
X175.257Y-79.007
X177.787Y-127.227
X177.787Y-129.767
X177.797Y-76.467
X177.797Y-79.007
X180.327Y-127.227
X180.327Y-129.767
X180.337Y-76.467
X180.337Y-79.007
X182.867Y-127.227
X182.867Y-129.767
X182.877Y-76.467
X182.877Y-79.007
T5
X137.39Y-64.606
X149.39Y-64.606
X197.39Y-64.606
X106.1Y-64.6
X197.39Y-50.606
X106.1Y-87.5
X161.39Y-64.606
X161.39Y-50.606
X173.39Y-50.606
X185.39Y-50.606
X173.39Y-64.606
X118.0Y-87.5
X149.39Y-50.606
X185.39Y-64.606
X106.1Y-50.6
X137.39Y-50.606
T6
X134.85Y-48.066
X134.85Y-53.146
X139.93Y-48.066
X139.93Y-53.146
X134.85Y-62.066
X134.85Y-67.146
X139.93Y-62.066
X139.93Y-67.146
X146.85Y-62.066
X146.85Y-67.146
X151.93Y-62.066
X151.93Y-67.146
X194.85Y-62.066
X194.85Y-67.146
X199.93Y-62.066
X199.93Y-67.146
X103.56Y-62.06
X103.56Y-67.14
X108.64Y-62.06
X108.64Y-67.14
X194.85Y-48.066
X194.85Y-53.146
X199.93Y-48.066
X199.93Y-53.146
X103.56Y-84.96
X103.56Y-90.04
X108.64Y-84.96
X108.64Y-90.04
X158.85Y-62.066
X158.85Y-67.146
X163.93Y-62.066
X163.93Y-67.146
X158.85Y-48.066
X158.85Y-53.146
X163.93Y-48.066
X163.93Y-53.146
X170.85Y-48.066
X170.85Y-53.146
X175.93Y-48.066
X175.93Y-53.146
X182.85Y-48.066
X182.85Y-53.146
X187.93Y-48.066
X187.93Y-53.146
X170.85Y-62.066
X170.85Y-67.146
X175.93Y-62.066
X175.93Y-67.146
X115.46Y-84.96
X115.46Y-90.04
X120.54Y-84.96
X120.54Y-90.04
X146.85Y-48.066
X146.85Y-53.146
X151.93Y-48.066
X151.93Y-53.146
X182.85Y-62.066
X182.85Y-67.146
X187.93Y-62.066
X187.93Y-67.146
X103.56Y-48.06
X103.56Y-53.14
X108.64Y-48.06
X108.64Y-53.14
T0
M30
