M48
; DRILL file {KiCad (5.1.5)-3} date 28.09.2020 23:37:20
; FORMAT={-:-/ absolute / metric / decimal}
; #@! TF.CreationDate,2020-09-28T23:37:20+02:00
; #@! TF.GenerationSoftware,Kicad,Pcbnew,(5.1.5)-3
; #@! TF.FileFunction,Plated,1,2,PTH
FMAT,2
METRIC
T1C0.300
T2C0.700
T3C0.800
T4C1.000
T5C1.016
T6C1.500
T7C1.700
%
G90
G05
T1
X70.15Y-84.35
X72.05Y-126.25
X72.15Y-93.9
X72.15Y-102.05
X72.15Y-114.05
X72.15Y-92.15
X72.16Y-95.06
X72.16Y-96.78
X72.16Y-108.1
X72.16Y-120.2
X72.16Y-132.2
X72.16Y-137.52
X72.25Y-84.45
X72.25Y-139.15
X73.1Y-81.15
X73.65Y-92.15
X73.88Y-95.06
X73.88Y-139.24
X74.15Y-93.9
X74.65Y-85.05
X74.65Y-85.85
X75.15Y-87.15
X75.15Y-88.15
X75.15Y-89.15
X75.15Y-90.15
X75.15Y-91.15
X75.15Y-92.15
X75.15Y-116.15
X75.15Y-118.15
X75.15Y-120.15
X75.15Y-122.15
X75.15Y-124.15
X75.15Y-126.15
X75.15Y-128.15
X75.15Y-130.15
X75.15Y-132.15
X75.15Y-134.15
X75.15Y-136.15
X75.45Y-85.05
X75.45Y-85.85
X75.8Y-67.65
X76.15Y-93.9
X77.15Y-116.15
X77.15Y-118.15
X77.15Y-120.15
X77.15Y-122.15
X77.15Y-124.15
X77.15Y-126.15
X77.15Y-128.15
X77.15Y-130.15
X77.15Y-132.15
X77.15Y-134.15
X77.15Y-136.15
X77.65Y-92.15
X78.15Y-93.9
X79.15Y-116.15
X79.15Y-118.15
X79.15Y-120.15
X79.15Y-122.15
X79.15Y-124.15
X79.15Y-126.15
X79.15Y-128.15
X79.15Y-130.15
X79.15Y-132.15
X79.15Y-134.15
X79.15Y-136.15
X79.2Y-139.24
X79.25Y-95.05
X80.15Y-92.15
X80.15Y-93.9
X80.85Y-84.45
X81.15Y-116.15
X81.15Y-118.15
X81.15Y-120.15
X81.15Y-122.15
X81.15Y-124.15
X81.15Y-126.15
X81.15Y-128.15
X81.15Y-130.15
X81.15Y-132.15
X81.15Y-134.15
X81.15Y-136.15
X82.15Y-92.15
X82.15Y-93.9
X83.15Y-116.15
X83.15Y-118.15
X83.15Y-120.15
X83.15Y-122.15
X83.15Y-124.15
X83.15Y-126.15
X83.15Y-128.15
X83.15Y-130.15
X83.15Y-132.15
X83.15Y-134.15
X83.15Y-136.15
X84.15Y-72.15
X84.15Y-73.15
X84.15Y-75.15
X84.15Y-77.15
X84.15Y-89.15
X84.15Y-90.65
X84.15Y-92.15
X84.15Y-93.9
X84.2Y-79.157
X84.2Y-81.15
X84.2Y-83.15
X84.2Y-85.15
X84.2Y-87.15
X85.15Y-72.15
X85.15Y-116.15
X85.15Y-118.15
X85.15Y-120.15
X85.15Y-122.15
X85.15Y-124.15
X85.15Y-126.15
X85.15Y-128.15
X85.15Y-130.15
X85.15Y-132.15
X85.15Y-134.15
X85.15Y-136.15
X85.15Y-139.25
X85.2Y-95.06
X85.65Y-73.9
X85.65Y-75.9
X85.65Y-77.9
X85.65Y-79.9
X85.65Y-81.9
X85.65Y-83.9
X85.65Y-85.9
X85.65Y-87.9
X85.65Y-89.9
X85.65Y-91.9
X85.65Y-93.9
X87.15Y-72.15
X87.15Y-97.15
X87.15Y-116.15
X87.15Y-118.15
X87.15Y-120.15
X87.15Y-122.15
X87.15Y-124.15
X87.15Y-126.15
X87.15Y-128.15
X87.15Y-130.15
X87.15Y-132.15
X87.15Y-134.15
X87.15Y-136.15
X87.65Y-73.9
X89.15Y-72.15
X89.15Y-97.15
X89.15Y-99.15
X89.15Y-101.15
X89.15Y-103.15
X89.15Y-105.15
X89.15Y-107.15
X89.15Y-116.15
X89.15Y-118.15
X89.15Y-120.15
X89.15Y-122.15
X89.15Y-124.15
X89.15Y-126.15
X89.15Y-128.15
X89.15Y-130.15
X89.15Y-132.15
X89.15Y-134.15
X89.15Y-136.15
X89.65Y-73.9
X91.15Y-72.15
X91.15Y-95.05
X91.15Y-97.15
X91.15Y-99.15
X91.15Y-101.15
X91.15Y-103.15
X91.15Y-105.15
X91.15Y-107.15
X91.15Y-116.15
X91.15Y-118.15
X91.15Y-120.15
X91.15Y-122.15
X91.15Y-124.15
X91.15Y-126.15
X91.15Y-128.15
X91.15Y-130.15
X91.15Y-132.15
X91.15Y-134.15
X91.15Y-136.15
X91.2Y-139.24
X91.65Y-73.9
X93.15Y-72.15
X93.15Y-97.15
X93.15Y-99.15
X93.15Y-101.15
X93.15Y-103.15
X93.15Y-105.15
X93.15Y-107.15
X93.15Y-113.15
X93.15Y-114.15
X93.15Y-116.15
X93.15Y-118.15
X93.15Y-120.35
X93.15Y-122.15
X93.15Y-124.15
X93.15Y-126.15
X93.15Y-128.15
X93.15Y-130.15
X93.15Y-132.15
X93.15Y-134.15
X93.15Y-136.15
X93.65Y-73.9
X95.15Y-72.15
X95.15Y-97.15
X95.15Y-99.15
X95.15Y-101.15
X95.15Y-103.15
X95.15Y-105.15
X95.15Y-107.15
X95.15Y-116.15
X95.15Y-118.15
X95.15Y-120.15
X95.15Y-122.15
X95.15Y-124.15
X95.15Y-126.15
X95.15Y-128.15
X95.15Y-130.15
X95.15Y-132.15
X95.15Y-134.15
X95.15Y-136.15
X95.65Y-73.9
X96.95Y-113.15
X97.15Y-72.15
X97.15Y-97.15
X97.15Y-99.15
X97.15Y-101.15
X97.15Y-103.15
X97.15Y-105.15
X97.15Y-107.15
X97.15Y-108.15
X97.25Y-139.35
X97.3Y-95.06
X97.65Y-73.9
X98.05Y-118.15
X98.15Y-108.85
X98.35Y-113.95
X99.15Y-72.15
X99.15Y-97.15
X99.15Y-99.15
X99.15Y-101.15
X99.15Y-103.15
X99.15Y-105.15
X99.15Y-107.15
X99.15Y-108.15
X99.65Y-73.9
X99.95Y-113.95
X99.95Y-115.45
X99.95Y-116.75
X99.95Y-118.05
X100.15Y-110.45
X100.15Y-111.45
X100.15Y-112.45
X100.25Y-108.95
X100.95Y-110.45
X100.95Y-111.45
X100.95Y-112.45
X101.15Y-97.15
X101.15Y-99.15
X101.15Y-101.15
X101.15Y-103.15
X101.15Y-105.15
X101.15Y-107.15
X101.15Y-108.15
X101.15Y-119.55
X101.25Y-113.95
X101.25Y-115.45
X101.25Y-116.75
X101.25Y-118.05
X101.65Y-72.15
X101.65Y-73.9
X102.05Y-50.95
X102.25Y-108.95
X102.45Y-115.45
X102.65Y-116.65
X103.15Y-97.15
X103.15Y-99.15
X103.15Y-101.15
X103.15Y-103.15
X103.15Y-105.15
X103.15Y-107.15
X103.15Y-108.15
X103.15Y-119.65
X103.15Y-121.65
X103.15Y-123.65
X103.25Y-95.05
X103.3Y-139.24
X103.65Y-72.15
X103.65Y-73.9
X104.485Y-67.685
X104.65Y-110.65
X105.15Y-97.15
X105.15Y-99.15
X105.15Y-101.15
X105.15Y-103.15
X105.15Y-105.15
X105.15Y-107.15
X105.15Y-121.65
X105.15Y-123.65
X105.65Y-72.15
X105.65Y-73.9
X105.75Y-66.05
X107.15Y-97.15
X107.15Y-99.15
X107.15Y-101.15
X107.15Y-103.15
X107.15Y-105.15
X107.15Y-121.65
X107.15Y-123.65
X107.25Y-63.35
X107.65Y-72.15
X107.65Y-73.9
X109.15Y-97.15
X109.15Y-99.15
X109.15Y-101.15
X109.15Y-103.15
X109.15Y-105.15
X109.15Y-107.15
X109.15Y-109.35
X109.15Y-113.65
X109.15Y-115.65
X109.15Y-121.65
X109.15Y-123.65
X109.3Y-95.06
X109.3Y-139.24
X109.65Y-65.75
X109.65Y-72.15
X109.65Y-73.9
X110.15Y-113.65
X110.425Y-54.15
X111.15Y-97.15
X111.15Y-99.15
X111.15Y-101.15
X111.15Y-103.15
X111.15Y-105.15
X111.15Y-107.15
X111.15Y-109.35
X111.15Y-110.65
X111.15Y-112.65
X111.15Y-113.65
X111.15Y-115.65
X111.15Y-117.65
X111.15Y-119.65
X111.15Y-121.65
X111.15Y-123.65
X111.2Y-111.65
X111.65Y-72.15
X111.65Y-73.9
X112.15Y-47.4
X112.55Y-58.25
X113.15Y-97.15
X113.15Y-99.15
X113.15Y-101.15
X113.15Y-103.15
X113.15Y-105.15
X113.15Y-107.15
X113.15Y-109.35
X113.15Y-111.65
X113.15Y-113.65
X113.15Y-115.65
X113.15Y-117.65
X113.15Y-119.65
X113.15Y-121.65
X113.15Y-123.65
X113.65Y-72.15
X113.65Y-73.9
X114.62Y-95.06
X114.62Y-139.24
X115.15Y-97.15
X115.15Y-99.15
X115.15Y-101.15
X115.15Y-103.15
X115.15Y-105.15
X115.15Y-107.15
X115.2Y-66.025
X115.65Y-72.15
X115.65Y-73.9
X116.34Y-95.06
X116.34Y-96.78
X116.34Y-102.1
X116.34Y-114.1
X116.34Y-126.2
X116.34Y-137.52
X116.34Y-139.24
X116.35Y-108.15
X116.35Y-120.25
X116.35Y-132.25
X116.45Y-51.05
X117.65Y-72.15
X117.65Y-73.9
X117.85Y-60.85
X119.65Y-72.15
X119.65Y-73.9
X121.65Y-72.15
X121.65Y-73.9
X123.65Y-72.15
X123.65Y-73.9
X125.65Y-72.15
X125.65Y-73.9
X127.65Y-72.15
X127.65Y-73.9
X129.65Y-72.15
X129.65Y-73.9
X131.65Y-72.15
X131.65Y-73.9
X133.65Y-72.15
X133.65Y-73.9
X135.65Y-72.15
X135.65Y-73.9
X137.65Y-72.15
X137.65Y-73.9
X139.65Y-72.15
X139.65Y-73.9
X141.65Y-72.15
X141.65Y-73.9
X143.65Y-72.15
X143.65Y-73.9
X145.65Y-72.15
X145.65Y-73.9
X147.65Y-72.15
X147.65Y-73.9
X149.65Y-72.15
X149.65Y-73.9
X151.55Y-68.65
X151.65Y-72.15
X151.65Y-73.9
X153.65Y-72.15
X153.65Y-73.9
X155.65Y-72.15
X155.65Y-73.9
X157.65Y-72.15
X157.65Y-73.9
X159.65Y-72.15
X159.65Y-73.9
X161.65Y-72.15
X161.65Y-73.9
X163.45Y-68.85
X163.65Y-72.15
X163.65Y-73.9
X165.65Y-72.15
X165.65Y-73.9
X167.65Y-72.15
X167.65Y-73.9
X169.65Y-72.15
X169.65Y-73.9
X171.65Y-72.15
X171.65Y-73.9
X173.65Y-72.15
X173.65Y-73.9
X175.65Y-72.15
X175.65Y-73.9
X176.35Y-68.75
X176.65Y-73.9
X176.65Y-75.15
X176.65Y-77.15
X176.65Y-79.15
X176.65Y-81.15
X176.65Y-83.15
X176.65Y-85.15
X176.65Y-87.15
X176.65Y-89.15
X176.65Y-91.15
X176.65Y-93.15
X176.65Y-95.15
X176.65Y-97.15
X176.65Y-99.15
X176.65Y-101.15
X176.65Y-103.15
X176.65Y-105.15
X176.65Y-107.15
X176.65Y-109.15
X176.65Y-111.15
X176.65Y-113.15
X176.65Y-115.15
X176.65Y-117.15
X176.65Y-119.15
X176.65Y-121.15
X176.65Y-123.15
X176.65Y-125.15
X176.65Y-127.15
X176.65Y-129.15
X176.65Y-131.15
X176.65Y-133.15
X176.65Y-135.15
X176.65Y-137.15
X176.65Y-139.15
X176.65Y-141.15
X176.65Y-143.15
X177.65Y-72.15
X178.65Y-72.15
X178.65Y-73.15
X178.65Y-75.15
X178.65Y-77.15
X178.65Y-79.15
X178.65Y-81.15
X178.65Y-83.15
X178.65Y-85.15
X178.65Y-87.15
X178.65Y-89.15
X178.65Y-91.15
X178.65Y-93.15
X178.65Y-95.15
X178.65Y-97.15
X178.65Y-99.15
X178.65Y-101.15
X178.65Y-103.15
X178.65Y-105.15
X178.65Y-107.15
X178.65Y-109.15
X178.65Y-111.15
X178.65Y-113.15
X178.65Y-115.15
X178.65Y-117.15
X178.65Y-119.15
X178.65Y-121.15
X178.65Y-123.15
X178.65Y-125.15
X178.65Y-127.15
X178.65Y-129.15
X178.65Y-131.15
X178.65Y-133.15
X178.65Y-135.15
X178.65Y-137.15
X178.65Y-139.15
X178.65Y-141.15
X178.65Y-143.15
X185.125Y-113.25
X185.85Y-112.75
X186.85Y-66.75
X187.45Y-115.65
X189.05Y-120.15
X189.55Y-64.95
X189.55Y-121.65
X190.0Y-118.5
X191.35Y-111.85
X191.65Y-64.65
X193.05Y-71.15
X193.05Y-115.95
X193.05Y-119.05
X193.05Y-121.15
X193.05Y-111.775
X193.125Y-117.25
X193.75Y-112.55
X194.65Y-117.25
X195.35Y-67.15
X195.65Y-64.55
X196.05Y-58.25
X196.125Y-59.95
X196.55Y-64.55
X197.75Y-57.25
X199.55Y-115.85
X199.75Y-73.55
X200.15Y-64.55
X200.65Y-56.25
X202.0Y-106.85
T2
X79.15Y-75.45
X173.85Y-140.45
X79.15Y-67.65
X79.15Y-71.35
T3
X206.18Y-113.59
X206.18Y-116.13
X206.18Y-118.67
X206.18Y-121.21
X206.18Y-123.75
X213.8Y-113.59
X213.8Y-116.13
X213.8Y-118.67
X213.8Y-121.21
X213.8Y-123.75
X206.23Y-59.57
X206.23Y-62.11
X206.23Y-64.65
X206.23Y-67.19
X206.23Y-69.73
X213.85Y-59.57
X213.85Y-62.11
X213.85Y-64.65
X213.85Y-67.19
X213.85Y-69.73
T4
X60.85Y-54.86
X60.85Y-57.4
X60.85Y-59.94
X60.85Y-62.48
X60.85Y-65.02
X60.85Y-67.56
X60.85Y-70.1
X60.85Y-72.64
X60.85Y-75.18
X60.85Y-77.72
X60.85Y-80.26
X60.85Y-82.8
X60.85Y-85.34
X60.85Y-87.88
X60.85Y-90.42
X60.85Y-92.96
X60.85Y-95.5
X60.85Y-98.04
X60.85Y-100.58
X60.85Y-103.12
X60.85Y-105.66
X60.85Y-108.2
X60.85Y-110.74
X60.85Y-113.28
X60.85Y-115.82
X60.85Y-118.36
X60.85Y-120.9
X60.85Y-123.44
X60.85Y-125.98
X60.85Y-128.52
X60.85Y-131.06
X60.85Y-133.6
X65.93Y-54.86
X65.93Y-57.4
X65.93Y-59.94
X65.93Y-62.48
X65.93Y-65.02
X65.93Y-67.56
X65.93Y-70.1
X65.93Y-72.64
X65.93Y-75.18
X65.93Y-77.72
X65.93Y-80.26
X65.93Y-82.8
X65.93Y-85.34
X65.93Y-87.88
X65.93Y-90.42
X65.93Y-92.96
X65.93Y-95.5
X65.93Y-98.04
X65.93Y-100.58
X65.93Y-103.12
X65.93Y-105.66
X65.93Y-108.2
X65.93Y-110.74
X65.93Y-113.28
X65.93Y-115.82
X65.93Y-118.36
X65.93Y-120.9
X65.93Y-123.44
X65.93Y-125.98
X65.93Y-128.52
X65.93Y-131.06
X65.93Y-133.6
T5
X136.537Y-128.377
X136.537Y-130.917
X136.547Y-77.617
X136.547Y-80.157
X139.077Y-128.377
X139.077Y-130.917
X139.087Y-77.617
X139.087Y-80.157
X141.617Y-128.377
X141.617Y-130.917
X141.627Y-77.617
X141.627Y-80.157
X144.157Y-128.377
X144.157Y-130.917
X144.167Y-77.617
X144.167Y-80.157
X146.697Y-128.377
X146.697Y-130.917
X146.707Y-77.617
X146.707Y-80.157
X149.237Y-128.377
X149.237Y-130.917
X149.247Y-77.617
X149.247Y-80.157
X151.777Y-128.377
X151.777Y-130.917
X151.787Y-77.617
X151.787Y-80.157
X154.317Y-128.377
X154.317Y-130.917
X154.327Y-77.617
X154.327Y-80.157
X156.857Y-128.377
X156.857Y-130.917
X156.867Y-77.617
X156.867Y-80.157
X159.397Y-128.377
X159.397Y-130.917
X159.407Y-77.617
X159.407Y-80.157
X161.937Y-128.377
X161.937Y-130.917
X161.947Y-77.617
X161.947Y-80.157
X164.477Y-128.377
X164.477Y-130.917
X164.487Y-77.617
X164.487Y-80.157
X167.017Y-128.377
X167.017Y-130.917
X167.027Y-77.617
X167.027Y-80.157
T6
X157.54Y-65.756
X133.54Y-65.756
X169.54Y-65.756
X90.25Y-51.75
X121.54Y-51.756
X145.54Y-65.756
X90.25Y-88.65
X181.54Y-51.756
X169.54Y-51.756
X181.54Y-65.756
X133.54Y-51.756
X102.15Y-88.65
X157.54Y-51.756
X90.25Y-65.75
X121.54Y-65.756
X145.54Y-51.756
T7
X87.71Y-63.21
X87.71Y-68.29
X92.79Y-63.21
X92.79Y-68.29
X119.0Y-63.216
X119.0Y-68.296
X124.08Y-63.216
X124.08Y-68.296
X143.0Y-49.216
X143.0Y-54.296
X148.08Y-49.216
X148.08Y-54.296
X155.0Y-63.216
X155.0Y-68.296
X160.08Y-63.216
X160.08Y-68.296
X131.0Y-63.216
X131.0Y-68.296
X136.08Y-63.216
X136.08Y-68.296
X167.0Y-63.216
X167.0Y-68.296
X172.08Y-63.216
X172.08Y-68.296
X87.71Y-49.21
X87.71Y-54.29
X92.79Y-49.21
X92.79Y-54.29
X119.0Y-49.216
X119.0Y-54.296
X124.08Y-49.216
X124.08Y-54.296
X143.0Y-63.216
X143.0Y-68.296
X148.08Y-63.216
X148.08Y-68.296
X87.71Y-86.11
X87.71Y-91.19
X92.79Y-86.11
X92.79Y-91.19
X179.0Y-49.216
X179.0Y-54.296
X184.08Y-49.216
X184.08Y-54.296
X167.0Y-49.216
X167.0Y-54.296
X172.08Y-49.216
X172.08Y-54.296
X179.0Y-63.216
X179.0Y-68.296
X184.08Y-63.216
X184.08Y-68.296
X131.0Y-49.216
X131.0Y-54.296
X136.08Y-49.216
X136.08Y-54.296
X99.61Y-86.11
X99.61Y-91.19
X104.69Y-86.11
X104.69Y-91.19
X155.0Y-49.216
X155.0Y-54.296
X160.08Y-49.216
X160.08Y-54.296
T0
M30
