G04 #@! TF.GenerationSoftware,KiCad,Pcbnew,(5.1.5)-3*
G04 #@! TF.CreationDate,2020-09-08T23:04:34+02:00*
G04 #@! TF.ProjectId,RedPitaya_IntStab,52656450-6974-4617-9961-5f496e745374,1.3.2*
G04 #@! TF.SameCoordinates,Original*
G04 #@! TF.FileFunction,Legend,Top*
G04 #@! TF.FilePolarity,Positive*
%FSLAX46Y46*%
G04 Gerber Fmt 4.6, Leading zero omitted, Abs format (unit mm)*
G04 Created by KiCad (PCBNEW (5.1.5)-3) date 2020-09-08 23:04:34*
%MOMM*%
%LPD*%
G04 APERTURE LIST*
%ADD10C,0.150000*%
%ADD11C,0.400000*%
%ADD12C,1.000000*%
%ADD13C,0.120000*%
%ADD14C,0.600000*%
G04 APERTURE END LIST*
D10*
X218000000Y-60200000D02*
X217500000Y-60200000D01*
X218000000Y-59600000D02*
X218000000Y-60200000D01*
X218000000Y-60200000D02*
X218000000Y-59600000D01*
X216900000Y-58300000D02*
X218000000Y-60200000D01*
X216900000Y-56700000D02*
X216900000Y-58300000D01*
X109500000Y-111000000D02*
X109500000Y-110500000D01*
X218000000Y-65000000D02*
X218000000Y-64500000D01*
X217500000Y-64500000D02*
X218000000Y-64500000D01*
X218000000Y-64500000D02*
X217500000Y-64500000D01*
X217500000Y-65000000D02*
X218000000Y-64500000D01*
X216500000Y-118500000D02*
X216000000Y-118500000D01*
X216500000Y-118500000D02*
X216500000Y-119000000D01*
X214500000Y-120500000D02*
X216500000Y-118500000D01*
X214500000Y-122000000D02*
X214500000Y-120500000D01*
X213500000Y-123000000D02*
X214500000Y-122000000D01*
D11*
X157879047Y-138204761D02*
X157212380Y-137252380D01*
X156736190Y-138204761D02*
X156736190Y-136204761D01*
X157498095Y-136204761D01*
X157688571Y-136300000D01*
X157783809Y-136395238D01*
X157879047Y-136585714D01*
X157879047Y-136871428D01*
X157783809Y-137061904D01*
X157688571Y-137157142D01*
X157498095Y-137252380D01*
X156736190Y-137252380D01*
X159498095Y-138109523D02*
X159307619Y-138204761D01*
X158926666Y-138204761D01*
X158736190Y-138109523D01*
X158640952Y-137919047D01*
X158640952Y-137157142D01*
X158736190Y-136966666D01*
X158926666Y-136871428D01*
X159307619Y-136871428D01*
X159498095Y-136966666D01*
X159593333Y-137157142D01*
X159593333Y-137347619D01*
X158640952Y-137538095D01*
X161307619Y-138204761D02*
X161307619Y-136204761D01*
X161307619Y-138109523D02*
X161117142Y-138204761D01*
X160736190Y-138204761D01*
X160545714Y-138109523D01*
X160450476Y-138014285D01*
X160355238Y-137823809D01*
X160355238Y-137252380D01*
X160450476Y-137061904D01*
X160545714Y-136966666D01*
X160736190Y-136871428D01*
X161117142Y-136871428D01*
X161307619Y-136966666D01*
X162260000Y-138204761D02*
X162260000Y-136204761D01*
X163021904Y-136204761D01*
X163212380Y-136300000D01*
X163307619Y-136395238D01*
X163402857Y-136585714D01*
X163402857Y-136871428D01*
X163307619Y-137061904D01*
X163212380Y-137157142D01*
X163021904Y-137252380D01*
X162260000Y-137252380D01*
X164260000Y-138204761D02*
X164260000Y-136871428D01*
X164260000Y-136204761D02*
X164164761Y-136300000D01*
X164260000Y-136395238D01*
X164355238Y-136300000D01*
X164260000Y-136204761D01*
X164260000Y-136395238D01*
X164926666Y-136871428D02*
X165688571Y-136871428D01*
X165212380Y-136204761D02*
X165212380Y-137919047D01*
X165307619Y-138109523D01*
X165498095Y-138204761D01*
X165688571Y-138204761D01*
X167212380Y-138204761D02*
X167212380Y-137157142D01*
X167117142Y-136966666D01*
X166926666Y-136871428D01*
X166545714Y-136871428D01*
X166355238Y-136966666D01*
X167212380Y-138109523D02*
X167021904Y-138204761D01*
X166545714Y-138204761D01*
X166355238Y-138109523D01*
X166260000Y-137919047D01*
X166260000Y-137728571D01*
X166355238Y-137538095D01*
X166545714Y-137442857D01*
X167021904Y-137442857D01*
X167212380Y-137347619D01*
X167974285Y-136871428D02*
X168450476Y-138204761D01*
X168926666Y-136871428D02*
X168450476Y-138204761D01*
X168260000Y-138680952D01*
X168164761Y-138776190D01*
X167974285Y-138871428D01*
X170545714Y-138204761D02*
X170545714Y-137157142D01*
X170450476Y-136966666D01*
X170260000Y-136871428D01*
X169879047Y-136871428D01*
X169688571Y-136966666D01*
X170545714Y-138109523D02*
X170355238Y-138204761D01*
X169879047Y-138204761D01*
X169688571Y-138109523D01*
X169593333Y-137919047D01*
X169593333Y-137728571D01*
X169688571Y-137538095D01*
X169879047Y-137442857D01*
X170355238Y-137442857D01*
X170545714Y-137347619D01*
X173021904Y-138204761D02*
X173021904Y-136204761D01*
X173974285Y-136871428D02*
X173974285Y-138204761D01*
X173974285Y-137061904D02*
X174069523Y-136966666D01*
X174260000Y-136871428D01*
X174545714Y-136871428D01*
X174736190Y-136966666D01*
X174831428Y-137157142D01*
X174831428Y-138204761D01*
X175498095Y-136871428D02*
X176260000Y-136871428D01*
X175783809Y-136204761D02*
X175783809Y-137919047D01*
X175879047Y-138109523D01*
X176069523Y-138204761D01*
X176260000Y-138204761D01*
X176831428Y-138109523D02*
X177117142Y-138204761D01*
X177593333Y-138204761D01*
X177783809Y-138109523D01*
X177879047Y-138014285D01*
X177974285Y-137823809D01*
X177974285Y-137633333D01*
X177879047Y-137442857D01*
X177783809Y-137347619D01*
X177593333Y-137252380D01*
X177212380Y-137157142D01*
X177021904Y-137061904D01*
X176926666Y-136966666D01*
X176831428Y-136776190D01*
X176831428Y-136585714D01*
X176926666Y-136395238D01*
X177021904Y-136300000D01*
X177212380Y-136204761D01*
X177688571Y-136204761D01*
X177974285Y-136300000D01*
X178545714Y-136871428D02*
X179307619Y-136871428D01*
X178831428Y-136204761D02*
X178831428Y-137919047D01*
X178926666Y-138109523D01*
X179117142Y-138204761D01*
X179307619Y-138204761D01*
X180831428Y-138204761D02*
X180831428Y-137157142D01*
X180736190Y-136966666D01*
X180545714Y-136871428D01*
X180164761Y-136871428D01*
X179974285Y-136966666D01*
X180831428Y-138109523D02*
X180640952Y-138204761D01*
X180164761Y-138204761D01*
X179974285Y-138109523D01*
X179879047Y-137919047D01*
X179879047Y-137728571D01*
X179974285Y-137538095D01*
X180164761Y-137442857D01*
X180640952Y-137442857D01*
X180831428Y-137347619D01*
X181783809Y-138204761D02*
X181783809Y-136204761D01*
X181783809Y-136966666D02*
X181974285Y-136871428D01*
X182355238Y-136871428D01*
X182545714Y-136966666D01*
X182640952Y-137061904D01*
X182736190Y-137252380D01*
X182736190Y-137823809D01*
X182640952Y-138014285D01*
X182545714Y-138109523D01*
X182355238Y-138204761D01*
X181974285Y-138204761D01*
X181783809Y-138109523D01*
X156640952Y-139795238D02*
X156736190Y-139700000D01*
X156926666Y-139604761D01*
X157402857Y-139604761D01*
X157593333Y-139700000D01*
X157688571Y-139795238D01*
X157783809Y-139985714D01*
X157783809Y-140176190D01*
X157688571Y-140461904D01*
X156545714Y-141604761D01*
X157783809Y-141604761D01*
X159021904Y-139604761D02*
X159212380Y-139604761D01*
X159402857Y-139700000D01*
X159498095Y-139795238D01*
X159593333Y-139985714D01*
X159688571Y-140366666D01*
X159688571Y-140842857D01*
X159593333Y-141223809D01*
X159498095Y-141414285D01*
X159402857Y-141509523D01*
X159212380Y-141604761D01*
X159021904Y-141604761D01*
X158831428Y-141509523D01*
X158736190Y-141414285D01*
X158640952Y-141223809D01*
X158545714Y-140842857D01*
X158545714Y-140366666D01*
X158640952Y-139985714D01*
X158736190Y-139795238D01*
X158831428Y-139700000D01*
X159021904Y-139604761D01*
X160450476Y-139795238D02*
X160545714Y-139700000D01*
X160736190Y-139604761D01*
X161212380Y-139604761D01*
X161402857Y-139700000D01*
X161498095Y-139795238D01*
X161593333Y-139985714D01*
X161593333Y-140176190D01*
X161498095Y-140461904D01*
X160355238Y-141604761D01*
X161593333Y-141604761D01*
X162831428Y-139604761D02*
X163021904Y-139604761D01*
X163212380Y-139700000D01*
X163307619Y-139795238D01*
X163402857Y-139985714D01*
X163498095Y-140366666D01*
X163498095Y-140842857D01*
X163402857Y-141223809D01*
X163307619Y-141414285D01*
X163212380Y-141509523D01*
X163021904Y-141604761D01*
X162831428Y-141604761D01*
X162640952Y-141509523D01*
X162545714Y-141414285D01*
X162450476Y-141223809D01*
X162355238Y-140842857D01*
X162355238Y-140366666D01*
X162450476Y-139985714D01*
X162545714Y-139795238D01*
X162640952Y-139700000D01*
X162831428Y-139604761D01*
X164355238Y-140842857D02*
X165879047Y-140842857D01*
X167212380Y-139604761D02*
X167402857Y-139604761D01*
X167593333Y-139700000D01*
X167688571Y-139795238D01*
X167783809Y-139985714D01*
X167879047Y-140366666D01*
X167879047Y-140842857D01*
X167783809Y-141223809D01*
X167688571Y-141414285D01*
X167593333Y-141509523D01*
X167402857Y-141604761D01*
X167212380Y-141604761D01*
X167021904Y-141509523D01*
X166926666Y-141414285D01*
X166831428Y-141223809D01*
X166736190Y-140842857D01*
X166736190Y-140366666D01*
X166831428Y-139985714D01*
X166926666Y-139795238D01*
X167021904Y-139700000D01*
X167212380Y-139604761D01*
X168831428Y-141604761D02*
X169212380Y-141604761D01*
X169402857Y-141509523D01*
X169498095Y-141414285D01*
X169688571Y-141128571D01*
X169783809Y-140747619D01*
X169783809Y-139985714D01*
X169688571Y-139795238D01*
X169593333Y-139700000D01*
X169402857Y-139604761D01*
X169021904Y-139604761D01*
X168831428Y-139700000D01*
X168736190Y-139795238D01*
X168640952Y-139985714D01*
X168640952Y-140461904D01*
X168736190Y-140652380D01*
X168831428Y-140747619D01*
X169021904Y-140842857D01*
X169402857Y-140842857D01*
X169593333Y-140747619D01*
X169688571Y-140652380D01*
X169783809Y-140461904D01*
X173307619Y-141604761D02*
X172640952Y-140652380D01*
X172164761Y-141604761D02*
X172164761Y-139604761D01*
X172926666Y-139604761D01*
X173117142Y-139700000D01*
X173212380Y-139795238D01*
X173307619Y-139985714D01*
X173307619Y-140271428D01*
X173212380Y-140461904D01*
X173117142Y-140557142D01*
X172926666Y-140652380D01*
X172164761Y-140652380D01*
X174926666Y-141509523D02*
X174736190Y-141604761D01*
X174355238Y-141604761D01*
X174164761Y-141509523D01*
X174069523Y-141319047D01*
X174069523Y-140557142D01*
X174164761Y-140366666D01*
X174355238Y-140271428D01*
X174736190Y-140271428D01*
X174926666Y-140366666D01*
X175021904Y-140557142D01*
X175021904Y-140747619D01*
X174069523Y-140938095D01*
X175688571Y-140271428D02*
X176164761Y-141604761D01*
X176640952Y-140271428D01*
X177402857Y-141414285D02*
X177498095Y-141509523D01*
X177402857Y-141604761D01*
X177307619Y-141509523D01*
X177402857Y-141414285D01*
X177402857Y-141604761D01*
X180926666Y-141604761D02*
X179783809Y-141604761D01*
X180355238Y-141604761D02*
X180355238Y-139604761D01*
X180164761Y-139890476D01*
X179974285Y-140080952D01*
X179783809Y-140176190D01*
X181783809Y-141414285D02*
X181879047Y-141509523D01*
X181783809Y-141604761D01*
X181688571Y-141509523D01*
X181783809Y-141414285D01*
X181783809Y-141604761D01*
X182545714Y-139604761D02*
X183783809Y-139604761D01*
X183117142Y-140366666D01*
X183402857Y-140366666D01*
X183593333Y-140461904D01*
X183688571Y-140557142D01*
X183783809Y-140747619D01*
X183783809Y-141223809D01*
X183688571Y-141414285D01*
X183593333Y-141509523D01*
X183402857Y-141604761D01*
X182831428Y-141604761D01*
X182640952Y-141509523D01*
X182545714Y-141414285D01*
X184640952Y-141414285D02*
X184736190Y-141509523D01*
X184640952Y-141604761D01*
X184545714Y-141509523D01*
X184640952Y-141414285D01*
X184640952Y-141604761D01*
X185498095Y-139795238D02*
X185593333Y-139700000D01*
X185783809Y-139604761D01*
X186260000Y-139604761D01*
X186450476Y-139700000D01*
X186545714Y-139795238D01*
X186640952Y-139985714D01*
X186640952Y-140176190D01*
X186545714Y-140461904D01*
X185402857Y-141604761D01*
X186640952Y-141604761D01*
D12*
X136904000Y-140700000D02*
G75*
G03X136904000Y-140700000I-254000J0D01*
G01*
X138904000Y-140700000D02*
G75*
G03X138904000Y-140700000I-254000J0D01*
G01*
X140904000Y-140700000D02*
G75*
G03X140904000Y-140700000I-254000J0D01*
G01*
X140904000Y-138700000D02*
G75*
G03X140904000Y-138700000I-254000J0D01*
G01*
X138904000Y-138700000D02*
G75*
G03X138904000Y-138700000I-254000J0D01*
G01*
X136904000Y-138700000D02*
G75*
G03X136904000Y-138700000I-254000J0D01*
G01*
X138904000Y-136700000D02*
G75*
G03X138904000Y-136700000I-254000J0D01*
G01*
X136904000Y-136700000D02*
G75*
G03X136904000Y-136700000I-254000J0D01*
G01*
X140904000Y-136700000D02*
G75*
G03X140904000Y-136700000I-254000J0D01*
G01*
D10*
X211775000Y-121800000D02*
X211775000Y-121775000D01*
X207625000Y-121800000D02*
X207625000Y-121685000D01*
X207625000Y-112900000D02*
X207625000Y-113015000D01*
X211775000Y-112900000D02*
X211775000Y-113015000D01*
X211775000Y-121800000D02*
X207625000Y-121800000D01*
X211775000Y-112900000D02*
X207625000Y-112900000D01*
X211775000Y-121775000D02*
X213150000Y-121775000D01*
D13*
X206150000Y-63600000D02*
X205450000Y-63600000D01*
X205450000Y-62400000D02*
X206150000Y-62400000D01*
D10*
X114725000Y-107975000D02*
X114725000Y-108200000D01*
X118075000Y-107975000D02*
X118075000Y-108275000D01*
X118075000Y-112825000D02*
X118075000Y-112525000D01*
X114725000Y-112825000D02*
X114725000Y-112525000D01*
X114725000Y-107975000D02*
X118075000Y-107975000D01*
X114725000Y-112825000D02*
X118075000Y-112825000D01*
X114725000Y-108200000D02*
X113500000Y-108200000D01*
D13*
X122400000Y-106420000D02*
X123400000Y-106420000D01*
X123400000Y-107780000D02*
X122400000Y-107780000D01*
X121080000Y-107200000D02*
X121080000Y-108200000D01*
X119720000Y-108200000D02*
X119720000Y-107200000D01*
X110000000Y-108620000D02*
X111000000Y-108620000D01*
X111000000Y-109980000D02*
X110000000Y-109980000D01*
X116400000Y-115200000D02*
X119400000Y-115200000D01*
X116400000Y-127800000D02*
X116400000Y-115200000D01*
X119400000Y-127800000D02*
X116400000Y-127800000D01*
X129000000Y-127800000D02*
X126000000Y-127800000D01*
X129000000Y-115200000D02*
X129000000Y-127800000D01*
X126000000Y-115200000D02*
X129000000Y-115200000D01*
X102900000Y-113400000D02*
X99900000Y-113400000D01*
X102900000Y-100800000D02*
X102900000Y-113400000D01*
X99900000Y-100800000D02*
X102900000Y-100800000D01*
X90300000Y-100800000D02*
X93300000Y-100800000D01*
X90300000Y-113400000D02*
X90300000Y-100800000D01*
X93300000Y-113400000D02*
X90300000Y-113400000D01*
X98700000Y-98980000D02*
X97500000Y-98980000D01*
X97500000Y-97220000D02*
X98700000Y-97220000D01*
X76760000Y-140217000D02*
X76760000Y-133867000D01*
X76760000Y-140217000D02*
X71460000Y-140217000D01*
X71460000Y-140217000D02*
X71460000Y-45983000D01*
X71460000Y-45983000D02*
X76760000Y-45983000D01*
X76760000Y-45983000D02*
X76760000Y-52333000D01*
X112320000Y-115900000D02*
X112320000Y-117900000D01*
X115280000Y-117900000D02*
X115280000Y-115900000D01*
X122650000Y-108000000D02*
X123350000Y-108000000D01*
X123350000Y-109200000D02*
X122650000Y-109200000D01*
X120400000Y-112150000D02*
X120400000Y-111450000D01*
X121600000Y-111450000D02*
X121600000Y-112150000D01*
X124500000Y-109750000D02*
X123500000Y-109750000D01*
X123500000Y-111450000D02*
X124500000Y-111450000D01*
X110750000Y-108400000D02*
X110050000Y-108400000D01*
X110050000Y-107200000D02*
X110750000Y-107200000D01*
X112450000Y-112400000D02*
X112450000Y-111400000D01*
X110750000Y-111400000D02*
X110750000Y-112400000D01*
X102200000Y-97350000D02*
X101200000Y-97350000D01*
X101200000Y-99050000D02*
X102200000Y-99050000D01*
X94450000Y-96500000D02*
X94450000Y-97500000D01*
X96150000Y-97500000D02*
X96150000Y-96500000D01*
X186390138Y-67905718D02*
X184390138Y-67905718D01*
X186390138Y-61305718D02*
X184390138Y-61305718D01*
X182090138Y-65605718D02*
X182090138Y-63605718D01*
X188690138Y-65605718D02*
X188690138Y-63605718D01*
X189910138Y-65605718D02*
X189910138Y-63605718D01*
X192870138Y-63605718D02*
X192870138Y-65605718D01*
X138390138Y-53905718D02*
X136390138Y-53905718D01*
X138390138Y-47305718D02*
X136390138Y-47305718D01*
X134090138Y-51605718D02*
X134090138Y-49605718D01*
X140690138Y-51605718D02*
X140690138Y-49605718D01*
X150390138Y-53905718D02*
X148390138Y-53905718D01*
X150390138Y-47305718D02*
X148390138Y-47305718D01*
X146090138Y-51605718D02*
X146090138Y-49605718D01*
X152690138Y-51605718D02*
X152690138Y-49605718D01*
X162390138Y-67905718D02*
X160390138Y-67905718D01*
X162390138Y-61305718D02*
X160390138Y-61305718D01*
X158090138Y-65605718D02*
X158090138Y-63605718D01*
X164690138Y-65605718D02*
X164690138Y-63605718D01*
X198390138Y-67905718D02*
X196390138Y-67905718D01*
X198390138Y-61305718D02*
X196390138Y-61305718D01*
X194090138Y-65605718D02*
X194090138Y-63605718D01*
X200690138Y-65605718D02*
X200690138Y-63605718D01*
X205500000Y-117900000D02*
X205500000Y-118600000D01*
X204300000Y-118600000D02*
X204300000Y-117900000D01*
X214825000Y-117050000D02*
X214825000Y-116350000D01*
X216025000Y-116350000D02*
X216025000Y-117050000D01*
X84470000Y-85000000D02*
X84470000Y-87000000D01*
X87430000Y-87000000D02*
X87430000Y-85000000D01*
X84470000Y-79400000D02*
X84470000Y-81400000D01*
X87430000Y-81400000D02*
X87430000Y-79400000D01*
X94450000Y-84250000D02*
X94450000Y-84950000D01*
X93250000Y-84950000D02*
X93250000Y-84250000D01*
X91250000Y-80950000D02*
X90550000Y-80950000D01*
X90550000Y-79750000D02*
X91250000Y-79750000D01*
X95220000Y-84850000D02*
X95220000Y-86850000D01*
X98180000Y-86850000D02*
X98180000Y-84850000D01*
X95220000Y-79700000D02*
X95220000Y-81700000D01*
X98180000Y-81700000D02*
X98180000Y-79700000D01*
X215650000Y-63075000D02*
X215650000Y-62375000D01*
X216850000Y-62375000D02*
X216850000Y-63075000D01*
X107100000Y-90800000D02*
X105100000Y-90800000D01*
X107100000Y-84200000D02*
X105100000Y-84200000D01*
X102800000Y-88500000D02*
X102800000Y-86500000D01*
X109400000Y-88500000D02*
X109400000Y-86500000D01*
X150390138Y-67905718D02*
X148390138Y-67905718D01*
X150390138Y-61305718D02*
X148390138Y-61305718D01*
X146090138Y-65605718D02*
X146090138Y-63605718D01*
X152690138Y-65605718D02*
X152690138Y-63605718D01*
X138390138Y-67905718D02*
X136390138Y-67905718D01*
X138390138Y-61305718D02*
X136390138Y-61305718D01*
X134090138Y-65605718D02*
X134090138Y-63605718D01*
X140690138Y-65605718D02*
X140690138Y-63605718D01*
X186390138Y-53905718D02*
X184390138Y-53905718D01*
X186390138Y-47305718D02*
X184390138Y-47305718D01*
X182090138Y-51605718D02*
X182090138Y-49605718D01*
X188690138Y-51605718D02*
X188690138Y-49605718D01*
X174390138Y-53905718D02*
X172390138Y-53905718D01*
X174390138Y-47305718D02*
X172390138Y-47305718D01*
X170090138Y-51605718D02*
X170090138Y-49605718D01*
X176690138Y-51605718D02*
X176690138Y-49605718D01*
X124550000Y-54125000D02*
X124550000Y-53425000D01*
X125750000Y-53425000D02*
X125750000Y-54125000D01*
X131650000Y-62500000D02*
X131650000Y-63200000D01*
X130450000Y-63200000D02*
X130450000Y-62500000D01*
X144870138Y-63605718D02*
X144870138Y-65605718D01*
X141910138Y-65605718D02*
X141910138Y-63605718D01*
X198390138Y-53905718D02*
X196390138Y-53905718D01*
X198390138Y-47305718D02*
X196390138Y-47305718D01*
X194090138Y-51605718D02*
X194090138Y-49605718D01*
X200690138Y-51605718D02*
X200690138Y-49605718D01*
X162390138Y-53905718D02*
X160390138Y-53905718D01*
X162390138Y-47305718D02*
X160390138Y-47305718D01*
X158090138Y-51605718D02*
X158090138Y-49605718D01*
X164690138Y-51605718D02*
X164690138Y-49605718D01*
X119000000Y-90800000D02*
X117000000Y-90800000D01*
X119000000Y-84200000D02*
X117000000Y-84200000D01*
X114700000Y-88500000D02*
X114700000Y-86500000D01*
X121300000Y-88500000D02*
X121300000Y-86500000D01*
X210025000Y-123780000D02*
X209025000Y-123780000D01*
X209025000Y-122420000D02*
X210025000Y-122420000D01*
X212200000Y-112130000D02*
X211200000Y-112130000D01*
X211200000Y-110770000D02*
X212200000Y-110770000D01*
X214450000Y-69930000D02*
X213450000Y-69930000D01*
X213450000Y-68570000D02*
X214450000Y-68570000D01*
X213600000Y-57070000D02*
X214600000Y-57070000D01*
X214600000Y-58430000D02*
X213600000Y-58430000D01*
X204950000Y-116555000D02*
X203950000Y-116555000D01*
X203950000Y-115195000D02*
X204950000Y-115195000D01*
X206800000Y-65680000D02*
X205800000Y-65680000D01*
X205800000Y-64320000D02*
X206800000Y-64320000D01*
X189910138Y-51605718D02*
X189910138Y-49605718D01*
X192870138Y-49605718D02*
X192870138Y-51605718D01*
X204320000Y-114075000D02*
X204320000Y-113075000D01*
X205680000Y-113075000D02*
X205680000Y-114075000D01*
X206220000Y-67750000D02*
X206220000Y-66750000D01*
X207580000Y-66750000D02*
X207580000Y-67750000D01*
X141910138Y-51605718D02*
X141910138Y-49605718D01*
X144870138Y-49605718D02*
X144870138Y-51605718D01*
D10*
X213675000Y-67890000D02*
X213675000Y-67865000D01*
X209525000Y-67890000D02*
X209525000Y-67775000D01*
X209525000Y-58990000D02*
X209525000Y-59105000D01*
X213675000Y-58990000D02*
X213675000Y-59105000D01*
X213675000Y-67890000D02*
X209525000Y-67890000D01*
X213675000Y-58990000D02*
X209525000Y-58990000D01*
X213675000Y-67865000D02*
X215050000Y-67865000D01*
D13*
X174390138Y-67905718D02*
X172390138Y-67905718D01*
X174390138Y-61305718D02*
X172390138Y-61305718D01*
X170090138Y-65605718D02*
X170090138Y-63605718D01*
X176690138Y-65605718D02*
X176690138Y-63605718D01*
X203380000Y-63400000D02*
X203380000Y-64400000D01*
X202020000Y-64400000D02*
X202020000Y-63400000D01*
X179980000Y-63400000D02*
X179980000Y-64400000D01*
X178620000Y-64400000D02*
X178620000Y-63400000D01*
X203480000Y-49375000D02*
X203480000Y-50375000D01*
X202120000Y-50375000D02*
X202120000Y-49375000D01*
X178595000Y-51600000D02*
X178595000Y-50600000D01*
X179955000Y-50600000D02*
X179955000Y-51600000D01*
X218500000Y-114880000D02*
X217500000Y-114880000D01*
X217500000Y-113520000D02*
X218500000Y-113520000D01*
X218450000Y-118155000D02*
X217450000Y-118155000D01*
X217450000Y-116795000D02*
X218450000Y-116795000D01*
X218400000Y-120580000D02*
X217400000Y-120580000D01*
X217400000Y-119220000D02*
X218400000Y-119220000D01*
X219200000Y-61880000D02*
X218200000Y-61880000D01*
X218200000Y-60520000D02*
X219200000Y-60520000D01*
X111820000Y-91500000D02*
X111820000Y-90500000D01*
X113180000Y-90500000D02*
X113180000Y-91500000D01*
X123500000Y-89320000D02*
X124500000Y-89320000D01*
X124500000Y-90680000D02*
X123500000Y-90680000D01*
X165970000Y-65825000D02*
X165970000Y-63825000D01*
X168930000Y-63825000D02*
X168930000Y-65825000D01*
X165895000Y-51850000D02*
X165895000Y-49850000D01*
X168855000Y-49850000D02*
X168855000Y-51850000D01*
X218500000Y-111680000D02*
X217500000Y-111680000D01*
X217500000Y-110320000D02*
X218500000Y-110320000D01*
X219200000Y-59180000D02*
X218200000Y-59180000D01*
X218200000Y-57820000D02*
X219200000Y-57820000D01*
X219200000Y-64255000D02*
X218200000Y-64255000D01*
X218200000Y-62895000D02*
X219200000Y-62895000D01*
X219200000Y-66780000D02*
X218200000Y-66780000D01*
X218200000Y-65420000D02*
X219200000Y-65420000D01*
D10*
X126575000Y-59350000D02*
X126625000Y-59350000D01*
X126575000Y-55200000D02*
X126720000Y-55200000D01*
X131725000Y-55200000D02*
X131580000Y-55200000D01*
X131725000Y-59350000D02*
X131580000Y-59350000D01*
X126575000Y-59350000D02*
X126575000Y-55200000D01*
X131725000Y-59350000D02*
X131725000Y-55200000D01*
X126625000Y-59350000D02*
X126625000Y-60750000D01*
D13*
X188477000Y-82662000D02*
X188477000Y-80122000D01*
X188477000Y-82662000D02*
X185937000Y-82662000D01*
X188227000Y-82412000D02*
X188227000Y-73062000D01*
X147047000Y-82412000D02*
X188227000Y-82412000D01*
X147047000Y-73062000D02*
X147047000Y-82412000D01*
X188227000Y-73062000D02*
X147047000Y-73062000D01*
X188467000Y-133422000D02*
X188467000Y-130882000D01*
X188467000Y-133422000D02*
X185927000Y-133422000D01*
X188217000Y-133172000D02*
X188217000Y-123822000D01*
X147037000Y-133172000D02*
X188217000Y-133172000D01*
X147037000Y-123822000D02*
X147037000Y-133172000D01*
X188217000Y-123822000D02*
X147037000Y-123822000D01*
D10*
X146904122Y-76090000D02*
G75*
G03X146904122Y-76090000I-3204122J0D01*
G01*
X146902202Y-130100000D02*
G75*
G03X146902202Y-130100000I-3202202J0D01*
G01*
X230904949Y-76110000D02*
G75*
G03X230904949Y-76110000I-3204949J0D01*
G01*
X230903701Y-130100000D02*
G75*
G03X230903701Y-130100000I-3203701J0D01*
G01*
X231100000Y-72700000D02*
X231100000Y-133500000D01*
X136100000Y-72700000D02*
X231100000Y-72700000D01*
X136100000Y-133500000D02*
X136100000Y-72700000D01*
X231100000Y-133500000D02*
X136100000Y-133500000D01*
D13*
X113180000Y-87000000D02*
X113180000Y-88000000D01*
X111820000Y-88000000D02*
X111820000Y-87000000D01*
X123500000Y-86820000D02*
X124500000Y-86820000D01*
X124500000Y-88180000D02*
X123500000Y-88180000D01*
X231560000Y-124970000D02*
X231560000Y-123700000D01*
X231560000Y-124970000D02*
X228510000Y-124970000D01*
X231360000Y-124770000D02*
X220320000Y-124770000D01*
X220320000Y-124770000D02*
X220320000Y-110270000D01*
X220320000Y-110270000D02*
X231360000Y-110270000D01*
X231360000Y-110270000D02*
X231360000Y-124770000D01*
X233100000Y-123470000D02*
X233100000Y-121730000D01*
X233100000Y-121730000D02*
X231360000Y-121730000D01*
X231360000Y-121730000D02*
X231360000Y-123470000D01*
X231360000Y-123470000D02*
X233100000Y-123470000D01*
X233100000Y-120930000D02*
X233100000Y-119190000D01*
X233100000Y-119190000D02*
X231360000Y-119190000D01*
X231360000Y-119190000D02*
X231360000Y-120930000D01*
X231360000Y-120930000D02*
X233100000Y-120930000D01*
X233100000Y-118390000D02*
X233100000Y-116650000D01*
X233100000Y-116650000D02*
X231360000Y-116650000D01*
X231360000Y-116650000D02*
X231360000Y-118390000D01*
X231360000Y-118390000D02*
X233100000Y-118390000D01*
X233100000Y-115850000D02*
X233100000Y-114110000D01*
X233100000Y-114110000D02*
X231360000Y-114110000D01*
X231360000Y-114110000D02*
X231360000Y-115850000D01*
X231360000Y-115850000D02*
X233100000Y-115850000D01*
X233100000Y-113310000D02*
X233100000Y-111570000D01*
X233100000Y-111570000D02*
X231360000Y-111570000D01*
X231360000Y-111570000D02*
X231360000Y-113310000D01*
X231360000Y-113310000D02*
X233100000Y-113310000D01*
X231610000Y-70950000D02*
X231610000Y-69680000D01*
X231610000Y-70950000D02*
X228560000Y-70950000D01*
X231410000Y-70750000D02*
X220370000Y-70750000D01*
X220370000Y-70750000D02*
X220370000Y-56250000D01*
X220370000Y-56250000D02*
X231410000Y-56250000D01*
X231410000Y-56250000D02*
X231410000Y-70750000D01*
X233150000Y-69450000D02*
X233150000Y-67710000D01*
X233150000Y-67710000D02*
X231410000Y-67710000D01*
X231410000Y-67710000D02*
X231410000Y-69450000D01*
X231410000Y-69450000D02*
X233150000Y-69450000D01*
X233150000Y-66910000D02*
X233150000Y-65170000D01*
X233150000Y-65170000D02*
X231410000Y-65170000D01*
X231410000Y-65170000D02*
X231410000Y-66910000D01*
X231410000Y-66910000D02*
X233150000Y-66910000D01*
X233150000Y-64370000D02*
X233150000Y-62630000D01*
X233150000Y-62630000D02*
X231410000Y-62630000D01*
X231410000Y-62630000D02*
X231410000Y-64370000D01*
X231410000Y-64370000D02*
X233150000Y-64370000D01*
X233150000Y-61830000D02*
X233150000Y-60090000D01*
X233150000Y-60090000D02*
X231410000Y-60090000D01*
X231410000Y-60090000D02*
X231410000Y-61830000D01*
X231410000Y-61830000D02*
X233150000Y-61830000D01*
X233150000Y-59290000D02*
X233150000Y-57550000D01*
X233150000Y-57550000D02*
X231410000Y-57550000D01*
X231410000Y-57550000D02*
X231410000Y-59290000D01*
X231410000Y-59290000D02*
X233150000Y-59290000D01*
X217170000Y-108600000D02*
X217170000Y-107600000D01*
X218530000Y-107600000D02*
X218530000Y-108600000D01*
X219200000Y-55780000D02*
X218200000Y-55780000D01*
X218200000Y-54420000D02*
X219200000Y-54420000D01*
D10*
X92775000Y-85625000D02*
X89800000Y-85625000D01*
X92000000Y-81375000D02*
X89800000Y-81375000D01*
D13*
X118500000Y-51250000D02*
X118500000Y-51950000D01*
X117300000Y-51950000D02*
X117300000Y-51250000D01*
X122200000Y-62550000D02*
X122200000Y-63250000D01*
X121000000Y-63250000D02*
X121000000Y-62550000D01*
X107100000Y-67900000D02*
X105100000Y-67900000D01*
X107100000Y-61300000D02*
X105100000Y-61300000D01*
X102800000Y-65600000D02*
X102800000Y-63600000D01*
X109400000Y-65600000D02*
X109400000Y-63600000D01*
X109400000Y-51600000D02*
X109400000Y-49600000D01*
X102800000Y-51600000D02*
X102800000Y-49600000D01*
X107100000Y-47300000D02*
X105100000Y-47300000D01*
X107100000Y-53900000D02*
X105100000Y-53900000D01*
X110720000Y-65450000D02*
X110720000Y-63450000D01*
X113680000Y-63450000D02*
X113680000Y-65450000D01*
X110720000Y-51900000D02*
X110720000Y-49900000D01*
X113680000Y-49900000D02*
X113680000Y-51900000D01*
D10*
X117175000Y-59275000D02*
X117175000Y-60675000D01*
X122275000Y-59275000D02*
X122275000Y-55125000D01*
X117125000Y-59275000D02*
X117125000Y-55125000D01*
X122275000Y-59275000D02*
X122130000Y-59275000D01*
X122275000Y-55125000D02*
X122130000Y-55125000D01*
X117125000Y-55125000D02*
X117270000Y-55125000D01*
X117125000Y-59275000D02*
X117175000Y-59275000D01*
X132335000Y-133250000D02*
X132335000Y-134850000D01*
X87665000Y-133250000D02*
X87665000Y-134850000D01*
X132335000Y-127250000D02*
X132335000Y-128850000D01*
X87665000Y-127250000D02*
X87665000Y-128850000D01*
X132335000Y-121250000D02*
X132335000Y-122850000D01*
X87665000Y-121250000D02*
X87665000Y-122850000D01*
X132335000Y-115150000D02*
X132335000Y-116850000D01*
X87665000Y-115150000D02*
X87665000Y-116850000D01*
X132335000Y-109150000D02*
X132335000Y-110750000D01*
X87665000Y-109150000D02*
X87665000Y-110750000D01*
X132335000Y-103150000D02*
X132335000Y-104750000D01*
X87665000Y-103150000D02*
X87665000Y-104750000D01*
X132335000Y-97150000D02*
X132335000Y-98750000D01*
X87665000Y-97150000D02*
X87665000Y-98750000D01*
X127250000Y-138335000D02*
X128850000Y-138335000D01*
X127250000Y-93665000D02*
X128850000Y-93665000D01*
X121250000Y-138335000D02*
X122850000Y-138335000D01*
X121250000Y-93665000D02*
X122850000Y-93665000D01*
X115250000Y-138335000D02*
X116850000Y-138335000D01*
X115250000Y-93665000D02*
X116850000Y-93665000D01*
X109150000Y-138335000D02*
X110850000Y-138335000D01*
X109150000Y-93665000D02*
X110850000Y-93665000D01*
X103150000Y-138335000D02*
X104750000Y-138335000D01*
X103150000Y-93665000D02*
X104750000Y-93665000D01*
X97150000Y-138335000D02*
X98750000Y-138335000D01*
X97150000Y-93665000D02*
X98750000Y-93665000D01*
X91150000Y-138335000D02*
X92750000Y-138335000D01*
X91150000Y-93665000D02*
X92750000Y-93665000D01*
D13*
X128050000Y-66800000D02*
X128750000Y-66800000D01*
X128750000Y-68000000D02*
X128050000Y-68000000D01*
X131900000Y-51950000D02*
X131900000Y-51250000D01*
X133100000Y-51250000D02*
X133100000Y-51950000D01*
X130900000Y-66720000D02*
X131900000Y-66720000D01*
X131900000Y-68080000D02*
X130900000Y-68080000D01*
X131680000Y-48300000D02*
X131680000Y-49300000D01*
X130320000Y-49300000D02*
X130320000Y-48300000D01*
X127400000Y-63920000D02*
X128400000Y-63920000D01*
X128400000Y-65280000D02*
X127400000Y-65280000D01*
X127320000Y-49300000D02*
X127320000Y-48300000D01*
X128680000Y-48300000D02*
X128680000Y-49300000D01*
X128400000Y-63080000D02*
X127400000Y-63080000D01*
X127400000Y-61720000D02*
X128400000Y-61720000D01*
X127800000Y-51720000D02*
X128800000Y-51720000D01*
X128800000Y-53080000D02*
X127800000Y-53080000D01*
D14*
X142757619Y-139593333D02*
X144852857Y-139593333D01*
X142338571Y-140850476D02*
X143805238Y-136450476D01*
X145271904Y-140850476D01*
X146738571Y-140850476D02*
X146738571Y-136450476D01*
X148414761Y-136450476D01*
X148833809Y-136660000D01*
X149043333Y-136869523D01*
X149252857Y-137288571D01*
X149252857Y-137917142D01*
X149043333Y-138336190D01*
X148833809Y-138545714D01*
X148414761Y-138755238D01*
X146738571Y-138755238D01*
X154071904Y-141269523D02*
X153652857Y-141060000D01*
X153233809Y-140640952D01*
X152605238Y-140012380D01*
X152186190Y-139802857D01*
X151767142Y-139802857D01*
X151976666Y-140850476D02*
X151557619Y-140640952D01*
X151138571Y-140221904D01*
X150929047Y-139383809D01*
X150929047Y-137917142D01*
X151138571Y-137079047D01*
X151557619Y-136660000D01*
X151976666Y-136450476D01*
X152814761Y-136450476D01*
X153233809Y-136660000D01*
X153652857Y-137079047D01*
X153862380Y-137917142D01*
X153862380Y-139383809D01*
X153652857Y-140221904D01*
X153233809Y-140640952D01*
X152814761Y-140850476D01*
X151976666Y-140850476D01*
D10*
X207938095Y-111402380D02*
X207938095Y-112211904D01*
X207985714Y-112307142D01*
X208033333Y-112354761D01*
X208128571Y-112402380D01*
X208319047Y-112402380D01*
X208414285Y-112354761D01*
X208461904Y-112307142D01*
X208509523Y-112211904D01*
X208509523Y-111402380D01*
X209414285Y-111735714D02*
X209414285Y-112402380D01*
X209176190Y-111354761D02*
X208938095Y-112069047D01*
X209557142Y-112069047D01*
X205633333Y-61857142D02*
X205585714Y-61904761D01*
X205442857Y-61952380D01*
X205347619Y-61952380D01*
X205204761Y-61904761D01*
X205109523Y-61809523D01*
X205061904Y-61714285D01*
X205014285Y-61523809D01*
X205014285Y-61380952D01*
X205061904Y-61190476D01*
X205109523Y-61095238D01*
X205204761Y-61000000D01*
X205347619Y-60952380D01*
X205442857Y-60952380D01*
X205585714Y-61000000D01*
X205633333Y-61047619D01*
X206204761Y-61380952D02*
X206109523Y-61333333D01*
X206061904Y-61285714D01*
X206014285Y-61190476D01*
X206014285Y-61142857D01*
X206061904Y-61047619D01*
X206109523Y-61000000D01*
X206204761Y-60952380D01*
X206395238Y-60952380D01*
X206490476Y-61000000D01*
X206538095Y-61047619D01*
X206585714Y-61142857D01*
X206585714Y-61190476D01*
X206538095Y-61285714D01*
X206490476Y-61333333D01*
X206395238Y-61380952D01*
X206204761Y-61380952D01*
X206109523Y-61428571D01*
X206061904Y-61476190D01*
X206014285Y-61571428D01*
X206014285Y-61761904D01*
X206061904Y-61857142D01*
X206109523Y-61904761D01*
X206204761Y-61952380D01*
X206395238Y-61952380D01*
X206490476Y-61904761D01*
X206538095Y-61857142D01*
X206585714Y-61761904D01*
X206585714Y-61571428D01*
X206538095Y-61476190D01*
X206490476Y-61428571D01*
X206395238Y-61380952D01*
X115638095Y-106502380D02*
X115638095Y-107311904D01*
X115685714Y-107407142D01*
X115733333Y-107454761D01*
X115828571Y-107502380D01*
X116019047Y-107502380D01*
X116114285Y-107454761D01*
X116161904Y-107407142D01*
X116209523Y-107311904D01*
X116209523Y-106502380D01*
X116733333Y-107502380D02*
X116923809Y-107502380D01*
X117019047Y-107454761D01*
X117066666Y-107407142D01*
X117161904Y-107264285D01*
X117209523Y-107073809D01*
X117209523Y-106692857D01*
X117161904Y-106597619D01*
X117114285Y-106550000D01*
X117019047Y-106502380D01*
X116828571Y-106502380D01*
X116733333Y-106550000D01*
X116685714Y-106597619D01*
X116638095Y-106692857D01*
X116638095Y-106930952D01*
X116685714Y-107026190D01*
X116733333Y-107073809D01*
X116828571Y-107121428D01*
X117019047Y-107121428D01*
X117114285Y-107073809D01*
X117161904Y-107026190D01*
X117209523Y-106930952D01*
X122257142Y-105952380D02*
X121923809Y-105476190D01*
X121685714Y-105952380D02*
X121685714Y-104952380D01*
X122066666Y-104952380D01*
X122161904Y-105000000D01*
X122209523Y-105047619D01*
X122257142Y-105142857D01*
X122257142Y-105285714D01*
X122209523Y-105380952D01*
X122161904Y-105428571D01*
X122066666Y-105476190D01*
X121685714Y-105476190D01*
X122590476Y-104952380D02*
X123209523Y-104952380D01*
X122876190Y-105333333D01*
X123019047Y-105333333D01*
X123114285Y-105380952D01*
X123161904Y-105428571D01*
X123209523Y-105523809D01*
X123209523Y-105761904D01*
X123161904Y-105857142D01*
X123114285Y-105904761D01*
X123019047Y-105952380D01*
X122733333Y-105952380D01*
X122638095Y-105904761D01*
X122590476Y-105857142D01*
X124066666Y-104952380D02*
X123876190Y-104952380D01*
X123780952Y-105000000D01*
X123733333Y-105047619D01*
X123638095Y-105190476D01*
X123590476Y-105380952D01*
X123590476Y-105761904D01*
X123638095Y-105857142D01*
X123685714Y-105904761D01*
X123780952Y-105952380D01*
X123971428Y-105952380D01*
X124066666Y-105904761D01*
X124114285Y-105857142D01*
X124161904Y-105761904D01*
X124161904Y-105523809D01*
X124114285Y-105428571D01*
X124066666Y-105380952D01*
X123971428Y-105333333D01*
X123780952Y-105333333D01*
X123685714Y-105380952D01*
X123638095Y-105428571D01*
X123590476Y-105523809D01*
X120952380Y-105142857D02*
X120476190Y-105476190D01*
X120952380Y-105714285D02*
X119952380Y-105714285D01*
X119952380Y-105333333D01*
X120000000Y-105238095D01*
X120047619Y-105190476D01*
X120142857Y-105142857D01*
X120285714Y-105142857D01*
X120380952Y-105190476D01*
X120428571Y-105238095D01*
X120476190Y-105333333D01*
X120476190Y-105714285D01*
X119952380Y-104809523D02*
X119952380Y-104190476D01*
X120333333Y-104523809D01*
X120333333Y-104380952D01*
X120380952Y-104285714D01*
X120428571Y-104238095D01*
X120523809Y-104190476D01*
X120761904Y-104190476D01*
X120857142Y-104238095D01*
X120904761Y-104285714D01*
X120952380Y-104380952D01*
X120952380Y-104666666D01*
X120904761Y-104761904D01*
X120857142Y-104809523D01*
X119952380Y-103285714D02*
X119952380Y-103761904D01*
X120428571Y-103809523D01*
X120380952Y-103761904D01*
X120333333Y-103666666D01*
X120333333Y-103428571D01*
X120380952Y-103333333D01*
X120428571Y-103285714D01*
X120523809Y-103238095D01*
X120761904Y-103238095D01*
X120857142Y-103285714D01*
X120904761Y-103333333D01*
X120952380Y-103428571D01*
X120952380Y-103666666D01*
X120904761Y-103761904D01*
X120857142Y-103809523D01*
X109952380Y-113142857D02*
X109476190Y-113476190D01*
X109952380Y-113714285D02*
X108952380Y-113714285D01*
X108952380Y-113333333D01*
X109000000Y-113238095D01*
X109047619Y-113190476D01*
X109142857Y-113142857D01*
X109285714Y-113142857D01*
X109380952Y-113190476D01*
X109428571Y-113238095D01*
X109476190Y-113333333D01*
X109476190Y-113714285D01*
X108952380Y-112809523D02*
X108952380Y-112190476D01*
X109333333Y-112523809D01*
X109333333Y-112380952D01*
X109380952Y-112285714D01*
X109428571Y-112238095D01*
X109523809Y-112190476D01*
X109761904Y-112190476D01*
X109857142Y-112238095D01*
X109904761Y-112285714D01*
X109952380Y-112380952D01*
X109952380Y-112666666D01*
X109904761Y-112761904D01*
X109857142Y-112809523D01*
X109285714Y-111333333D02*
X109952380Y-111333333D01*
X108904761Y-111571428D02*
X109619047Y-111809523D01*
X109619047Y-111190476D01*
X115752380Y-121666666D02*
X115752380Y-122142857D01*
X114752380Y-122142857D01*
X114752380Y-121428571D02*
X114752380Y-120809523D01*
X115133333Y-121142857D01*
X115133333Y-121000000D01*
X115180952Y-120904761D01*
X115228571Y-120857142D01*
X115323809Y-120809523D01*
X115561904Y-120809523D01*
X115657142Y-120857142D01*
X115704761Y-120904761D01*
X115752380Y-121000000D01*
X115752380Y-121285714D01*
X115704761Y-121380952D01*
X115657142Y-121428571D01*
X104452380Y-112066666D02*
X104452380Y-112542857D01*
X103452380Y-112542857D01*
X103547619Y-111780952D02*
X103500000Y-111733333D01*
X103452380Y-111638095D01*
X103452380Y-111400000D01*
X103500000Y-111304761D01*
X103547619Y-111257142D01*
X103642857Y-111209523D01*
X103738095Y-111209523D01*
X103880952Y-111257142D01*
X104452380Y-111828571D01*
X104452380Y-111209523D01*
X97933333Y-96452380D02*
X97457142Y-96452380D01*
X97457142Y-95452380D01*
X98790476Y-96452380D02*
X98219047Y-96452380D01*
X98504761Y-96452380D02*
X98504761Y-95452380D01*
X98409523Y-95595238D01*
X98314285Y-95690476D01*
X98219047Y-95738095D01*
X85356380Y-94068333D02*
X86070666Y-94068333D01*
X86213523Y-94115952D01*
X86308761Y-94211190D01*
X86356380Y-94354047D01*
X86356380Y-94449285D01*
X86356380Y-93068333D02*
X86356380Y-93639761D01*
X86356380Y-93354047D02*
X85356380Y-93354047D01*
X85499238Y-93449285D01*
X85594476Y-93544523D01*
X85642095Y-93639761D01*
X114057142Y-121642857D02*
X114104761Y-121690476D01*
X114152380Y-121833333D01*
X114152380Y-121928571D01*
X114104761Y-122071428D01*
X114009523Y-122166666D01*
X113914285Y-122214285D01*
X113723809Y-122261904D01*
X113580952Y-122261904D01*
X113390476Y-122214285D01*
X113295238Y-122166666D01*
X113200000Y-122071428D01*
X113152380Y-121928571D01*
X113152380Y-121833333D01*
X113200000Y-121690476D01*
X113247619Y-121642857D01*
X113152380Y-121309523D02*
X113152380Y-120690476D01*
X113533333Y-121023809D01*
X113533333Y-120880952D01*
X113580952Y-120785714D01*
X113628571Y-120738095D01*
X113723809Y-120690476D01*
X113961904Y-120690476D01*
X114057142Y-120738095D01*
X114104761Y-120785714D01*
X114152380Y-120880952D01*
X114152380Y-121166666D01*
X114104761Y-121261904D01*
X114057142Y-121309523D01*
X113152380Y-120357142D02*
X113152380Y-119738095D01*
X113533333Y-120071428D01*
X113533333Y-119928571D01*
X113580952Y-119833333D01*
X113628571Y-119785714D01*
X113723809Y-119738095D01*
X113961904Y-119738095D01*
X114057142Y-119785714D01*
X114104761Y-119833333D01*
X114152380Y-119928571D01*
X114152380Y-120214285D01*
X114104761Y-120309523D01*
X114057142Y-120357142D01*
X125257142Y-109057142D02*
X125209523Y-109104761D01*
X125066666Y-109152380D01*
X124971428Y-109152380D01*
X124828571Y-109104761D01*
X124733333Y-109009523D01*
X124685714Y-108914285D01*
X124638095Y-108723809D01*
X124638095Y-108580952D01*
X124685714Y-108390476D01*
X124733333Y-108295238D01*
X124828571Y-108200000D01*
X124971428Y-108152380D01*
X125066666Y-108152380D01*
X125209523Y-108200000D01*
X125257142Y-108247619D01*
X125590476Y-108152380D02*
X126209523Y-108152380D01*
X125876190Y-108533333D01*
X126019047Y-108533333D01*
X126114285Y-108580952D01*
X126161904Y-108628571D01*
X126209523Y-108723809D01*
X126209523Y-108961904D01*
X126161904Y-109057142D01*
X126114285Y-109104761D01*
X126019047Y-109152380D01*
X125733333Y-109152380D01*
X125638095Y-109104761D01*
X125590476Y-109057142D01*
X126590476Y-108247619D02*
X126638095Y-108200000D01*
X126733333Y-108152380D01*
X126971428Y-108152380D01*
X127066666Y-108200000D01*
X127114285Y-108247619D01*
X127161904Y-108342857D01*
X127161904Y-108438095D01*
X127114285Y-108580952D01*
X126542857Y-109152380D01*
X127161904Y-109152380D01*
X120357142Y-114257142D02*
X120309523Y-114304761D01*
X120166666Y-114352380D01*
X120071428Y-114352380D01*
X119928571Y-114304761D01*
X119833333Y-114209523D01*
X119785714Y-114114285D01*
X119738095Y-113923809D01*
X119738095Y-113780952D01*
X119785714Y-113590476D01*
X119833333Y-113495238D01*
X119928571Y-113400000D01*
X120071428Y-113352380D01*
X120166666Y-113352380D01*
X120309523Y-113400000D01*
X120357142Y-113447619D01*
X120690476Y-113352380D02*
X121309523Y-113352380D01*
X120976190Y-113733333D01*
X121119047Y-113733333D01*
X121214285Y-113780952D01*
X121261904Y-113828571D01*
X121309523Y-113923809D01*
X121309523Y-114161904D01*
X121261904Y-114257142D01*
X121214285Y-114304761D01*
X121119047Y-114352380D01*
X120833333Y-114352380D01*
X120738095Y-114304761D01*
X120690476Y-114257142D01*
X122261904Y-114352380D02*
X121690476Y-114352380D01*
X121976190Y-114352380D02*
X121976190Y-113352380D01*
X121880952Y-113495238D01*
X121785714Y-113590476D01*
X121690476Y-113638095D01*
X123357142Y-112857142D02*
X123309523Y-112904761D01*
X123166666Y-112952380D01*
X123071428Y-112952380D01*
X122928571Y-112904761D01*
X122833333Y-112809523D01*
X122785714Y-112714285D01*
X122738095Y-112523809D01*
X122738095Y-112380952D01*
X122785714Y-112190476D01*
X122833333Y-112095238D01*
X122928571Y-112000000D01*
X123071428Y-111952380D01*
X123166666Y-111952380D01*
X123309523Y-112000000D01*
X123357142Y-112047619D01*
X123690476Y-111952380D02*
X124309523Y-111952380D01*
X123976190Y-112333333D01*
X124119047Y-112333333D01*
X124214285Y-112380952D01*
X124261904Y-112428571D01*
X124309523Y-112523809D01*
X124309523Y-112761904D01*
X124261904Y-112857142D01*
X124214285Y-112904761D01*
X124119047Y-112952380D01*
X123833333Y-112952380D01*
X123738095Y-112904761D01*
X123690476Y-112857142D01*
X124928571Y-111952380D02*
X125023809Y-111952380D01*
X125119047Y-112000000D01*
X125166666Y-112047619D01*
X125214285Y-112142857D01*
X125261904Y-112333333D01*
X125261904Y-112571428D01*
X125214285Y-112761904D01*
X125166666Y-112857142D01*
X125119047Y-112904761D01*
X125023809Y-112952380D01*
X124928571Y-112952380D01*
X124833333Y-112904761D01*
X124785714Y-112857142D01*
X124738095Y-112761904D01*
X124690476Y-112571428D01*
X124690476Y-112333333D01*
X124738095Y-112142857D01*
X124785714Y-112047619D01*
X124833333Y-112000000D01*
X124928571Y-111952380D01*
X109757142Y-106657142D02*
X109709523Y-106704761D01*
X109566666Y-106752380D01*
X109471428Y-106752380D01*
X109328571Y-106704761D01*
X109233333Y-106609523D01*
X109185714Y-106514285D01*
X109138095Y-106323809D01*
X109138095Y-106180952D01*
X109185714Y-105990476D01*
X109233333Y-105895238D01*
X109328571Y-105800000D01*
X109471428Y-105752380D01*
X109566666Y-105752380D01*
X109709523Y-105800000D01*
X109757142Y-105847619D01*
X110138095Y-105847619D02*
X110185714Y-105800000D01*
X110280952Y-105752380D01*
X110519047Y-105752380D01*
X110614285Y-105800000D01*
X110661904Y-105847619D01*
X110709523Y-105942857D01*
X110709523Y-106038095D01*
X110661904Y-106180952D01*
X110090476Y-106752380D01*
X110709523Y-106752380D01*
X111185714Y-106752380D02*
X111376190Y-106752380D01*
X111471428Y-106704761D01*
X111519047Y-106657142D01*
X111614285Y-106514285D01*
X111661904Y-106323809D01*
X111661904Y-105942857D01*
X111614285Y-105847619D01*
X111566666Y-105800000D01*
X111471428Y-105752380D01*
X111280952Y-105752380D01*
X111185714Y-105800000D01*
X111138095Y-105847619D01*
X111090476Y-105942857D01*
X111090476Y-106180952D01*
X111138095Y-106276190D01*
X111185714Y-106323809D01*
X111280952Y-106371428D01*
X111471428Y-106371428D01*
X111566666Y-106323809D01*
X111614285Y-106276190D01*
X111661904Y-106180952D01*
X111857142Y-116142857D02*
X111904761Y-116190476D01*
X111952380Y-116333333D01*
X111952380Y-116428571D01*
X111904761Y-116571428D01*
X111809523Y-116666666D01*
X111714285Y-116714285D01*
X111523809Y-116761904D01*
X111380952Y-116761904D01*
X111190476Y-116714285D01*
X111095238Y-116666666D01*
X111000000Y-116571428D01*
X110952380Y-116428571D01*
X110952380Y-116333333D01*
X111000000Y-116190476D01*
X111047619Y-116142857D01*
X111047619Y-115761904D02*
X111000000Y-115714285D01*
X110952380Y-115619047D01*
X110952380Y-115380952D01*
X111000000Y-115285714D01*
X111047619Y-115238095D01*
X111142857Y-115190476D01*
X111238095Y-115190476D01*
X111380952Y-115238095D01*
X111952380Y-115809523D01*
X111952380Y-115190476D01*
X111380952Y-114619047D02*
X111333333Y-114714285D01*
X111285714Y-114761904D01*
X111190476Y-114809523D01*
X111142857Y-114809523D01*
X111047619Y-114761904D01*
X111000000Y-114714285D01*
X110952380Y-114619047D01*
X110952380Y-114428571D01*
X111000000Y-114333333D01*
X111047619Y-114285714D01*
X111142857Y-114238095D01*
X111190476Y-114238095D01*
X111285714Y-114285714D01*
X111333333Y-114333333D01*
X111380952Y-114428571D01*
X111380952Y-114619047D01*
X111428571Y-114714285D01*
X111476190Y-114761904D01*
X111571428Y-114809523D01*
X111761904Y-114809523D01*
X111857142Y-114761904D01*
X111904761Y-114714285D01*
X111952380Y-114619047D01*
X111952380Y-114428571D01*
X111904761Y-114333333D01*
X111857142Y-114285714D01*
X111761904Y-114238095D01*
X111571428Y-114238095D01*
X111476190Y-114285714D01*
X111428571Y-114333333D01*
X111380952Y-114428571D01*
X101057142Y-96757142D02*
X101009523Y-96804761D01*
X100866666Y-96852380D01*
X100771428Y-96852380D01*
X100628571Y-96804761D01*
X100533333Y-96709523D01*
X100485714Y-96614285D01*
X100438095Y-96423809D01*
X100438095Y-96280952D01*
X100485714Y-96090476D01*
X100533333Y-95995238D01*
X100628571Y-95900000D01*
X100771428Y-95852380D01*
X100866666Y-95852380D01*
X101009523Y-95900000D01*
X101057142Y-95947619D01*
X101438095Y-95947619D02*
X101485714Y-95900000D01*
X101580952Y-95852380D01*
X101819047Y-95852380D01*
X101914285Y-95900000D01*
X101961904Y-95947619D01*
X102009523Y-96042857D01*
X102009523Y-96138095D01*
X101961904Y-96280952D01*
X101390476Y-96852380D01*
X102009523Y-96852380D01*
X102342857Y-95852380D02*
X103009523Y-95852380D01*
X102580952Y-96852380D01*
X93857142Y-97742857D02*
X93904761Y-97790476D01*
X93952380Y-97933333D01*
X93952380Y-98028571D01*
X93904761Y-98171428D01*
X93809523Y-98266666D01*
X93714285Y-98314285D01*
X93523809Y-98361904D01*
X93380952Y-98361904D01*
X93190476Y-98314285D01*
X93095238Y-98266666D01*
X93000000Y-98171428D01*
X92952380Y-98028571D01*
X92952380Y-97933333D01*
X93000000Y-97790476D01*
X93047619Y-97742857D01*
X93047619Y-97361904D02*
X93000000Y-97314285D01*
X92952380Y-97219047D01*
X92952380Y-96980952D01*
X93000000Y-96885714D01*
X93047619Y-96838095D01*
X93142857Y-96790476D01*
X93238095Y-96790476D01*
X93380952Y-96838095D01*
X93952380Y-97409523D01*
X93952380Y-96790476D01*
X92952380Y-95933333D02*
X92952380Y-96123809D01*
X93000000Y-96219047D01*
X93047619Y-96266666D01*
X93190476Y-96361904D01*
X93380952Y-96409523D01*
X93761904Y-96409523D01*
X93857142Y-96361904D01*
X93904761Y-96314285D01*
X93952380Y-96219047D01*
X93952380Y-96028571D01*
X93904761Y-95933333D01*
X93857142Y-95885714D01*
X93761904Y-95838095D01*
X93523809Y-95838095D01*
X93428571Y-95885714D01*
X93380952Y-95933333D01*
X93333333Y-96028571D01*
X93333333Y-96219047D01*
X93380952Y-96314285D01*
X93428571Y-96361904D01*
X93523809Y-96409523D01*
X181913947Y-60058098D02*
X181913947Y-59058098D01*
X182294899Y-59058098D01*
X182390138Y-59105718D01*
X182437757Y-59153337D01*
X182485376Y-59248575D01*
X182485376Y-59391432D01*
X182437757Y-59486670D01*
X182390138Y-59534289D01*
X182294899Y-59581908D01*
X181913947Y-59581908D01*
X182913947Y-60058098D02*
X182913947Y-59058098D01*
X183152042Y-59058098D01*
X183294899Y-59105718D01*
X183390138Y-59200956D01*
X183437757Y-59296194D01*
X183485376Y-59486670D01*
X183485376Y-59629527D01*
X183437757Y-59820003D01*
X183390138Y-59915241D01*
X183294899Y-60010479D01*
X183152042Y-60058098D01*
X182913947Y-60058098D01*
X183675852Y-60153337D02*
X184437757Y-60153337D01*
X184675852Y-60058098D02*
X184675852Y-59058098D01*
X185009185Y-59772384D01*
X185342518Y-59058098D01*
X185342518Y-60058098D01*
X185961566Y-60058098D02*
X185866328Y-60010479D01*
X185818709Y-59962860D01*
X185771090Y-59867622D01*
X185771090Y-59581908D01*
X185818709Y-59486670D01*
X185866328Y-59439051D01*
X185961566Y-59391432D01*
X186104423Y-59391432D01*
X186199661Y-59439051D01*
X186247280Y-59486670D01*
X186294899Y-59581908D01*
X186294899Y-59867622D01*
X186247280Y-59962860D01*
X186199661Y-60010479D01*
X186104423Y-60058098D01*
X185961566Y-60058098D01*
X186723471Y-59391432D02*
X186723471Y-60058098D01*
X186723471Y-59486670D02*
X186771090Y-59439051D01*
X186866328Y-59391432D01*
X187009185Y-59391432D01*
X187104423Y-59439051D01*
X187152042Y-59534289D01*
X187152042Y-60058098D01*
X187390138Y-60153337D02*
X188152042Y-60153337D01*
X188913947Y-60058098D02*
X188342518Y-60058098D01*
X188628233Y-60058098D02*
X188628233Y-59058098D01*
X188532995Y-59200956D01*
X188437757Y-59296194D01*
X188342518Y-59343813D01*
X191952380Y-61142857D02*
X191476190Y-61476190D01*
X191952380Y-61714285D02*
X190952380Y-61714285D01*
X190952380Y-61333333D01*
X191000000Y-61238095D01*
X191047619Y-61190476D01*
X191142857Y-61142857D01*
X191285714Y-61142857D01*
X191380952Y-61190476D01*
X191428571Y-61238095D01*
X191476190Y-61333333D01*
X191476190Y-61714285D01*
X191952380Y-60190476D02*
X191952380Y-60761904D01*
X191952380Y-60476190D02*
X190952380Y-60476190D01*
X191095238Y-60571428D01*
X191190476Y-60666666D01*
X191238095Y-60761904D01*
X191380952Y-59619047D02*
X191333333Y-59714285D01*
X191285714Y-59761904D01*
X191190476Y-59809523D01*
X191142857Y-59809523D01*
X191047619Y-59761904D01*
X191000000Y-59714285D01*
X190952380Y-59619047D01*
X190952380Y-59428571D01*
X191000000Y-59333333D01*
X191047619Y-59285714D01*
X191142857Y-59238095D01*
X191190476Y-59238095D01*
X191285714Y-59285714D01*
X191333333Y-59333333D01*
X191380952Y-59428571D01*
X191380952Y-59619047D01*
X191428571Y-59714285D01*
X191476190Y-59761904D01*
X191571428Y-59809523D01*
X191761904Y-59809523D01*
X191857142Y-59761904D01*
X191904761Y-59714285D01*
X191952380Y-59619047D01*
X191952380Y-59428571D01*
X191904761Y-59333333D01*
X191857142Y-59285714D01*
X191761904Y-59238095D01*
X191571428Y-59238095D01*
X191476190Y-59285714D01*
X191428571Y-59333333D01*
X191380952Y-59428571D01*
X136628233Y-45105718D02*
X136532995Y-45058098D01*
X136390138Y-45058098D01*
X136247280Y-45105718D01*
X136152042Y-45200956D01*
X136104423Y-45296194D01*
X136056804Y-45486670D01*
X136056804Y-45629527D01*
X136104423Y-45820003D01*
X136152042Y-45915241D01*
X136247280Y-46010479D01*
X136390138Y-46058098D01*
X136485376Y-46058098D01*
X136628233Y-46010479D01*
X136675852Y-45962860D01*
X136675852Y-45629527D01*
X136485376Y-45629527D01*
X137104423Y-46058098D02*
X137104423Y-45058098D01*
X137675852Y-46058098D01*
X137675852Y-45058098D01*
X138152042Y-46058098D02*
X138152042Y-45058098D01*
X138390138Y-45058098D01*
X138532995Y-45105718D01*
X138628233Y-45200956D01*
X138675852Y-45296194D01*
X138723471Y-45486670D01*
X138723471Y-45629527D01*
X138675852Y-45820003D01*
X138628233Y-45915241D01*
X138532995Y-46010479D01*
X138390138Y-46058098D01*
X138152042Y-46058098D01*
X146913947Y-45962860D02*
X146866328Y-46010479D01*
X146723471Y-46058098D01*
X146628233Y-46058098D01*
X146485376Y-46010479D01*
X146390138Y-45915241D01*
X146342518Y-45820003D01*
X146294899Y-45629527D01*
X146294899Y-45486670D01*
X146342518Y-45296194D01*
X146390138Y-45200956D01*
X146485376Y-45105718D01*
X146628233Y-45058098D01*
X146723471Y-45058098D01*
X146866328Y-45105718D01*
X146913947Y-45153337D01*
X147199661Y-45391432D02*
X147580614Y-45391432D01*
X147342518Y-45058098D02*
X147342518Y-45915241D01*
X147390138Y-46010479D01*
X147485376Y-46058098D01*
X147580614Y-46058098D01*
X147913947Y-46058098D02*
X147913947Y-45391432D01*
X147913947Y-45581908D02*
X147961566Y-45486670D01*
X148009185Y-45439051D01*
X148104423Y-45391432D01*
X148199661Y-45391432D01*
X148675852Y-46058098D02*
X148580614Y-46010479D01*
X148532995Y-45915241D01*
X148532995Y-45058098D01*
X148818709Y-46153337D02*
X149580614Y-46153337D01*
X149818709Y-46058098D02*
X149818709Y-45058098D01*
X150294899Y-45391432D02*
X150294899Y-46058098D01*
X150294899Y-45486670D02*
X150342518Y-45439051D01*
X150437757Y-45391432D01*
X150580614Y-45391432D01*
X150675852Y-45439051D01*
X150723471Y-45534289D01*
X150723471Y-46058098D01*
X150961566Y-46153337D02*
X151723471Y-46153337D01*
X151913947Y-45153337D02*
X151961566Y-45105718D01*
X152056804Y-45058098D01*
X152294899Y-45058098D01*
X152390138Y-45105718D01*
X152437757Y-45153337D01*
X152485376Y-45248575D01*
X152485376Y-45343813D01*
X152437757Y-45486670D01*
X151866328Y-46058098D01*
X152485376Y-46058098D01*
X157778709Y-59818098D02*
X157778709Y-58818098D01*
X158016804Y-58818098D01*
X158159661Y-58865718D01*
X158254899Y-58960956D01*
X158302518Y-59056194D01*
X158350138Y-59246670D01*
X158350138Y-59389527D01*
X158302518Y-59580003D01*
X158254899Y-59675241D01*
X158159661Y-59770479D01*
X158016804Y-59818098D01*
X157778709Y-59818098D01*
X158778709Y-59818098D02*
X158778709Y-59151432D01*
X158778709Y-58818098D02*
X158731090Y-58865718D01*
X158778709Y-58913337D01*
X158826328Y-58865718D01*
X158778709Y-58818098D01*
X158778709Y-58913337D01*
X159112042Y-59151432D02*
X159492995Y-59151432D01*
X159254899Y-59818098D02*
X159254899Y-58960956D01*
X159302518Y-58865718D01*
X159397757Y-58818098D01*
X159492995Y-58818098D01*
X159683471Y-59151432D02*
X160064423Y-59151432D01*
X159826328Y-59818098D02*
X159826328Y-58960956D01*
X159873947Y-58865718D01*
X159969185Y-58818098D01*
X160064423Y-58818098D01*
X160159661Y-59913337D02*
X160921566Y-59913337D01*
X161350138Y-58818098D02*
X161540614Y-58818098D01*
X161635852Y-58865718D01*
X161731090Y-58960956D01*
X161778709Y-59151432D01*
X161778709Y-59484765D01*
X161731090Y-59675241D01*
X161635852Y-59770479D01*
X161540614Y-59818098D01*
X161350138Y-59818098D01*
X161254899Y-59770479D01*
X161159661Y-59675241D01*
X161112042Y-59484765D01*
X161112042Y-59151432D01*
X161159661Y-58960956D01*
X161254899Y-58865718D01*
X161350138Y-58818098D01*
X162635852Y-59151432D02*
X162635852Y-59818098D01*
X162207280Y-59151432D02*
X162207280Y-59675241D01*
X162254899Y-59770479D01*
X162350138Y-59818098D01*
X162492995Y-59818098D01*
X162588233Y-59770479D01*
X162635852Y-59722860D01*
X162969185Y-59151432D02*
X163350138Y-59151432D01*
X163112042Y-58818098D02*
X163112042Y-59675241D01*
X163159661Y-59770479D01*
X163254899Y-59818098D01*
X163350138Y-59818098D01*
X163445376Y-59913337D02*
X164207280Y-59913337D01*
X164969185Y-59818098D02*
X164397757Y-59818098D01*
X164683471Y-59818098D02*
X164683471Y-58818098D01*
X164588233Y-58960956D01*
X164492995Y-59056194D01*
X164397757Y-59103813D01*
X194699661Y-60058098D02*
X194699661Y-59058098D01*
X195080614Y-59058098D01*
X195175852Y-59105718D01*
X195223471Y-59153337D01*
X195271090Y-59248575D01*
X195271090Y-59391432D01*
X195223471Y-59486670D01*
X195175852Y-59534289D01*
X195080614Y-59581908D01*
X194699661Y-59581908D01*
X195699661Y-60058098D02*
X195699661Y-59058098D01*
X195937757Y-59058098D01*
X196080614Y-59105718D01*
X196175852Y-59200956D01*
X196223471Y-59296194D01*
X196271090Y-59486670D01*
X196271090Y-59629527D01*
X196223471Y-59820003D01*
X196175852Y-59915241D01*
X196080614Y-60010479D01*
X195937757Y-60058098D01*
X195699661Y-60058098D01*
X196461566Y-60153337D02*
X197223471Y-60153337D01*
X197461566Y-60058098D02*
X197461566Y-59058098D01*
X197937757Y-59391432D02*
X197937757Y-60058098D01*
X197937757Y-59486670D02*
X197985376Y-59439051D01*
X198080614Y-59391432D01*
X198223471Y-59391432D01*
X198318709Y-59439051D01*
X198366328Y-59534289D01*
X198366328Y-60058098D01*
X198604423Y-60153337D02*
X199366328Y-60153337D01*
X200128233Y-60058098D02*
X199556804Y-60058098D01*
X199842518Y-60058098D02*
X199842518Y-59058098D01*
X199747280Y-59200956D01*
X199652042Y-59296194D01*
X199556804Y-59343813D01*
X205257142Y-122142857D02*
X205304761Y-122190476D01*
X205352380Y-122333333D01*
X205352380Y-122428571D01*
X205304761Y-122571428D01*
X205209523Y-122666666D01*
X205114285Y-122714285D01*
X204923809Y-122761904D01*
X204780952Y-122761904D01*
X204590476Y-122714285D01*
X204495238Y-122666666D01*
X204400000Y-122571428D01*
X204352380Y-122428571D01*
X204352380Y-122333333D01*
X204400000Y-122190476D01*
X204447619Y-122142857D01*
X205352380Y-121190476D02*
X205352380Y-121761904D01*
X205352380Y-121476190D02*
X204352380Y-121476190D01*
X204495238Y-121571428D01*
X204590476Y-121666666D01*
X204638095Y-121761904D01*
X204352380Y-120285714D02*
X204352380Y-120761904D01*
X204828571Y-120809523D01*
X204780952Y-120761904D01*
X204733333Y-120666666D01*
X204733333Y-120428571D01*
X204780952Y-120333333D01*
X204828571Y-120285714D01*
X204923809Y-120238095D01*
X205161904Y-120238095D01*
X205257142Y-120285714D01*
X205304761Y-120333333D01*
X205352380Y-120428571D01*
X205352380Y-120666666D01*
X205304761Y-120761904D01*
X205257142Y-120809523D01*
X215857142Y-113642857D02*
X215904761Y-113690476D01*
X215952380Y-113833333D01*
X215952380Y-113928571D01*
X215904761Y-114071428D01*
X215809523Y-114166666D01*
X215714285Y-114214285D01*
X215523809Y-114261904D01*
X215380952Y-114261904D01*
X215190476Y-114214285D01*
X215095238Y-114166666D01*
X215000000Y-114071428D01*
X214952380Y-113928571D01*
X214952380Y-113833333D01*
X215000000Y-113690476D01*
X215047619Y-113642857D01*
X215952380Y-112690476D02*
X215952380Y-113261904D01*
X215952380Y-112976190D02*
X214952380Y-112976190D01*
X215095238Y-113071428D01*
X215190476Y-113166666D01*
X215238095Y-113261904D01*
X215285714Y-111833333D02*
X215952380Y-111833333D01*
X214904761Y-112071428D02*
X215619047Y-112309523D01*
X215619047Y-111690476D01*
X86357142Y-90166666D02*
X86404761Y-90214285D01*
X86452380Y-90357142D01*
X86452380Y-90452380D01*
X86404761Y-90595238D01*
X86309523Y-90690476D01*
X86214285Y-90738095D01*
X86023809Y-90785714D01*
X85880952Y-90785714D01*
X85690476Y-90738095D01*
X85595238Y-90690476D01*
X85500000Y-90595238D01*
X85452380Y-90452380D01*
X85452380Y-90357142D01*
X85500000Y-90214285D01*
X85547619Y-90166666D01*
X86452380Y-89214285D02*
X86452380Y-89785714D01*
X86452380Y-89500000D02*
X85452380Y-89500000D01*
X85595238Y-89595238D01*
X85690476Y-89690476D01*
X85738095Y-89785714D01*
X86357142Y-76666666D02*
X86404761Y-76714285D01*
X86452380Y-76857142D01*
X86452380Y-76952380D01*
X86404761Y-77095238D01*
X86309523Y-77190476D01*
X86214285Y-77238095D01*
X86023809Y-77285714D01*
X85880952Y-77285714D01*
X85690476Y-77238095D01*
X85595238Y-77190476D01*
X85500000Y-77095238D01*
X85452380Y-76952380D01*
X85452380Y-76857142D01*
X85500000Y-76714285D01*
X85547619Y-76666666D01*
X85547619Y-76285714D02*
X85500000Y-76238095D01*
X85452380Y-76142857D01*
X85452380Y-75904761D01*
X85500000Y-75809523D01*
X85547619Y-75761904D01*
X85642857Y-75714285D01*
X85738095Y-75714285D01*
X85880952Y-75761904D01*
X86452380Y-76333333D01*
X86452380Y-75714285D01*
X94257142Y-87266666D02*
X94304761Y-87314285D01*
X94352380Y-87457142D01*
X94352380Y-87552380D01*
X94304761Y-87695238D01*
X94209523Y-87790476D01*
X94114285Y-87838095D01*
X93923809Y-87885714D01*
X93780952Y-87885714D01*
X93590476Y-87838095D01*
X93495238Y-87790476D01*
X93400000Y-87695238D01*
X93352380Y-87552380D01*
X93352380Y-87457142D01*
X93400000Y-87314285D01*
X93447619Y-87266666D01*
X93352380Y-86933333D02*
X93352380Y-86314285D01*
X93733333Y-86647619D01*
X93733333Y-86504761D01*
X93780952Y-86409523D01*
X93828571Y-86361904D01*
X93923809Y-86314285D01*
X94161904Y-86314285D01*
X94257142Y-86361904D01*
X94304761Y-86409523D01*
X94352380Y-86504761D01*
X94352380Y-86790476D01*
X94304761Y-86885714D01*
X94257142Y-86933333D01*
X90733333Y-79207142D02*
X90685714Y-79254761D01*
X90542857Y-79302380D01*
X90447619Y-79302380D01*
X90304761Y-79254761D01*
X90209523Y-79159523D01*
X90161904Y-79064285D01*
X90114285Y-78873809D01*
X90114285Y-78730952D01*
X90161904Y-78540476D01*
X90209523Y-78445238D01*
X90304761Y-78350000D01*
X90447619Y-78302380D01*
X90542857Y-78302380D01*
X90685714Y-78350000D01*
X90733333Y-78397619D01*
X91590476Y-78635714D02*
X91590476Y-79302380D01*
X91352380Y-78254761D02*
X91114285Y-78969047D01*
X91733333Y-78969047D01*
X99457142Y-85916666D02*
X99504761Y-85964285D01*
X99552380Y-86107142D01*
X99552380Y-86202380D01*
X99504761Y-86345238D01*
X99409523Y-86440476D01*
X99314285Y-86488095D01*
X99123809Y-86535714D01*
X98980952Y-86535714D01*
X98790476Y-86488095D01*
X98695238Y-86440476D01*
X98600000Y-86345238D01*
X98552380Y-86202380D01*
X98552380Y-86107142D01*
X98600000Y-85964285D01*
X98647619Y-85916666D01*
X98552380Y-85011904D02*
X98552380Y-85488095D01*
X99028571Y-85535714D01*
X98980952Y-85488095D01*
X98933333Y-85392857D01*
X98933333Y-85154761D01*
X98980952Y-85059523D01*
X99028571Y-85011904D01*
X99123809Y-84964285D01*
X99361904Y-84964285D01*
X99457142Y-85011904D01*
X99504761Y-85059523D01*
X99552380Y-85154761D01*
X99552380Y-85392857D01*
X99504761Y-85488095D01*
X99457142Y-85535714D01*
X99557142Y-80866666D02*
X99604761Y-80914285D01*
X99652380Y-81057142D01*
X99652380Y-81152380D01*
X99604761Y-81295238D01*
X99509523Y-81390476D01*
X99414285Y-81438095D01*
X99223809Y-81485714D01*
X99080952Y-81485714D01*
X98890476Y-81438095D01*
X98795238Y-81390476D01*
X98700000Y-81295238D01*
X98652380Y-81152380D01*
X98652380Y-81057142D01*
X98700000Y-80914285D01*
X98747619Y-80866666D01*
X98652380Y-80009523D02*
X98652380Y-80200000D01*
X98700000Y-80295238D01*
X98747619Y-80342857D01*
X98890476Y-80438095D01*
X99080952Y-80485714D01*
X99461904Y-80485714D01*
X99557142Y-80438095D01*
X99604761Y-80390476D01*
X99652380Y-80295238D01*
X99652380Y-80104761D01*
X99604761Y-80009523D01*
X99557142Y-79961904D01*
X99461904Y-79914285D01*
X99223809Y-79914285D01*
X99128571Y-79961904D01*
X99080952Y-80009523D01*
X99033333Y-80104761D01*
X99033333Y-80295238D01*
X99080952Y-80390476D01*
X99128571Y-80438095D01*
X99223809Y-80485714D01*
X216657142Y-59666666D02*
X216704761Y-59714285D01*
X216752380Y-59857142D01*
X216752380Y-59952380D01*
X216704761Y-60095238D01*
X216609523Y-60190476D01*
X216514285Y-60238095D01*
X216323809Y-60285714D01*
X216180952Y-60285714D01*
X215990476Y-60238095D01*
X215895238Y-60190476D01*
X215800000Y-60095238D01*
X215752380Y-59952380D01*
X215752380Y-59857142D01*
X215800000Y-59714285D01*
X215847619Y-59666666D01*
X215752380Y-59333333D02*
X215752380Y-58666666D01*
X216752380Y-59095238D01*
X103790476Y-82952380D02*
X103790476Y-81952380D01*
X103790476Y-82428571D02*
X104361904Y-82428571D01*
X104361904Y-82952380D02*
X104361904Y-81952380D01*
X104980952Y-82952380D02*
X104885714Y-82904761D01*
X104838095Y-82857142D01*
X104790476Y-82761904D01*
X104790476Y-82476190D01*
X104838095Y-82380952D01*
X104885714Y-82333333D01*
X104980952Y-82285714D01*
X105123809Y-82285714D01*
X105219047Y-82333333D01*
X105266666Y-82380952D01*
X105314285Y-82476190D01*
X105314285Y-82761904D01*
X105266666Y-82857142D01*
X105219047Y-82904761D01*
X105123809Y-82952380D01*
X104980952Y-82952380D01*
X105885714Y-82952380D02*
X105790476Y-82904761D01*
X105742857Y-82809523D01*
X105742857Y-81952380D01*
X106695238Y-82952380D02*
X106695238Y-81952380D01*
X106695238Y-82904761D02*
X106600000Y-82952380D01*
X106409523Y-82952380D01*
X106314285Y-82904761D01*
X106266666Y-82857142D01*
X106219047Y-82761904D01*
X106219047Y-82476190D01*
X106266666Y-82380952D01*
X106314285Y-82333333D01*
X106409523Y-82285714D01*
X106600000Y-82285714D01*
X106695238Y-82333333D01*
X106933333Y-83047619D02*
X107695238Y-83047619D01*
X108457142Y-82952380D02*
X107885714Y-82952380D01*
X108171428Y-82952380D02*
X108171428Y-81952380D01*
X108076190Y-82095238D01*
X107980952Y-82190476D01*
X107885714Y-82238095D01*
X146913947Y-59962860D02*
X146866328Y-60010479D01*
X146723471Y-60058098D01*
X146628233Y-60058098D01*
X146485376Y-60010479D01*
X146390138Y-59915241D01*
X146342518Y-59820003D01*
X146294899Y-59629527D01*
X146294899Y-59486670D01*
X146342518Y-59296194D01*
X146390138Y-59200956D01*
X146485376Y-59105718D01*
X146628233Y-59058098D01*
X146723471Y-59058098D01*
X146866328Y-59105718D01*
X146913947Y-59153337D01*
X147199661Y-59391432D02*
X147580614Y-59391432D01*
X147342518Y-59058098D02*
X147342518Y-59915241D01*
X147390138Y-60010479D01*
X147485376Y-60058098D01*
X147580614Y-60058098D01*
X147913947Y-60058098D02*
X147913947Y-59391432D01*
X147913947Y-59581908D02*
X147961566Y-59486670D01*
X148009185Y-59439051D01*
X148104423Y-59391432D01*
X148199661Y-59391432D01*
X148675852Y-60058098D02*
X148580614Y-60010479D01*
X148532995Y-59915241D01*
X148532995Y-59058098D01*
X148818709Y-60153337D02*
X149580614Y-60153337D01*
X149818709Y-60058098D02*
X149818709Y-59058098D01*
X150294899Y-59391432D02*
X150294899Y-60058098D01*
X150294899Y-59486670D02*
X150342518Y-59439051D01*
X150437757Y-59391432D01*
X150580614Y-59391432D01*
X150675852Y-59439051D01*
X150723471Y-59534289D01*
X150723471Y-60058098D01*
X150961566Y-60153337D02*
X151723471Y-60153337D01*
X152485376Y-60058098D02*
X151913947Y-60058098D01*
X152199661Y-60058098D02*
X152199661Y-59058098D01*
X152104423Y-59200956D01*
X152009185Y-59296194D01*
X151913947Y-59343813D01*
X134342518Y-59962860D02*
X134294899Y-60010479D01*
X134152042Y-60058098D01*
X134056804Y-60058098D01*
X133913947Y-60010479D01*
X133818709Y-59915241D01*
X133771090Y-59820003D01*
X133723471Y-59629527D01*
X133723471Y-59486670D01*
X133771090Y-59296194D01*
X133818709Y-59200956D01*
X133913947Y-59105718D01*
X134056804Y-59058098D01*
X134152042Y-59058098D01*
X134294899Y-59105718D01*
X134342518Y-59153337D01*
X134628233Y-59391432D02*
X135009185Y-59391432D01*
X134771090Y-59058098D02*
X134771090Y-59915241D01*
X134818709Y-60010479D01*
X134913947Y-60058098D01*
X135009185Y-60058098D01*
X135342518Y-60058098D02*
X135342518Y-59391432D01*
X135342518Y-59581908D02*
X135390138Y-59486670D01*
X135437757Y-59439051D01*
X135532995Y-59391432D01*
X135628233Y-59391432D01*
X136104423Y-60058098D02*
X136009185Y-60010479D01*
X135961566Y-59915241D01*
X135961566Y-59058098D01*
X136247280Y-60153337D02*
X137009185Y-60153337D01*
X137437757Y-59058098D02*
X137628233Y-59058098D01*
X137723471Y-59105718D01*
X137818709Y-59200956D01*
X137866328Y-59391432D01*
X137866328Y-59724765D01*
X137818709Y-59915241D01*
X137723471Y-60010479D01*
X137628233Y-60058098D01*
X137437757Y-60058098D01*
X137342518Y-60010479D01*
X137247280Y-59915241D01*
X137199661Y-59724765D01*
X137199661Y-59391432D01*
X137247280Y-59200956D01*
X137342518Y-59105718D01*
X137437757Y-59058098D01*
X138723471Y-59391432D02*
X138723471Y-60058098D01*
X138294899Y-59391432D02*
X138294899Y-59915241D01*
X138342518Y-60010479D01*
X138437757Y-60058098D01*
X138580614Y-60058098D01*
X138675852Y-60010479D01*
X138723471Y-59962860D01*
X139056804Y-59391432D02*
X139437757Y-59391432D01*
X139199661Y-59058098D02*
X139199661Y-59915241D01*
X139247280Y-60010479D01*
X139342518Y-60058098D01*
X139437757Y-60058098D01*
X139532995Y-60153337D02*
X140294899Y-60153337D01*
X141056804Y-60058098D02*
X140485376Y-60058098D01*
X140771090Y-60058098D02*
X140771090Y-59058098D01*
X140675852Y-59200956D01*
X140580614Y-59296194D01*
X140485376Y-59343813D01*
X181913947Y-46058098D02*
X181913947Y-45058098D01*
X182294899Y-45058098D01*
X182390138Y-45105718D01*
X182437757Y-45153337D01*
X182485376Y-45248575D01*
X182485376Y-45391432D01*
X182437757Y-45486670D01*
X182390138Y-45534289D01*
X182294899Y-45581908D01*
X181913947Y-45581908D01*
X182913947Y-46058098D02*
X182913947Y-45058098D01*
X183152042Y-45058098D01*
X183294899Y-45105718D01*
X183390138Y-45200956D01*
X183437757Y-45296194D01*
X183485376Y-45486670D01*
X183485376Y-45629527D01*
X183437757Y-45820003D01*
X183390138Y-45915241D01*
X183294899Y-46010479D01*
X183152042Y-46058098D01*
X182913947Y-46058098D01*
X183675852Y-46153337D02*
X184437757Y-46153337D01*
X184675852Y-46058098D02*
X184675852Y-45058098D01*
X185009185Y-45772384D01*
X185342518Y-45058098D01*
X185342518Y-46058098D01*
X185961566Y-46058098D02*
X185866328Y-46010479D01*
X185818709Y-45962860D01*
X185771090Y-45867622D01*
X185771090Y-45581908D01*
X185818709Y-45486670D01*
X185866328Y-45439051D01*
X185961566Y-45391432D01*
X186104423Y-45391432D01*
X186199661Y-45439051D01*
X186247280Y-45486670D01*
X186294899Y-45581908D01*
X186294899Y-45867622D01*
X186247280Y-45962860D01*
X186199661Y-46010479D01*
X186104423Y-46058098D01*
X185961566Y-46058098D01*
X186723471Y-45391432D02*
X186723471Y-46058098D01*
X186723471Y-45486670D02*
X186771090Y-45439051D01*
X186866328Y-45391432D01*
X187009185Y-45391432D01*
X187104423Y-45439051D01*
X187152042Y-45534289D01*
X187152042Y-46058098D01*
X187390138Y-46153337D02*
X188152042Y-46153337D01*
X188342518Y-45153337D02*
X188390138Y-45105718D01*
X188485376Y-45058098D01*
X188723471Y-45058098D01*
X188818709Y-45105718D01*
X188866328Y-45153337D01*
X188913947Y-45248575D01*
X188913947Y-45343813D01*
X188866328Y-45486670D01*
X188294899Y-46058098D01*
X188913947Y-46058098D01*
X171056804Y-46058098D02*
X170723471Y-45581908D01*
X170485376Y-46058098D02*
X170485376Y-45058098D01*
X170866328Y-45058098D01*
X170961566Y-45105718D01*
X171009185Y-45153337D01*
X171056804Y-45248575D01*
X171056804Y-45391432D01*
X171009185Y-45486670D01*
X170961566Y-45534289D01*
X170866328Y-45581908D01*
X170485376Y-45581908D01*
X171866328Y-46010479D02*
X171771090Y-46058098D01*
X171580614Y-46058098D01*
X171485376Y-46010479D01*
X171437757Y-45915241D01*
X171437757Y-45534289D01*
X171485376Y-45439051D01*
X171580614Y-45391432D01*
X171771090Y-45391432D01*
X171866328Y-45439051D01*
X171913947Y-45534289D01*
X171913947Y-45629527D01*
X171437757Y-45724765D01*
X172199661Y-45391432D02*
X172580614Y-45391432D01*
X172342518Y-46058098D02*
X172342518Y-45200956D01*
X172390138Y-45105718D01*
X172485376Y-45058098D01*
X172580614Y-45058098D01*
X172675852Y-46153337D02*
X173437757Y-46153337D01*
X173675852Y-46058098D02*
X173675852Y-45058098D01*
X174152042Y-45391432D02*
X174152042Y-46058098D01*
X174152042Y-45486670D02*
X174199661Y-45439051D01*
X174294899Y-45391432D01*
X174437757Y-45391432D01*
X174532995Y-45439051D01*
X174580614Y-45534289D01*
X174580614Y-46058098D01*
X174818709Y-46153337D02*
X175580614Y-46153337D01*
X175771090Y-45153337D02*
X175818709Y-45105718D01*
X175913947Y-45058098D01*
X176152042Y-45058098D01*
X176247280Y-45105718D01*
X176294899Y-45153337D01*
X176342518Y-45248575D01*
X176342518Y-45343813D01*
X176294899Y-45486670D01*
X175723471Y-46058098D01*
X176342518Y-46058098D01*
X125457142Y-51266666D02*
X125504761Y-51314285D01*
X125552380Y-51457142D01*
X125552380Y-51552380D01*
X125504761Y-51695238D01*
X125409523Y-51790476D01*
X125314285Y-51838095D01*
X125123809Y-51885714D01*
X124980952Y-51885714D01*
X124790476Y-51838095D01*
X124695238Y-51790476D01*
X124600000Y-51695238D01*
X124552380Y-51552380D01*
X124552380Y-51457142D01*
X124600000Y-51314285D01*
X124647619Y-51266666D01*
X125552380Y-50790476D02*
X125552380Y-50600000D01*
X125504761Y-50504761D01*
X125457142Y-50457142D01*
X125314285Y-50361904D01*
X125123809Y-50314285D01*
X124742857Y-50314285D01*
X124647619Y-50361904D01*
X124600000Y-50409523D01*
X124552380Y-50504761D01*
X124552380Y-50695238D01*
X124600000Y-50790476D01*
X124647619Y-50838095D01*
X124742857Y-50885714D01*
X124980952Y-50885714D01*
X125076190Y-50838095D01*
X125123809Y-50790476D01*
X125171428Y-50695238D01*
X125171428Y-50504761D01*
X125123809Y-50409523D01*
X125076190Y-50361904D01*
X124980952Y-50314285D01*
X132657142Y-63492857D02*
X132704761Y-63540476D01*
X132752380Y-63683333D01*
X132752380Y-63778571D01*
X132704761Y-63921428D01*
X132609523Y-64016666D01*
X132514285Y-64064285D01*
X132323809Y-64111904D01*
X132180952Y-64111904D01*
X131990476Y-64064285D01*
X131895238Y-64016666D01*
X131800000Y-63921428D01*
X131752380Y-63778571D01*
X131752380Y-63683333D01*
X131800000Y-63540476D01*
X131847619Y-63492857D01*
X132752380Y-62540476D02*
X132752380Y-63111904D01*
X132752380Y-62826190D02*
X131752380Y-62826190D01*
X131895238Y-62921428D01*
X131990476Y-63016666D01*
X132038095Y-63111904D01*
X131752380Y-61921428D02*
X131752380Y-61826190D01*
X131800000Y-61730952D01*
X131847619Y-61683333D01*
X131942857Y-61635714D01*
X132133333Y-61588095D01*
X132371428Y-61588095D01*
X132561904Y-61635714D01*
X132657142Y-61683333D01*
X132704761Y-61730952D01*
X132752380Y-61826190D01*
X132752380Y-61921428D01*
X132704761Y-62016666D01*
X132657142Y-62064285D01*
X132561904Y-62111904D01*
X132371428Y-62159523D01*
X132133333Y-62159523D01*
X131942857Y-62111904D01*
X131847619Y-62064285D01*
X131800000Y-62016666D01*
X131752380Y-61921428D01*
X143842518Y-61166666D02*
X143366328Y-61500000D01*
X143842518Y-61738095D02*
X142842518Y-61738095D01*
X142842518Y-61357142D01*
X142890138Y-61261904D01*
X142937757Y-61214285D01*
X143032995Y-61166666D01*
X143175852Y-61166666D01*
X143271090Y-61214285D01*
X143318709Y-61261904D01*
X143366328Y-61357142D01*
X143366328Y-61738095D01*
X143175852Y-60309523D02*
X143842518Y-60309523D01*
X142794899Y-60547619D02*
X143509185Y-60785714D01*
X143509185Y-60166666D01*
X194699661Y-46058098D02*
X194699661Y-45058098D01*
X195080614Y-45058098D01*
X195175852Y-45105718D01*
X195223471Y-45153337D01*
X195271090Y-45248575D01*
X195271090Y-45391432D01*
X195223471Y-45486670D01*
X195175852Y-45534289D01*
X195080614Y-45581908D01*
X194699661Y-45581908D01*
X195699661Y-46058098D02*
X195699661Y-45058098D01*
X195937757Y-45058098D01*
X196080614Y-45105718D01*
X196175852Y-45200956D01*
X196223471Y-45296194D01*
X196271090Y-45486670D01*
X196271090Y-45629527D01*
X196223471Y-45820003D01*
X196175852Y-45915241D01*
X196080614Y-46010479D01*
X195937757Y-46058098D01*
X195699661Y-46058098D01*
X196461566Y-46153337D02*
X197223471Y-46153337D01*
X197461566Y-46058098D02*
X197461566Y-45058098D01*
X197937757Y-45391432D02*
X197937757Y-46058098D01*
X197937757Y-45486670D02*
X197985376Y-45439051D01*
X198080614Y-45391432D01*
X198223471Y-45391432D01*
X198318709Y-45439051D01*
X198366328Y-45534289D01*
X198366328Y-46058098D01*
X198604423Y-46153337D02*
X199366328Y-46153337D01*
X199556804Y-45153337D02*
X199604423Y-45105718D01*
X199699661Y-45058098D01*
X199937757Y-45058098D01*
X200032995Y-45105718D01*
X200080614Y-45153337D01*
X200128233Y-45248575D01*
X200128233Y-45343813D01*
X200080614Y-45486670D01*
X199509185Y-46058098D01*
X200128233Y-46058098D01*
X157818709Y-46058098D02*
X157818709Y-45058098D01*
X158056804Y-45058098D01*
X158199661Y-45105718D01*
X158294899Y-45200956D01*
X158342518Y-45296194D01*
X158390138Y-45486670D01*
X158390138Y-45629527D01*
X158342518Y-45820003D01*
X158294899Y-45915241D01*
X158199661Y-46010479D01*
X158056804Y-46058098D01*
X157818709Y-46058098D01*
X158818709Y-46058098D02*
X158818709Y-45391432D01*
X158818709Y-45058098D02*
X158771090Y-45105718D01*
X158818709Y-45153337D01*
X158866328Y-45105718D01*
X158818709Y-45058098D01*
X158818709Y-45153337D01*
X159152042Y-45391432D02*
X159532995Y-45391432D01*
X159294899Y-46058098D02*
X159294899Y-45200956D01*
X159342518Y-45105718D01*
X159437757Y-45058098D01*
X159532995Y-45058098D01*
X159723471Y-45391432D02*
X160104423Y-45391432D01*
X159866328Y-46058098D02*
X159866328Y-45200956D01*
X159913947Y-45105718D01*
X160009185Y-45058098D01*
X160104423Y-45058098D01*
X160199661Y-46153337D02*
X160961566Y-46153337D01*
X161390138Y-45058098D02*
X161580614Y-45058098D01*
X161675852Y-45105718D01*
X161771090Y-45200956D01*
X161818709Y-45391432D01*
X161818709Y-45724765D01*
X161771090Y-45915241D01*
X161675852Y-46010479D01*
X161580614Y-46058098D01*
X161390138Y-46058098D01*
X161294899Y-46010479D01*
X161199661Y-45915241D01*
X161152042Y-45724765D01*
X161152042Y-45391432D01*
X161199661Y-45200956D01*
X161294899Y-45105718D01*
X161390138Y-45058098D01*
X162675852Y-45391432D02*
X162675852Y-46058098D01*
X162247280Y-45391432D02*
X162247280Y-45915241D01*
X162294899Y-46010479D01*
X162390138Y-46058098D01*
X162532995Y-46058098D01*
X162628233Y-46010479D01*
X162675852Y-45962860D01*
X163009185Y-45391432D02*
X163390138Y-45391432D01*
X163152042Y-45058098D02*
X163152042Y-45915241D01*
X163199661Y-46010479D01*
X163294899Y-46058098D01*
X163390138Y-46058098D01*
X163485376Y-46153337D02*
X164247280Y-46153337D01*
X164437757Y-45153337D02*
X164485376Y-45105718D01*
X164580614Y-45058098D01*
X164818709Y-45058098D01*
X164913947Y-45105718D01*
X164961566Y-45153337D01*
X165009185Y-45248575D01*
X165009185Y-45343813D01*
X164961566Y-45486670D01*
X164390138Y-46058098D01*
X165009185Y-46058098D01*
X115690476Y-82952380D02*
X115690476Y-81952380D01*
X115690476Y-82428571D02*
X116261904Y-82428571D01*
X116261904Y-82952380D02*
X116261904Y-81952380D01*
X116880952Y-82952380D02*
X116785714Y-82904761D01*
X116738095Y-82857142D01*
X116690476Y-82761904D01*
X116690476Y-82476190D01*
X116738095Y-82380952D01*
X116785714Y-82333333D01*
X116880952Y-82285714D01*
X117023809Y-82285714D01*
X117119047Y-82333333D01*
X117166666Y-82380952D01*
X117214285Y-82476190D01*
X117214285Y-82761904D01*
X117166666Y-82857142D01*
X117119047Y-82904761D01*
X117023809Y-82952380D01*
X116880952Y-82952380D01*
X117785714Y-82952380D02*
X117690476Y-82904761D01*
X117642857Y-82809523D01*
X117642857Y-81952380D01*
X118595238Y-82952380D02*
X118595238Y-81952380D01*
X118595238Y-82904761D02*
X118500000Y-82952380D01*
X118309523Y-82952380D01*
X118214285Y-82904761D01*
X118166666Y-82857142D01*
X118119047Y-82761904D01*
X118119047Y-82476190D01*
X118166666Y-82380952D01*
X118214285Y-82333333D01*
X118309523Y-82285714D01*
X118500000Y-82285714D01*
X118595238Y-82333333D01*
X118833333Y-83047619D02*
X119595238Y-83047619D01*
X119785714Y-82047619D02*
X119833333Y-82000000D01*
X119928571Y-81952380D01*
X120166666Y-81952380D01*
X120261904Y-82000000D01*
X120309523Y-82047619D01*
X120357142Y-82142857D01*
X120357142Y-82238095D01*
X120309523Y-82380952D01*
X119738095Y-82952380D01*
X120357142Y-82952380D01*
X208882142Y-124952380D02*
X208548809Y-124476190D01*
X208310714Y-124952380D02*
X208310714Y-123952380D01*
X208691666Y-123952380D01*
X208786904Y-124000000D01*
X208834523Y-124047619D01*
X208882142Y-124142857D01*
X208882142Y-124285714D01*
X208834523Y-124380952D01*
X208786904Y-124428571D01*
X208691666Y-124476190D01*
X208310714Y-124476190D01*
X209834523Y-124952380D02*
X209263095Y-124952380D01*
X209548809Y-124952380D02*
X209548809Y-123952380D01*
X209453571Y-124095238D01*
X209358333Y-124190476D01*
X209263095Y-124238095D01*
X210786904Y-124952380D02*
X210215476Y-124952380D01*
X210501190Y-124952380D02*
X210501190Y-123952380D01*
X210405952Y-124095238D01*
X210310714Y-124190476D01*
X210215476Y-124238095D01*
X211057142Y-110452380D02*
X210723809Y-109976190D01*
X210485714Y-110452380D02*
X210485714Y-109452380D01*
X210866666Y-109452380D01*
X210961904Y-109500000D01*
X211009523Y-109547619D01*
X211057142Y-109642857D01*
X211057142Y-109785714D01*
X211009523Y-109880952D01*
X210961904Y-109928571D01*
X210866666Y-109976190D01*
X210485714Y-109976190D01*
X212009523Y-110452380D02*
X211438095Y-110452380D01*
X211723809Y-110452380D02*
X211723809Y-109452380D01*
X211628571Y-109595238D01*
X211533333Y-109690476D01*
X211438095Y-109738095D01*
X212390476Y-109547619D02*
X212438095Y-109500000D01*
X212533333Y-109452380D01*
X212771428Y-109452380D01*
X212866666Y-109500000D01*
X212914285Y-109547619D01*
X212961904Y-109642857D01*
X212961904Y-109738095D01*
X212914285Y-109880952D01*
X212342857Y-110452380D01*
X212961904Y-110452380D01*
X213407142Y-71302380D02*
X213073809Y-70826190D01*
X212835714Y-71302380D02*
X212835714Y-70302380D01*
X213216666Y-70302380D01*
X213311904Y-70350000D01*
X213359523Y-70397619D01*
X213407142Y-70492857D01*
X213407142Y-70635714D01*
X213359523Y-70730952D01*
X213311904Y-70778571D01*
X213216666Y-70826190D01*
X212835714Y-70826190D01*
X214359523Y-71302380D02*
X213788095Y-71302380D01*
X214073809Y-71302380D02*
X214073809Y-70302380D01*
X213978571Y-70445238D01*
X213883333Y-70540476D01*
X213788095Y-70588095D01*
X214692857Y-70302380D02*
X215311904Y-70302380D01*
X214978571Y-70683333D01*
X215121428Y-70683333D01*
X215216666Y-70730952D01*
X215264285Y-70778571D01*
X215311904Y-70873809D01*
X215311904Y-71111904D01*
X215264285Y-71207142D01*
X215216666Y-71254761D01*
X215121428Y-71302380D01*
X214835714Y-71302380D01*
X214740476Y-71254761D01*
X214692857Y-71207142D01*
X212602380Y-57842857D02*
X212126190Y-58176190D01*
X212602380Y-58414285D02*
X211602380Y-58414285D01*
X211602380Y-58033333D01*
X211650000Y-57938095D01*
X211697619Y-57890476D01*
X211792857Y-57842857D01*
X211935714Y-57842857D01*
X212030952Y-57890476D01*
X212078571Y-57938095D01*
X212126190Y-58033333D01*
X212126190Y-58414285D01*
X212602380Y-56890476D02*
X212602380Y-57461904D01*
X212602380Y-57176190D02*
X211602380Y-57176190D01*
X211745238Y-57271428D01*
X211840476Y-57366666D01*
X211888095Y-57461904D01*
X211935714Y-56033333D02*
X212602380Y-56033333D01*
X211554761Y-56271428D02*
X212269047Y-56509523D01*
X212269047Y-55890476D01*
X200957142Y-116352380D02*
X200623809Y-115876190D01*
X200385714Y-116352380D02*
X200385714Y-115352380D01*
X200766666Y-115352380D01*
X200861904Y-115400000D01*
X200909523Y-115447619D01*
X200957142Y-115542857D01*
X200957142Y-115685714D01*
X200909523Y-115780952D01*
X200861904Y-115828571D01*
X200766666Y-115876190D01*
X200385714Y-115876190D01*
X201909523Y-116352380D02*
X201338095Y-116352380D01*
X201623809Y-116352380D02*
X201623809Y-115352380D01*
X201528571Y-115495238D01*
X201433333Y-115590476D01*
X201338095Y-115638095D01*
X202814285Y-115352380D02*
X202338095Y-115352380D01*
X202290476Y-115828571D01*
X202338095Y-115780952D01*
X202433333Y-115733333D01*
X202671428Y-115733333D01*
X202766666Y-115780952D01*
X202814285Y-115828571D01*
X202861904Y-115923809D01*
X202861904Y-116161904D01*
X202814285Y-116257142D01*
X202766666Y-116304761D01*
X202671428Y-116352380D01*
X202433333Y-116352380D01*
X202338095Y-116304761D01*
X202290476Y-116257142D01*
X203357142Y-67452380D02*
X203023809Y-66976190D01*
X202785714Y-67452380D02*
X202785714Y-66452380D01*
X203166666Y-66452380D01*
X203261904Y-66500000D01*
X203309523Y-66547619D01*
X203357142Y-66642857D01*
X203357142Y-66785714D01*
X203309523Y-66880952D01*
X203261904Y-66928571D01*
X203166666Y-66976190D01*
X202785714Y-66976190D01*
X204309523Y-67452380D02*
X203738095Y-67452380D01*
X204023809Y-67452380D02*
X204023809Y-66452380D01*
X203928571Y-66595238D01*
X203833333Y-66690476D01*
X203738095Y-66738095D01*
X204642857Y-66452380D02*
X205309523Y-66452380D01*
X204880952Y-67452380D01*
X191842518Y-47142857D02*
X191366328Y-47476190D01*
X191842518Y-47714285D02*
X190842518Y-47714285D01*
X190842518Y-47333333D01*
X190890138Y-47238095D01*
X190937757Y-47190476D01*
X191032995Y-47142857D01*
X191175852Y-47142857D01*
X191271090Y-47190476D01*
X191318709Y-47238095D01*
X191366328Y-47333333D01*
X191366328Y-47714285D01*
X191842518Y-46190476D02*
X191842518Y-46761904D01*
X191842518Y-46476190D02*
X190842518Y-46476190D01*
X190985376Y-46571428D01*
X191080614Y-46666666D01*
X191128233Y-46761904D01*
X191842518Y-45714285D02*
X191842518Y-45523809D01*
X191794899Y-45428571D01*
X191747280Y-45380952D01*
X191604423Y-45285714D01*
X191413947Y-45238095D01*
X191032995Y-45238095D01*
X190937757Y-45285714D01*
X190890138Y-45333333D01*
X190842518Y-45428571D01*
X190842518Y-45619047D01*
X190890138Y-45714285D01*
X190937757Y-45761904D01*
X191032995Y-45809523D01*
X191271090Y-45809523D01*
X191366328Y-45761904D01*
X191413947Y-45714285D01*
X191461566Y-45619047D01*
X191461566Y-45428571D01*
X191413947Y-45333333D01*
X191366328Y-45285714D01*
X191271090Y-45238095D01*
X205452380Y-111142857D02*
X204976190Y-111476190D01*
X205452380Y-111714285D02*
X204452380Y-111714285D01*
X204452380Y-111333333D01*
X204500000Y-111238095D01*
X204547619Y-111190476D01*
X204642857Y-111142857D01*
X204785714Y-111142857D01*
X204880952Y-111190476D01*
X204928571Y-111238095D01*
X204976190Y-111333333D01*
X204976190Y-111714285D01*
X204547619Y-110761904D02*
X204500000Y-110714285D01*
X204452380Y-110619047D01*
X204452380Y-110380952D01*
X204500000Y-110285714D01*
X204547619Y-110238095D01*
X204642857Y-110190476D01*
X204738095Y-110190476D01*
X204880952Y-110238095D01*
X205452380Y-110809523D01*
X205452380Y-110190476D01*
X204452380Y-109571428D02*
X204452380Y-109476190D01*
X204500000Y-109380952D01*
X204547619Y-109333333D01*
X204642857Y-109285714D01*
X204833333Y-109238095D01*
X205071428Y-109238095D01*
X205261904Y-109285714D01*
X205357142Y-109333333D01*
X205404761Y-109380952D01*
X205452380Y-109476190D01*
X205452380Y-109571428D01*
X205404761Y-109666666D01*
X205357142Y-109714285D01*
X205261904Y-109761904D01*
X205071428Y-109809523D01*
X204833333Y-109809523D01*
X204642857Y-109761904D01*
X204547619Y-109714285D01*
X204500000Y-109666666D01*
X204452380Y-109571428D01*
X207452380Y-70642857D02*
X206976190Y-70976190D01*
X207452380Y-71214285D02*
X206452380Y-71214285D01*
X206452380Y-70833333D01*
X206500000Y-70738095D01*
X206547619Y-70690476D01*
X206642857Y-70642857D01*
X206785714Y-70642857D01*
X206880952Y-70690476D01*
X206928571Y-70738095D01*
X206976190Y-70833333D01*
X206976190Y-71214285D01*
X206547619Y-70261904D02*
X206500000Y-70214285D01*
X206452380Y-70119047D01*
X206452380Y-69880952D01*
X206500000Y-69785714D01*
X206547619Y-69738095D01*
X206642857Y-69690476D01*
X206738095Y-69690476D01*
X206880952Y-69738095D01*
X207452380Y-70309523D01*
X207452380Y-69690476D01*
X207452380Y-68738095D02*
X207452380Y-69309523D01*
X207452380Y-69023809D02*
X206452380Y-69023809D01*
X206595238Y-69119047D01*
X206690476Y-69214285D01*
X206738095Y-69309523D01*
X143842518Y-47142857D02*
X143366328Y-47476190D01*
X143842518Y-47714285D02*
X142842518Y-47714285D01*
X142842518Y-47333333D01*
X142890138Y-47238095D01*
X142937757Y-47190476D01*
X143032995Y-47142857D01*
X143175852Y-47142857D01*
X143271090Y-47190476D01*
X143318709Y-47238095D01*
X143366328Y-47333333D01*
X143366328Y-47714285D01*
X142937757Y-46761904D02*
X142890138Y-46714285D01*
X142842518Y-46619047D01*
X142842518Y-46380952D01*
X142890138Y-46285714D01*
X142937757Y-46238095D01*
X143032995Y-46190476D01*
X143128233Y-46190476D01*
X143271090Y-46238095D01*
X143842518Y-46809523D01*
X143842518Y-46190476D01*
X142937757Y-45809523D02*
X142890138Y-45761904D01*
X142842518Y-45666666D01*
X142842518Y-45428571D01*
X142890138Y-45333333D01*
X142937757Y-45285714D01*
X143032995Y-45238095D01*
X143128233Y-45238095D01*
X143271090Y-45285714D01*
X143842518Y-45857142D01*
X143842518Y-45238095D01*
X207988095Y-57402380D02*
X207988095Y-58211904D01*
X208035714Y-58307142D01*
X208083333Y-58354761D01*
X208178571Y-58402380D01*
X208369047Y-58402380D01*
X208464285Y-58354761D01*
X208511904Y-58307142D01*
X208559523Y-58211904D01*
X208559523Y-57402380D01*
X208940476Y-57402380D02*
X209559523Y-57402380D01*
X209226190Y-57783333D01*
X209369047Y-57783333D01*
X209464285Y-57830952D01*
X209511904Y-57878571D01*
X209559523Y-57973809D01*
X209559523Y-58211904D01*
X209511904Y-58307142D01*
X209464285Y-58354761D01*
X209369047Y-58402380D01*
X209083333Y-58402380D01*
X208988095Y-58354761D01*
X208940476Y-58307142D01*
X171056804Y-60058098D02*
X170723471Y-59581908D01*
X170485376Y-60058098D02*
X170485376Y-59058098D01*
X170866328Y-59058098D01*
X170961566Y-59105718D01*
X171009185Y-59153337D01*
X171056804Y-59248575D01*
X171056804Y-59391432D01*
X171009185Y-59486670D01*
X170961566Y-59534289D01*
X170866328Y-59581908D01*
X170485376Y-59581908D01*
X171866328Y-60010479D02*
X171771090Y-60058098D01*
X171580614Y-60058098D01*
X171485376Y-60010479D01*
X171437757Y-59915241D01*
X171437757Y-59534289D01*
X171485376Y-59439051D01*
X171580614Y-59391432D01*
X171771090Y-59391432D01*
X171866328Y-59439051D01*
X171913947Y-59534289D01*
X171913947Y-59629527D01*
X171437757Y-59724765D01*
X172199661Y-59391432D02*
X172580614Y-59391432D01*
X172342518Y-60058098D02*
X172342518Y-59200956D01*
X172390138Y-59105718D01*
X172485376Y-59058098D01*
X172580614Y-59058098D01*
X172675852Y-60153337D02*
X173437757Y-60153337D01*
X173675852Y-60058098D02*
X173675852Y-59058098D01*
X174152042Y-59391432D02*
X174152042Y-60058098D01*
X174152042Y-59486670D02*
X174199661Y-59439051D01*
X174294899Y-59391432D01*
X174437757Y-59391432D01*
X174532995Y-59439051D01*
X174580614Y-59534289D01*
X174580614Y-60058098D01*
X174818709Y-60153337D02*
X175580614Y-60153337D01*
X176342518Y-60058098D02*
X175771090Y-60058098D01*
X176056804Y-60058098D02*
X176056804Y-59058098D01*
X175961566Y-59200956D01*
X175866328Y-59296194D01*
X175771090Y-59343813D01*
X203152380Y-61166666D02*
X202676190Y-61500000D01*
X203152380Y-61738095D02*
X202152380Y-61738095D01*
X202152380Y-61357142D01*
X202200000Y-61261904D01*
X202247619Y-61214285D01*
X202342857Y-61166666D01*
X202485714Y-61166666D01*
X202580952Y-61214285D01*
X202628571Y-61261904D01*
X202676190Y-61357142D01*
X202676190Y-61738095D01*
X202152380Y-60833333D02*
X202152380Y-60214285D01*
X202533333Y-60547619D01*
X202533333Y-60404761D01*
X202580952Y-60309523D01*
X202628571Y-60261904D01*
X202723809Y-60214285D01*
X202961904Y-60214285D01*
X203057142Y-60261904D01*
X203104761Y-60309523D01*
X203152380Y-60404761D01*
X203152380Y-60690476D01*
X203104761Y-60785714D01*
X203057142Y-60833333D01*
X178847619Y-60833333D02*
X179323809Y-60500000D01*
X178847619Y-60261904D02*
X179847619Y-60261904D01*
X179847619Y-60642857D01*
X179800000Y-60738095D01*
X179752380Y-60785714D01*
X179657142Y-60833333D01*
X179514285Y-60833333D01*
X179419047Y-60785714D01*
X179371428Y-60738095D01*
X179323809Y-60642857D01*
X179323809Y-60261904D01*
X179419047Y-61404761D02*
X179466666Y-61309523D01*
X179514285Y-61261904D01*
X179609523Y-61214285D01*
X179657142Y-61214285D01*
X179752380Y-61261904D01*
X179800000Y-61309523D01*
X179847619Y-61404761D01*
X179847619Y-61595238D01*
X179800000Y-61690476D01*
X179752380Y-61738095D01*
X179657142Y-61785714D01*
X179609523Y-61785714D01*
X179514285Y-61738095D01*
X179466666Y-61690476D01*
X179419047Y-61595238D01*
X179419047Y-61404761D01*
X179371428Y-61309523D01*
X179323809Y-61261904D01*
X179228571Y-61214285D01*
X179038095Y-61214285D01*
X178942857Y-61261904D01*
X178895238Y-61309523D01*
X178847619Y-61404761D01*
X178847619Y-61595238D01*
X178895238Y-61690476D01*
X178942857Y-61738095D01*
X179038095Y-61785714D01*
X179228571Y-61785714D01*
X179323809Y-61738095D01*
X179371428Y-61690476D01*
X179419047Y-61595238D01*
X203202380Y-47416666D02*
X202726190Y-47750000D01*
X203202380Y-47988095D02*
X202202380Y-47988095D01*
X202202380Y-47607142D01*
X202250000Y-47511904D01*
X202297619Y-47464285D01*
X202392857Y-47416666D01*
X202535714Y-47416666D01*
X202630952Y-47464285D01*
X202678571Y-47511904D01*
X202726190Y-47607142D01*
X202726190Y-47988095D01*
X203202380Y-46940476D02*
X203202380Y-46750000D01*
X203154761Y-46654761D01*
X203107142Y-46607142D01*
X202964285Y-46511904D01*
X202773809Y-46464285D01*
X202392857Y-46464285D01*
X202297619Y-46511904D01*
X202250000Y-46559523D01*
X202202380Y-46654761D01*
X202202380Y-46845238D01*
X202250000Y-46940476D01*
X202297619Y-46988095D01*
X202392857Y-47035714D01*
X202630952Y-47035714D01*
X202726190Y-46988095D01*
X202773809Y-46940476D01*
X202821428Y-46845238D01*
X202821428Y-46654761D01*
X202773809Y-46559523D01*
X202726190Y-46511904D01*
X202630952Y-46464285D01*
X179727380Y-48642857D02*
X179251190Y-48976190D01*
X179727380Y-49214285D02*
X178727380Y-49214285D01*
X178727380Y-48833333D01*
X178775000Y-48738095D01*
X178822619Y-48690476D01*
X178917857Y-48642857D01*
X179060714Y-48642857D01*
X179155952Y-48690476D01*
X179203571Y-48738095D01*
X179251190Y-48833333D01*
X179251190Y-49214285D01*
X179727380Y-47690476D02*
X179727380Y-48261904D01*
X179727380Y-47976190D02*
X178727380Y-47976190D01*
X178870238Y-48071428D01*
X178965476Y-48166666D01*
X179013095Y-48261904D01*
X178727380Y-47071428D02*
X178727380Y-46976190D01*
X178775000Y-46880952D01*
X178822619Y-46833333D01*
X178917857Y-46785714D01*
X179108333Y-46738095D01*
X179346428Y-46738095D01*
X179536904Y-46785714D01*
X179632142Y-46833333D01*
X179679761Y-46880952D01*
X179727380Y-46976190D01*
X179727380Y-47071428D01*
X179679761Y-47166666D01*
X179632142Y-47214285D01*
X179536904Y-47261904D01*
X179346428Y-47309523D01*
X179108333Y-47309523D01*
X178917857Y-47261904D01*
X178822619Y-47214285D01*
X178775000Y-47166666D01*
X178727380Y-47071428D01*
X188414285Y-141371428D02*
X189176190Y-141371428D01*
X188795238Y-141752380D02*
X188795238Y-140990476D01*
X190128571Y-140752380D02*
X189652380Y-140752380D01*
X189604761Y-141228571D01*
X189652380Y-141180952D01*
X189747619Y-141133333D01*
X189985714Y-141133333D01*
X190080952Y-141180952D01*
X190128571Y-141228571D01*
X190176190Y-141323809D01*
X190176190Y-141561904D01*
X190128571Y-141657142D01*
X190080952Y-141704761D01*
X189985714Y-141752380D01*
X189747619Y-141752380D01*
X189652380Y-141704761D01*
X189604761Y-141657142D01*
X190461904Y-140752380D02*
X190795238Y-141752380D01*
X191128571Y-140752380D01*
X97296428Y-76686904D02*
X97296428Y-75925000D01*
X97677380Y-76305952D02*
X96915476Y-76305952D01*
X97677380Y-74925000D02*
X97677380Y-75496428D01*
X97677380Y-75210714D02*
X96677380Y-75210714D01*
X96820238Y-75305952D01*
X96915476Y-75401190D01*
X96963095Y-75496428D01*
X96772619Y-74544047D02*
X96725000Y-74496428D01*
X96677380Y-74401190D01*
X96677380Y-74163095D01*
X96725000Y-74067857D01*
X96772619Y-74020238D01*
X96867857Y-73972619D01*
X96963095Y-73972619D01*
X97105952Y-74020238D01*
X97677380Y-74591666D01*
X97677380Y-73972619D01*
X96677380Y-73686904D02*
X97677380Y-73353571D01*
X96677380Y-73020238D01*
X97196428Y-67811904D02*
X97196428Y-67050000D01*
X97577380Y-66050000D02*
X97577380Y-66621428D01*
X97577380Y-66335714D02*
X96577380Y-66335714D01*
X96720238Y-66430952D01*
X96815476Y-66526190D01*
X96863095Y-66621428D01*
X96672619Y-65669047D02*
X96625000Y-65621428D01*
X96577380Y-65526190D01*
X96577380Y-65288095D01*
X96625000Y-65192857D01*
X96672619Y-65145238D01*
X96767857Y-65097619D01*
X96863095Y-65097619D01*
X97005952Y-65145238D01*
X97577380Y-65716666D01*
X97577380Y-65097619D01*
X96577380Y-64811904D02*
X97577380Y-64478571D01*
X96577380Y-64145238D01*
X96725000Y-71011904D02*
X96677380Y-71107142D01*
X96677380Y-71250000D01*
X96725000Y-71392857D01*
X96820238Y-71488095D01*
X96915476Y-71535714D01*
X97105952Y-71583333D01*
X97248809Y-71583333D01*
X97439285Y-71535714D01*
X97534523Y-71488095D01*
X97629761Y-71392857D01*
X97677380Y-71250000D01*
X97677380Y-71154761D01*
X97629761Y-71011904D01*
X97582142Y-70964285D01*
X97248809Y-70964285D01*
X97248809Y-71154761D01*
X97677380Y-70535714D02*
X96677380Y-70535714D01*
X97677380Y-69964285D01*
X96677380Y-69964285D01*
X97677380Y-69488095D02*
X96677380Y-69488095D01*
X96677380Y-69250000D01*
X96725000Y-69107142D01*
X96820238Y-69011904D01*
X96915476Y-68964285D01*
X97105952Y-68916666D01*
X97248809Y-68916666D01*
X97439285Y-68964285D01*
X97534523Y-69011904D01*
X97629761Y-69107142D01*
X97677380Y-69250000D01*
X97677380Y-69488095D01*
X217357142Y-116152380D02*
X217023809Y-115676190D01*
X216785714Y-116152380D02*
X216785714Y-115152380D01*
X217166666Y-115152380D01*
X217261904Y-115200000D01*
X217309523Y-115247619D01*
X217357142Y-115342857D01*
X217357142Y-115485714D01*
X217309523Y-115580952D01*
X217261904Y-115628571D01*
X217166666Y-115676190D01*
X216785714Y-115676190D01*
X218309523Y-116152380D02*
X217738095Y-116152380D01*
X218023809Y-116152380D02*
X218023809Y-115152380D01*
X217928571Y-115295238D01*
X217833333Y-115390476D01*
X217738095Y-115438095D01*
X219166666Y-115152380D02*
X218976190Y-115152380D01*
X218880952Y-115200000D01*
X218833333Y-115247619D01*
X218738095Y-115390476D01*
X218690476Y-115580952D01*
X218690476Y-115961904D01*
X218738095Y-116057142D01*
X218785714Y-116104761D01*
X218880952Y-116152380D01*
X219071428Y-116152380D01*
X219166666Y-116104761D01*
X219214285Y-116057142D01*
X219261904Y-115961904D01*
X219261904Y-115723809D01*
X219214285Y-115628571D01*
X219166666Y-115580952D01*
X219071428Y-115533333D01*
X218880952Y-115533333D01*
X218785714Y-115580952D01*
X218738095Y-115628571D01*
X218690476Y-115723809D01*
X213952380Y-125142857D02*
X213476190Y-125476190D01*
X213952380Y-125714285D02*
X212952380Y-125714285D01*
X212952380Y-125333333D01*
X213000000Y-125238095D01*
X213047619Y-125190476D01*
X213142857Y-125142857D01*
X213285714Y-125142857D01*
X213380952Y-125190476D01*
X213428571Y-125238095D01*
X213476190Y-125333333D01*
X213476190Y-125714285D01*
X213047619Y-124761904D02*
X213000000Y-124714285D01*
X212952380Y-124619047D01*
X212952380Y-124380952D01*
X213000000Y-124285714D01*
X213047619Y-124238095D01*
X213142857Y-124190476D01*
X213238095Y-124190476D01*
X213380952Y-124238095D01*
X213952380Y-124809523D01*
X213952380Y-124190476D01*
X212952380Y-123857142D02*
X212952380Y-123238095D01*
X213333333Y-123571428D01*
X213333333Y-123428571D01*
X213380952Y-123333333D01*
X213428571Y-123285714D01*
X213523809Y-123238095D01*
X213761904Y-123238095D01*
X213857142Y-123285714D01*
X213904761Y-123333333D01*
X213952380Y-123428571D01*
X213952380Y-123714285D01*
X213904761Y-123809523D01*
X213857142Y-123857142D01*
X217257142Y-121952380D02*
X216923809Y-121476190D01*
X216685714Y-121952380D02*
X216685714Y-120952380D01*
X217066666Y-120952380D01*
X217161904Y-121000000D01*
X217209523Y-121047619D01*
X217257142Y-121142857D01*
X217257142Y-121285714D01*
X217209523Y-121380952D01*
X217161904Y-121428571D01*
X217066666Y-121476190D01*
X216685714Y-121476190D01*
X217638095Y-121047619D02*
X217685714Y-121000000D01*
X217780952Y-120952380D01*
X218019047Y-120952380D01*
X218114285Y-121000000D01*
X218161904Y-121047619D01*
X218209523Y-121142857D01*
X218209523Y-121238095D01*
X218161904Y-121380952D01*
X217590476Y-121952380D01*
X218209523Y-121952380D01*
X219114285Y-120952380D02*
X218638095Y-120952380D01*
X218590476Y-121428571D01*
X218638095Y-121380952D01*
X218733333Y-121333333D01*
X218971428Y-121333333D01*
X219066666Y-121380952D01*
X219114285Y-121428571D01*
X219161904Y-121523809D01*
X219161904Y-121761904D01*
X219114285Y-121857142D01*
X219066666Y-121904761D01*
X218971428Y-121952380D01*
X218733333Y-121952380D01*
X218638095Y-121904761D01*
X218590476Y-121857142D01*
X216652380Y-57542857D02*
X216176190Y-57876190D01*
X216652380Y-58114285D02*
X215652380Y-58114285D01*
X215652380Y-57733333D01*
X215700000Y-57638095D01*
X215747619Y-57590476D01*
X215842857Y-57542857D01*
X215985714Y-57542857D01*
X216080952Y-57590476D01*
X216128571Y-57638095D01*
X216176190Y-57733333D01*
X216176190Y-58114285D01*
X215747619Y-57161904D02*
X215700000Y-57114285D01*
X215652380Y-57019047D01*
X215652380Y-56780952D01*
X215700000Y-56685714D01*
X215747619Y-56638095D01*
X215842857Y-56590476D01*
X215938095Y-56590476D01*
X216080952Y-56638095D01*
X216652380Y-57209523D01*
X216652380Y-56590476D01*
X215652380Y-55733333D02*
X215652380Y-55923809D01*
X215700000Y-56019047D01*
X215747619Y-56066666D01*
X215890476Y-56161904D01*
X216080952Y-56209523D01*
X216461904Y-56209523D01*
X216557142Y-56161904D01*
X216604761Y-56114285D01*
X216652380Y-56019047D01*
X216652380Y-55828571D01*
X216604761Y-55733333D01*
X216557142Y-55685714D01*
X216461904Y-55638095D01*
X216223809Y-55638095D01*
X216128571Y-55685714D01*
X216080952Y-55733333D01*
X216033333Y-55828571D01*
X216033333Y-56019047D01*
X216080952Y-56114285D01*
X216128571Y-56161904D01*
X216223809Y-56209523D01*
X111452380Y-91166666D02*
X110976190Y-91500000D01*
X111452380Y-91738095D02*
X110452380Y-91738095D01*
X110452380Y-91357142D01*
X110500000Y-91261904D01*
X110547619Y-91214285D01*
X110642857Y-91166666D01*
X110785714Y-91166666D01*
X110880952Y-91214285D01*
X110928571Y-91261904D01*
X110976190Y-91357142D01*
X110976190Y-91738095D01*
X111452380Y-90214285D02*
X111452380Y-90785714D01*
X111452380Y-90500000D02*
X110452380Y-90500000D01*
X110595238Y-90595238D01*
X110690476Y-90690476D01*
X110738095Y-90785714D01*
X126433333Y-90452380D02*
X126100000Y-89976190D01*
X125861904Y-90452380D02*
X125861904Y-89452380D01*
X126242857Y-89452380D01*
X126338095Y-89500000D01*
X126385714Y-89547619D01*
X126433333Y-89642857D01*
X126433333Y-89785714D01*
X126385714Y-89880952D01*
X126338095Y-89928571D01*
X126242857Y-89976190D01*
X125861904Y-89976190D01*
X126814285Y-89547619D02*
X126861904Y-89500000D01*
X126957142Y-89452380D01*
X127195238Y-89452380D01*
X127290476Y-89500000D01*
X127338095Y-89547619D01*
X127385714Y-89642857D01*
X127385714Y-89738095D01*
X127338095Y-89880952D01*
X126766666Y-90452380D01*
X127385714Y-90452380D01*
X167877380Y-61166666D02*
X167401190Y-61500000D01*
X167877380Y-61738095D02*
X166877380Y-61738095D01*
X166877380Y-61357142D01*
X166925000Y-61261904D01*
X166972619Y-61214285D01*
X167067857Y-61166666D01*
X167210714Y-61166666D01*
X167305952Y-61214285D01*
X167353571Y-61261904D01*
X167401190Y-61357142D01*
X167401190Y-61738095D01*
X166877380Y-60261904D02*
X166877380Y-60738095D01*
X167353571Y-60785714D01*
X167305952Y-60738095D01*
X167258333Y-60642857D01*
X167258333Y-60404761D01*
X167305952Y-60309523D01*
X167353571Y-60261904D01*
X167448809Y-60214285D01*
X167686904Y-60214285D01*
X167782142Y-60261904D01*
X167829761Y-60309523D01*
X167877380Y-60404761D01*
X167877380Y-60642857D01*
X167829761Y-60738095D01*
X167782142Y-60785714D01*
X167852380Y-47666666D02*
X167376190Y-48000000D01*
X167852380Y-48238095D02*
X166852380Y-48238095D01*
X166852380Y-47857142D01*
X166900000Y-47761904D01*
X166947619Y-47714285D01*
X167042857Y-47666666D01*
X167185714Y-47666666D01*
X167280952Y-47714285D01*
X167328571Y-47761904D01*
X167376190Y-47857142D01*
X167376190Y-48238095D01*
X166852380Y-46809523D02*
X166852380Y-47000000D01*
X166900000Y-47095238D01*
X166947619Y-47142857D01*
X167090476Y-47238095D01*
X167280952Y-47285714D01*
X167661904Y-47285714D01*
X167757142Y-47238095D01*
X167804761Y-47190476D01*
X167852380Y-47095238D01*
X167852380Y-46904761D01*
X167804761Y-46809523D01*
X167757142Y-46761904D01*
X167661904Y-46714285D01*
X167423809Y-46714285D01*
X167328571Y-46761904D01*
X167280952Y-46809523D01*
X167233333Y-46904761D01*
X167233333Y-47095238D01*
X167280952Y-47190476D01*
X167328571Y-47238095D01*
X167423809Y-47285714D01*
X217783333Y-113052380D02*
X217450000Y-112576190D01*
X217211904Y-113052380D02*
X217211904Y-112052380D01*
X217592857Y-112052380D01*
X217688095Y-112100000D01*
X217735714Y-112147619D01*
X217783333Y-112242857D01*
X217783333Y-112385714D01*
X217735714Y-112480952D01*
X217688095Y-112528571D01*
X217592857Y-112576190D01*
X217211904Y-112576190D01*
X218116666Y-112052380D02*
X218783333Y-112052380D01*
X218354761Y-113052380D01*
X218057142Y-57352380D02*
X217723809Y-56876190D01*
X217485714Y-57352380D02*
X217485714Y-56352380D01*
X217866666Y-56352380D01*
X217961904Y-56400000D01*
X218009523Y-56447619D01*
X218057142Y-56542857D01*
X218057142Y-56685714D01*
X218009523Y-56780952D01*
X217961904Y-56828571D01*
X217866666Y-56876190D01*
X217485714Y-56876190D01*
X218438095Y-56447619D02*
X218485714Y-56400000D01*
X218580952Y-56352380D01*
X218819047Y-56352380D01*
X218914285Y-56400000D01*
X218961904Y-56447619D01*
X219009523Y-56542857D01*
X219009523Y-56638095D01*
X218961904Y-56780952D01*
X218390476Y-57352380D01*
X219009523Y-57352380D01*
X219866666Y-56685714D02*
X219866666Y-57352380D01*
X219628571Y-56304761D02*
X219390476Y-57019047D01*
X220009523Y-57019047D01*
X217102380Y-66142857D02*
X216626190Y-66476190D01*
X217102380Y-66714285D02*
X216102380Y-66714285D01*
X216102380Y-66333333D01*
X216150000Y-66238095D01*
X216197619Y-66190476D01*
X216292857Y-66142857D01*
X216435714Y-66142857D01*
X216530952Y-66190476D01*
X216578571Y-66238095D01*
X216626190Y-66333333D01*
X216626190Y-66714285D01*
X216197619Y-65761904D02*
X216150000Y-65714285D01*
X216102380Y-65619047D01*
X216102380Y-65380952D01*
X216150000Y-65285714D01*
X216197619Y-65238095D01*
X216292857Y-65190476D01*
X216388095Y-65190476D01*
X216530952Y-65238095D01*
X217102380Y-65809523D01*
X217102380Y-65190476D01*
X216102380Y-64857142D02*
X216102380Y-64190476D01*
X217102380Y-64619047D01*
X218057142Y-68352380D02*
X217723809Y-67876190D01*
X217485714Y-68352380D02*
X217485714Y-67352380D01*
X217866666Y-67352380D01*
X217961904Y-67400000D01*
X218009523Y-67447619D01*
X218057142Y-67542857D01*
X218057142Y-67685714D01*
X218009523Y-67780952D01*
X217961904Y-67828571D01*
X217866666Y-67876190D01*
X217485714Y-67876190D01*
X218438095Y-67447619D02*
X218485714Y-67400000D01*
X218580952Y-67352380D01*
X218819047Y-67352380D01*
X218914285Y-67400000D01*
X218961904Y-67447619D01*
X219009523Y-67542857D01*
X219009523Y-67638095D01*
X218961904Y-67780952D01*
X218390476Y-68352380D01*
X219009523Y-68352380D01*
X219580952Y-67780952D02*
X219485714Y-67733333D01*
X219438095Y-67685714D01*
X219390476Y-67590476D01*
X219390476Y-67542857D01*
X219438095Y-67447619D01*
X219485714Y-67400000D01*
X219580952Y-67352380D01*
X219771428Y-67352380D01*
X219866666Y-67400000D01*
X219914285Y-67447619D01*
X219961904Y-67542857D01*
X219961904Y-67590476D01*
X219914285Y-67685714D01*
X219866666Y-67733333D01*
X219771428Y-67780952D01*
X219580952Y-67780952D01*
X219485714Y-67828571D01*
X219438095Y-67876190D01*
X219390476Y-67971428D01*
X219390476Y-68161904D01*
X219438095Y-68257142D01*
X219485714Y-68304761D01*
X219580952Y-68352380D01*
X219771428Y-68352380D01*
X219866666Y-68304761D01*
X219914285Y-68257142D01*
X219961904Y-68161904D01*
X219961904Y-67971428D01*
X219914285Y-67876190D01*
X219866666Y-67828571D01*
X219771428Y-67780952D01*
X125102380Y-58036904D02*
X125911904Y-58036904D01*
X126007142Y-57989285D01*
X126054761Y-57941666D01*
X126102380Y-57846428D01*
X126102380Y-57655952D01*
X126054761Y-57560714D01*
X126007142Y-57513095D01*
X125911904Y-57465476D01*
X125102380Y-57465476D01*
X125197619Y-57036904D02*
X125150000Y-56989285D01*
X125102380Y-56894047D01*
X125102380Y-56655952D01*
X125150000Y-56560714D01*
X125197619Y-56513095D01*
X125292857Y-56465476D01*
X125388095Y-56465476D01*
X125530952Y-56513095D01*
X126102380Y-57084523D01*
X126102380Y-56465476D01*
X189923380Y-129163666D02*
X189447190Y-129497000D01*
X189923380Y-129735095D02*
X188923380Y-129735095D01*
X188923380Y-129354142D01*
X188971000Y-129258904D01*
X189018619Y-129211285D01*
X189113857Y-129163666D01*
X189256714Y-129163666D01*
X189351952Y-129211285D01*
X189399571Y-129258904D01*
X189447190Y-129354142D01*
X189447190Y-129735095D01*
X189923380Y-128735095D02*
X188923380Y-128735095D01*
X188923380Y-128354142D01*
X188971000Y-128258904D01*
X189018619Y-128211285D01*
X189113857Y-128163666D01*
X189256714Y-128163666D01*
X189351952Y-128211285D01*
X189399571Y-128258904D01*
X189447190Y-128354142D01*
X189447190Y-128735095D01*
X189923380Y-127211285D02*
X189923380Y-127782714D01*
X189923380Y-127497000D02*
X188923380Y-127497000D01*
X189066238Y-127592238D01*
X189161476Y-127687476D01*
X189209095Y-127782714D01*
X111502380Y-88142857D02*
X111026190Y-88476190D01*
X111502380Y-88714285D02*
X110502380Y-88714285D01*
X110502380Y-88333333D01*
X110550000Y-88238095D01*
X110597619Y-88190476D01*
X110692857Y-88142857D01*
X110835714Y-88142857D01*
X110930952Y-88190476D01*
X110978571Y-88238095D01*
X111026190Y-88333333D01*
X111026190Y-88714285D01*
X110597619Y-87761904D02*
X110550000Y-87714285D01*
X110502380Y-87619047D01*
X110502380Y-87380952D01*
X110550000Y-87285714D01*
X110597619Y-87238095D01*
X110692857Y-87190476D01*
X110788095Y-87190476D01*
X110930952Y-87238095D01*
X111502380Y-87809523D01*
X111502380Y-87190476D01*
X111502380Y-86714285D02*
X111502380Y-86523809D01*
X111454761Y-86428571D01*
X111407142Y-86380952D01*
X111264285Y-86285714D01*
X111073809Y-86238095D01*
X110692857Y-86238095D01*
X110597619Y-86285714D01*
X110550000Y-86333333D01*
X110502380Y-86428571D01*
X110502380Y-86619047D01*
X110550000Y-86714285D01*
X110597619Y-86761904D01*
X110692857Y-86809523D01*
X110930952Y-86809523D01*
X111026190Y-86761904D01*
X111073809Y-86714285D01*
X111121428Y-86619047D01*
X111121428Y-86428571D01*
X111073809Y-86333333D01*
X111026190Y-86285714D01*
X110930952Y-86238095D01*
X126357142Y-87952380D02*
X126023809Y-87476190D01*
X125785714Y-87952380D02*
X125785714Y-86952380D01*
X126166666Y-86952380D01*
X126261904Y-87000000D01*
X126309523Y-87047619D01*
X126357142Y-87142857D01*
X126357142Y-87285714D01*
X126309523Y-87380952D01*
X126261904Y-87428571D01*
X126166666Y-87476190D01*
X125785714Y-87476190D01*
X126690476Y-86952380D02*
X127309523Y-86952380D01*
X126976190Y-87333333D01*
X127119047Y-87333333D01*
X127214285Y-87380952D01*
X127261904Y-87428571D01*
X127309523Y-87523809D01*
X127309523Y-87761904D01*
X127261904Y-87857142D01*
X127214285Y-87904761D01*
X127119047Y-87952380D01*
X126833333Y-87952380D01*
X126738095Y-87904761D01*
X126690476Y-87857142D01*
X127928571Y-86952380D02*
X128023809Y-86952380D01*
X128119047Y-87000000D01*
X128166666Y-87047619D01*
X128214285Y-87142857D01*
X128261904Y-87333333D01*
X128261904Y-87571428D01*
X128214285Y-87761904D01*
X128166666Y-87857142D01*
X128119047Y-87904761D01*
X128023809Y-87952380D01*
X127928571Y-87952380D01*
X127833333Y-87904761D01*
X127785714Y-87857142D01*
X127738095Y-87761904D01*
X127690476Y-87571428D01*
X127690476Y-87333333D01*
X127738095Y-87142857D01*
X127785714Y-87047619D01*
X127833333Y-87000000D01*
X127928571Y-86952380D01*
X224482857Y-108770000D02*
X224387619Y-108722380D01*
X224244761Y-108722380D01*
X224101904Y-108770000D01*
X224006666Y-108865238D01*
X223959047Y-108960476D01*
X223911428Y-109150952D01*
X223911428Y-109293809D01*
X223959047Y-109484285D01*
X224006666Y-109579523D01*
X224101904Y-109674761D01*
X224244761Y-109722380D01*
X224340000Y-109722380D01*
X224482857Y-109674761D01*
X224530476Y-109627142D01*
X224530476Y-109293809D01*
X224340000Y-109293809D01*
X225387619Y-109722380D02*
X225387619Y-109198571D01*
X225340000Y-109103333D01*
X225244761Y-109055714D01*
X225054285Y-109055714D01*
X224959047Y-109103333D01*
X225387619Y-109674761D02*
X225292380Y-109722380D01*
X225054285Y-109722380D01*
X224959047Y-109674761D01*
X224911428Y-109579523D01*
X224911428Y-109484285D01*
X224959047Y-109389047D01*
X225054285Y-109341428D01*
X225292380Y-109341428D01*
X225387619Y-109293809D01*
X225863809Y-109722380D02*
X225863809Y-109055714D01*
X225863809Y-108722380D02*
X225816190Y-108770000D01*
X225863809Y-108817619D01*
X225911428Y-108770000D01*
X225863809Y-108722380D01*
X225863809Y-108817619D01*
X226340000Y-109055714D02*
X226340000Y-109722380D01*
X226340000Y-109150952D02*
X226387619Y-109103333D01*
X226482857Y-109055714D01*
X226625714Y-109055714D01*
X226720952Y-109103333D01*
X226768571Y-109198571D01*
X226768571Y-109722380D01*
X227768571Y-109722380D02*
X227197142Y-109722380D01*
X227482857Y-109722380D02*
X227482857Y-108722380D01*
X227387619Y-108865238D01*
X227292380Y-108960476D01*
X227197142Y-109008095D01*
X224532857Y-54750000D02*
X224437619Y-54702380D01*
X224294761Y-54702380D01*
X224151904Y-54750000D01*
X224056666Y-54845238D01*
X224009047Y-54940476D01*
X223961428Y-55130952D01*
X223961428Y-55273809D01*
X224009047Y-55464285D01*
X224056666Y-55559523D01*
X224151904Y-55654761D01*
X224294761Y-55702380D01*
X224390000Y-55702380D01*
X224532857Y-55654761D01*
X224580476Y-55607142D01*
X224580476Y-55273809D01*
X224390000Y-55273809D01*
X225437619Y-55702380D02*
X225437619Y-55178571D01*
X225390000Y-55083333D01*
X225294761Y-55035714D01*
X225104285Y-55035714D01*
X225009047Y-55083333D01*
X225437619Y-55654761D02*
X225342380Y-55702380D01*
X225104285Y-55702380D01*
X225009047Y-55654761D01*
X224961428Y-55559523D01*
X224961428Y-55464285D01*
X225009047Y-55369047D01*
X225104285Y-55321428D01*
X225342380Y-55321428D01*
X225437619Y-55273809D01*
X225913809Y-55702380D02*
X225913809Y-55035714D01*
X225913809Y-54702380D02*
X225866190Y-54750000D01*
X225913809Y-54797619D01*
X225961428Y-54750000D01*
X225913809Y-54702380D01*
X225913809Y-54797619D01*
X226390000Y-55035714D02*
X226390000Y-55702380D01*
X226390000Y-55130952D02*
X226437619Y-55083333D01*
X226532857Y-55035714D01*
X226675714Y-55035714D01*
X226770952Y-55083333D01*
X226818571Y-55178571D01*
X226818571Y-55702380D01*
X227247142Y-54797619D02*
X227294761Y-54750000D01*
X227390000Y-54702380D01*
X227628095Y-54702380D01*
X227723333Y-54750000D01*
X227770952Y-54797619D01*
X227818571Y-54892857D01*
X227818571Y-54988095D01*
X227770952Y-55130952D01*
X227199523Y-55702380D01*
X227818571Y-55702380D01*
X219752380Y-108742857D02*
X219276190Y-109076190D01*
X219752380Y-109314285D02*
X218752380Y-109314285D01*
X218752380Y-108933333D01*
X218800000Y-108838095D01*
X218847619Y-108790476D01*
X218942857Y-108742857D01*
X219085714Y-108742857D01*
X219180952Y-108790476D01*
X219228571Y-108838095D01*
X219276190Y-108933333D01*
X219276190Y-109314285D01*
X218752380Y-108409523D02*
X218752380Y-107790476D01*
X219133333Y-108123809D01*
X219133333Y-107980952D01*
X219180952Y-107885714D01*
X219228571Y-107838095D01*
X219323809Y-107790476D01*
X219561904Y-107790476D01*
X219657142Y-107838095D01*
X219704761Y-107885714D01*
X219752380Y-107980952D01*
X219752380Y-108266666D01*
X219704761Y-108361904D01*
X219657142Y-108409523D01*
X219752380Y-106838095D02*
X219752380Y-107409523D01*
X219752380Y-107123809D02*
X218752380Y-107123809D01*
X218895238Y-107219047D01*
X218990476Y-107314285D01*
X219038095Y-107409523D01*
X218057142Y-54102380D02*
X217723809Y-53626190D01*
X217485714Y-54102380D02*
X217485714Y-53102380D01*
X217866666Y-53102380D01*
X217961904Y-53150000D01*
X218009523Y-53197619D01*
X218057142Y-53292857D01*
X218057142Y-53435714D01*
X218009523Y-53530952D01*
X217961904Y-53578571D01*
X217866666Y-53626190D01*
X217485714Y-53626190D01*
X218390476Y-53102380D02*
X219009523Y-53102380D01*
X218676190Y-53483333D01*
X218819047Y-53483333D01*
X218914285Y-53530952D01*
X218961904Y-53578571D01*
X219009523Y-53673809D01*
X219009523Y-53911904D01*
X218961904Y-54007142D01*
X218914285Y-54054761D01*
X218819047Y-54102380D01*
X218533333Y-54102380D01*
X218438095Y-54054761D01*
X218390476Y-54007142D01*
X219390476Y-53197619D02*
X219438095Y-53150000D01*
X219533333Y-53102380D01*
X219771428Y-53102380D01*
X219866666Y-53150000D01*
X219914285Y-53197619D01*
X219961904Y-53292857D01*
X219961904Y-53388095D01*
X219914285Y-53530952D01*
X219342857Y-54102380D01*
X219961904Y-54102380D01*
X90138095Y-86002380D02*
X90138095Y-86811904D01*
X90185714Y-86907142D01*
X90233333Y-86954761D01*
X90328571Y-87002380D01*
X90519047Y-87002380D01*
X90614285Y-86954761D01*
X90661904Y-86907142D01*
X90709523Y-86811904D01*
X90709523Y-86002380D01*
X91709523Y-87002380D02*
X91138095Y-87002380D01*
X91423809Y-87002380D02*
X91423809Y-86002380D01*
X91328571Y-86145238D01*
X91233333Y-86240476D01*
X91138095Y-86288095D01*
X119757142Y-52242857D02*
X119804761Y-52290476D01*
X119852380Y-52433333D01*
X119852380Y-52528571D01*
X119804761Y-52671428D01*
X119709523Y-52766666D01*
X119614285Y-52814285D01*
X119423809Y-52861904D01*
X119280952Y-52861904D01*
X119090476Y-52814285D01*
X118995238Y-52766666D01*
X118900000Y-52671428D01*
X118852380Y-52528571D01*
X118852380Y-52433333D01*
X118900000Y-52290476D01*
X118947619Y-52242857D01*
X119852380Y-51290476D02*
X119852380Y-51861904D01*
X119852380Y-51576190D02*
X118852380Y-51576190D01*
X118995238Y-51671428D01*
X119090476Y-51766666D01*
X119138095Y-51861904D01*
X119852380Y-50338095D02*
X119852380Y-50909523D01*
X119852380Y-50623809D02*
X118852380Y-50623809D01*
X118995238Y-50719047D01*
X119090476Y-50814285D01*
X119138095Y-50909523D01*
X120457142Y-63542857D02*
X120504761Y-63590476D01*
X120552380Y-63733333D01*
X120552380Y-63828571D01*
X120504761Y-63971428D01*
X120409523Y-64066666D01*
X120314285Y-64114285D01*
X120123809Y-64161904D01*
X119980952Y-64161904D01*
X119790476Y-64114285D01*
X119695238Y-64066666D01*
X119600000Y-63971428D01*
X119552380Y-63828571D01*
X119552380Y-63733333D01*
X119600000Y-63590476D01*
X119647619Y-63542857D01*
X120552380Y-62590476D02*
X120552380Y-63161904D01*
X120552380Y-62876190D02*
X119552380Y-62876190D01*
X119695238Y-62971428D01*
X119790476Y-63066666D01*
X119838095Y-63161904D01*
X119647619Y-62209523D02*
X119600000Y-62161904D01*
X119552380Y-62066666D01*
X119552380Y-61828571D01*
X119600000Y-61733333D01*
X119647619Y-61685714D01*
X119742857Y-61638095D01*
X119838095Y-61638095D01*
X119980952Y-61685714D01*
X120552380Y-62257142D01*
X120552380Y-61638095D01*
X102314285Y-60052380D02*
X102314285Y-59052380D01*
X102552380Y-59052380D01*
X102695238Y-59100000D01*
X102790476Y-59195238D01*
X102838095Y-59290476D01*
X102885714Y-59480952D01*
X102885714Y-59623809D01*
X102838095Y-59814285D01*
X102790476Y-59909523D01*
X102695238Y-60004761D01*
X102552380Y-60052380D01*
X102314285Y-60052380D01*
X103314285Y-60052380D02*
X103314285Y-59385714D01*
X103314285Y-59052380D02*
X103266666Y-59100000D01*
X103314285Y-59147619D01*
X103361904Y-59100000D01*
X103314285Y-59052380D01*
X103314285Y-59147619D01*
X103647619Y-59385714D02*
X104028571Y-59385714D01*
X103790476Y-60052380D02*
X103790476Y-59195238D01*
X103838095Y-59100000D01*
X103933333Y-59052380D01*
X104028571Y-59052380D01*
X104219047Y-59385714D02*
X104600000Y-59385714D01*
X104361904Y-60052380D02*
X104361904Y-59195238D01*
X104409523Y-59100000D01*
X104504761Y-59052380D01*
X104600000Y-59052380D01*
X104695238Y-60147619D02*
X105457142Y-60147619D01*
X105695238Y-60052380D02*
X105695238Y-59052380D01*
X106028571Y-59766666D01*
X106361904Y-59052380D01*
X106361904Y-60052380D01*
X106980952Y-60052380D02*
X106885714Y-60004761D01*
X106838095Y-59957142D01*
X106790476Y-59861904D01*
X106790476Y-59576190D01*
X106838095Y-59480952D01*
X106885714Y-59433333D01*
X106980952Y-59385714D01*
X107123809Y-59385714D01*
X107219047Y-59433333D01*
X107266666Y-59480952D01*
X107314285Y-59576190D01*
X107314285Y-59861904D01*
X107266666Y-59957142D01*
X107219047Y-60004761D01*
X107123809Y-60052380D01*
X106980952Y-60052380D01*
X107742857Y-59385714D02*
X107742857Y-60052380D01*
X107742857Y-59480952D02*
X107790476Y-59433333D01*
X107885714Y-59385714D01*
X108028571Y-59385714D01*
X108123809Y-59433333D01*
X108171428Y-59528571D01*
X108171428Y-60052380D01*
X108409523Y-60147619D02*
X109171428Y-60147619D01*
X109933333Y-60052380D02*
X109361904Y-60052380D01*
X109647619Y-60052380D02*
X109647619Y-59052380D01*
X109552380Y-59195238D01*
X109457142Y-59290476D01*
X109361904Y-59338095D01*
X102314285Y-46052380D02*
X102314285Y-45052380D01*
X102552380Y-45052380D01*
X102695238Y-45100000D01*
X102790476Y-45195238D01*
X102838095Y-45290476D01*
X102885714Y-45480952D01*
X102885714Y-45623809D01*
X102838095Y-45814285D01*
X102790476Y-45909523D01*
X102695238Y-46004761D01*
X102552380Y-46052380D01*
X102314285Y-46052380D01*
X103314285Y-46052380D02*
X103314285Y-45385714D01*
X103314285Y-45052380D02*
X103266666Y-45100000D01*
X103314285Y-45147619D01*
X103361904Y-45100000D01*
X103314285Y-45052380D01*
X103314285Y-45147619D01*
X103647619Y-45385714D02*
X104028571Y-45385714D01*
X103790476Y-46052380D02*
X103790476Y-45195238D01*
X103838095Y-45100000D01*
X103933333Y-45052380D01*
X104028571Y-45052380D01*
X104219047Y-45385714D02*
X104600000Y-45385714D01*
X104361904Y-46052380D02*
X104361904Y-45195238D01*
X104409523Y-45100000D01*
X104504761Y-45052380D01*
X104600000Y-45052380D01*
X104695238Y-46147619D02*
X105457142Y-46147619D01*
X105695238Y-46052380D02*
X105695238Y-45052380D01*
X106028571Y-45766666D01*
X106361904Y-45052380D01*
X106361904Y-46052380D01*
X106980952Y-46052380D02*
X106885714Y-46004761D01*
X106838095Y-45957142D01*
X106790476Y-45861904D01*
X106790476Y-45576190D01*
X106838095Y-45480952D01*
X106885714Y-45433333D01*
X106980952Y-45385714D01*
X107123809Y-45385714D01*
X107219047Y-45433333D01*
X107266666Y-45480952D01*
X107314285Y-45576190D01*
X107314285Y-45861904D01*
X107266666Y-45957142D01*
X107219047Y-46004761D01*
X107123809Y-46052380D01*
X106980952Y-46052380D01*
X107742857Y-45385714D02*
X107742857Y-46052380D01*
X107742857Y-45480952D02*
X107790476Y-45433333D01*
X107885714Y-45385714D01*
X108028571Y-45385714D01*
X108123809Y-45433333D01*
X108171428Y-45528571D01*
X108171428Y-46052380D01*
X108409523Y-46147619D02*
X109171428Y-46147619D01*
X109361904Y-45147619D02*
X109409523Y-45100000D01*
X109504761Y-45052380D01*
X109742857Y-45052380D01*
X109838095Y-45100000D01*
X109885714Y-45147619D01*
X109933333Y-45242857D01*
X109933333Y-45338095D01*
X109885714Y-45480952D01*
X109314285Y-46052380D01*
X109933333Y-46052380D01*
X111557142Y-61902380D02*
X111223809Y-61426190D01*
X110985714Y-61902380D02*
X110985714Y-60902380D01*
X111366666Y-60902380D01*
X111461904Y-60950000D01*
X111509523Y-60997619D01*
X111557142Y-61092857D01*
X111557142Y-61235714D01*
X111509523Y-61330952D01*
X111461904Y-61378571D01*
X111366666Y-61426190D01*
X110985714Y-61426190D01*
X111890476Y-60902380D02*
X112509523Y-60902380D01*
X112176190Y-61283333D01*
X112319047Y-61283333D01*
X112414285Y-61330952D01*
X112461904Y-61378571D01*
X112509523Y-61473809D01*
X112509523Y-61711904D01*
X112461904Y-61807142D01*
X112414285Y-61854761D01*
X112319047Y-61902380D01*
X112033333Y-61902380D01*
X111938095Y-61854761D01*
X111890476Y-61807142D01*
X112842857Y-60902380D02*
X113461904Y-60902380D01*
X113128571Y-61283333D01*
X113271428Y-61283333D01*
X113366666Y-61330952D01*
X113414285Y-61378571D01*
X113461904Y-61473809D01*
X113461904Y-61711904D01*
X113414285Y-61807142D01*
X113366666Y-61854761D01*
X113271428Y-61902380D01*
X112985714Y-61902380D01*
X112890476Y-61854761D01*
X112842857Y-61807142D01*
X111657142Y-48152380D02*
X111323809Y-47676190D01*
X111085714Y-48152380D02*
X111085714Y-47152380D01*
X111466666Y-47152380D01*
X111561904Y-47200000D01*
X111609523Y-47247619D01*
X111657142Y-47342857D01*
X111657142Y-47485714D01*
X111609523Y-47580952D01*
X111561904Y-47628571D01*
X111466666Y-47676190D01*
X111085714Y-47676190D01*
X111990476Y-47152380D02*
X112609523Y-47152380D01*
X112276190Y-47533333D01*
X112419047Y-47533333D01*
X112514285Y-47580952D01*
X112561904Y-47628571D01*
X112609523Y-47723809D01*
X112609523Y-47961904D01*
X112561904Y-48057142D01*
X112514285Y-48104761D01*
X112419047Y-48152380D01*
X112133333Y-48152380D01*
X112038095Y-48104761D01*
X111990476Y-48057142D01*
X112942857Y-47152380D02*
X113609523Y-47152380D01*
X113180952Y-48152380D01*
X115652380Y-57961904D02*
X116461904Y-57961904D01*
X116557142Y-57914285D01*
X116604761Y-57866666D01*
X116652380Y-57771428D01*
X116652380Y-57580952D01*
X116604761Y-57485714D01*
X116557142Y-57438095D01*
X116461904Y-57390476D01*
X115652380Y-57390476D01*
X115652380Y-56438095D02*
X115652380Y-56914285D01*
X116128571Y-56961904D01*
X116080952Y-56914285D01*
X116033333Y-56819047D01*
X116033333Y-56580952D01*
X116080952Y-56485714D01*
X116128571Y-56438095D01*
X116223809Y-56390476D01*
X116461904Y-56390476D01*
X116557142Y-56438095D01*
X116604761Y-56485714D01*
X116652380Y-56580952D01*
X116652380Y-56819047D01*
X116604761Y-56914285D01*
X116557142Y-56961904D01*
X127757142Y-69257142D02*
X127709523Y-69304761D01*
X127566666Y-69352380D01*
X127471428Y-69352380D01*
X127328571Y-69304761D01*
X127233333Y-69209523D01*
X127185714Y-69114285D01*
X127138095Y-68923809D01*
X127138095Y-68780952D01*
X127185714Y-68590476D01*
X127233333Y-68495238D01*
X127328571Y-68400000D01*
X127471428Y-68352380D01*
X127566666Y-68352380D01*
X127709523Y-68400000D01*
X127757142Y-68447619D01*
X128709523Y-69352380D02*
X128138095Y-69352380D01*
X128423809Y-69352380D02*
X128423809Y-68352380D01*
X128328571Y-68495238D01*
X128233333Y-68590476D01*
X128138095Y-68638095D01*
X129042857Y-68352380D02*
X129661904Y-68352380D01*
X129328571Y-68733333D01*
X129471428Y-68733333D01*
X129566666Y-68780952D01*
X129614285Y-68828571D01*
X129661904Y-68923809D01*
X129661904Y-69161904D01*
X129614285Y-69257142D01*
X129566666Y-69304761D01*
X129471428Y-69352380D01*
X129185714Y-69352380D01*
X129090476Y-69304761D01*
X129042857Y-69257142D01*
X131357142Y-52242857D02*
X131404761Y-52290476D01*
X131452380Y-52433333D01*
X131452380Y-52528571D01*
X131404761Y-52671428D01*
X131309523Y-52766666D01*
X131214285Y-52814285D01*
X131023809Y-52861904D01*
X130880952Y-52861904D01*
X130690476Y-52814285D01*
X130595238Y-52766666D01*
X130500000Y-52671428D01*
X130452380Y-52528571D01*
X130452380Y-52433333D01*
X130500000Y-52290476D01*
X130547619Y-52242857D01*
X131452380Y-51290476D02*
X131452380Y-51861904D01*
X131452380Y-51576190D02*
X130452380Y-51576190D01*
X130595238Y-51671428D01*
X130690476Y-51766666D01*
X130738095Y-51861904D01*
X130452380Y-50433333D02*
X130452380Y-50623809D01*
X130500000Y-50719047D01*
X130547619Y-50766666D01*
X130690476Y-50861904D01*
X130880952Y-50909523D01*
X131261904Y-50909523D01*
X131357142Y-50861904D01*
X131404761Y-50814285D01*
X131452380Y-50719047D01*
X131452380Y-50528571D01*
X131404761Y-50433333D01*
X131357142Y-50385714D01*
X131261904Y-50338095D01*
X131023809Y-50338095D01*
X130928571Y-50385714D01*
X130880952Y-50433333D01*
X130833333Y-50528571D01*
X130833333Y-50719047D01*
X130880952Y-50814285D01*
X130928571Y-50861904D01*
X131023809Y-50909523D01*
X130757142Y-66402380D02*
X130423809Y-65926190D01*
X130185714Y-66402380D02*
X130185714Y-65402380D01*
X130566666Y-65402380D01*
X130661904Y-65450000D01*
X130709523Y-65497619D01*
X130757142Y-65592857D01*
X130757142Y-65735714D01*
X130709523Y-65830952D01*
X130661904Y-65878571D01*
X130566666Y-65926190D01*
X130185714Y-65926190D01*
X131090476Y-65402380D02*
X131709523Y-65402380D01*
X131376190Y-65783333D01*
X131519047Y-65783333D01*
X131614285Y-65830952D01*
X131661904Y-65878571D01*
X131709523Y-65973809D01*
X131709523Y-66211904D01*
X131661904Y-66307142D01*
X131614285Y-66354761D01*
X131519047Y-66402380D01*
X131233333Y-66402380D01*
X131138095Y-66354761D01*
X131090476Y-66307142D01*
X132280952Y-65830952D02*
X132185714Y-65783333D01*
X132138095Y-65735714D01*
X132090476Y-65640476D01*
X132090476Y-65592857D01*
X132138095Y-65497619D01*
X132185714Y-65450000D01*
X132280952Y-65402380D01*
X132471428Y-65402380D01*
X132566666Y-65450000D01*
X132614285Y-65497619D01*
X132661904Y-65592857D01*
X132661904Y-65640476D01*
X132614285Y-65735714D01*
X132566666Y-65783333D01*
X132471428Y-65830952D01*
X132280952Y-65830952D01*
X132185714Y-65878571D01*
X132138095Y-65926190D01*
X132090476Y-66021428D01*
X132090476Y-66211904D01*
X132138095Y-66307142D01*
X132185714Y-66354761D01*
X132280952Y-66402380D01*
X132471428Y-66402380D01*
X132566666Y-66354761D01*
X132614285Y-66307142D01*
X132661904Y-66211904D01*
X132661904Y-66021428D01*
X132614285Y-65926190D01*
X132566666Y-65878571D01*
X132471428Y-65830952D01*
X130657142Y-47052380D02*
X130323809Y-46576190D01*
X130085714Y-47052380D02*
X130085714Y-46052380D01*
X130466666Y-46052380D01*
X130561904Y-46100000D01*
X130609523Y-46147619D01*
X130657142Y-46242857D01*
X130657142Y-46385714D01*
X130609523Y-46480952D01*
X130561904Y-46528571D01*
X130466666Y-46576190D01*
X130085714Y-46576190D01*
X130990476Y-46052380D02*
X131609523Y-46052380D01*
X131276190Y-46433333D01*
X131419047Y-46433333D01*
X131514285Y-46480952D01*
X131561904Y-46528571D01*
X131609523Y-46623809D01*
X131609523Y-46861904D01*
X131561904Y-46957142D01*
X131514285Y-47004761D01*
X131419047Y-47052380D01*
X131133333Y-47052380D01*
X131038095Y-47004761D01*
X130990476Y-46957142D01*
X132085714Y-47052380D02*
X132276190Y-47052380D01*
X132371428Y-47004761D01*
X132419047Y-46957142D01*
X132514285Y-46814285D01*
X132561904Y-46623809D01*
X132561904Y-46242857D01*
X132514285Y-46147619D01*
X132466666Y-46100000D01*
X132371428Y-46052380D01*
X132180952Y-46052380D01*
X132085714Y-46100000D01*
X132038095Y-46147619D01*
X131990476Y-46242857D01*
X131990476Y-46480952D01*
X132038095Y-46576190D01*
X132085714Y-46623809D01*
X132180952Y-46671428D01*
X132371428Y-46671428D01*
X132466666Y-46623809D01*
X132514285Y-46576190D01*
X132561904Y-46480952D01*
X124357142Y-65052380D02*
X124023809Y-64576190D01*
X123785714Y-65052380D02*
X123785714Y-64052380D01*
X124166666Y-64052380D01*
X124261904Y-64100000D01*
X124309523Y-64147619D01*
X124357142Y-64242857D01*
X124357142Y-64385714D01*
X124309523Y-64480952D01*
X124261904Y-64528571D01*
X124166666Y-64576190D01*
X123785714Y-64576190D01*
X125214285Y-64385714D02*
X125214285Y-65052380D01*
X124976190Y-64004761D02*
X124738095Y-64719047D01*
X125357142Y-64719047D01*
X125928571Y-64052380D02*
X126023809Y-64052380D01*
X126119047Y-64100000D01*
X126166666Y-64147619D01*
X126214285Y-64242857D01*
X126261904Y-64433333D01*
X126261904Y-64671428D01*
X126214285Y-64861904D01*
X126166666Y-64957142D01*
X126119047Y-65004761D01*
X126023809Y-65052380D01*
X125928571Y-65052380D01*
X125833333Y-65004761D01*
X125785714Y-64957142D01*
X125738095Y-64861904D01*
X125690476Y-64671428D01*
X125690476Y-64433333D01*
X125738095Y-64242857D01*
X125785714Y-64147619D01*
X125833333Y-64100000D01*
X125928571Y-64052380D01*
X127257142Y-47052380D02*
X126923809Y-46576190D01*
X126685714Y-47052380D02*
X126685714Y-46052380D01*
X127066666Y-46052380D01*
X127161904Y-46100000D01*
X127209523Y-46147619D01*
X127257142Y-46242857D01*
X127257142Y-46385714D01*
X127209523Y-46480952D01*
X127161904Y-46528571D01*
X127066666Y-46576190D01*
X126685714Y-46576190D01*
X128114285Y-46385714D02*
X128114285Y-47052380D01*
X127876190Y-46004761D02*
X127638095Y-46719047D01*
X128257142Y-46719047D01*
X129161904Y-47052380D02*
X128590476Y-47052380D01*
X128876190Y-47052380D02*
X128876190Y-46052380D01*
X128780952Y-46195238D01*
X128685714Y-46290476D01*
X128590476Y-46338095D01*
X124357142Y-62852380D02*
X124023809Y-62376190D01*
X123785714Y-62852380D02*
X123785714Y-61852380D01*
X124166666Y-61852380D01*
X124261904Y-61900000D01*
X124309523Y-61947619D01*
X124357142Y-62042857D01*
X124357142Y-62185714D01*
X124309523Y-62280952D01*
X124261904Y-62328571D01*
X124166666Y-62376190D01*
X123785714Y-62376190D01*
X125214285Y-62185714D02*
X125214285Y-62852380D01*
X124976190Y-61804761D02*
X124738095Y-62519047D01*
X125357142Y-62519047D01*
X125690476Y-61947619D02*
X125738095Y-61900000D01*
X125833333Y-61852380D01*
X126071428Y-61852380D01*
X126166666Y-61900000D01*
X126214285Y-61947619D01*
X126261904Y-62042857D01*
X126261904Y-62138095D01*
X126214285Y-62280952D01*
X125642857Y-62852380D01*
X126261904Y-62852380D01*
X127657142Y-51402380D02*
X127323809Y-50926190D01*
X127085714Y-51402380D02*
X127085714Y-50402380D01*
X127466666Y-50402380D01*
X127561904Y-50450000D01*
X127609523Y-50497619D01*
X127657142Y-50592857D01*
X127657142Y-50735714D01*
X127609523Y-50830952D01*
X127561904Y-50878571D01*
X127466666Y-50926190D01*
X127085714Y-50926190D01*
X128514285Y-50735714D02*
X128514285Y-51402380D01*
X128276190Y-50354761D02*
X128038095Y-51069047D01*
X128657142Y-51069047D01*
X128942857Y-50402380D02*
X129561904Y-50402380D01*
X129228571Y-50783333D01*
X129371428Y-50783333D01*
X129466666Y-50830952D01*
X129514285Y-50878571D01*
X129561904Y-50973809D01*
X129561904Y-51211904D01*
X129514285Y-51307142D01*
X129466666Y-51354761D01*
X129371428Y-51402380D01*
X129085714Y-51402380D01*
X128990476Y-51354761D01*
X128942857Y-51307142D01*
M02*
