G04 #@! TF.GenerationSoftware,KiCad,Pcbnew,(5.1.10)-1*
G04 #@! TF.CreationDate,2021-11-04T15:01:01+01:00*
G04 #@! TF.ProjectId,RedPitaya_IntStab,52656450-6974-4617-9961-5f496e745374,1.5*
G04 #@! TF.SameCoordinates,Original*
G04 #@! TF.FileFunction,Other,Fab,Bot*
%FSLAX46Y46*%
G04 Gerber Fmt 4.6, Leading zero omitted, Abs format (unit mm)*
G04 Created by KiCad (PCBNEW (5.1.10)-1) date 2021-11-04 15:01:01*
%MOMM*%
%LPD*%
G01*
G04 APERTURE LIST*
%ADD10C,0.150000*%
G04 APERTURE END LIST*
D10*
X58861904Y-99500000D02*
X58957142Y-99452380D01*
X59100000Y-99452380D01*
X59242857Y-99500000D01*
X59338095Y-99595238D01*
X59385714Y-99690476D01*
X59433333Y-99880952D01*
X59433333Y-100023809D01*
X59385714Y-100214285D01*
X59338095Y-100309523D01*
X59242857Y-100404761D01*
X59100000Y-100452380D01*
X59004761Y-100452380D01*
X58861904Y-100404761D01*
X58814285Y-100357142D01*
X58814285Y-100023809D01*
X59004761Y-100023809D01*
X58385714Y-100452380D02*
X58385714Y-99452380D01*
X57814285Y-100452380D01*
X57814285Y-99452380D01*
X57338095Y-100452380D02*
X57338095Y-99452380D01*
X57100000Y-99452380D01*
X56957142Y-99500000D01*
X56861904Y-99595238D01*
X56814285Y-99690476D01*
X56766666Y-99880952D01*
X56766666Y-100023809D01*
X56814285Y-100214285D01*
X56861904Y-100309523D01*
X56957142Y-100404761D01*
X57100000Y-100452380D01*
X57338095Y-100452380D01*
X69661904Y-95700000D02*
X69757142Y-95652380D01*
X69900000Y-95652380D01*
X70042857Y-95700000D01*
X70138095Y-95795238D01*
X70185714Y-95890476D01*
X70233333Y-96080952D01*
X70233333Y-96223809D01*
X70185714Y-96414285D01*
X70138095Y-96509523D01*
X70042857Y-96604761D01*
X69900000Y-96652380D01*
X69804761Y-96652380D01*
X69661904Y-96604761D01*
X69614285Y-96557142D01*
X69614285Y-96223809D01*
X69804761Y-96223809D01*
X69185714Y-96652380D02*
X69185714Y-95652380D01*
X68614285Y-96652380D01*
X68614285Y-95652380D01*
X68138095Y-96652380D02*
X68138095Y-95652380D01*
X67900000Y-95652380D01*
X67757142Y-95700000D01*
X67661904Y-95795238D01*
X67614285Y-95890476D01*
X67566666Y-96080952D01*
X67566666Y-96223809D01*
X67614285Y-96414285D01*
X67661904Y-96509523D01*
X67757142Y-96604761D01*
X67900000Y-96652380D01*
X68138095Y-96652380D01*
X58761904Y-96900000D02*
X58857142Y-96852380D01*
X59000000Y-96852380D01*
X59142857Y-96900000D01*
X59238095Y-96995238D01*
X59285714Y-97090476D01*
X59333333Y-97280952D01*
X59333333Y-97423809D01*
X59285714Y-97614285D01*
X59238095Y-97709523D01*
X59142857Y-97804761D01*
X59000000Y-97852380D01*
X58904761Y-97852380D01*
X58761904Y-97804761D01*
X58714285Y-97757142D01*
X58714285Y-97423809D01*
X58904761Y-97423809D01*
X58285714Y-97852380D02*
X58285714Y-96852380D01*
X57714285Y-97852380D01*
X57714285Y-96852380D01*
X57238095Y-97852380D02*
X57238095Y-96852380D01*
X57000000Y-96852380D01*
X56857142Y-96900000D01*
X56761904Y-96995238D01*
X56714285Y-97090476D01*
X56666666Y-97280952D01*
X56666666Y-97423809D01*
X56714285Y-97614285D01*
X56761904Y-97709523D01*
X56857142Y-97804761D01*
X57000000Y-97852380D01*
X57238095Y-97852380D01*
X69761904Y-93100000D02*
X69857142Y-93052380D01*
X70000000Y-93052380D01*
X70142857Y-93100000D01*
X70238095Y-93195238D01*
X70285714Y-93290476D01*
X70333333Y-93480952D01*
X70333333Y-93623809D01*
X70285714Y-93814285D01*
X70238095Y-93909523D01*
X70142857Y-94004761D01*
X70000000Y-94052380D01*
X69904761Y-94052380D01*
X69761904Y-94004761D01*
X69714285Y-93957142D01*
X69714285Y-93623809D01*
X69904761Y-93623809D01*
X69285714Y-94052380D02*
X69285714Y-93052380D01*
X68714285Y-94052380D01*
X68714285Y-93052380D01*
X68238095Y-94052380D02*
X68238095Y-93052380D01*
X68000000Y-93052380D01*
X67857142Y-93100000D01*
X67761904Y-93195238D01*
X67714285Y-93290476D01*
X67666666Y-93480952D01*
X67666666Y-93623809D01*
X67714285Y-93814285D01*
X67761904Y-93909523D01*
X67857142Y-94004761D01*
X68000000Y-94052380D01*
X68238095Y-94052380D01*
X58761904Y-94400000D02*
X58857142Y-94352380D01*
X59000000Y-94352380D01*
X59142857Y-94400000D01*
X59238095Y-94495238D01*
X59285714Y-94590476D01*
X59333333Y-94780952D01*
X59333333Y-94923809D01*
X59285714Y-95114285D01*
X59238095Y-95209523D01*
X59142857Y-95304761D01*
X59000000Y-95352380D01*
X58904761Y-95352380D01*
X58761904Y-95304761D01*
X58714285Y-95257142D01*
X58714285Y-94923809D01*
X58904761Y-94923809D01*
X58285714Y-95352380D02*
X58285714Y-94352380D01*
X57714285Y-95352380D01*
X57714285Y-94352380D01*
X57238095Y-95352380D02*
X57238095Y-94352380D01*
X57000000Y-94352380D01*
X56857142Y-94400000D01*
X56761904Y-94495238D01*
X56714285Y-94590476D01*
X56666666Y-94780952D01*
X56666666Y-94923809D01*
X56714285Y-95114285D01*
X56761904Y-95209523D01*
X56857142Y-95304761D01*
X57000000Y-95352380D01*
X57238095Y-95352380D01*
X69761904Y-90600000D02*
X69857142Y-90552380D01*
X70000000Y-90552380D01*
X70142857Y-90600000D01*
X70238095Y-90695238D01*
X70285714Y-90790476D01*
X70333333Y-90980952D01*
X70333333Y-91123809D01*
X70285714Y-91314285D01*
X70238095Y-91409523D01*
X70142857Y-91504761D01*
X70000000Y-91552380D01*
X69904761Y-91552380D01*
X69761904Y-91504761D01*
X69714285Y-91457142D01*
X69714285Y-91123809D01*
X69904761Y-91123809D01*
X69285714Y-91552380D02*
X69285714Y-90552380D01*
X68714285Y-91552380D01*
X68714285Y-90552380D01*
X68238095Y-91552380D02*
X68238095Y-90552380D01*
X68000000Y-90552380D01*
X67857142Y-90600000D01*
X67761904Y-90695238D01*
X67714285Y-90790476D01*
X67666666Y-90980952D01*
X67666666Y-91123809D01*
X67714285Y-91314285D01*
X67761904Y-91409523D01*
X67857142Y-91504761D01*
X68000000Y-91552380D01*
X68238095Y-91552380D01*
X58761904Y-91800000D02*
X58857142Y-91752380D01*
X59000000Y-91752380D01*
X59142857Y-91800000D01*
X59238095Y-91895238D01*
X59285714Y-91990476D01*
X59333333Y-92180952D01*
X59333333Y-92323809D01*
X59285714Y-92514285D01*
X59238095Y-92609523D01*
X59142857Y-92704761D01*
X59000000Y-92752380D01*
X58904761Y-92752380D01*
X58761904Y-92704761D01*
X58714285Y-92657142D01*
X58714285Y-92323809D01*
X58904761Y-92323809D01*
X58285714Y-92752380D02*
X58285714Y-91752380D01*
X57714285Y-92752380D01*
X57714285Y-91752380D01*
X57238095Y-92752380D02*
X57238095Y-91752380D01*
X57000000Y-91752380D01*
X56857142Y-91800000D01*
X56761904Y-91895238D01*
X56714285Y-91990476D01*
X56666666Y-92180952D01*
X56666666Y-92323809D01*
X56714285Y-92514285D01*
X56761904Y-92609523D01*
X56857142Y-92704761D01*
X57000000Y-92752380D01*
X57238095Y-92752380D01*
X69761904Y-88100000D02*
X69857142Y-88052380D01*
X70000000Y-88052380D01*
X70142857Y-88100000D01*
X70238095Y-88195238D01*
X70285714Y-88290476D01*
X70333333Y-88480952D01*
X70333333Y-88623809D01*
X70285714Y-88814285D01*
X70238095Y-88909523D01*
X70142857Y-89004761D01*
X70000000Y-89052380D01*
X69904761Y-89052380D01*
X69761904Y-89004761D01*
X69714285Y-88957142D01*
X69714285Y-88623809D01*
X69904761Y-88623809D01*
X69285714Y-89052380D02*
X69285714Y-88052380D01*
X68714285Y-89052380D01*
X68714285Y-88052380D01*
X68238095Y-89052380D02*
X68238095Y-88052380D01*
X68000000Y-88052380D01*
X67857142Y-88100000D01*
X67761904Y-88195238D01*
X67714285Y-88290476D01*
X67666666Y-88480952D01*
X67666666Y-88623809D01*
X67714285Y-88814285D01*
X67761904Y-88909523D01*
X67857142Y-89004761D01*
X68000000Y-89052380D01*
X68238095Y-89052380D01*
M02*
