M48
; DRILL file {KiCad (5.1.4)-1} date 01.04.2020 18:54:42
; FORMAT={-:-/ absolute / inch / decimal}
; #@! TF.CreationDate,2020-04-01T18:54:42+02:00
; #@! TF.GenerationSoftware,Kicad,Pcbnew,(5.1.4)-1
; #@! TF.FileFunction,Plated,1,2,PTH
FMAT,2
INCH
T1C0.0118
T2C0.0315
T3C0.0394
T4C0.0400
T5C0.0591
T6C0.0669
%
G90
G05
T1
X3.3858Y-3.2756
X3.4606Y-4.9252
X3.4646Y-3.6516
X3.4646Y-3.9724
X3.4646Y-4.4449
X3.4646Y-3.5827
X3.465Y-3.6972
X3.465Y-3.765
X3.465Y-4.2106
X3.465Y-4.687
X3.465Y-5.1594
X3.465Y-5.3689
X3.4685Y-3.2795
X3.4685Y-5.4331
X3.502Y-3.1634
X3.5236Y-3.5827
X3.5327Y-3.6972
X3.5327Y-5.4366
X3.5433Y-3.6516
X3.563Y-3.3031
X3.563Y-3.3346
X3.5827Y-3.3858
X3.5827Y-3.4252
X3.5827Y-3.4646
X3.5827Y-3.5039
X3.5827Y-3.5433
X3.5827Y-3.5827
X3.5827Y-4.5276
X3.5827Y-4.6063
X3.5827Y-4.685
X3.5827Y-4.7638
X3.5827Y-4.8425
X3.5827Y-4.9213
X3.5827Y-5.0
X3.5827Y-5.0787
X3.5827Y-5.1575
X3.5827Y-5.2362
X3.5827Y-5.315
X3.5945Y-3.3031
X3.5945Y-3.3346
X3.6083Y-2.6181
X3.622Y-3.6516
X3.6614Y-4.5276
X3.6614Y-4.6063
X3.6614Y-4.685
X3.6614Y-4.7638
X3.6614Y-4.8425
X3.6614Y-4.9213
X3.6614Y-5.0
X3.6614Y-5.0787
X3.6614Y-5.1575
X3.6614Y-5.2362
X3.6614Y-5.315
X3.6811Y-3.5827
X3.7008Y-3.6516
X3.7402Y-4.5276
X3.7402Y-4.6063
X3.7402Y-4.685
X3.7402Y-4.7638
X3.7402Y-4.8425
X3.7402Y-4.9213
X3.7402Y-5.0
X3.7402Y-5.0787
X3.7402Y-5.1575
X3.7402Y-5.2362
X3.7402Y-5.315
X3.7421Y-5.4366
X3.7441Y-3.6969
X3.7795Y-3.5827
X3.7795Y-3.6516
X3.8071Y-3.2795
X3.8189Y-4.5276
X3.8189Y-4.6063
X3.8189Y-4.685
X3.8189Y-4.7638
X3.8189Y-4.8425
X3.8189Y-4.9213
X3.8189Y-5.0
X3.8189Y-5.0787
X3.8189Y-5.1575
X3.8189Y-5.2362
X3.8189Y-5.315
X3.8583Y-3.5827
X3.8583Y-3.6516
X3.8976Y-4.5276
X3.8976Y-4.6063
X3.8976Y-4.685
X3.8976Y-4.7638
X3.8976Y-4.8425
X3.8976Y-4.9213
X3.8976Y-5.0
X3.8976Y-5.0787
X3.8976Y-5.1575
X3.8976Y-5.2362
X3.8976Y-5.315
X3.937Y-2.7953
X3.937Y-2.8346
X3.937Y-2.9134
X3.937Y-2.9921
X3.937Y-3.4646
X3.937Y-3.5236
X3.937Y-3.5827
X3.937Y-3.6516
X3.939Y-3.0711
X3.939Y-3.1496
X3.939Y-3.2283
X3.939Y-3.3071
X3.939Y-3.3858
X3.9764Y-2.7953
X3.9764Y-4.5276
X3.9764Y-4.6063
X3.9764Y-4.685
X3.9764Y-4.7638
X3.9764Y-4.8425
X3.9764Y-4.9213
X3.9764Y-5.0
X3.9764Y-5.0787
X3.9764Y-5.1575
X3.9764Y-5.2362
X3.9764Y-5.315
X3.9764Y-5.437
X3.9783Y-3.6972
X3.9961Y-2.8642
X3.9961Y-2.9429
X3.9961Y-3.0217
X3.9961Y-3.1004
X3.9961Y-3.1791
X3.9961Y-3.2579
X3.9961Y-3.3366
X3.9961Y-3.4154
X3.9961Y-3.4941
X3.9961Y-3.5728
X3.9961Y-3.6516
X4.0551Y-2.7953
X4.0551Y-3.7795
X4.0551Y-4.5276
X4.0551Y-4.6063
X4.0551Y-4.685
X4.0551Y-4.7638
X4.0551Y-4.8425
X4.0551Y-4.9213
X4.0551Y-5.0
X4.0551Y-5.0787
X4.0551Y-5.1575
X4.0551Y-5.2362
X4.0551Y-5.315
X4.0748Y-2.8642
X4.1339Y-2.7953
X4.1339Y-3.7795
X4.1339Y-3.8583
X4.1339Y-3.937
X4.1339Y-4.0157
X4.1339Y-4.0945
X4.1339Y-4.1732
X4.1339Y-4.5276
X4.1339Y-4.6063
X4.1339Y-4.685
X4.1339Y-4.7638
X4.1339Y-4.8425
X4.1339Y-4.9213
X4.1339Y-5.0
X4.1339Y-5.0787
X4.1339Y-5.1575
X4.1339Y-5.2362
X4.1339Y-5.315
X4.1535Y-2.8642
X4.2126Y-2.7953
X4.2126Y-3.6969
X4.2126Y-3.7795
X4.2126Y-3.8583
X4.2126Y-3.937
X4.2126Y-4.0157
X4.2126Y-4.0945
X4.2126Y-4.1732
X4.2126Y-4.5276
X4.2126Y-4.6063
X4.2126Y-4.685
X4.2126Y-4.7638
X4.2126Y-4.8425
X4.2126Y-4.9213
X4.2126Y-5.0
X4.2126Y-5.0787
X4.2126Y-5.1575
X4.2126Y-5.2362
X4.2126Y-5.315
X4.2146Y-5.4366
X4.2323Y-2.8642
X4.2913Y-2.7953
X4.2913Y-3.7795
X4.2913Y-3.8583
X4.2913Y-3.937
X4.2913Y-4.0157
X4.2913Y-4.0945
X4.2913Y-4.1732
X4.2913Y-4.4094
X4.2913Y-4.4488
X4.2913Y-4.5276
X4.2913Y-4.6063
X4.2913Y-4.6929
X4.2913Y-4.7638
X4.2913Y-4.8425
X4.2913Y-4.9213
X4.2913Y-5.0
X4.2913Y-5.0787
X4.2913Y-5.1575
X4.2913Y-5.2362
X4.2913Y-5.315
X4.311Y-2.8642
X4.3701Y-2.7953
X4.3701Y-3.7795
X4.3701Y-3.8583
X4.3701Y-3.937
X4.3701Y-4.0157
X4.3701Y-4.0945
X4.3701Y-4.1732
X4.3701Y-4.5276
X4.3701Y-4.6063
X4.3701Y-4.685
X4.3701Y-4.7638
X4.3701Y-4.8425
X4.3701Y-4.9213
X4.3701Y-5.0
X4.3701Y-5.0787
X4.3701Y-5.1575
X4.3701Y-5.2362
X4.3701Y-5.315
X4.3898Y-2.8642
X4.4409Y-4.4094
X4.4488Y-2.7953
X4.4488Y-3.7795
X4.4488Y-3.8583
X4.4488Y-3.937
X4.4488Y-4.0157
X4.4488Y-4.0945
X4.4488Y-4.1732
X4.4488Y-4.2126
X4.4528Y-5.4409
X4.4547Y-3.6972
X4.4685Y-2.8642
X4.4843Y-4.6063
X4.4882Y-4.2402
X4.4961Y-4.4409
X4.5276Y-2.7953
X4.5276Y-3.7795
X4.5276Y-3.8583
X4.5276Y-3.937
X4.5276Y-4.0157
X4.5276Y-4.0945
X4.5276Y-4.1732
X4.5276Y-4.2126
X4.5472Y-2.8642
X4.5591Y-4.4409
X4.5591Y-4.5
X4.5591Y-4.5512
X4.5591Y-4.6024
X4.5669Y-4.3031
X4.5669Y-4.3425
X4.5669Y-4.3819
X4.5709Y-4.2441
X4.5984Y-4.3031
X4.5984Y-4.3425
X4.5984Y-4.3819
X4.6063Y-3.7795
X4.6063Y-3.8583
X4.6063Y-3.937
X4.6063Y-4.0157
X4.6063Y-4.0945
X4.6063Y-4.1732
X4.6063Y-4.2126
X4.6063Y-4.6614
X4.6102Y-4.4409
X4.6102Y-4.5
X4.6102Y-4.5512
X4.6102Y-4.6024
X4.626Y-2.7953
X4.626Y-2.8642
X4.6417Y-1.9606
X4.6496Y-4.2441
X4.6575Y-4.5
X4.6654Y-4.5472
X4.685Y-3.7795
X4.685Y-3.8583
X4.685Y-3.937
X4.685Y-4.0157
X4.685Y-4.0945
X4.685Y-4.1732
X4.685Y-4.2126
X4.685Y-4.6654
X4.685Y-4.7441
X4.685Y-4.8228
X4.689Y-3.6969
X4.6909Y-5.4366
X4.7047Y-2.7953
X4.7047Y-2.8642
X4.7376Y-2.6195
X4.7441Y-4.311
X4.7638Y-3.7795
X4.7638Y-3.8583
X4.7638Y-3.937
X4.7638Y-4.0157
X4.7638Y-4.0945
X4.7638Y-4.1732
X4.7638Y-4.7441
X4.7638Y-4.8228
X4.7835Y-2.7953
X4.7835Y-2.8642
X4.7874Y-2.5551
X4.8425Y-3.7795
X4.8425Y-3.8583
X4.8425Y-3.937
X4.8425Y-4.0157
X4.8425Y-4.0945
X4.8425Y-4.1732
X4.8425Y-4.7441
X4.8425Y-4.8228
X4.8622Y-2.7953
X4.8622Y-2.8642
X4.9213Y-3.7795
X4.9213Y-3.8583
X4.9213Y-3.937
X4.9213Y-4.0157
X4.9213Y-4.0945
X4.9213Y-4.1732
X4.9213Y-4.2598
X4.9213Y-4.4291
X4.9213Y-4.5079
X4.9213Y-4.7441
X4.9213Y-4.8228
X4.9272Y-3.6972
X4.9272Y-5.4366
X4.9409Y-2.7953
X4.9409Y-2.8642
X4.9606Y-4.4291
X4.9715Y-2.0866
X5.0Y-3.7795
X5.0Y-3.8583
X5.0Y-3.937
X5.0Y-4.0157
X5.0Y-4.0945
X5.0Y-4.1732
X5.0Y-4.2598
X5.0Y-4.311
X5.0Y-4.3898
X5.0Y-4.4291
X5.0Y-4.5079
X5.0Y-4.5866
X5.0Y-4.6654
X5.0Y-4.7441
X5.0Y-4.8228
X5.002Y-4.3504
X5.0197Y-2.7953
X5.0197Y-2.8642
X5.0591Y-2.4469
X5.0768Y-2.2343
X5.0787Y-3.7795
X5.0787Y-3.8583
X5.0787Y-3.937
X5.0787Y-4.0157
X5.0787Y-4.0945
X5.0787Y-4.1732
X5.0787Y-4.2598
X5.0787Y-4.3504
X5.0787Y-4.4291
X5.0787Y-4.5079
X5.0787Y-4.5866
X5.0787Y-4.6654
X5.0787Y-4.7441
X5.0787Y-4.8228
X5.0984Y-2.7953
X5.0984Y-2.8642
X5.1366Y-3.6972
X5.1366Y-5.4366
X5.1575Y-3.7795
X5.1575Y-3.8583
X5.1575Y-3.937
X5.1575Y-4.0157
X5.1575Y-4.0945
X5.1575Y-4.1732
X5.1594Y-2.5541
X5.1772Y-2.7953
X5.1772Y-2.8642
X5.2043Y-3.6972
X5.2043Y-3.765
X5.2043Y-3.9744
X5.2043Y-4.4469
X5.2043Y-4.9232
X5.2043Y-5.3689
X5.2043Y-5.4366
X5.2047Y-4.2126
X5.2047Y-4.689
X5.2047Y-5.1614
X5.2559Y-2.7953
X5.2559Y-2.8642
X5.2638Y-2.3504
X5.3346Y-2.7953
X5.3346Y-2.8642
X5.4134Y-2.7953
X5.4134Y-2.8642
X5.4921Y-2.7953
X5.4921Y-2.8642
X5.5709Y-2.7953
X5.5709Y-2.8642
X5.6496Y-2.7953
X5.6496Y-2.8642
X5.7283Y-2.7953
X5.7283Y-2.8642
X5.8071Y-2.7953
X5.8071Y-2.8642
X5.8858Y-2.7953
X5.8858Y-2.8642
X5.9646Y-2.7953
X5.9646Y-2.8642
X6.0433Y-2.7953
X6.0433Y-2.8642
X6.122Y-2.7953
X6.122Y-2.8642
X6.2008Y-2.7953
X6.2008Y-2.8642
X6.2795Y-2.7953
X6.2795Y-2.8642
X6.3583Y-2.7953
X6.3583Y-2.8642
X6.437Y-2.7953
X6.437Y-2.8642
X6.5157Y-2.7953
X6.5157Y-2.8642
X6.5906Y-2.6575
X6.5945Y-2.7953
X6.5945Y-2.8642
X6.6732Y-2.7953
X6.6732Y-2.8642
X6.752Y-2.7953
X6.752Y-2.8642
X6.8307Y-2.7953
X6.8307Y-2.8642
X6.9094Y-2.7953
X6.9094Y-2.8642
X6.9882Y-2.7953
X6.9882Y-2.8642
X7.0591Y-2.6654
X7.0669Y-2.7953
X7.0669Y-2.8642
X7.1457Y-2.7953
X7.1457Y-2.8642
X7.2244Y-2.7953
X7.2244Y-2.8642
X7.3031Y-2.7953
X7.3031Y-2.8642
X7.3819Y-2.7953
X7.3819Y-2.8642
X7.4606Y-2.7953
X7.4606Y-2.8642
X7.5394Y-2.7953
X7.5394Y-2.8642
X7.5669Y-2.6614
X7.5787Y-2.8642
X7.5787Y-2.9134
X7.5787Y-2.9921
X7.5787Y-3.0709
X7.5787Y-3.1496
X7.5787Y-3.2283
X7.5787Y-3.3071
X7.5787Y-3.3858
X7.5787Y-3.4646
X7.5787Y-3.5433
X7.5787Y-3.622
X7.5787Y-3.7008
X7.5787Y-3.7795
X7.5787Y-3.8583
X7.5787Y-3.937
X7.5787Y-4.0157
X7.5787Y-4.0945
X7.5787Y-4.1732
X7.5787Y-4.252
X7.5787Y-4.3307
X7.5787Y-4.4094
X7.5787Y-4.4882
X7.5787Y-4.5669
X7.5787Y-4.6457
X7.5787Y-4.7244
X7.5787Y-4.8031
X7.5787Y-4.8819
X7.5787Y-4.9606
X7.5787Y-5.0394
X7.5787Y-5.1181
X7.5787Y-5.1969
X7.5787Y-5.2756
X7.5787Y-5.3543
X7.5787Y-5.4331
X7.5787Y-5.5118
X7.5787Y-5.5906
X7.6181Y-2.7953
X7.6575Y-2.7953
X7.6575Y-2.8346
X7.6575Y-2.9134
X7.6575Y-2.9921
X7.6575Y-3.0709
X7.6575Y-3.1496
X7.6575Y-3.2283
X7.6575Y-3.3071
X7.6575Y-3.3858
X7.6575Y-3.4646
X7.6575Y-3.5433
X7.6575Y-3.622
X7.6575Y-3.7008
X7.6575Y-3.7795
X7.6575Y-3.8583
X7.6575Y-3.937
X7.6575Y-4.0157
X7.6575Y-4.0945
X7.6575Y-4.1732
X7.6575Y-4.252
X7.6575Y-4.3307
X7.6575Y-4.4094
X7.6575Y-4.4882
X7.6575Y-4.5669
X7.6575Y-4.6457
X7.6575Y-4.7244
X7.6575Y-4.8031
X7.6575Y-4.8819
X7.6575Y-4.9606
X7.6575Y-5.0394
X7.6575Y-5.1181
X7.6575Y-5.1969
X7.6575Y-5.2756
X7.6575Y-5.3543
X7.6575Y-5.4331
X7.6575Y-5.5118
X7.6575Y-5.5906
X7.9124Y-4.4134
X7.9439Y-4.4134
X7.9803Y-2.5827
X8.0148Y-4.6171
X8.0669Y-4.685
X8.0866Y-2.5197
X8.0866Y-4.7441
X8.1043Y-4.6201
X8.1575Y-4.3583
X8.1772Y-2.4961
X8.1988Y-4.5187
X8.2134Y-4.7088
X8.2136Y-4.6378
X8.2244Y-2.7559
X8.2244Y-4.3553
X8.2274Y-4.5709
X8.2785Y-2.5837
X8.2828Y-4.4174
X8.2874Y-4.5709
X8.3238Y-2.4941
X8.3455Y-2.315
X8.3868Y-2.502
X8.4803Y-4.5157
X8.4858Y-2.4976
X8.4882Y-2.8504
X8.5138Y-2.3957
X8.5276Y-2.1693
X8.5768Y-4.1614
T2
X3.7402Y-2.7638
X3.7402Y-2.9252
X8.7413Y-4.4268
X8.7413Y-4.5268
X8.7413Y-4.6268
X8.7413Y-4.7268
X8.7413Y-4.8268
X9.0413Y-4.4268
X9.0413Y-4.5268
X9.0413Y-4.6268
X9.0413Y-4.7268
X9.0413Y-4.8268
X7.4685Y-5.4843
X3.7402Y-2.6181
X8.7433Y-2.3
X8.7433Y-2.4
X8.7433Y-2.5
X8.7433Y-2.6
X8.7433Y-2.7
X9.0433Y-2.3
X9.0433Y-2.4
X9.0433Y-2.5
X9.0433Y-2.6
X9.0433Y-2.7
T3
X3.022Y-2.1154
X3.022Y-2.2154
X3.022Y-2.3154
X3.022Y-2.4154
X3.022Y-2.5154
X3.022Y-2.6154
X3.022Y-2.7154
X3.022Y-2.8154
X3.022Y-2.9154
X3.022Y-3.0154
X3.022Y-3.1154
X3.022Y-3.2154
X3.022Y-3.3154
X3.022Y-3.4154
X3.022Y-3.5154
X3.022Y-3.6154
X3.022Y-3.7154
X3.022Y-3.8154
X3.022Y-3.9154
X3.022Y-4.0154
X3.022Y-4.1154
X3.022Y-4.2154
X3.022Y-4.3154
X3.022Y-4.4154
X3.022Y-4.5154
X3.022Y-4.6154
X3.022Y-4.7154
X3.022Y-4.8154
X3.022Y-4.9154
X3.022Y-5.0154
X3.022Y-5.1154
X3.022Y-5.2154
X3.222Y-2.1154
X3.222Y-2.2154
X3.222Y-2.3154
X3.222Y-2.4154
X3.222Y-2.5154
X3.222Y-2.6154
X3.222Y-2.7154
X3.222Y-2.8154
X3.222Y-2.9154
X3.222Y-3.0154
X3.222Y-3.1154
X3.222Y-3.2154
X3.222Y-3.3154
X3.222Y-3.4154
X3.222Y-3.5154
X3.222Y-3.6154
X3.222Y-3.7154
X3.222Y-3.8154
X3.222Y-3.9154
X3.222Y-4.0154
X3.222Y-4.1154
X3.222Y-4.2154
X3.222Y-4.3154
X3.222Y-4.4154
X3.222Y-4.5154
X3.222Y-4.6154
X3.222Y-4.7154
X3.222Y-4.8154
X3.222Y-4.9154
X3.222Y-5.0154
X3.222Y-5.1154
X3.222Y-5.2154
T4
X5.9995Y-5.0089
X5.9995Y-5.1089
X5.9999Y-3.0105
X5.9999Y-3.1105
X6.0995Y-5.0089
X6.0995Y-5.1089
X6.0999Y-3.0105
X6.0999Y-3.1105
X6.1995Y-5.0089
X6.1995Y-5.1089
X6.1999Y-3.0105
X6.1999Y-3.1105
X6.2995Y-5.0089
X6.2995Y-5.1089
X6.2999Y-3.0105
X6.2999Y-3.1105
X6.3995Y-5.0089
X6.3995Y-5.1089
X6.3999Y-3.0105
X6.3999Y-3.1105
X6.4995Y-5.0089
X6.4995Y-5.1089
X6.4999Y-3.0105
X6.4999Y-3.1105
X6.5995Y-5.0089
X6.5995Y-5.1089
X6.5999Y-3.0105
X6.5999Y-3.1105
X6.6995Y-5.0089
X6.6995Y-5.1089
X6.6999Y-3.0105
X6.6999Y-3.1105
X6.7995Y-5.0089
X6.7995Y-5.1089
X6.7999Y-3.0105
X6.7999Y-3.1105
X6.8995Y-5.0089
X6.8995Y-5.1089
X6.8999Y-3.0105
X6.8999Y-3.1105
X6.9995Y-5.0089
X6.9995Y-5.1089
X6.9999Y-3.0105
X6.9999Y-3.1105
X7.0995Y-5.0089
X7.0995Y-5.1089
X7.0999Y-3.0105
X7.0999Y-3.1105
X7.1995Y-5.0089
X7.1995Y-5.1089
X7.1999Y-3.0105
X7.1999Y-3.1105
T5
X7.2988Y-2.5435
X7.2988Y-1.9924
X4.1772Y-2.5433
X5.4091Y-2.5435
X4.1772Y-3.4449
X5.4091Y-1.9924
X4.1772Y-1.9921
X6.8264Y-2.5435
X6.3539Y-2.5435
X6.8264Y-1.9924
X5.8815Y-1.9924
X5.8815Y-2.5435
X4.6457Y-3.4449
X7.7713Y-2.5435
X7.7713Y-1.9924
X6.3539Y-1.9924
T6
X7.6713Y-1.8924
X7.6713Y-2.0924
X7.8713Y-1.8924
X7.8713Y-2.0924
X6.2539Y-1.8924
X6.2539Y-2.0924
X6.4539Y-1.8924
X6.4539Y-2.0924
X7.1988Y-2.4435
X7.1988Y-2.6435
X7.3988Y-2.4435
X7.3988Y-2.6435
X7.1988Y-1.8924
X7.1988Y-2.0924
X7.3988Y-1.8924
X7.3988Y-2.0924
X4.0772Y-2.4433
X4.0772Y-2.6433
X4.2772Y-2.4433
X4.2772Y-2.6433
X5.3091Y-2.4435
X5.3091Y-2.6435
X5.5091Y-2.4435
X5.5091Y-2.6435
X4.0772Y-3.3449
X4.0772Y-3.5449
X4.2772Y-3.3449
X4.2772Y-3.5449
X5.3091Y-1.8924
X5.3091Y-2.0924
X5.5091Y-1.8924
X5.5091Y-2.0924
X4.0772Y-1.8921
X4.0772Y-2.0921
X4.2772Y-1.8921
X4.2772Y-2.0921
X6.7264Y-2.4435
X6.7264Y-2.6435
X6.9264Y-2.4435
X6.9264Y-2.6435
X6.2539Y-2.4435
X6.2539Y-2.6435
X6.4539Y-2.4435
X6.4539Y-2.6435
X6.7264Y-1.8924
X6.7264Y-2.0924
X6.9264Y-1.8924
X6.9264Y-2.0924
X5.7815Y-1.8924
X5.7815Y-2.0924
X5.9815Y-1.8924
X5.9815Y-2.0924
X5.7815Y-2.4435
X5.7815Y-2.6435
X5.9815Y-2.4435
X5.9815Y-2.6435
X4.5457Y-3.3449
X4.5457Y-3.5449
X4.7457Y-3.3449
X4.7457Y-3.5449
X7.6713Y-2.4435
X7.6713Y-2.6435
X7.8713Y-2.4435
X7.8713Y-2.6435
T0
M30
