G04 #@! TF.GenerationSoftware,KiCad,Pcbnew,5.1.6*
G04 #@! TF.CreationDate,2020-09-29T01:19:19+02:00*
G04 #@! TF.ProjectId,RedPitaya_IntStab,52656450-6974-4617-9961-5f496e745374,1.4*
G04 #@! TF.SameCoordinates,Original*
G04 #@! TF.FileFunction,Legend,Top*
G04 #@! TF.FilePolarity,Positive*
%FSLAX46Y46*%
G04 Gerber Fmt 4.6, Leading zero omitted, Abs format (unit mm)*
G04 Created by KiCad (PCBNEW 5.1.6) date 2020-09-29 01:19:19*
%MOMM*%
%LPD*%
G01*
G04 APERTURE LIST*
%ADD10C,0.250000*%
%ADD11C,0.150000*%
%ADD12C,0.400000*%
%ADD13C,0.120000*%
%ADD14C,1.000000*%
%ADD15C,0.010000*%
%ADD16C,0.600000*%
G04 APERTURE END LIST*
D10*
X62721428Y-136328571D02*
X63221428Y-137828571D01*
X63721428Y-136328571D01*
X64221428Y-137257142D02*
X65364285Y-137257142D01*
X64792857Y-137828571D02*
X64792857Y-136685714D01*
D11*
X59150000Y-135650000D02*
X59150000Y-129800000D01*
X68150000Y-135650000D02*
X59150000Y-135650000D01*
X68150000Y-129800000D02*
X68150000Y-135650000D01*
X59150000Y-129800000D02*
X68150000Y-129800000D01*
D10*
X68400000Y-96792857D02*
X68328571Y-96935714D01*
X68328571Y-97150000D01*
X68400000Y-97364285D01*
X68542857Y-97507142D01*
X68685714Y-97578571D01*
X68971428Y-97650000D01*
X69185714Y-97650000D01*
X69471428Y-97578571D01*
X69614285Y-97507142D01*
X69757142Y-97364285D01*
X69828571Y-97150000D01*
X69828571Y-97007142D01*
X69757142Y-96792857D01*
X69685714Y-96721428D01*
X69185714Y-96721428D01*
X69185714Y-97007142D01*
X69828571Y-96078571D02*
X68328571Y-96078571D01*
X69828571Y-95221428D01*
X68328571Y-95221428D01*
X69828571Y-94507142D02*
X68328571Y-94507142D01*
X68328571Y-94150000D01*
X68400000Y-93935714D01*
X68542857Y-93792857D01*
X68685714Y-93721428D01*
X68971428Y-93650000D01*
X69185714Y-93650000D01*
X69471428Y-93721428D01*
X69614285Y-93792857D01*
X69757142Y-93935714D01*
X69828571Y-94150000D01*
X69828571Y-94507142D01*
D11*
X70650000Y-91700000D02*
X59150000Y-91700000D01*
X70650000Y-99350000D02*
X70650000Y-91700000D01*
X59150000Y-99350000D02*
X70650000Y-99350000D01*
X59150000Y-91700000D02*
X59150000Y-99350000D01*
D10*
X62721428Y-50328571D02*
X63221428Y-51828571D01*
X63721428Y-50328571D01*
X64221428Y-51257142D02*
X65364285Y-51257142D01*
D11*
X68150000Y-58650000D02*
X59150000Y-58650000D01*
X68150000Y-52650000D02*
X68150000Y-58650000D01*
X59150000Y-52650000D02*
X68150000Y-52650000D01*
X59150000Y-58650000D02*
X59150000Y-52650000D01*
D12*
X142029047Y-139154761D02*
X141362380Y-138202380D01*
X140886190Y-139154761D02*
X140886190Y-137154761D01*
X141648095Y-137154761D01*
X141838571Y-137250000D01*
X141933809Y-137345238D01*
X142029047Y-137535714D01*
X142029047Y-137821428D01*
X141933809Y-138011904D01*
X141838571Y-138107142D01*
X141648095Y-138202380D01*
X140886190Y-138202380D01*
X143648095Y-139059523D02*
X143457619Y-139154761D01*
X143076666Y-139154761D01*
X142886190Y-139059523D01*
X142790952Y-138869047D01*
X142790952Y-138107142D01*
X142886190Y-137916666D01*
X143076666Y-137821428D01*
X143457619Y-137821428D01*
X143648095Y-137916666D01*
X143743333Y-138107142D01*
X143743333Y-138297619D01*
X142790952Y-138488095D01*
X145457619Y-139154761D02*
X145457619Y-137154761D01*
X145457619Y-139059523D02*
X145267142Y-139154761D01*
X144886190Y-139154761D01*
X144695714Y-139059523D01*
X144600476Y-138964285D01*
X144505238Y-138773809D01*
X144505238Y-138202380D01*
X144600476Y-138011904D01*
X144695714Y-137916666D01*
X144886190Y-137821428D01*
X145267142Y-137821428D01*
X145457619Y-137916666D01*
X146410000Y-139154761D02*
X146410000Y-137154761D01*
X147171904Y-137154761D01*
X147362380Y-137250000D01*
X147457619Y-137345238D01*
X147552857Y-137535714D01*
X147552857Y-137821428D01*
X147457619Y-138011904D01*
X147362380Y-138107142D01*
X147171904Y-138202380D01*
X146410000Y-138202380D01*
X148410000Y-139154761D02*
X148410000Y-137821428D01*
X148410000Y-137154761D02*
X148314761Y-137250000D01*
X148410000Y-137345238D01*
X148505238Y-137250000D01*
X148410000Y-137154761D01*
X148410000Y-137345238D01*
X149076666Y-137821428D02*
X149838571Y-137821428D01*
X149362380Y-137154761D02*
X149362380Y-138869047D01*
X149457619Y-139059523D01*
X149648095Y-139154761D01*
X149838571Y-139154761D01*
X151362380Y-139154761D02*
X151362380Y-138107142D01*
X151267142Y-137916666D01*
X151076666Y-137821428D01*
X150695714Y-137821428D01*
X150505238Y-137916666D01*
X151362380Y-139059523D02*
X151171904Y-139154761D01*
X150695714Y-139154761D01*
X150505238Y-139059523D01*
X150410000Y-138869047D01*
X150410000Y-138678571D01*
X150505238Y-138488095D01*
X150695714Y-138392857D01*
X151171904Y-138392857D01*
X151362380Y-138297619D01*
X152124285Y-137821428D02*
X152600476Y-139154761D01*
X153076666Y-137821428D02*
X152600476Y-139154761D01*
X152410000Y-139630952D01*
X152314761Y-139726190D01*
X152124285Y-139821428D01*
X154695714Y-139154761D02*
X154695714Y-138107142D01*
X154600476Y-137916666D01*
X154410000Y-137821428D01*
X154029047Y-137821428D01*
X153838571Y-137916666D01*
X154695714Y-139059523D02*
X154505238Y-139154761D01*
X154029047Y-139154761D01*
X153838571Y-139059523D01*
X153743333Y-138869047D01*
X153743333Y-138678571D01*
X153838571Y-138488095D01*
X154029047Y-138392857D01*
X154505238Y-138392857D01*
X154695714Y-138297619D01*
X157171904Y-139154761D02*
X157171904Y-137154761D01*
X158124285Y-137821428D02*
X158124285Y-139154761D01*
X158124285Y-138011904D02*
X158219523Y-137916666D01*
X158410000Y-137821428D01*
X158695714Y-137821428D01*
X158886190Y-137916666D01*
X158981428Y-138107142D01*
X158981428Y-139154761D01*
X159648095Y-137821428D02*
X160410000Y-137821428D01*
X159933809Y-137154761D02*
X159933809Y-138869047D01*
X160029047Y-139059523D01*
X160219523Y-139154761D01*
X160410000Y-139154761D01*
X160981428Y-139059523D02*
X161267142Y-139154761D01*
X161743333Y-139154761D01*
X161933809Y-139059523D01*
X162029047Y-138964285D01*
X162124285Y-138773809D01*
X162124285Y-138583333D01*
X162029047Y-138392857D01*
X161933809Y-138297619D01*
X161743333Y-138202380D01*
X161362380Y-138107142D01*
X161171904Y-138011904D01*
X161076666Y-137916666D01*
X160981428Y-137726190D01*
X160981428Y-137535714D01*
X161076666Y-137345238D01*
X161171904Y-137250000D01*
X161362380Y-137154761D01*
X161838571Y-137154761D01*
X162124285Y-137250000D01*
X162695714Y-137821428D02*
X163457619Y-137821428D01*
X162981428Y-137154761D02*
X162981428Y-138869047D01*
X163076666Y-139059523D01*
X163267142Y-139154761D01*
X163457619Y-139154761D01*
X164981428Y-139154761D02*
X164981428Y-138107142D01*
X164886190Y-137916666D01*
X164695714Y-137821428D01*
X164314761Y-137821428D01*
X164124285Y-137916666D01*
X164981428Y-139059523D02*
X164790952Y-139154761D01*
X164314761Y-139154761D01*
X164124285Y-139059523D01*
X164029047Y-138869047D01*
X164029047Y-138678571D01*
X164124285Y-138488095D01*
X164314761Y-138392857D01*
X164790952Y-138392857D01*
X164981428Y-138297619D01*
X165933809Y-139154761D02*
X165933809Y-137154761D01*
X165933809Y-137916666D02*
X166124285Y-137821428D01*
X166505238Y-137821428D01*
X166695714Y-137916666D01*
X166790952Y-138011904D01*
X166886190Y-138202380D01*
X166886190Y-138773809D01*
X166790952Y-138964285D01*
X166695714Y-139059523D01*
X166505238Y-139154761D01*
X166124285Y-139154761D01*
X165933809Y-139059523D01*
X140790952Y-140745238D02*
X140886190Y-140650000D01*
X141076666Y-140554761D01*
X141552857Y-140554761D01*
X141743333Y-140650000D01*
X141838571Y-140745238D01*
X141933809Y-140935714D01*
X141933809Y-141126190D01*
X141838571Y-141411904D01*
X140695714Y-142554761D01*
X141933809Y-142554761D01*
X143171904Y-140554761D02*
X143362380Y-140554761D01*
X143552857Y-140650000D01*
X143648095Y-140745238D01*
X143743333Y-140935714D01*
X143838571Y-141316666D01*
X143838571Y-141792857D01*
X143743333Y-142173809D01*
X143648095Y-142364285D01*
X143552857Y-142459523D01*
X143362380Y-142554761D01*
X143171904Y-142554761D01*
X142981428Y-142459523D01*
X142886190Y-142364285D01*
X142790952Y-142173809D01*
X142695714Y-141792857D01*
X142695714Y-141316666D01*
X142790952Y-140935714D01*
X142886190Y-140745238D01*
X142981428Y-140650000D01*
X143171904Y-140554761D01*
X144600476Y-140745238D02*
X144695714Y-140650000D01*
X144886190Y-140554761D01*
X145362380Y-140554761D01*
X145552857Y-140650000D01*
X145648095Y-140745238D01*
X145743333Y-140935714D01*
X145743333Y-141126190D01*
X145648095Y-141411904D01*
X144505238Y-142554761D01*
X145743333Y-142554761D01*
X146981428Y-140554761D02*
X147171904Y-140554761D01*
X147362380Y-140650000D01*
X147457619Y-140745238D01*
X147552857Y-140935714D01*
X147648095Y-141316666D01*
X147648095Y-141792857D01*
X147552857Y-142173809D01*
X147457619Y-142364285D01*
X147362380Y-142459523D01*
X147171904Y-142554761D01*
X146981428Y-142554761D01*
X146790952Y-142459523D01*
X146695714Y-142364285D01*
X146600476Y-142173809D01*
X146505238Y-141792857D01*
X146505238Y-141316666D01*
X146600476Y-140935714D01*
X146695714Y-140745238D01*
X146790952Y-140650000D01*
X146981428Y-140554761D01*
X148505238Y-141792857D02*
X150029047Y-141792857D01*
X152029047Y-142554761D02*
X150886190Y-142554761D01*
X151457619Y-142554761D02*
X151457619Y-140554761D01*
X151267142Y-140840476D01*
X151076666Y-141030952D01*
X150886190Y-141126190D01*
X153267142Y-140554761D02*
X153457619Y-140554761D01*
X153648095Y-140650000D01*
X153743333Y-140745238D01*
X153838571Y-140935714D01*
X153933809Y-141316666D01*
X153933809Y-141792857D01*
X153838571Y-142173809D01*
X153743333Y-142364285D01*
X153648095Y-142459523D01*
X153457619Y-142554761D01*
X153267142Y-142554761D01*
X153076666Y-142459523D01*
X152981428Y-142364285D01*
X152886190Y-142173809D01*
X152790952Y-141792857D01*
X152790952Y-141316666D01*
X152886190Y-140935714D01*
X152981428Y-140745238D01*
X153076666Y-140650000D01*
X153267142Y-140554761D01*
X157457619Y-142554761D02*
X156790952Y-141602380D01*
X156314761Y-142554761D02*
X156314761Y-140554761D01*
X157076666Y-140554761D01*
X157267142Y-140650000D01*
X157362380Y-140745238D01*
X157457619Y-140935714D01*
X157457619Y-141221428D01*
X157362380Y-141411904D01*
X157267142Y-141507142D01*
X157076666Y-141602380D01*
X156314761Y-141602380D01*
X159076666Y-142459523D02*
X158886190Y-142554761D01*
X158505238Y-142554761D01*
X158314761Y-142459523D01*
X158219523Y-142269047D01*
X158219523Y-141507142D01*
X158314761Y-141316666D01*
X158505238Y-141221428D01*
X158886190Y-141221428D01*
X159076666Y-141316666D01*
X159171904Y-141507142D01*
X159171904Y-141697619D01*
X158219523Y-141888095D01*
X159838571Y-141221428D02*
X160314761Y-142554761D01*
X160790952Y-141221428D01*
X161552857Y-142364285D02*
X161648095Y-142459523D01*
X161552857Y-142554761D01*
X161457619Y-142459523D01*
X161552857Y-142364285D01*
X161552857Y-142554761D01*
X165076666Y-142554761D02*
X163933809Y-142554761D01*
X164505238Y-142554761D02*
X164505238Y-140554761D01*
X164314761Y-140840476D01*
X164124285Y-141030952D01*
X163933809Y-141126190D01*
X165933809Y-142364285D02*
X166029047Y-142459523D01*
X165933809Y-142554761D01*
X165838571Y-142459523D01*
X165933809Y-142364285D01*
X165933809Y-142554761D01*
X167743333Y-141221428D02*
X167743333Y-142554761D01*
X167267142Y-140459523D02*
X166790952Y-141888095D01*
X168029047Y-141888095D01*
D13*
X60850000Y-47113000D02*
X60850000Y-53463000D01*
X55550000Y-47113000D02*
X60850000Y-47113000D01*
X55550000Y-141347000D02*
X55550000Y-47113000D01*
X60850000Y-141347000D02*
X55550000Y-141347000D01*
X60850000Y-141347000D02*
X60850000Y-134997000D01*
X103600000Y-92005000D02*
X100700000Y-92005000D01*
X103600000Y-85295000D02*
X100700000Y-85295000D01*
X98795000Y-90100000D02*
X98795000Y-87200000D01*
X105505000Y-90100000D02*
X105505000Y-87200000D01*
X215450000Y-114400000D02*
X215450000Y-112780000D01*
X217310000Y-114400000D02*
X217310000Y-112780000D01*
X217310000Y-112780000D02*
X215450000Y-112780000D01*
X217310000Y-114400000D02*
X215450000Y-114400000D01*
X215450000Y-116940000D02*
X215450000Y-115320000D01*
X217310000Y-116940000D02*
X217310000Y-115320000D01*
X217310000Y-115320000D02*
X215450000Y-115320000D01*
X217310000Y-116940000D02*
X215450000Y-116940000D01*
X215450000Y-119480000D02*
X215450000Y-117860000D01*
X217310000Y-119480000D02*
X217310000Y-117860000D01*
X217310000Y-117860000D02*
X215450000Y-117860000D01*
X217310000Y-119480000D02*
X215450000Y-119480000D01*
X215450000Y-122020000D02*
X215450000Y-120400000D01*
X217310000Y-122020000D02*
X217310000Y-120400000D01*
X217310000Y-120400000D02*
X215450000Y-120400000D01*
X217310000Y-122020000D02*
X215450000Y-122020000D01*
X215450000Y-124560000D02*
X215450000Y-122940000D01*
X217310000Y-124560000D02*
X217310000Y-122940000D01*
X217310000Y-122940000D02*
X215450000Y-122940000D01*
X217310000Y-124560000D02*
X215450000Y-124560000D01*
X215690000Y-126100000D02*
X215690000Y-124717000D01*
X215690000Y-126100000D02*
X214307000Y-126100000D01*
X204530000Y-125860000D02*
X204530000Y-111479000D01*
X215450000Y-125860000D02*
X215450000Y-111479000D01*
X215450000Y-111479000D02*
X204530000Y-111479000D01*
X215450000Y-125860000D02*
X204530000Y-125860000D01*
X215500000Y-60380000D02*
X215500000Y-58760000D01*
X217360000Y-60380000D02*
X217360000Y-58760000D01*
X217360000Y-58760000D02*
X215500000Y-58760000D01*
X217360000Y-60380000D02*
X215500000Y-60380000D01*
X215500000Y-62920000D02*
X215500000Y-61300000D01*
X217360000Y-62920000D02*
X217360000Y-61300000D01*
X217360000Y-61300000D02*
X215500000Y-61300000D01*
X217360000Y-62920000D02*
X215500000Y-62920000D01*
X215500000Y-65460000D02*
X215500000Y-63840000D01*
X217360000Y-65460000D02*
X217360000Y-63840000D01*
X217360000Y-63840000D02*
X215500000Y-63840000D01*
X217360000Y-65460000D02*
X215500000Y-65460000D01*
X215500000Y-68000000D02*
X215500000Y-66380000D01*
X217360000Y-68000000D02*
X217360000Y-66380000D01*
X217360000Y-66380000D02*
X215500000Y-66380000D01*
X217360000Y-68000000D02*
X215500000Y-68000000D01*
X215500000Y-70540000D02*
X215500000Y-68920000D01*
X217360000Y-70540000D02*
X217360000Y-68920000D01*
X217360000Y-68920000D02*
X215500000Y-68920000D01*
X217360000Y-70540000D02*
X215500000Y-70540000D01*
X215740000Y-72080000D02*
X215740000Y-70697000D01*
X215740000Y-72080000D02*
X214357000Y-72080000D01*
X204580000Y-71840000D02*
X204580000Y-57459000D01*
X215500000Y-71840000D02*
X215500000Y-57459000D01*
X215500000Y-57459000D02*
X204580000Y-57459000D01*
X215500000Y-71840000D02*
X204580000Y-71840000D01*
X193850000Y-122935000D02*
X197300000Y-122935000D01*
X193850000Y-122935000D02*
X191900000Y-122935000D01*
X193850000Y-114065000D02*
X195800000Y-114065000D01*
X193850000Y-114065000D02*
X191900000Y-114065000D01*
X195750000Y-69025000D02*
X199200000Y-69025000D01*
X195750000Y-69025000D02*
X193800000Y-69025000D01*
X195750000Y-60155000D02*
X197700000Y-60155000D01*
X195750000Y-60155000D02*
X193800000Y-60155000D01*
X110740000Y-58425000D02*
X110740000Y-61875000D01*
X110740000Y-58425000D02*
X110740000Y-56475000D01*
X115860000Y-58425000D02*
X115860000Y-60375000D01*
X115860000Y-58425000D02*
X115860000Y-56475000D01*
X101290000Y-58350000D02*
X101290000Y-61800000D01*
X101290000Y-58350000D02*
X101290000Y-56400000D01*
X106410000Y-58350000D02*
X106410000Y-60300000D01*
X106410000Y-58350000D02*
X106410000Y-56400000D01*
X174180138Y-65153654D02*
X174180138Y-66357782D01*
X176900138Y-65153654D02*
X176900138Y-66357782D01*
X128900138Y-66357782D02*
X128900138Y-65153654D01*
X126180138Y-66357782D02*
X126180138Y-65153654D01*
X174180138Y-51153654D02*
X174180138Y-52357782D01*
X176900138Y-51153654D02*
X176900138Y-52357782D01*
X126180138Y-51153654D02*
X126180138Y-52357782D01*
X128900138Y-51153654D02*
X128900138Y-52357782D01*
X150240000Y-65372936D02*
X150240000Y-66577064D01*
X152960000Y-65372936D02*
X152960000Y-66577064D01*
X150165000Y-51397936D02*
X150165000Y-52602064D01*
X152885000Y-51397936D02*
X152885000Y-52602064D01*
X94990000Y-64997936D02*
X94990000Y-66202064D01*
X97710000Y-64997936D02*
X97710000Y-66202064D01*
X97710000Y-52652064D02*
X97710000Y-51447936D01*
X94990000Y-52652064D02*
X94990000Y-51447936D01*
X107312779Y-107390000D02*
X106987221Y-107390000D01*
X107312779Y-108410000D02*
X106987221Y-108410000D01*
X105060000Y-109012779D02*
X105060000Y-108687221D01*
X104040000Y-109012779D02*
X104040000Y-108687221D01*
X94812779Y-109940000D02*
X94487221Y-109940000D01*
X94812779Y-110960000D02*
X94487221Y-110960000D01*
X193512221Y-124760000D02*
X193837779Y-124760000D01*
X193512221Y-123740000D02*
X193837779Y-123740000D01*
X195687221Y-113110000D02*
X196012779Y-113110000D01*
X195687221Y-112090000D02*
X196012779Y-112090000D01*
X197937221Y-70910000D02*
X198262779Y-70910000D01*
X197937221Y-69890000D02*
X198262779Y-69890000D01*
X198412779Y-58390000D02*
X198087221Y-58390000D01*
X198412779Y-59410000D02*
X198087221Y-59410000D01*
X188087221Y-117535000D02*
X188412779Y-117535000D01*
X188087221Y-116515000D02*
X188412779Y-116515000D01*
X190287221Y-66660000D02*
X190612779Y-66660000D01*
X190287221Y-65640000D02*
X190612779Y-65640000D01*
X188140000Y-114387221D02*
X188140000Y-114712779D01*
X189160000Y-114387221D02*
X189160000Y-114712779D01*
X190540000Y-68487221D02*
X190540000Y-68812779D01*
X191560000Y-68487221D02*
X191560000Y-68812779D01*
X187360000Y-65212779D02*
X187360000Y-64887221D01*
X186340000Y-65212779D02*
X186340000Y-64887221D01*
X163960000Y-65212779D02*
X163960000Y-64887221D01*
X162940000Y-65212779D02*
X162940000Y-64887221D01*
X187460000Y-51187779D02*
X187460000Y-50862221D01*
X186440000Y-51187779D02*
X186440000Y-50862221D01*
X162915000Y-52087221D02*
X162915000Y-52412779D01*
X163935000Y-52087221D02*
X163935000Y-52412779D01*
X201937221Y-115860000D02*
X202262779Y-115860000D01*
X201937221Y-114840000D02*
X202262779Y-114840000D01*
X201937221Y-119135000D02*
X202262779Y-119135000D01*
X201937221Y-118115000D02*
X202262779Y-118115000D01*
X201937221Y-121560000D02*
X202262779Y-121560000D01*
X201937221Y-120540000D02*
X202262779Y-120540000D01*
X202487221Y-62860000D02*
X202812779Y-62860000D01*
X202487221Y-61840000D02*
X202812779Y-61840000D01*
X96140000Y-91987221D02*
X96140000Y-92312779D01*
X97160000Y-91987221D02*
X97160000Y-92312779D01*
X108312779Y-90640000D02*
X107987221Y-90640000D01*
X108312779Y-91660000D02*
X107987221Y-91660000D01*
X201937221Y-112660000D02*
X202262779Y-112660000D01*
X201937221Y-111640000D02*
X202262779Y-111640000D01*
X202487221Y-60160000D02*
X202812779Y-60160000D01*
X202487221Y-59140000D02*
X202812779Y-59140000D01*
X202487221Y-65235000D02*
X202812779Y-65235000D01*
X202487221Y-64215000D02*
X202812779Y-64215000D01*
X202487221Y-67760000D02*
X202812779Y-67760000D01*
X202487221Y-66740000D02*
X202812779Y-66740000D01*
X97160000Y-88812779D02*
X97160000Y-88487221D01*
X96140000Y-88812779D02*
X96140000Y-88487221D01*
X108312779Y-88140000D02*
X107987221Y-88140000D01*
X108312779Y-89160000D02*
X107987221Y-89160000D01*
X201490000Y-109087221D02*
X201490000Y-109412779D01*
X202510000Y-109087221D02*
X202510000Y-109412779D01*
X202487221Y-56760000D02*
X202812779Y-56760000D01*
X202487221Y-55740000D02*
X202812779Y-55740000D01*
X115387221Y-69060000D02*
X115712779Y-69060000D01*
X115387221Y-68040000D02*
X115712779Y-68040000D01*
X115660000Y-49912779D02*
X115660000Y-49587221D01*
X114640000Y-49912779D02*
X114640000Y-49587221D01*
X111887221Y-66260000D02*
X112212779Y-66260000D01*
X111887221Y-65240000D02*
X112212779Y-65240000D01*
X111640000Y-49487221D02*
X111640000Y-49812779D01*
X112660000Y-49487221D02*
X112660000Y-49812779D01*
X111887221Y-64060000D02*
X112212779Y-64060000D01*
X111887221Y-63040000D02*
X112212779Y-63040000D01*
X112287221Y-54060000D02*
X112612779Y-54060000D01*
X112287221Y-53040000D02*
X112612779Y-53040000D01*
X107891422Y-112460000D02*
X108408578Y-112460000D01*
X107891422Y-111040000D02*
X108408578Y-111040000D01*
X95040000Y-112791422D02*
X95040000Y-113308578D01*
X96460000Y-112791422D02*
X96460000Y-113308578D01*
X85591422Y-99960000D02*
X86108578Y-99960000D01*
X85591422Y-98540000D02*
X86108578Y-98540000D01*
X80160000Y-98408578D02*
X80160000Y-97891422D01*
X78740000Y-98408578D02*
X78740000Y-97891422D01*
X189587221Y-64360000D02*
X189912779Y-64360000D01*
X189587221Y-63340000D02*
X189912779Y-63340000D01*
X107312779Y-109240000D02*
X106987221Y-109240000D01*
X107312779Y-110260000D02*
X106987221Y-110260000D01*
X104640000Y-112787221D02*
X104640000Y-113112779D01*
X105660000Y-112787221D02*
X105660000Y-113112779D01*
X94387221Y-109160000D02*
X94712779Y-109160000D01*
X94387221Y-108140000D02*
X94712779Y-108140000D01*
X189560000Y-119562779D02*
X189560000Y-119237221D01*
X188540000Y-119562779D02*
X188540000Y-119237221D01*
X199065000Y-117687221D02*
X199065000Y-118012779D01*
X200085000Y-117687221D02*
X200085000Y-118012779D01*
X78660000Y-85912779D02*
X78660000Y-85587221D01*
X77640000Y-85912779D02*
X77640000Y-85587221D01*
X74887221Y-81660000D02*
X75212779Y-81660000D01*
X74887221Y-80640000D02*
X75212779Y-80640000D01*
X197112779Y-55340000D02*
X196787221Y-55340000D01*
X197112779Y-56360000D02*
X196787221Y-56360000D01*
X108790000Y-54762221D02*
X108790000Y-55087779D01*
X109810000Y-54762221D02*
X109810000Y-55087779D01*
X115710000Y-64162779D02*
X115710000Y-63837221D01*
X114690000Y-64162779D02*
X114690000Y-63837221D01*
X101540000Y-52587221D02*
X101540000Y-52912779D01*
X102560000Y-52587221D02*
X102560000Y-52912779D01*
X106260000Y-64212779D02*
X106260000Y-63887221D01*
X105240000Y-64212779D02*
X105240000Y-63887221D01*
X112312779Y-68040000D02*
X111987221Y-68040000D01*
X112312779Y-69060000D02*
X111987221Y-69060000D01*
X116960000Y-53112779D02*
X116960000Y-52787221D01*
X115940000Y-53112779D02*
X115940000Y-52787221D01*
X99310000Y-118652064D02*
X99310000Y-117447936D01*
X96590000Y-118652064D02*
X96590000Y-117447936D01*
X71460000Y-87752064D02*
X71460000Y-86547936D01*
X68740000Y-87752064D02*
X68740000Y-86547936D01*
X71460000Y-82152064D02*
X71460000Y-80947936D01*
X68740000Y-82152064D02*
X68740000Y-80947936D01*
X82210000Y-87602064D02*
X82210000Y-86397936D01*
X79490000Y-87602064D02*
X79490000Y-86397936D01*
X82210000Y-82452064D02*
X82210000Y-81247936D01*
X79490000Y-82452064D02*
X79490000Y-81247936D01*
X170990138Y-69110718D02*
X168090138Y-69110718D01*
X170990138Y-62400718D02*
X168090138Y-62400718D01*
X166185138Y-67205718D02*
X166185138Y-64305718D01*
X172895138Y-67205718D02*
X172895138Y-64305718D01*
X122990138Y-55110718D02*
X120090138Y-55110718D01*
X122990138Y-48400718D02*
X120090138Y-48400718D01*
X118185138Y-53205718D02*
X118185138Y-50305718D01*
X124895138Y-53205718D02*
X124895138Y-50305718D01*
X134990138Y-55110718D02*
X132090138Y-55110718D01*
X134990138Y-48400718D02*
X132090138Y-48400718D01*
X130185138Y-53205718D02*
X130185138Y-50305718D01*
X136895138Y-53205718D02*
X136895138Y-50305718D01*
X146990138Y-69110718D02*
X144090138Y-69110718D01*
X146990138Y-62400718D02*
X144090138Y-62400718D01*
X142185138Y-67205718D02*
X142185138Y-64305718D01*
X148895138Y-67205718D02*
X148895138Y-64305718D01*
X182990138Y-69110718D02*
X180090138Y-69110718D01*
X182990138Y-62400718D02*
X180090138Y-62400718D01*
X178185138Y-67205718D02*
X178185138Y-64305718D01*
X184895138Y-67205718D02*
X184895138Y-64305718D01*
X91700000Y-92005000D02*
X88800000Y-92005000D01*
X91700000Y-85295000D02*
X88800000Y-85295000D01*
X86895000Y-90100000D02*
X86895000Y-87200000D01*
X93605000Y-90100000D02*
X93605000Y-87200000D01*
X134990138Y-69110718D02*
X132090138Y-69110718D01*
X134990138Y-62400718D02*
X132090138Y-62400718D01*
X130185138Y-67205718D02*
X130185138Y-64305718D01*
X136895138Y-67205718D02*
X136895138Y-64305718D01*
X122990138Y-69110718D02*
X120090138Y-69110718D01*
X122990138Y-62400718D02*
X120090138Y-62400718D01*
X118185138Y-67205718D02*
X118185138Y-64305718D01*
X124895138Y-67205718D02*
X124895138Y-64305718D01*
X170990138Y-55110718D02*
X168090138Y-55110718D01*
X170990138Y-48400718D02*
X168090138Y-48400718D01*
X166185138Y-53205718D02*
X166185138Y-50305718D01*
X172895138Y-53205718D02*
X172895138Y-50305718D01*
X158990138Y-55110718D02*
X156090138Y-55110718D01*
X158990138Y-48400718D02*
X156090138Y-48400718D01*
X154185138Y-53205718D02*
X154185138Y-50305718D01*
X160895138Y-53205718D02*
X160895138Y-50305718D01*
X182990138Y-55110718D02*
X180090138Y-55110718D01*
X182990138Y-48400718D02*
X180090138Y-48400718D01*
X178185138Y-53205718D02*
X178185138Y-50305718D01*
X184895138Y-53205718D02*
X184895138Y-50305718D01*
X146990138Y-55110718D02*
X144090138Y-55110718D01*
X146990138Y-48400718D02*
X144090138Y-48400718D01*
X142185138Y-53205718D02*
X142185138Y-50305718D01*
X148895138Y-53205718D02*
X148895138Y-50305718D01*
X158990138Y-69110718D02*
X156090138Y-69110718D01*
X158990138Y-62400718D02*
X156090138Y-62400718D01*
X154185138Y-67205718D02*
X154185138Y-64305718D01*
X160895138Y-67205718D02*
X160895138Y-64305718D01*
X91700000Y-69105000D02*
X88800000Y-69105000D01*
X91700000Y-62395000D02*
X88800000Y-62395000D01*
X86895000Y-67200000D02*
X86895000Y-64300000D01*
X93605000Y-67200000D02*
X93605000Y-64300000D01*
X91700000Y-55105000D02*
X88800000Y-55105000D01*
X91700000Y-48395000D02*
X88800000Y-48395000D01*
X86895000Y-53200000D02*
X86895000Y-50300000D01*
X93605000Y-53200000D02*
X93605000Y-50300000D01*
X100550000Y-116350000D02*
X103550000Y-116350000D01*
X100550000Y-128950000D02*
X100550000Y-116350000D01*
X103550000Y-128950000D02*
X100550000Y-128950000D01*
X113150000Y-128950000D02*
X110150000Y-128950000D01*
X113150000Y-116350000D02*
X113150000Y-128950000D01*
X110150000Y-116350000D02*
X113150000Y-116350000D01*
X87050000Y-114550000D02*
X84050000Y-114550000D01*
X87050000Y-101950000D02*
X87050000Y-114550000D01*
X84050000Y-101950000D02*
X87050000Y-101950000D01*
X74450000Y-101950000D02*
X77450000Y-101950000D01*
X74450000Y-114550000D02*
X74450000Y-101950000D01*
X77450000Y-114550000D02*
X74450000Y-114550000D01*
X172627000Y-83812000D02*
X172627000Y-81272000D01*
X172627000Y-83812000D02*
X170087000Y-83812000D01*
X172377000Y-83562000D02*
X172377000Y-74212000D01*
X131197000Y-83562000D02*
X172377000Y-83562000D01*
X131197000Y-74212000D02*
X131197000Y-83562000D01*
X172377000Y-74212000D02*
X131197000Y-74212000D01*
X172617000Y-134572000D02*
X172617000Y-132032000D01*
X172617000Y-134572000D02*
X170077000Y-134572000D01*
X172367000Y-134322000D02*
X172367000Y-124972000D01*
X131187000Y-134322000D02*
X172367000Y-134322000D01*
X131187000Y-124972000D02*
X131187000Y-134322000D01*
X172367000Y-124972000D02*
X131187000Y-124972000D01*
D11*
X131054122Y-77240000D02*
G75*
G03*
X131054122Y-77240000I-3204122J0D01*
G01*
X131052202Y-131250000D02*
G75*
G03*
X131052202Y-131250000I-3202202J0D01*
G01*
X215054949Y-77260000D02*
G75*
G03*
X215054949Y-77260000I-3204949J0D01*
G01*
X215053701Y-131250000D02*
G75*
G03*
X215053701Y-131250000I-3203701J0D01*
G01*
X215250000Y-73850000D02*
X215250000Y-134650000D01*
X120250000Y-73850000D02*
X215250000Y-73850000D01*
X120250000Y-134650000D02*
X120250000Y-73850000D01*
X215250000Y-134650000D02*
X120250000Y-134650000D01*
X75300000Y-94815000D02*
X76900000Y-94815000D01*
X75300000Y-139485000D02*
X76900000Y-139485000D01*
X81300000Y-94815000D02*
X82900000Y-94815000D01*
X81300000Y-139485000D02*
X82900000Y-139485000D01*
X87300000Y-94815000D02*
X88900000Y-94815000D01*
X87300000Y-139485000D02*
X88900000Y-139485000D01*
X93300000Y-94815000D02*
X95000000Y-94815000D01*
X93300000Y-139485000D02*
X95000000Y-139485000D01*
X99400000Y-94815000D02*
X101000000Y-94815000D01*
X99400000Y-139485000D02*
X101000000Y-139485000D01*
X105400000Y-94815000D02*
X107000000Y-94815000D01*
X105400000Y-139485000D02*
X107000000Y-139485000D01*
X111400000Y-94815000D02*
X113000000Y-94815000D01*
X111400000Y-139485000D02*
X113000000Y-139485000D01*
X71815000Y-98300000D02*
X71815000Y-99900000D01*
X116485000Y-98300000D02*
X116485000Y-99900000D01*
X71815000Y-104300000D02*
X71815000Y-105900000D01*
X116485000Y-104300000D02*
X116485000Y-105900000D01*
X71815000Y-110300000D02*
X71815000Y-111900000D01*
X116485000Y-110300000D02*
X116485000Y-111900000D01*
X71815000Y-116300000D02*
X71815000Y-118000000D01*
X116485000Y-116300000D02*
X116485000Y-118000000D01*
X71815000Y-122400000D02*
X71815000Y-124000000D01*
X116485000Y-122400000D02*
X116485000Y-124000000D01*
X71815000Y-128400000D02*
X71815000Y-130000000D01*
X116485000Y-128400000D02*
X116485000Y-130000000D01*
X71815000Y-134400000D02*
X71815000Y-136000000D01*
X116485000Y-134400000D02*
X116485000Y-136000000D01*
D13*
X81991422Y-98540000D02*
X82508578Y-98540000D01*
X81991422Y-99960000D02*
X82508578Y-99960000D01*
X80100000Y-71350000D02*
G75*
G03*
X80100000Y-71350000I-950000J0D01*
G01*
X80100000Y-75450000D02*
G75*
G03*
X80100000Y-75450000I-950000J0D01*
G01*
X80100000Y-67650000D02*
G75*
G03*
X80100000Y-67650000I-950000J0D01*
G01*
X174800000Y-140450000D02*
G75*
G03*
X174800000Y-140450000I-950000J0D01*
G01*
X76800000Y-86760000D02*
X73550000Y-86760000D01*
X76550000Y-82540000D02*
X73550000Y-82540000D01*
X100550000Y-113710000D02*
X102050000Y-113710000D01*
X100550000Y-113710000D02*
X99050000Y-113710000D01*
X100550000Y-109390000D02*
X102050000Y-109390000D01*
X100550000Y-109390000D02*
X97675000Y-109390000D01*
D14*
X125654000Y-137950000D02*
G75*
G03*
X125654000Y-137950000I-254000J0D01*
G01*
X121654000Y-137950000D02*
G75*
G03*
X121654000Y-137950000I-254000J0D01*
G01*
X123654000Y-137950000D02*
G75*
G03*
X123654000Y-137950000I-254000J0D01*
G01*
X121654000Y-139950000D02*
G75*
G03*
X121654000Y-139950000I-254000J0D01*
G01*
X123654000Y-139950000D02*
G75*
G03*
X123654000Y-139950000I-254000J0D01*
G01*
X125654000Y-139950000D02*
G75*
G03*
X125654000Y-139950000I-254000J0D01*
G01*
X125654000Y-141950000D02*
G75*
G03*
X125654000Y-141950000I-254000J0D01*
G01*
X123654000Y-141950000D02*
G75*
G03*
X123654000Y-141950000I-254000J0D01*
G01*
X121654000Y-141950000D02*
G75*
G03*
X121654000Y-141950000I-254000J0D01*
G01*
D15*
G36*
X187683214Y-138580139D02*
G01*
X187834632Y-138581181D01*
X187951317Y-138584145D01*
X188043881Y-138590060D01*
X188122938Y-138599951D01*
X188199104Y-138614847D01*
X188282992Y-138635772D01*
X188296977Y-138639516D01*
X188587131Y-138740250D01*
X188854691Y-138878979D01*
X189096674Y-139053213D01*
X189310095Y-139260467D01*
X189491971Y-139498253D01*
X189634936Y-139754678D01*
X189718031Y-139958601D01*
X189776668Y-140167963D01*
X189813748Y-140395596D01*
X189830857Y-140621394D01*
X189827946Y-140955223D01*
X189788266Y-141263691D01*
X189710974Y-141549125D01*
X189595226Y-141813849D01*
X189440181Y-142060189D01*
X189244996Y-142290472D01*
X189215044Y-142320937D01*
X188993705Y-142516500D01*
X188759111Y-142671647D01*
X188503469Y-142790986D01*
X188314276Y-142853854D01*
X188196005Y-142879662D01*
X188046262Y-142900474D01*
X187878751Y-142915339D01*
X187707178Y-142923310D01*
X187545247Y-142923438D01*
X187417538Y-142915912D01*
X187180853Y-142876899D01*
X186936823Y-142808784D01*
X186697517Y-142716426D01*
X186475004Y-142604685D01*
X186281353Y-142478419D01*
X186229863Y-142437747D01*
X186036198Y-142247838D01*
X185871439Y-142025038D01*
X185737306Y-141772762D01*
X185635519Y-141494424D01*
X185567797Y-141193440D01*
X185553890Y-141095268D01*
X185531331Y-140751926D01*
X185531779Y-140743750D01*
X186680201Y-140743750D01*
X186693929Y-141013973D01*
X186737686Y-141251240D01*
X186812221Y-141457234D01*
X186918282Y-141633638D01*
X187056616Y-141782135D01*
X187184311Y-141877695D01*
X187290507Y-141939022D01*
X187390397Y-141978883D01*
X187498199Y-142000725D01*
X187628129Y-142007998D01*
X187717232Y-142006954D01*
X187833911Y-142001720D01*
X187920321Y-141991662D01*
X187991505Y-141973986D01*
X188062505Y-141945903D01*
X188073695Y-141940793D01*
X188207989Y-141860974D01*
X188339719Y-141751219D01*
X188453615Y-141625136D01*
X188496955Y-141563617D01*
X188573295Y-141411827D01*
X188632447Y-141228326D01*
X188672412Y-141024143D01*
X188691188Y-140810304D01*
X188686777Y-140597838D01*
X188681688Y-140545092D01*
X188644670Y-140315291D01*
X188588408Y-140121242D01*
X188510188Y-139956456D01*
X188407291Y-139814446D01*
X188350897Y-139754955D01*
X188190097Y-139627246D01*
X188013347Y-139538650D01*
X187826606Y-139489164D01*
X187635834Y-139478788D01*
X187446991Y-139507520D01*
X187266035Y-139575358D01*
X187098927Y-139682300D01*
X187017565Y-139755282D01*
X186893384Y-139902991D01*
X186799328Y-140068858D01*
X186733637Y-140258039D01*
X186694550Y-140475694D01*
X186680306Y-140726980D01*
X186680201Y-140743750D01*
X185531779Y-140743750D01*
X185549294Y-140424671D01*
X185607249Y-140115131D01*
X185704671Y-139824933D01*
X185841031Y-139555704D01*
X186015803Y-139309073D01*
X186194642Y-139117967D01*
X186411689Y-138942640D01*
X186659726Y-138795890D01*
X186931707Y-138681595D01*
X187061521Y-138641370D01*
X187148131Y-138618368D01*
X187222742Y-138601863D01*
X187295883Y-138590815D01*
X187378082Y-138584189D01*
X187479868Y-138580947D01*
X187611771Y-138580053D01*
X187683214Y-138580139D01*
G37*
X187683214Y-138580139D02*
X187834632Y-138581181D01*
X187951317Y-138584145D01*
X188043881Y-138590060D01*
X188122938Y-138599951D01*
X188199104Y-138614847D01*
X188282992Y-138635772D01*
X188296977Y-138639516D01*
X188587131Y-138740250D01*
X188854691Y-138878979D01*
X189096674Y-139053213D01*
X189310095Y-139260467D01*
X189491971Y-139498253D01*
X189634936Y-139754678D01*
X189718031Y-139958601D01*
X189776668Y-140167963D01*
X189813748Y-140395596D01*
X189830857Y-140621394D01*
X189827946Y-140955223D01*
X189788266Y-141263691D01*
X189710974Y-141549125D01*
X189595226Y-141813849D01*
X189440181Y-142060189D01*
X189244996Y-142290472D01*
X189215044Y-142320937D01*
X188993705Y-142516500D01*
X188759111Y-142671647D01*
X188503469Y-142790986D01*
X188314276Y-142853854D01*
X188196005Y-142879662D01*
X188046262Y-142900474D01*
X187878751Y-142915339D01*
X187707178Y-142923310D01*
X187545247Y-142923438D01*
X187417538Y-142915912D01*
X187180853Y-142876899D01*
X186936823Y-142808784D01*
X186697517Y-142716426D01*
X186475004Y-142604685D01*
X186281353Y-142478419D01*
X186229863Y-142437747D01*
X186036198Y-142247838D01*
X185871439Y-142025038D01*
X185737306Y-141772762D01*
X185635519Y-141494424D01*
X185567797Y-141193440D01*
X185553890Y-141095268D01*
X185531331Y-140751926D01*
X185531779Y-140743750D01*
X186680201Y-140743750D01*
X186693929Y-141013973D01*
X186737686Y-141251240D01*
X186812221Y-141457234D01*
X186918282Y-141633638D01*
X187056616Y-141782135D01*
X187184311Y-141877695D01*
X187290507Y-141939022D01*
X187390397Y-141978883D01*
X187498199Y-142000725D01*
X187628129Y-142007998D01*
X187717232Y-142006954D01*
X187833911Y-142001720D01*
X187920321Y-141991662D01*
X187991505Y-141973986D01*
X188062505Y-141945903D01*
X188073695Y-141940793D01*
X188207989Y-141860974D01*
X188339719Y-141751219D01*
X188453615Y-141625136D01*
X188496955Y-141563617D01*
X188573295Y-141411827D01*
X188632447Y-141228326D01*
X188672412Y-141024143D01*
X188691188Y-140810304D01*
X188686777Y-140597838D01*
X188681688Y-140545092D01*
X188644670Y-140315291D01*
X188588408Y-140121242D01*
X188510188Y-139956456D01*
X188407291Y-139814446D01*
X188350897Y-139754955D01*
X188190097Y-139627246D01*
X188013347Y-139538650D01*
X187826606Y-139489164D01*
X187635834Y-139478788D01*
X187446991Y-139507520D01*
X187266035Y-139575358D01*
X187098927Y-139682300D01*
X187017565Y-139755282D01*
X186893384Y-139902991D01*
X186799328Y-140068858D01*
X186733637Y-140258039D01*
X186694550Y-140475694D01*
X186680306Y-140726980D01*
X186680201Y-140743750D01*
X185531779Y-140743750D01*
X185549294Y-140424671D01*
X185607249Y-140115131D01*
X185704671Y-139824933D01*
X185841031Y-139555704D01*
X186015803Y-139309073D01*
X186194642Y-139117967D01*
X186411689Y-138942640D01*
X186659726Y-138795890D01*
X186931707Y-138681595D01*
X187061521Y-138641370D01*
X187148131Y-138618368D01*
X187222742Y-138601863D01*
X187295883Y-138590815D01*
X187378082Y-138584189D01*
X187479868Y-138580947D01*
X187611771Y-138580053D01*
X187683214Y-138580139D01*
G36*
X198936632Y-136994987D02*
G01*
X199165956Y-137022497D01*
X199375995Y-137066937D01*
X199574833Y-137129711D01*
X199770557Y-137212226D01*
X199813706Y-137233023D01*
X200047308Y-137371313D01*
X200247374Y-137539953D01*
X200414331Y-137739436D01*
X200548605Y-137970254D01*
X200635327Y-138185363D01*
X200671998Y-138313355D01*
X200700695Y-138448596D01*
X200715667Y-138560670D01*
X200729241Y-138736696D01*
X200663950Y-138737926D01*
X200622922Y-138739067D01*
X200543991Y-138741586D01*
X200434579Y-138745232D01*
X200302112Y-138749758D01*
X200154014Y-138754914D01*
X200077053Y-138757628D01*
X199555446Y-138776101D01*
X199514182Y-138615734D01*
X199444587Y-138422995D01*
X199343741Y-138261979D01*
X199212870Y-138134046D01*
X199053204Y-138040559D01*
X198965803Y-138008041D01*
X198860822Y-137984995D01*
X198724864Y-137969055D01*
X198571807Y-137960596D01*
X198415529Y-137959994D01*
X198269909Y-137967626D01*
X198148824Y-137983866D01*
X198140025Y-137985673D01*
X197963834Y-138036343D01*
X197810331Y-138106861D01*
X197686255Y-138193180D01*
X197598346Y-138291252D01*
X197580386Y-138321686D01*
X197557454Y-138398025D01*
X197549531Y-138497458D01*
X197556690Y-138600256D01*
X197579004Y-138686685D01*
X197579032Y-138686752D01*
X197614967Y-138746107D01*
X197670362Y-138811327D01*
X197697407Y-138837116D01*
X197756873Y-138884232D01*
X197826214Y-138928289D01*
X197909893Y-138970901D01*
X198012377Y-139013682D01*
X198138130Y-139058248D01*
X198291618Y-139106213D01*
X198477305Y-139159192D01*
X198699657Y-139218799D01*
X198886428Y-139267103D01*
X199200274Y-139351297D01*
X199473178Y-139433583D01*
X199709378Y-139516098D01*
X199913107Y-139600977D01*
X200088601Y-139690357D01*
X200240096Y-139786375D01*
X200371828Y-139891167D01*
X200488031Y-140006868D01*
X200583647Y-140123166D01*
X200692507Y-140295468D01*
X200782520Y-140492798D01*
X200845397Y-140696074D01*
X200857405Y-140753585D01*
X200875052Y-140895109D01*
X200882548Y-141060686D01*
X200880263Y-141234673D01*
X200868569Y-141401429D01*
X200847839Y-141545314D01*
X200837500Y-141591401D01*
X200773079Y-141782721D01*
X200679110Y-141980214D01*
X200564633Y-142166207D01*
X200498303Y-142254613D01*
X200323069Y-142435408D01*
X200112131Y-142590166D01*
X199867594Y-142717908D01*
X199591561Y-142817654D01*
X199286136Y-142888424D01*
X199072637Y-142918445D01*
X198896432Y-142932327D01*
X198700022Y-142939306D01*
X198497612Y-142939504D01*
X198303409Y-142933046D01*
X198131616Y-142920055D01*
X198047321Y-142909498D01*
X197737341Y-142848740D01*
X197462881Y-142764451D01*
X197219461Y-142654486D01*
X197002604Y-142516698D01*
X196807829Y-142348942D01*
X196748040Y-142287078D01*
X196601579Y-142101526D01*
X196471569Y-141882745D01*
X196362629Y-141641292D01*
X196279375Y-141387725D01*
X196226423Y-141132601D01*
X196219406Y-141078259D01*
X196212091Y-141005101D01*
X196213756Y-140966161D01*
X196227626Y-140950666D01*
X196256928Y-140947842D01*
X196258454Y-140947840D01*
X196296837Y-140945702D01*
X196372629Y-140939746D01*
X196478103Y-140930644D01*
X196605533Y-140919066D01*
X196747193Y-140905683D01*
X196777321Y-140902775D01*
X196951296Y-140885879D01*
X197085424Y-140873213D01*
X197185030Y-140864932D01*
X197255442Y-140861190D01*
X197301985Y-140862139D01*
X197329986Y-140867934D01*
X197344771Y-140878728D01*
X197351666Y-140894676D01*
X197355997Y-140915932D01*
X197356738Y-140919509D01*
X197387902Y-141034752D01*
X197433833Y-141167631D01*
X197487496Y-141300014D01*
X197541854Y-141413769D01*
X197563243Y-141451702D01*
X197686881Y-141613918D01*
X197842416Y-141744475D01*
X198028787Y-141842873D01*
X198244931Y-141908616D01*
X198489789Y-141941205D01*
X198614285Y-141944927D01*
X198867181Y-141930309D01*
X199087328Y-141885989D01*
X199276849Y-141811266D01*
X199437868Y-141705440D01*
X199494309Y-141654697D01*
X199606896Y-141519232D01*
X199680659Y-141374532D01*
X199715015Y-141226086D01*
X199709382Y-141079380D01*
X199663178Y-140939904D01*
X199582789Y-140820925D01*
X199532217Y-140769365D01*
X199473219Y-140722122D01*
X199401629Y-140677619D01*
X199313284Y-140634280D01*
X199204019Y-140590527D01*
X199069669Y-140544785D01*
X198906069Y-140495477D01*
X198709056Y-140441026D01*
X198474465Y-140379856D01*
X198303667Y-140336699D01*
X197951473Y-140239589D01*
X197642105Y-140135409D01*
X197376115Y-140024386D01*
X197154059Y-139906745D01*
X197008187Y-139807843D01*
X196819578Y-139635709D01*
X196665784Y-139438385D01*
X196547833Y-139220946D01*
X196466757Y-138988465D01*
X196423584Y-138746017D01*
X196419346Y-138498677D01*
X196455073Y-138251518D01*
X196531794Y-138009616D01*
X196610070Y-137846799D01*
X196734884Y-137663077D01*
X196895529Y-137491503D01*
X197082659Y-137340164D01*
X197286930Y-137217145D01*
X197394721Y-137167905D01*
X197561354Y-137105619D01*
X197721902Y-137058682D01*
X197887851Y-137024980D01*
X198070689Y-137002400D01*
X198281903Y-136988826D01*
X198387791Y-136985134D01*
X198679939Y-136983001D01*
X198936632Y-136994987D01*
G37*
X198936632Y-136994987D02*
X199165956Y-137022497D01*
X199375995Y-137066937D01*
X199574833Y-137129711D01*
X199770557Y-137212226D01*
X199813706Y-137233023D01*
X200047308Y-137371313D01*
X200247374Y-137539953D01*
X200414331Y-137739436D01*
X200548605Y-137970254D01*
X200635327Y-138185363D01*
X200671998Y-138313355D01*
X200700695Y-138448596D01*
X200715667Y-138560670D01*
X200729241Y-138736696D01*
X200663950Y-138737926D01*
X200622922Y-138739067D01*
X200543991Y-138741586D01*
X200434579Y-138745232D01*
X200302112Y-138749758D01*
X200154014Y-138754914D01*
X200077053Y-138757628D01*
X199555446Y-138776101D01*
X199514182Y-138615734D01*
X199444587Y-138422995D01*
X199343741Y-138261979D01*
X199212870Y-138134046D01*
X199053204Y-138040559D01*
X198965803Y-138008041D01*
X198860822Y-137984995D01*
X198724864Y-137969055D01*
X198571807Y-137960596D01*
X198415529Y-137959994D01*
X198269909Y-137967626D01*
X198148824Y-137983866D01*
X198140025Y-137985673D01*
X197963834Y-138036343D01*
X197810331Y-138106861D01*
X197686255Y-138193180D01*
X197598346Y-138291252D01*
X197580386Y-138321686D01*
X197557454Y-138398025D01*
X197549531Y-138497458D01*
X197556690Y-138600256D01*
X197579004Y-138686685D01*
X197579032Y-138686752D01*
X197614967Y-138746107D01*
X197670362Y-138811327D01*
X197697407Y-138837116D01*
X197756873Y-138884232D01*
X197826214Y-138928289D01*
X197909893Y-138970901D01*
X198012377Y-139013682D01*
X198138130Y-139058248D01*
X198291618Y-139106213D01*
X198477305Y-139159192D01*
X198699657Y-139218799D01*
X198886428Y-139267103D01*
X199200274Y-139351297D01*
X199473178Y-139433583D01*
X199709378Y-139516098D01*
X199913107Y-139600977D01*
X200088601Y-139690357D01*
X200240096Y-139786375D01*
X200371828Y-139891167D01*
X200488031Y-140006868D01*
X200583647Y-140123166D01*
X200692507Y-140295468D01*
X200782520Y-140492798D01*
X200845397Y-140696074D01*
X200857405Y-140753585D01*
X200875052Y-140895109D01*
X200882548Y-141060686D01*
X200880263Y-141234673D01*
X200868569Y-141401429D01*
X200847839Y-141545314D01*
X200837500Y-141591401D01*
X200773079Y-141782721D01*
X200679110Y-141980214D01*
X200564633Y-142166207D01*
X200498303Y-142254613D01*
X200323069Y-142435408D01*
X200112131Y-142590166D01*
X199867594Y-142717908D01*
X199591561Y-142817654D01*
X199286136Y-142888424D01*
X199072637Y-142918445D01*
X198896432Y-142932327D01*
X198700022Y-142939306D01*
X198497612Y-142939504D01*
X198303409Y-142933046D01*
X198131616Y-142920055D01*
X198047321Y-142909498D01*
X197737341Y-142848740D01*
X197462881Y-142764451D01*
X197219461Y-142654486D01*
X197002604Y-142516698D01*
X196807829Y-142348942D01*
X196748040Y-142287078D01*
X196601579Y-142101526D01*
X196471569Y-141882745D01*
X196362629Y-141641292D01*
X196279375Y-141387725D01*
X196226423Y-141132601D01*
X196219406Y-141078259D01*
X196212091Y-141005101D01*
X196213756Y-140966161D01*
X196227626Y-140950666D01*
X196256928Y-140947842D01*
X196258454Y-140947840D01*
X196296837Y-140945702D01*
X196372629Y-140939746D01*
X196478103Y-140930644D01*
X196605533Y-140919066D01*
X196747193Y-140905683D01*
X196777321Y-140902775D01*
X196951296Y-140885879D01*
X197085424Y-140873213D01*
X197185030Y-140864932D01*
X197255442Y-140861190D01*
X197301985Y-140862139D01*
X197329986Y-140867934D01*
X197344771Y-140878728D01*
X197351666Y-140894676D01*
X197355997Y-140915932D01*
X197356738Y-140919509D01*
X197387902Y-141034752D01*
X197433833Y-141167631D01*
X197487496Y-141300014D01*
X197541854Y-141413769D01*
X197563243Y-141451702D01*
X197686881Y-141613918D01*
X197842416Y-141744475D01*
X198028787Y-141842873D01*
X198244931Y-141908616D01*
X198489789Y-141941205D01*
X198614285Y-141944927D01*
X198867181Y-141930309D01*
X199087328Y-141885989D01*
X199276849Y-141811266D01*
X199437868Y-141705440D01*
X199494309Y-141654697D01*
X199606896Y-141519232D01*
X199680659Y-141374532D01*
X199715015Y-141226086D01*
X199709382Y-141079380D01*
X199663178Y-140939904D01*
X199582789Y-140820925D01*
X199532217Y-140769365D01*
X199473219Y-140722122D01*
X199401629Y-140677619D01*
X199313284Y-140634280D01*
X199204019Y-140590527D01*
X199069669Y-140544785D01*
X198906069Y-140495477D01*
X198709056Y-140441026D01*
X198474465Y-140379856D01*
X198303667Y-140336699D01*
X197951473Y-140239589D01*
X197642105Y-140135409D01*
X197376115Y-140024386D01*
X197154059Y-139906745D01*
X197008187Y-139807843D01*
X196819578Y-139635709D01*
X196665784Y-139438385D01*
X196547833Y-139220946D01*
X196466757Y-138988465D01*
X196423584Y-138746017D01*
X196419346Y-138498677D01*
X196455073Y-138251518D01*
X196531794Y-138009616D01*
X196610070Y-137846799D01*
X196734884Y-137663077D01*
X196895529Y-137491503D01*
X197082659Y-137340164D01*
X197286930Y-137217145D01*
X197394721Y-137167905D01*
X197561354Y-137105619D01*
X197721902Y-137058682D01*
X197887851Y-137024980D01*
X198070689Y-137002400D01*
X198281903Y-136988826D01*
X198387791Y-136985134D01*
X198679939Y-136983001D01*
X198936632Y-136994987D01*
G36*
X181588348Y-137077046D02*
G01*
X181944595Y-137079765D01*
X182262866Y-137082980D01*
X182542145Y-137086670D01*
X182781416Y-137090814D01*
X182979663Y-137095391D01*
X183135871Y-137100380D01*
X183249024Y-137105760D01*
X183318107Y-137111511D01*
X183328928Y-137113099D01*
X183539430Y-137154224D01*
X183713593Y-137199936D01*
X183860433Y-137254363D01*
X183988965Y-137321632D01*
X184108204Y-137405868D01*
X184227168Y-137511200D01*
X184252399Y-137535833D01*
X184347891Y-137634505D01*
X184418407Y-137719383D01*
X184474550Y-137804807D01*
X184526919Y-137905117D01*
X184529734Y-137911002D01*
X184598870Y-138066744D01*
X184647129Y-138205619D01*
X184677777Y-138342648D01*
X184694079Y-138492856D01*
X184699300Y-138671265D01*
X184699338Y-138691339D01*
X184687440Y-138945293D01*
X184649861Y-139167428D01*
X184583775Y-139365104D01*
X184486356Y-139545679D01*
X184354779Y-139716513D01*
X184272211Y-139803652D01*
X184161423Y-139906558D01*
X184050495Y-139992462D01*
X183931421Y-140065341D01*
X183796194Y-140129170D01*
X183636810Y-140187928D01*
X183445261Y-140245590D01*
X183309428Y-140281866D01*
X183233231Y-140301518D01*
X183400142Y-140414581D01*
X183569945Y-140545003D01*
X183745000Y-140707436D01*
X183914914Y-140891314D01*
X184069295Y-141086076D01*
X184092146Y-141117946D01*
X184131138Y-141175149D01*
X184187762Y-141260945D01*
X184259023Y-141370589D01*
X184341927Y-141499336D01*
X184433478Y-141642441D01*
X184530684Y-141795156D01*
X184630548Y-141952738D01*
X184730077Y-142110440D01*
X184826275Y-142263517D01*
X184916149Y-142407224D01*
X184996703Y-142536814D01*
X185064943Y-142647542D01*
X185117875Y-142734663D01*
X185152503Y-142793431D01*
X185165834Y-142819101D01*
X185165892Y-142819531D01*
X185144125Y-142822164D01*
X185082470Y-142824560D01*
X184986395Y-142826635D01*
X184861369Y-142828308D01*
X184712860Y-142829494D01*
X184546338Y-142830110D01*
X184466812Y-142830179D01*
X183767732Y-142830179D01*
X183188417Y-141962723D01*
X183063515Y-141776423D01*
X182940684Y-141594574D01*
X182823372Y-141422186D01*
X182715028Y-141264272D01*
X182619099Y-141125840D01*
X182539035Y-141011902D01*
X182478282Y-140927469D01*
X182450441Y-140890342D01*
X182330272Y-140747055D01*
X182213394Y-140636516D01*
X182091430Y-140554885D01*
X181956004Y-140498317D01*
X181798739Y-140462969D01*
X181611258Y-140445000D01*
X181470604Y-140440833D01*
X181185803Y-140437589D01*
X181174063Y-142830179D01*
X179995178Y-142830179D01*
X179995178Y-138067679D01*
X181174464Y-138067679D01*
X181174464Y-139496429D01*
X181883169Y-139496242D01*
X182069182Y-139495453D01*
X182250318Y-139493309D01*
X182418926Y-139490006D01*
X182567353Y-139485736D01*
X182687948Y-139480691D01*
X182773061Y-139475066D01*
X182790027Y-139473352D01*
X182968620Y-139445016D01*
X183110414Y-139403701D01*
X183222860Y-139346377D01*
X183313412Y-139270017D01*
X183326969Y-139255147D01*
X183419838Y-139117636D01*
X183475187Y-138957632D01*
X183493920Y-138772452D01*
X183493891Y-138759375D01*
X183474550Y-138574068D01*
X183419659Y-138416920D01*
X183329111Y-138287785D01*
X183202801Y-138186518D01*
X183040619Y-138112974D01*
X183010791Y-138103608D01*
X182972190Y-138094059D01*
X182923984Y-138086305D01*
X182861453Y-138080172D01*
X182779877Y-138075487D01*
X182674535Y-138072077D01*
X182540708Y-138069768D01*
X182373676Y-138068388D01*
X182168718Y-138067763D01*
X182032133Y-138067679D01*
X181174464Y-138067679D01*
X179995178Y-138067679D01*
X179995178Y-137066576D01*
X181588348Y-137077046D01*
G37*
X181588348Y-137077046D02*
X181944595Y-137079765D01*
X182262866Y-137082980D01*
X182542145Y-137086670D01*
X182781416Y-137090814D01*
X182979663Y-137095391D01*
X183135871Y-137100380D01*
X183249024Y-137105760D01*
X183318107Y-137111511D01*
X183328928Y-137113099D01*
X183539430Y-137154224D01*
X183713593Y-137199936D01*
X183860433Y-137254363D01*
X183988965Y-137321632D01*
X184108204Y-137405868D01*
X184227168Y-137511200D01*
X184252399Y-137535833D01*
X184347891Y-137634505D01*
X184418407Y-137719383D01*
X184474550Y-137804807D01*
X184526919Y-137905117D01*
X184529734Y-137911002D01*
X184598870Y-138066744D01*
X184647129Y-138205619D01*
X184677777Y-138342648D01*
X184694079Y-138492856D01*
X184699300Y-138671265D01*
X184699338Y-138691339D01*
X184687440Y-138945293D01*
X184649861Y-139167428D01*
X184583775Y-139365104D01*
X184486356Y-139545679D01*
X184354779Y-139716513D01*
X184272211Y-139803652D01*
X184161423Y-139906558D01*
X184050495Y-139992462D01*
X183931421Y-140065341D01*
X183796194Y-140129170D01*
X183636810Y-140187928D01*
X183445261Y-140245590D01*
X183309428Y-140281866D01*
X183233231Y-140301518D01*
X183400142Y-140414581D01*
X183569945Y-140545003D01*
X183745000Y-140707436D01*
X183914914Y-140891314D01*
X184069295Y-141086076D01*
X184092146Y-141117946D01*
X184131138Y-141175149D01*
X184187762Y-141260945D01*
X184259023Y-141370589D01*
X184341927Y-141499336D01*
X184433478Y-141642441D01*
X184530684Y-141795156D01*
X184630548Y-141952738D01*
X184730077Y-142110440D01*
X184826275Y-142263517D01*
X184916149Y-142407224D01*
X184996703Y-142536814D01*
X185064943Y-142647542D01*
X185117875Y-142734663D01*
X185152503Y-142793431D01*
X185165834Y-142819101D01*
X185165892Y-142819531D01*
X185144125Y-142822164D01*
X185082470Y-142824560D01*
X184986395Y-142826635D01*
X184861369Y-142828308D01*
X184712860Y-142829494D01*
X184546338Y-142830110D01*
X184466812Y-142830179D01*
X183767732Y-142830179D01*
X183188417Y-141962723D01*
X183063515Y-141776423D01*
X182940684Y-141594574D01*
X182823372Y-141422186D01*
X182715028Y-141264272D01*
X182619099Y-141125840D01*
X182539035Y-141011902D01*
X182478282Y-140927469D01*
X182450441Y-140890342D01*
X182330272Y-140747055D01*
X182213394Y-140636516D01*
X182091430Y-140554885D01*
X181956004Y-140498317D01*
X181798739Y-140462969D01*
X181611258Y-140445000D01*
X181470604Y-140440833D01*
X181185803Y-140437589D01*
X181174063Y-142830179D01*
X179995178Y-142830179D01*
X179995178Y-138067679D01*
X181174464Y-138067679D01*
X181174464Y-139496429D01*
X181883169Y-139496242D01*
X182069182Y-139495453D01*
X182250318Y-139493309D01*
X182418926Y-139490006D01*
X182567353Y-139485736D01*
X182687948Y-139480691D01*
X182773061Y-139475066D01*
X182790027Y-139473352D01*
X182968620Y-139445016D01*
X183110414Y-139403701D01*
X183222860Y-139346377D01*
X183313412Y-139270017D01*
X183326969Y-139255147D01*
X183419838Y-139117636D01*
X183475187Y-138957632D01*
X183493920Y-138772452D01*
X183493891Y-138759375D01*
X183474550Y-138574068D01*
X183419659Y-138416920D01*
X183329111Y-138287785D01*
X183202801Y-138186518D01*
X183040619Y-138112974D01*
X183010791Y-138103608D01*
X182972190Y-138094059D01*
X182923984Y-138086305D01*
X182861453Y-138080172D01*
X182779877Y-138075487D01*
X182674535Y-138072077D01*
X182540708Y-138069768D01*
X182373676Y-138068388D01*
X182168718Y-138067763D01*
X182032133Y-138067679D01*
X181174464Y-138067679D01*
X179995178Y-138067679D01*
X179995178Y-137066576D01*
X181588348Y-137077046D01*
G36*
X191878750Y-139337679D02*
G01*
X194123928Y-139337679D01*
X194123928Y-137069821D01*
X195303214Y-137069821D01*
X195303214Y-142830179D01*
X194123928Y-142830179D01*
X194123928Y-140312430D01*
X193007008Y-140318313D01*
X191890089Y-140324196D01*
X191884227Y-141577187D01*
X191878365Y-142830179D01*
X190699464Y-142830179D01*
X190699464Y-137069821D01*
X191878750Y-137069821D01*
X191878750Y-139337679D01*
G37*
X191878750Y-139337679D02*
X194123928Y-139337679D01*
X194123928Y-137069821D01*
X195303214Y-137069821D01*
X195303214Y-142830179D01*
X194123928Y-142830179D01*
X194123928Y-140312430D01*
X193007008Y-140318313D01*
X191890089Y-140324196D01*
X191884227Y-141577187D01*
X191878365Y-142830179D01*
X190699464Y-142830179D01*
X190699464Y-137069821D01*
X191878750Y-137069821D01*
X191878750Y-139337679D01*
D11*
X99840476Y-84102380D02*
X99840476Y-83102380D01*
X99840476Y-83578571D02*
X100411904Y-83578571D01*
X100411904Y-84102380D02*
X100411904Y-83102380D01*
X101030952Y-84102380D02*
X100935714Y-84054761D01*
X100888095Y-84007142D01*
X100840476Y-83911904D01*
X100840476Y-83626190D01*
X100888095Y-83530952D01*
X100935714Y-83483333D01*
X101030952Y-83435714D01*
X101173809Y-83435714D01*
X101269047Y-83483333D01*
X101316666Y-83530952D01*
X101364285Y-83626190D01*
X101364285Y-83911904D01*
X101316666Y-84007142D01*
X101269047Y-84054761D01*
X101173809Y-84102380D01*
X101030952Y-84102380D01*
X101935714Y-84102380D02*
X101840476Y-84054761D01*
X101792857Y-83959523D01*
X101792857Y-83102380D01*
X102745238Y-84102380D02*
X102745238Y-83102380D01*
X102745238Y-84054761D02*
X102650000Y-84102380D01*
X102459523Y-84102380D01*
X102364285Y-84054761D01*
X102316666Y-84007142D01*
X102269047Y-83911904D01*
X102269047Y-83626190D01*
X102316666Y-83530952D01*
X102364285Y-83483333D01*
X102459523Y-83435714D01*
X102650000Y-83435714D01*
X102745238Y-83483333D01*
X102983333Y-84197619D02*
X103745238Y-84197619D01*
X103935714Y-83197619D02*
X103983333Y-83150000D01*
X104078571Y-83102380D01*
X104316666Y-83102380D01*
X104411904Y-83150000D01*
X104459523Y-83197619D01*
X104507142Y-83292857D01*
X104507142Y-83388095D01*
X104459523Y-83530952D01*
X103888095Y-84102380D01*
X104507142Y-84102380D01*
X208632857Y-109920000D02*
X208537619Y-109872380D01*
X208394761Y-109872380D01*
X208251904Y-109920000D01*
X208156666Y-110015238D01*
X208109047Y-110110476D01*
X208061428Y-110300952D01*
X208061428Y-110443809D01*
X208109047Y-110634285D01*
X208156666Y-110729523D01*
X208251904Y-110824761D01*
X208394761Y-110872380D01*
X208490000Y-110872380D01*
X208632857Y-110824761D01*
X208680476Y-110777142D01*
X208680476Y-110443809D01*
X208490000Y-110443809D01*
X209537619Y-110872380D02*
X209537619Y-110348571D01*
X209490000Y-110253333D01*
X209394761Y-110205714D01*
X209204285Y-110205714D01*
X209109047Y-110253333D01*
X209537619Y-110824761D02*
X209442380Y-110872380D01*
X209204285Y-110872380D01*
X209109047Y-110824761D01*
X209061428Y-110729523D01*
X209061428Y-110634285D01*
X209109047Y-110539047D01*
X209204285Y-110491428D01*
X209442380Y-110491428D01*
X209537619Y-110443809D01*
X210013809Y-110872380D02*
X210013809Y-110205714D01*
X210013809Y-109872380D02*
X209966190Y-109920000D01*
X210013809Y-109967619D01*
X210061428Y-109920000D01*
X210013809Y-109872380D01*
X210013809Y-109967619D01*
X210490000Y-110205714D02*
X210490000Y-110872380D01*
X210490000Y-110300952D02*
X210537619Y-110253333D01*
X210632857Y-110205714D01*
X210775714Y-110205714D01*
X210870952Y-110253333D01*
X210918571Y-110348571D01*
X210918571Y-110872380D01*
X211918571Y-110872380D02*
X211347142Y-110872380D01*
X211632857Y-110872380D02*
X211632857Y-109872380D01*
X211537619Y-110015238D01*
X211442380Y-110110476D01*
X211347142Y-110158095D01*
X208682857Y-55900000D02*
X208587619Y-55852380D01*
X208444761Y-55852380D01*
X208301904Y-55900000D01*
X208206666Y-55995238D01*
X208159047Y-56090476D01*
X208111428Y-56280952D01*
X208111428Y-56423809D01*
X208159047Y-56614285D01*
X208206666Y-56709523D01*
X208301904Y-56804761D01*
X208444761Y-56852380D01*
X208540000Y-56852380D01*
X208682857Y-56804761D01*
X208730476Y-56757142D01*
X208730476Y-56423809D01*
X208540000Y-56423809D01*
X209587619Y-56852380D02*
X209587619Y-56328571D01*
X209540000Y-56233333D01*
X209444761Y-56185714D01*
X209254285Y-56185714D01*
X209159047Y-56233333D01*
X209587619Y-56804761D02*
X209492380Y-56852380D01*
X209254285Y-56852380D01*
X209159047Y-56804761D01*
X209111428Y-56709523D01*
X209111428Y-56614285D01*
X209159047Y-56519047D01*
X209254285Y-56471428D01*
X209492380Y-56471428D01*
X209587619Y-56423809D01*
X210063809Y-56852380D02*
X210063809Y-56185714D01*
X210063809Y-55852380D02*
X210016190Y-55900000D01*
X210063809Y-55947619D01*
X210111428Y-55900000D01*
X210063809Y-55852380D01*
X210063809Y-55947619D01*
X210540000Y-56185714D02*
X210540000Y-56852380D01*
X210540000Y-56280952D02*
X210587619Y-56233333D01*
X210682857Y-56185714D01*
X210825714Y-56185714D01*
X210920952Y-56233333D01*
X210968571Y-56328571D01*
X210968571Y-56852380D01*
X211397142Y-55947619D02*
X211444761Y-55900000D01*
X211540000Y-55852380D01*
X211778095Y-55852380D01*
X211873333Y-55900000D01*
X211920952Y-55947619D01*
X211968571Y-56042857D01*
X211968571Y-56138095D01*
X211920952Y-56280952D01*
X211349523Y-56852380D01*
X211968571Y-56852380D01*
X192088095Y-112552380D02*
X192088095Y-113361904D01*
X192135714Y-113457142D01*
X192183333Y-113504761D01*
X192278571Y-113552380D01*
X192469047Y-113552380D01*
X192564285Y-113504761D01*
X192611904Y-113457142D01*
X192659523Y-113361904D01*
X192659523Y-112552380D01*
X193564285Y-112885714D02*
X193564285Y-113552380D01*
X193326190Y-112504761D02*
X193088095Y-113219047D01*
X193707142Y-113219047D01*
X192138095Y-58552380D02*
X192138095Y-59361904D01*
X192185714Y-59457142D01*
X192233333Y-59504761D01*
X192328571Y-59552380D01*
X192519047Y-59552380D01*
X192614285Y-59504761D01*
X192661904Y-59457142D01*
X192709523Y-59361904D01*
X192709523Y-58552380D01*
X193090476Y-58552380D02*
X193709523Y-58552380D01*
X193376190Y-58933333D01*
X193519047Y-58933333D01*
X193614285Y-58980952D01*
X193661904Y-59028571D01*
X193709523Y-59123809D01*
X193709523Y-59361904D01*
X193661904Y-59457142D01*
X193614285Y-59504761D01*
X193519047Y-59552380D01*
X193233333Y-59552380D01*
X193138095Y-59504761D01*
X193090476Y-59457142D01*
X109252380Y-59186904D02*
X110061904Y-59186904D01*
X110157142Y-59139285D01*
X110204761Y-59091666D01*
X110252380Y-58996428D01*
X110252380Y-58805952D01*
X110204761Y-58710714D01*
X110157142Y-58663095D01*
X110061904Y-58615476D01*
X109252380Y-58615476D01*
X109347619Y-58186904D02*
X109300000Y-58139285D01*
X109252380Y-58044047D01*
X109252380Y-57805952D01*
X109300000Y-57710714D01*
X109347619Y-57663095D01*
X109442857Y-57615476D01*
X109538095Y-57615476D01*
X109680952Y-57663095D01*
X110252380Y-58234523D01*
X110252380Y-57615476D01*
X99802380Y-59111904D02*
X100611904Y-59111904D01*
X100707142Y-59064285D01*
X100754761Y-59016666D01*
X100802380Y-58921428D01*
X100802380Y-58730952D01*
X100754761Y-58635714D01*
X100707142Y-58588095D01*
X100611904Y-58540476D01*
X99802380Y-58540476D01*
X99802380Y-57588095D02*
X99802380Y-58064285D01*
X100278571Y-58111904D01*
X100230952Y-58064285D01*
X100183333Y-57969047D01*
X100183333Y-57730952D01*
X100230952Y-57635714D01*
X100278571Y-57588095D01*
X100373809Y-57540476D01*
X100611904Y-57540476D01*
X100707142Y-57588095D01*
X100754761Y-57635714D01*
X100802380Y-57730952D01*
X100802380Y-57969047D01*
X100754761Y-58064285D01*
X100707142Y-58111904D01*
X176102380Y-62292857D02*
X175626190Y-62626190D01*
X176102380Y-62864285D02*
X175102380Y-62864285D01*
X175102380Y-62483333D01*
X175150000Y-62388095D01*
X175197619Y-62340476D01*
X175292857Y-62292857D01*
X175435714Y-62292857D01*
X175530952Y-62340476D01*
X175578571Y-62388095D01*
X175626190Y-62483333D01*
X175626190Y-62864285D01*
X176102380Y-61340476D02*
X176102380Y-61911904D01*
X176102380Y-61626190D02*
X175102380Y-61626190D01*
X175245238Y-61721428D01*
X175340476Y-61816666D01*
X175388095Y-61911904D01*
X175530952Y-60769047D02*
X175483333Y-60864285D01*
X175435714Y-60911904D01*
X175340476Y-60959523D01*
X175292857Y-60959523D01*
X175197619Y-60911904D01*
X175150000Y-60864285D01*
X175102380Y-60769047D01*
X175102380Y-60578571D01*
X175150000Y-60483333D01*
X175197619Y-60435714D01*
X175292857Y-60388095D01*
X175340476Y-60388095D01*
X175435714Y-60435714D01*
X175483333Y-60483333D01*
X175530952Y-60578571D01*
X175530952Y-60769047D01*
X175578571Y-60864285D01*
X175626190Y-60911904D01*
X175721428Y-60959523D01*
X175911904Y-60959523D01*
X176007142Y-60911904D01*
X176054761Y-60864285D01*
X176102380Y-60769047D01*
X176102380Y-60578571D01*
X176054761Y-60483333D01*
X176007142Y-60435714D01*
X175911904Y-60388095D01*
X175721428Y-60388095D01*
X175626190Y-60435714D01*
X175578571Y-60483333D01*
X175530952Y-60578571D01*
X127992518Y-62316666D02*
X127516328Y-62650000D01*
X127992518Y-62888095D02*
X126992518Y-62888095D01*
X126992518Y-62507142D01*
X127040138Y-62411904D01*
X127087757Y-62364285D01*
X127182995Y-62316666D01*
X127325852Y-62316666D01*
X127421090Y-62364285D01*
X127468709Y-62411904D01*
X127516328Y-62507142D01*
X127516328Y-62888095D01*
X127325852Y-61459523D02*
X127992518Y-61459523D01*
X126944899Y-61697619D02*
X127659185Y-61935714D01*
X127659185Y-61316666D01*
X175992518Y-48292857D02*
X175516328Y-48626190D01*
X175992518Y-48864285D02*
X174992518Y-48864285D01*
X174992518Y-48483333D01*
X175040138Y-48388095D01*
X175087757Y-48340476D01*
X175182995Y-48292857D01*
X175325852Y-48292857D01*
X175421090Y-48340476D01*
X175468709Y-48388095D01*
X175516328Y-48483333D01*
X175516328Y-48864285D01*
X175992518Y-47340476D02*
X175992518Y-47911904D01*
X175992518Y-47626190D02*
X174992518Y-47626190D01*
X175135376Y-47721428D01*
X175230614Y-47816666D01*
X175278233Y-47911904D01*
X175992518Y-46864285D02*
X175992518Y-46673809D01*
X175944899Y-46578571D01*
X175897280Y-46530952D01*
X175754423Y-46435714D01*
X175563947Y-46388095D01*
X175182995Y-46388095D01*
X175087757Y-46435714D01*
X175040138Y-46483333D01*
X174992518Y-46578571D01*
X174992518Y-46769047D01*
X175040138Y-46864285D01*
X175087757Y-46911904D01*
X175182995Y-46959523D01*
X175421090Y-46959523D01*
X175516328Y-46911904D01*
X175563947Y-46864285D01*
X175611566Y-46769047D01*
X175611566Y-46578571D01*
X175563947Y-46483333D01*
X175516328Y-46435714D01*
X175421090Y-46388095D01*
X127992518Y-48292857D02*
X127516328Y-48626190D01*
X127992518Y-48864285D02*
X126992518Y-48864285D01*
X126992518Y-48483333D01*
X127040138Y-48388095D01*
X127087757Y-48340476D01*
X127182995Y-48292857D01*
X127325852Y-48292857D01*
X127421090Y-48340476D01*
X127468709Y-48388095D01*
X127516328Y-48483333D01*
X127516328Y-48864285D01*
X127087757Y-47911904D02*
X127040138Y-47864285D01*
X126992518Y-47769047D01*
X126992518Y-47530952D01*
X127040138Y-47435714D01*
X127087757Y-47388095D01*
X127182995Y-47340476D01*
X127278233Y-47340476D01*
X127421090Y-47388095D01*
X127992518Y-47959523D01*
X127992518Y-47340476D01*
X127087757Y-46959523D02*
X127040138Y-46911904D01*
X126992518Y-46816666D01*
X126992518Y-46578571D01*
X127040138Y-46483333D01*
X127087757Y-46435714D01*
X127182995Y-46388095D01*
X127278233Y-46388095D01*
X127421090Y-46435714D01*
X127992518Y-47007142D01*
X127992518Y-46388095D01*
X152027380Y-62316666D02*
X151551190Y-62650000D01*
X152027380Y-62888095D02*
X151027380Y-62888095D01*
X151027380Y-62507142D01*
X151075000Y-62411904D01*
X151122619Y-62364285D01*
X151217857Y-62316666D01*
X151360714Y-62316666D01*
X151455952Y-62364285D01*
X151503571Y-62411904D01*
X151551190Y-62507142D01*
X151551190Y-62888095D01*
X151027380Y-61411904D02*
X151027380Y-61888095D01*
X151503571Y-61935714D01*
X151455952Y-61888095D01*
X151408333Y-61792857D01*
X151408333Y-61554761D01*
X151455952Y-61459523D01*
X151503571Y-61411904D01*
X151598809Y-61364285D01*
X151836904Y-61364285D01*
X151932142Y-61411904D01*
X151979761Y-61459523D01*
X152027380Y-61554761D01*
X152027380Y-61792857D01*
X151979761Y-61888095D01*
X151932142Y-61935714D01*
X152002380Y-48816666D02*
X151526190Y-49150000D01*
X152002380Y-49388095D02*
X151002380Y-49388095D01*
X151002380Y-49007142D01*
X151050000Y-48911904D01*
X151097619Y-48864285D01*
X151192857Y-48816666D01*
X151335714Y-48816666D01*
X151430952Y-48864285D01*
X151478571Y-48911904D01*
X151526190Y-49007142D01*
X151526190Y-49388095D01*
X151002380Y-47959523D02*
X151002380Y-48150000D01*
X151050000Y-48245238D01*
X151097619Y-48292857D01*
X151240476Y-48388095D01*
X151430952Y-48435714D01*
X151811904Y-48435714D01*
X151907142Y-48388095D01*
X151954761Y-48340476D01*
X152002380Y-48245238D01*
X152002380Y-48054761D01*
X151954761Y-47959523D01*
X151907142Y-47911904D01*
X151811904Y-47864285D01*
X151573809Y-47864285D01*
X151478571Y-47911904D01*
X151430952Y-47959523D01*
X151383333Y-48054761D01*
X151383333Y-48245238D01*
X151430952Y-48340476D01*
X151478571Y-48388095D01*
X151573809Y-48435714D01*
X95707142Y-63052380D02*
X95373809Y-62576190D01*
X95135714Y-63052380D02*
X95135714Y-62052380D01*
X95516666Y-62052380D01*
X95611904Y-62100000D01*
X95659523Y-62147619D01*
X95707142Y-62242857D01*
X95707142Y-62385714D01*
X95659523Y-62480952D01*
X95611904Y-62528571D01*
X95516666Y-62576190D01*
X95135714Y-62576190D01*
X96040476Y-62052380D02*
X96659523Y-62052380D01*
X96326190Y-62433333D01*
X96469047Y-62433333D01*
X96564285Y-62480952D01*
X96611904Y-62528571D01*
X96659523Y-62623809D01*
X96659523Y-62861904D01*
X96611904Y-62957142D01*
X96564285Y-63004761D01*
X96469047Y-63052380D01*
X96183333Y-63052380D01*
X96088095Y-63004761D01*
X96040476Y-62957142D01*
X96992857Y-62052380D02*
X97611904Y-62052380D01*
X97278571Y-62433333D01*
X97421428Y-62433333D01*
X97516666Y-62480952D01*
X97564285Y-62528571D01*
X97611904Y-62623809D01*
X97611904Y-62861904D01*
X97564285Y-62957142D01*
X97516666Y-63004761D01*
X97421428Y-63052380D01*
X97135714Y-63052380D01*
X97040476Y-63004761D01*
X96992857Y-62957142D01*
X95807142Y-49302380D02*
X95473809Y-48826190D01*
X95235714Y-49302380D02*
X95235714Y-48302380D01*
X95616666Y-48302380D01*
X95711904Y-48350000D01*
X95759523Y-48397619D01*
X95807142Y-48492857D01*
X95807142Y-48635714D01*
X95759523Y-48730952D01*
X95711904Y-48778571D01*
X95616666Y-48826190D01*
X95235714Y-48826190D01*
X96140476Y-48302380D02*
X96759523Y-48302380D01*
X96426190Y-48683333D01*
X96569047Y-48683333D01*
X96664285Y-48730952D01*
X96711904Y-48778571D01*
X96759523Y-48873809D01*
X96759523Y-49111904D01*
X96711904Y-49207142D01*
X96664285Y-49254761D01*
X96569047Y-49302380D01*
X96283333Y-49302380D01*
X96188095Y-49254761D01*
X96140476Y-49207142D01*
X97092857Y-48302380D02*
X97759523Y-48302380D01*
X97330952Y-49302380D01*
X109507142Y-107852380D02*
X109173809Y-107376190D01*
X108935714Y-107852380D02*
X108935714Y-106852380D01*
X109316666Y-106852380D01*
X109411904Y-106900000D01*
X109459523Y-106947619D01*
X109507142Y-107042857D01*
X109507142Y-107185714D01*
X109459523Y-107280952D01*
X109411904Y-107328571D01*
X109316666Y-107376190D01*
X108935714Y-107376190D01*
X109840476Y-106852380D02*
X110459523Y-106852380D01*
X110126190Y-107233333D01*
X110269047Y-107233333D01*
X110364285Y-107280952D01*
X110411904Y-107328571D01*
X110459523Y-107423809D01*
X110459523Y-107661904D01*
X110411904Y-107757142D01*
X110364285Y-107804761D01*
X110269047Y-107852380D01*
X109983333Y-107852380D01*
X109888095Y-107804761D01*
X109840476Y-107757142D01*
X111316666Y-106852380D02*
X111126190Y-106852380D01*
X111030952Y-106900000D01*
X110983333Y-106947619D01*
X110888095Y-107090476D01*
X110840476Y-107280952D01*
X110840476Y-107661904D01*
X110888095Y-107757142D01*
X110935714Y-107804761D01*
X111030952Y-107852380D01*
X111221428Y-107852380D01*
X111316666Y-107804761D01*
X111364285Y-107757142D01*
X111411904Y-107661904D01*
X111411904Y-107423809D01*
X111364285Y-107328571D01*
X111316666Y-107280952D01*
X111221428Y-107233333D01*
X111030952Y-107233333D01*
X110935714Y-107280952D01*
X110888095Y-107328571D01*
X110840476Y-107423809D01*
X105102380Y-106292857D02*
X104626190Y-106626190D01*
X105102380Y-106864285D02*
X104102380Y-106864285D01*
X104102380Y-106483333D01*
X104150000Y-106388095D01*
X104197619Y-106340476D01*
X104292857Y-106292857D01*
X104435714Y-106292857D01*
X104530952Y-106340476D01*
X104578571Y-106388095D01*
X104626190Y-106483333D01*
X104626190Y-106864285D01*
X104102380Y-105959523D02*
X104102380Y-105340476D01*
X104483333Y-105673809D01*
X104483333Y-105530952D01*
X104530952Y-105435714D01*
X104578571Y-105388095D01*
X104673809Y-105340476D01*
X104911904Y-105340476D01*
X105007142Y-105388095D01*
X105054761Y-105435714D01*
X105102380Y-105530952D01*
X105102380Y-105816666D01*
X105054761Y-105911904D01*
X105007142Y-105959523D01*
X104102380Y-104435714D02*
X104102380Y-104911904D01*
X104578571Y-104959523D01*
X104530952Y-104911904D01*
X104483333Y-104816666D01*
X104483333Y-104578571D01*
X104530952Y-104483333D01*
X104578571Y-104435714D01*
X104673809Y-104388095D01*
X104911904Y-104388095D01*
X105007142Y-104435714D01*
X105054761Y-104483333D01*
X105102380Y-104578571D01*
X105102380Y-104816666D01*
X105054761Y-104911904D01*
X105007142Y-104959523D01*
X91007142Y-110952380D02*
X90673809Y-110476190D01*
X90435714Y-110952380D02*
X90435714Y-109952380D01*
X90816666Y-109952380D01*
X90911904Y-110000000D01*
X90959523Y-110047619D01*
X91007142Y-110142857D01*
X91007142Y-110285714D01*
X90959523Y-110380952D01*
X90911904Y-110428571D01*
X90816666Y-110476190D01*
X90435714Y-110476190D01*
X91340476Y-109952380D02*
X91959523Y-109952380D01*
X91626190Y-110333333D01*
X91769047Y-110333333D01*
X91864285Y-110380952D01*
X91911904Y-110428571D01*
X91959523Y-110523809D01*
X91959523Y-110761904D01*
X91911904Y-110857142D01*
X91864285Y-110904761D01*
X91769047Y-110952380D01*
X91483333Y-110952380D01*
X91388095Y-110904761D01*
X91340476Y-110857142D01*
X92816666Y-110285714D02*
X92816666Y-110952380D01*
X92578571Y-109904761D02*
X92340476Y-110619047D01*
X92959523Y-110619047D01*
X193032142Y-126102380D02*
X192698809Y-125626190D01*
X192460714Y-126102380D02*
X192460714Y-125102380D01*
X192841666Y-125102380D01*
X192936904Y-125150000D01*
X192984523Y-125197619D01*
X193032142Y-125292857D01*
X193032142Y-125435714D01*
X192984523Y-125530952D01*
X192936904Y-125578571D01*
X192841666Y-125626190D01*
X192460714Y-125626190D01*
X193984523Y-126102380D02*
X193413095Y-126102380D01*
X193698809Y-126102380D02*
X193698809Y-125102380D01*
X193603571Y-125245238D01*
X193508333Y-125340476D01*
X193413095Y-125388095D01*
X194936904Y-126102380D02*
X194365476Y-126102380D01*
X194651190Y-126102380D02*
X194651190Y-125102380D01*
X194555952Y-125245238D01*
X194460714Y-125340476D01*
X194365476Y-125388095D01*
X195207142Y-111602380D02*
X194873809Y-111126190D01*
X194635714Y-111602380D02*
X194635714Y-110602380D01*
X195016666Y-110602380D01*
X195111904Y-110650000D01*
X195159523Y-110697619D01*
X195207142Y-110792857D01*
X195207142Y-110935714D01*
X195159523Y-111030952D01*
X195111904Y-111078571D01*
X195016666Y-111126190D01*
X194635714Y-111126190D01*
X196159523Y-111602380D02*
X195588095Y-111602380D01*
X195873809Y-111602380D02*
X195873809Y-110602380D01*
X195778571Y-110745238D01*
X195683333Y-110840476D01*
X195588095Y-110888095D01*
X196540476Y-110697619D02*
X196588095Y-110650000D01*
X196683333Y-110602380D01*
X196921428Y-110602380D01*
X197016666Y-110650000D01*
X197064285Y-110697619D01*
X197111904Y-110792857D01*
X197111904Y-110888095D01*
X197064285Y-111030952D01*
X196492857Y-111602380D01*
X197111904Y-111602380D01*
X197557142Y-72452380D02*
X197223809Y-71976190D01*
X196985714Y-72452380D02*
X196985714Y-71452380D01*
X197366666Y-71452380D01*
X197461904Y-71500000D01*
X197509523Y-71547619D01*
X197557142Y-71642857D01*
X197557142Y-71785714D01*
X197509523Y-71880952D01*
X197461904Y-71928571D01*
X197366666Y-71976190D01*
X196985714Y-71976190D01*
X198509523Y-72452380D02*
X197938095Y-72452380D01*
X198223809Y-72452380D02*
X198223809Y-71452380D01*
X198128571Y-71595238D01*
X198033333Y-71690476D01*
X197938095Y-71738095D01*
X198842857Y-71452380D02*
X199461904Y-71452380D01*
X199128571Y-71833333D01*
X199271428Y-71833333D01*
X199366666Y-71880952D01*
X199414285Y-71928571D01*
X199461904Y-72023809D01*
X199461904Y-72261904D01*
X199414285Y-72357142D01*
X199366666Y-72404761D01*
X199271428Y-72452380D01*
X198985714Y-72452380D01*
X198890476Y-72404761D01*
X198842857Y-72357142D01*
X196752380Y-58992857D02*
X196276190Y-59326190D01*
X196752380Y-59564285D02*
X195752380Y-59564285D01*
X195752380Y-59183333D01*
X195800000Y-59088095D01*
X195847619Y-59040476D01*
X195942857Y-58992857D01*
X196085714Y-58992857D01*
X196180952Y-59040476D01*
X196228571Y-59088095D01*
X196276190Y-59183333D01*
X196276190Y-59564285D01*
X196752380Y-58040476D02*
X196752380Y-58611904D01*
X196752380Y-58326190D02*
X195752380Y-58326190D01*
X195895238Y-58421428D01*
X195990476Y-58516666D01*
X196038095Y-58611904D01*
X196085714Y-57183333D02*
X196752380Y-57183333D01*
X195704761Y-57421428D02*
X196419047Y-57659523D01*
X196419047Y-57040476D01*
X184757142Y-117502380D02*
X184423809Y-117026190D01*
X184185714Y-117502380D02*
X184185714Y-116502380D01*
X184566666Y-116502380D01*
X184661904Y-116550000D01*
X184709523Y-116597619D01*
X184757142Y-116692857D01*
X184757142Y-116835714D01*
X184709523Y-116930952D01*
X184661904Y-116978571D01*
X184566666Y-117026190D01*
X184185714Y-117026190D01*
X185709523Y-117502380D02*
X185138095Y-117502380D01*
X185423809Y-117502380D02*
X185423809Y-116502380D01*
X185328571Y-116645238D01*
X185233333Y-116740476D01*
X185138095Y-116788095D01*
X186614285Y-116502380D02*
X186138095Y-116502380D01*
X186090476Y-116978571D01*
X186138095Y-116930952D01*
X186233333Y-116883333D01*
X186471428Y-116883333D01*
X186566666Y-116930952D01*
X186614285Y-116978571D01*
X186661904Y-117073809D01*
X186661904Y-117311904D01*
X186614285Y-117407142D01*
X186566666Y-117454761D01*
X186471428Y-117502380D01*
X186233333Y-117502380D01*
X186138095Y-117454761D01*
X186090476Y-117407142D01*
X187507142Y-68602380D02*
X187173809Y-68126190D01*
X186935714Y-68602380D02*
X186935714Y-67602380D01*
X187316666Y-67602380D01*
X187411904Y-67650000D01*
X187459523Y-67697619D01*
X187507142Y-67792857D01*
X187507142Y-67935714D01*
X187459523Y-68030952D01*
X187411904Y-68078571D01*
X187316666Y-68126190D01*
X186935714Y-68126190D01*
X188459523Y-68602380D02*
X187888095Y-68602380D01*
X188173809Y-68602380D02*
X188173809Y-67602380D01*
X188078571Y-67745238D01*
X187983333Y-67840476D01*
X187888095Y-67888095D01*
X188792857Y-67602380D02*
X189459523Y-67602380D01*
X189030952Y-68602380D01*
X189102380Y-112117857D02*
X188626190Y-112451190D01*
X189102380Y-112689285D02*
X188102380Y-112689285D01*
X188102380Y-112308333D01*
X188150000Y-112213095D01*
X188197619Y-112165476D01*
X188292857Y-112117857D01*
X188435714Y-112117857D01*
X188530952Y-112165476D01*
X188578571Y-112213095D01*
X188626190Y-112308333D01*
X188626190Y-112689285D01*
X188197619Y-111736904D02*
X188150000Y-111689285D01*
X188102380Y-111594047D01*
X188102380Y-111355952D01*
X188150000Y-111260714D01*
X188197619Y-111213095D01*
X188292857Y-111165476D01*
X188388095Y-111165476D01*
X188530952Y-111213095D01*
X189102380Y-111784523D01*
X189102380Y-111165476D01*
X188102380Y-110546428D02*
X188102380Y-110451190D01*
X188150000Y-110355952D01*
X188197619Y-110308333D01*
X188292857Y-110260714D01*
X188483333Y-110213095D01*
X188721428Y-110213095D01*
X188911904Y-110260714D01*
X189007142Y-110308333D01*
X189054761Y-110355952D01*
X189102380Y-110451190D01*
X189102380Y-110546428D01*
X189054761Y-110641666D01*
X189007142Y-110689285D01*
X188911904Y-110736904D01*
X188721428Y-110784523D01*
X188483333Y-110784523D01*
X188292857Y-110736904D01*
X188197619Y-110689285D01*
X188150000Y-110641666D01*
X188102380Y-110546428D01*
X191602380Y-72042857D02*
X191126190Y-72376190D01*
X191602380Y-72614285D02*
X190602380Y-72614285D01*
X190602380Y-72233333D01*
X190650000Y-72138095D01*
X190697619Y-72090476D01*
X190792857Y-72042857D01*
X190935714Y-72042857D01*
X191030952Y-72090476D01*
X191078571Y-72138095D01*
X191126190Y-72233333D01*
X191126190Y-72614285D01*
X190697619Y-71661904D02*
X190650000Y-71614285D01*
X190602380Y-71519047D01*
X190602380Y-71280952D01*
X190650000Y-71185714D01*
X190697619Y-71138095D01*
X190792857Y-71090476D01*
X190888095Y-71090476D01*
X191030952Y-71138095D01*
X191602380Y-71709523D01*
X191602380Y-71090476D01*
X191602380Y-70138095D02*
X191602380Y-70709523D01*
X191602380Y-70423809D02*
X190602380Y-70423809D01*
X190745238Y-70519047D01*
X190840476Y-70614285D01*
X190888095Y-70709523D01*
X187302380Y-62316666D02*
X186826190Y-62650000D01*
X187302380Y-62888095D02*
X186302380Y-62888095D01*
X186302380Y-62507142D01*
X186350000Y-62411904D01*
X186397619Y-62364285D01*
X186492857Y-62316666D01*
X186635714Y-62316666D01*
X186730952Y-62364285D01*
X186778571Y-62411904D01*
X186826190Y-62507142D01*
X186826190Y-62888095D01*
X186302380Y-61983333D02*
X186302380Y-61364285D01*
X186683333Y-61697619D01*
X186683333Y-61554761D01*
X186730952Y-61459523D01*
X186778571Y-61411904D01*
X186873809Y-61364285D01*
X187111904Y-61364285D01*
X187207142Y-61411904D01*
X187254761Y-61459523D01*
X187302380Y-61554761D01*
X187302380Y-61840476D01*
X187254761Y-61935714D01*
X187207142Y-61983333D01*
X162997619Y-61983333D02*
X163473809Y-61650000D01*
X162997619Y-61411904D02*
X163997619Y-61411904D01*
X163997619Y-61792857D01*
X163950000Y-61888095D01*
X163902380Y-61935714D01*
X163807142Y-61983333D01*
X163664285Y-61983333D01*
X163569047Y-61935714D01*
X163521428Y-61888095D01*
X163473809Y-61792857D01*
X163473809Y-61411904D01*
X163569047Y-62554761D02*
X163616666Y-62459523D01*
X163664285Y-62411904D01*
X163759523Y-62364285D01*
X163807142Y-62364285D01*
X163902380Y-62411904D01*
X163950000Y-62459523D01*
X163997619Y-62554761D01*
X163997619Y-62745238D01*
X163950000Y-62840476D01*
X163902380Y-62888095D01*
X163807142Y-62935714D01*
X163759523Y-62935714D01*
X163664285Y-62888095D01*
X163616666Y-62840476D01*
X163569047Y-62745238D01*
X163569047Y-62554761D01*
X163521428Y-62459523D01*
X163473809Y-62411904D01*
X163378571Y-62364285D01*
X163188095Y-62364285D01*
X163092857Y-62411904D01*
X163045238Y-62459523D01*
X162997619Y-62554761D01*
X162997619Y-62745238D01*
X163045238Y-62840476D01*
X163092857Y-62888095D01*
X163188095Y-62935714D01*
X163378571Y-62935714D01*
X163473809Y-62888095D01*
X163521428Y-62840476D01*
X163569047Y-62745238D01*
X187352380Y-48566666D02*
X186876190Y-48900000D01*
X187352380Y-49138095D02*
X186352380Y-49138095D01*
X186352380Y-48757142D01*
X186400000Y-48661904D01*
X186447619Y-48614285D01*
X186542857Y-48566666D01*
X186685714Y-48566666D01*
X186780952Y-48614285D01*
X186828571Y-48661904D01*
X186876190Y-48757142D01*
X186876190Y-49138095D01*
X187352380Y-48090476D02*
X187352380Y-47900000D01*
X187304761Y-47804761D01*
X187257142Y-47757142D01*
X187114285Y-47661904D01*
X186923809Y-47614285D01*
X186542857Y-47614285D01*
X186447619Y-47661904D01*
X186400000Y-47709523D01*
X186352380Y-47804761D01*
X186352380Y-47995238D01*
X186400000Y-48090476D01*
X186447619Y-48138095D01*
X186542857Y-48185714D01*
X186780952Y-48185714D01*
X186876190Y-48138095D01*
X186923809Y-48090476D01*
X186971428Y-47995238D01*
X186971428Y-47804761D01*
X186923809Y-47709523D01*
X186876190Y-47661904D01*
X186780952Y-47614285D01*
X163877380Y-49792857D02*
X163401190Y-50126190D01*
X163877380Y-50364285D02*
X162877380Y-50364285D01*
X162877380Y-49983333D01*
X162925000Y-49888095D01*
X162972619Y-49840476D01*
X163067857Y-49792857D01*
X163210714Y-49792857D01*
X163305952Y-49840476D01*
X163353571Y-49888095D01*
X163401190Y-49983333D01*
X163401190Y-50364285D01*
X163877380Y-48840476D02*
X163877380Y-49411904D01*
X163877380Y-49126190D02*
X162877380Y-49126190D01*
X163020238Y-49221428D01*
X163115476Y-49316666D01*
X163163095Y-49411904D01*
X162877380Y-48221428D02*
X162877380Y-48126190D01*
X162925000Y-48030952D01*
X162972619Y-47983333D01*
X163067857Y-47935714D01*
X163258333Y-47888095D01*
X163496428Y-47888095D01*
X163686904Y-47935714D01*
X163782142Y-47983333D01*
X163829761Y-48030952D01*
X163877380Y-48126190D01*
X163877380Y-48221428D01*
X163829761Y-48316666D01*
X163782142Y-48364285D01*
X163686904Y-48411904D01*
X163496428Y-48459523D01*
X163258333Y-48459523D01*
X163067857Y-48411904D01*
X162972619Y-48364285D01*
X162925000Y-48316666D01*
X162877380Y-48221428D01*
X201457142Y-114352380D02*
X201123809Y-113876190D01*
X200885714Y-114352380D02*
X200885714Y-113352380D01*
X201266666Y-113352380D01*
X201361904Y-113400000D01*
X201409523Y-113447619D01*
X201457142Y-113542857D01*
X201457142Y-113685714D01*
X201409523Y-113780952D01*
X201361904Y-113828571D01*
X201266666Y-113876190D01*
X200885714Y-113876190D01*
X202409523Y-114352380D02*
X201838095Y-114352380D01*
X202123809Y-114352380D02*
X202123809Y-113352380D01*
X202028571Y-113495238D01*
X201933333Y-113590476D01*
X201838095Y-113638095D01*
X203266666Y-113352380D02*
X203076190Y-113352380D01*
X202980952Y-113400000D01*
X202933333Y-113447619D01*
X202838095Y-113590476D01*
X202790476Y-113780952D01*
X202790476Y-114161904D01*
X202838095Y-114257142D01*
X202885714Y-114304761D01*
X202980952Y-114352380D01*
X203171428Y-114352380D01*
X203266666Y-114304761D01*
X203314285Y-114257142D01*
X203361904Y-114161904D01*
X203361904Y-113923809D01*
X203314285Y-113828571D01*
X203266666Y-113780952D01*
X203171428Y-113733333D01*
X202980952Y-113733333D01*
X202885714Y-113780952D01*
X202838095Y-113828571D01*
X202790476Y-113923809D01*
X201507142Y-117652380D02*
X201173809Y-117176190D01*
X200935714Y-117652380D02*
X200935714Y-116652380D01*
X201316666Y-116652380D01*
X201411904Y-116700000D01*
X201459523Y-116747619D01*
X201507142Y-116842857D01*
X201507142Y-116985714D01*
X201459523Y-117080952D01*
X201411904Y-117128571D01*
X201316666Y-117176190D01*
X200935714Y-117176190D01*
X201888095Y-116747619D02*
X201935714Y-116700000D01*
X202030952Y-116652380D01*
X202269047Y-116652380D01*
X202364285Y-116700000D01*
X202411904Y-116747619D01*
X202459523Y-116842857D01*
X202459523Y-116938095D01*
X202411904Y-117080952D01*
X201840476Y-117652380D01*
X202459523Y-117652380D01*
X202792857Y-116652380D02*
X203411904Y-116652380D01*
X203078571Y-117033333D01*
X203221428Y-117033333D01*
X203316666Y-117080952D01*
X203364285Y-117128571D01*
X203411904Y-117223809D01*
X203411904Y-117461904D01*
X203364285Y-117557142D01*
X203316666Y-117604761D01*
X203221428Y-117652380D01*
X202935714Y-117652380D01*
X202840476Y-117604761D01*
X202792857Y-117557142D01*
X201457142Y-123102380D02*
X201123809Y-122626190D01*
X200885714Y-123102380D02*
X200885714Y-122102380D01*
X201266666Y-122102380D01*
X201361904Y-122150000D01*
X201409523Y-122197619D01*
X201457142Y-122292857D01*
X201457142Y-122435714D01*
X201409523Y-122530952D01*
X201361904Y-122578571D01*
X201266666Y-122626190D01*
X200885714Y-122626190D01*
X201838095Y-122197619D02*
X201885714Y-122150000D01*
X201980952Y-122102380D01*
X202219047Y-122102380D01*
X202314285Y-122150000D01*
X202361904Y-122197619D01*
X202409523Y-122292857D01*
X202409523Y-122388095D01*
X202361904Y-122530952D01*
X201790476Y-123102380D01*
X202409523Y-123102380D01*
X203314285Y-122102380D02*
X202838095Y-122102380D01*
X202790476Y-122578571D01*
X202838095Y-122530952D01*
X202933333Y-122483333D01*
X203171428Y-122483333D01*
X203266666Y-122530952D01*
X203314285Y-122578571D01*
X203361904Y-122673809D01*
X203361904Y-122911904D01*
X203314285Y-123007142D01*
X203266666Y-123054761D01*
X203171428Y-123102380D01*
X202933333Y-123102380D01*
X202838095Y-123054761D01*
X202790476Y-123007142D01*
X200652380Y-62592857D02*
X200176190Y-62926190D01*
X200652380Y-63164285D02*
X199652380Y-63164285D01*
X199652380Y-62783333D01*
X199700000Y-62688095D01*
X199747619Y-62640476D01*
X199842857Y-62592857D01*
X199985714Y-62592857D01*
X200080952Y-62640476D01*
X200128571Y-62688095D01*
X200176190Y-62783333D01*
X200176190Y-63164285D01*
X199747619Y-62211904D02*
X199700000Y-62164285D01*
X199652380Y-62069047D01*
X199652380Y-61830952D01*
X199700000Y-61735714D01*
X199747619Y-61688095D01*
X199842857Y-61640476D01*
X199938095Y-61640476D01*
X200080952Y-61688095D01*
X200652380Y-62259523D01*
X200652380Y-61640476D01*
X199652380Y-60783333D02*
X199652380Y-60973809D01*
X199700000Y-61069047D01*
X199747619Y-61116666D01*
X199890476Y-61211904D01*
X200080952Y-61259523D01*
X200461904Y-61259523D01*
X200557142Y-61211904D01*
X200604761Y-61164285D01*
X200652380Y-61069047D01*
X200652380Y-60878571D01*
X200604761Y-60783333D01*
X200557142Y-60735714D01*
X200461904Y-60688095D01*
X200223809Y-60688095D01*
X200128571Y-60735714D01*
X200080952Y-60783333D01*
X200033333Y-60878571D01*
X200033333Y-61069047D01*
X200080952Y-61164285D01*
X200128571Y-61211904D01*
X200223809Y-61259523D01*
X95602380Y-92316666D02*
X95126190Y-92650000D01*
X95602380Y-92888095D02*
X94602380Y-92888095D01*
X94602380Y-92507142D01*
X94650000Y-92411904D01*
X94697619Y-92364285D01*
X94792857Y-92316666D01*
X94935714Y-92316666D01*
X95030952Y-92364285D01*
X95078571Y-92411904D01*
X95126190Y-92507142D01*
X95126190Y-92888095D01*
X95602380Y-91364285D02*
X95602380Y-91935714D01*
X95602380Y-91650000D02*
X94602380Y-91650000D01*
X94745238Y-91745238D01*
X94840476Y-91840476D01*
X94888095Y-91935714D01*
X110583333Y-91602380D02*
X110250000Y-91126190D01*
X110011904Y-91602380D02*
X110011904Y-90602380D01*
X110392857Y-90602380D01*
X110488095Y-90650000D01*
X110535714Y-90697619D01*
X110583333Y-90792857D01*
X110583333Y-90935714D01*
X110535714Y-91030952D01*
X110488095Y-91078571D01*
X110392857Y-91126190D01*
X110011904Y-91126190D01*
X110964285Y-90697619D02*
X111011904Y-90650000D01*
X111107142Y-90602380D01*
X111345238Y-90602380D01*
X111440476Y-90650000D01*
X111488095Y-90697619D01*
X111535714Y-90792857D01*
X111535714Y-90888095D01*
X111488095Y-91030952D01*
X110916666Y-91602380D01*
X111535714Y-91602380D01*
X199433333Y-112102380D02*
X199100000Y-111626190D01*
X198861904Y-112102380D02*
X198861904Y-111102380D01*
X199242857Y-111102380D01*
X199338095Y-111150000D01*
X199385714Y-111197619D01*
X199433333Y-111292857D01*
X199433333Y-111435714D01*
X199385714Y-111530952D01*
X199338095Y-111578571D01*
X199242857Y-111626190D01*
X198861904Y-111626190D01*
X199766666Y-111102380D02*
X200433333Y-111102380D01*
X200004761Y-112102380D01*
X202007142Y-58502380D02*
X201673809Y-58026190D01*
X201435714Y-58502380D02*
X201435714Y-57502380D01*
X201816666Y-57502380D01*
X201911904Y-57550000D01*
X201959523Y-57597619D01*
X202007142Y-57692857D01*
X202007142Y-57835714D01*
X201959523Y-57930952D01*
X201911904Y-57978571D01*
X201816666Y-58026190D01*
X201435714Y-58026190D01*
X202388095Y-57597619D02*
X202435714Y-57550000D01*
X202530952Y-57502380D01*
X202769047Y-57502380D01*
X202864285Y-57550000D01*
X202911904Y-57597619D01*
X202959523Y-57692857D01*
X202959523Y-57788095D01*
X202911904Y-57930952D01*
X202340476Y-58502380D01*
X202959523Y-58502380D01*
X203816666Y-57835714D02*
X203816666Y-58502380D01*
X203578571Y-57454761D02*
X203340476Y-58169047D01*
X203959523Y-58169047D01*
X200752380Y-65742857D02*
X200276190Y-66076190D01*
X200752380Y-66314285D02*
X199752380Y-66314285D01*
X199752380Y-65933333D01*
X199800000Y-65838095D01*
X199847619Y-65790476D01*
X199942857Y-65742857D01*
X200085714Y-65742857D01*
X200180952Y-65790476D01*
X200228571Y-65838095D01*
X200276190Y-65933333D01*
X200276190Y-66314285D01*
X199847619Y-65361904D02*
X199800000Y-65314285D01*
X199752380Y-65219047D01*
X199752380Y-64980952D01*
X199800000Y-64885714D01*
X199847619Y-64838095D01*
X199942857Y-64790476D01*
X200038095Y-64790476D01*
X200180952Y-64838095D01*
X200752380Y-65409523D01*
X200752380Y-64790476D01*
X199752380Y-64457142D02*
X199752380Y-63790476D01*
X200752380Y-64219047D01*
X202007142Y-69502380D02*
X201673809Y-69026190D01*
X201435714Y-69502380D02*
X201435714Y-68502380D01*
X201816666Y-68502380D01*
X201911904Y-68550000D01*
X201959523Y-68597619D01*
X202007142Y-68692857D01*
X202007142Y-68835714D01*
X201959523Y-68930952D01*
X201911904Y-68978571D01*
X201816666Y-69026190D01*
X201435714Y-69026190D01*
X202388095Y-68597619D02*
X202435714Y-68550000D01*
X202530952Y-68502380D01*
X202769047Y-68502380D01*
X202864285Y-68550000D01*
X202911904Y-68597619D01*
X202959523Y-68692857D01*
X202959523Y-68788095D01*
X202911904Y-68930952D01*
X202340476Y-69502380D01*
X202959523Y-69502380D01*
X203530952Y-68930952D02*
X203435714Y-68883333D01*
X203388095Y-68835714D01*
X203340476Y-68740476D01*
X203340476Y-68692857D01*
X203388095Y-68597619D01*
X203435714Y-68550000D01*
X203530952Y-68502380D01*
X203721428Y-68502380D01*
X203816666Y-68550000D01*
X203864285Y-68597619D01*
X203911904Y-68692857D01*
X203911904Y-68740476D01*
X203864285Y-68835714D01*
X203816666Y-68883333D01*
X203721428Y-68930952D01*
X203530952Y-68930952D01*
X203435714Y-68978571D01*
X203388095Y-69026190D01*
X203340476Y-69121428D01*
X203340476Y-69311904D01*
X203388095Y-69407142D01*
X203435714Y-69454761D01*
X203530952Y-69502380D01*
X203721428Y-69502380D01*
X203816666Y-69454761D01*
X203864285Y-69407142D01*
X203911904Y-69311904D01*
X203911904Y-69121428D01*
X203864285Y-69026190D01*
X203816666Y-68978571D01*
X203721428Y-68930952D01*
X95652380Y-89292857D02*
X95176190Y-89626190D01*
X95652380Y-89864285D02*
X94652380Y-89864285D01*
X94652380Y-89483333D01*
X94700000Y-89388095D01*
X94747619Y-89340476D01*
X94842857Y-89292857D01*
X94985714Y-89292857D01*
X95080952Y-89340476D01*
X95128571Y-89388095D01*
X95176190Y-89483333D01*
X95176190Y-89864285D01*
X94747619Y-88911904D02*
X94700000Y-88864285D01*
X94652380Y-88769047D01*
X94652380Y-88530952D01*
X94700000Y-88435714D01*
X94747619Y-88388095D01*
X94842857Y-88340476D01*
X94938095Y-88340476D01*
X95080952Y-88388095D01*
X95652380Y-88959523D01*
X95652380Y-88340476D01*
X95652380Y-87864285D02*
X95652380Y-87673809D01*
X95604761Y-87578571D01*
X95557142Y-87530952D01*
X95414285Y-87435714D01*
X95223809Y-87388095D01*
X94842857Y-87388095D01*
X94747619Y-87435714D01*
X94700000Y-87483333D01*
X94652380Y-87578571D01*
X94652380Y-87769047D01*
X94700000Y-87864285D01*
X94747619Y-87911904D01*
X94842857Y-87959523D01*
X95080952Y-87959523D01*
X95176190Y-87911904D01*
X95223809Y-87864285D01*
X95271428Y-87769047D01*
X95271428Y-87578571D01*
X95223809Y-87483333D01*
X95176190Y-87435714D01*
X95080952Y-87388095D01*
X110507142Y-89102380D02*
X110173809Y-88626190D01*
X109935714Y-89102380D02*
X109935714Y-88102380D01*
X110316666Y-88102380D01*
X110411904Y-88150000D01*
X110459523Y-88197619D01*
X110507142Y-88292857D01*
X110507142Y-88435714D01*
X110459523Y-88530952D01*
X110411904Y-88578571D01*
X110316666Y-88626190D01*
X109935714Y-88626190D01*
X110840476Y-88102380D02*
X111459523Y-88102380D01*
X111126190Y-88483333D01*
X111269047Y-88483333D01*
X111364285Y-88530952D01*
X111411904Y-88578571D01*
X111459523Y-88673809D01*
X111459523Y-88911904D01*
X111411904Y-89007142D01*
X111364285Y-89054761D01*
X111269047Y-89102380D01*
X110983333Y-89102380D01*
X110888095Y-89054761D01*
X110840476Y-89007142D01*
X112078571Y-88102380D02*
X112173809Y-88102380D01*
X112269047Y-88150000D01*
X112316666Y-88197619D01*
X112364285Y-88292857D01*
X112411904Y-88483333D01*
X112411904Y-88721428D01*
X112364285Y-88911904D01*
X112316666Y-89007142D01*
X112269047Y-89054761D01*
X112173809Y-89102380D01*
X112078571Y-89102380D01*
X111983333Y-89054761D01*
X111935714Y-89007142D01*
X111888095Y-88911904D01*
X111840476Y-88721428D01*
X111840476Y-88483333D01*
X111888095Y-88292857D01*
X111935714Y-88197619D01*
X111983333Y-88150000D01*
X112078571Y-88102380D01*
X203902380Y-109892857D02*
X203426190Y-110226190D01*
X203902380Y-110464285D02*
X202902380Y-110464285D01*
X202902380Y-110083333D01*
X202950000Y-109988095D01*
X202997619Y-109940476D01*
X203092857Y-109892857D01*
X203235714Y-109892857D01*
X203330952Y-109940476D01*
X203378571Y-109988095D01*
X203426190Y-110083333D01*
X203426190Y-110464285D01*
X202902380Y-109559523D02*
X202902380Y-108940476D01*
X203283333Y-109273809D01*
X203283333Y-109130952D01*
X203330952Y-109035714D01*
X203378571Y-108988095D01*
X203473809Y-108940476D01*
X203711904Y-108940476D01*
X203807142Y-108988095D01*
X203854761Y-109035714D01*
X203902380Y-109130952D01*
X203902380Y-109416666D01*
X203854761Y-109511904D01*
X203807142Y-109559523D01*
X203902380Y-107988095D02*
X203902380Y-108559523D01*
X203902380Y-108273809D02*
X202902380Y-108273809D01*
X203045238Y-108369047D01*
X203140476Y-108464285D01*
X203188095Y-108559523D01*
X202007142Y-55252380D02*
X201673809Y-54776190D01*
X201435714Y-55252380D02*
X201435714Y-54252380D01*
X201816666Y-54252380D01*
X201911904Y-54300000D01*
X201959523Y-54347619D01*
X202007142Y-54442857D01*
X202007142Y-54585714D01*
X201959523Y-54680952D01*
X201911904Y-54728571D01*
X201816666Y-54776190D01*
X201435714Y-54776190D01*
X202340476Y-54252380D02*
X202959523Y-54252380D01*
X202626190Y-54633333D01*
X202769047Y-54633333D01*
X202864285Y-54680952D01*
X202911904Y-54728571D01*
X202959523Y-54823809D01*
X202959523Y-55061904D01*
X202911904Y-55157142D01*
X202864285Y-55204761D01*
X202769047Y-55252380D01*
X202483333Y-55252380D01*
X202388095Y-55204761D01*
X202340476Y-55157142D01*
X203340476Y-54347619D02*
X203388095Y-54300000D01*
X203483333Y-54252380D01*
X203721428Y-54252380D01*
X203816666Y-54300000D01*
X203864285Y-54347619D01*
X203911904Y-54442857D01*
X203911904Y-54538095D01*
X203864285Y-54680952D01*
X203292857Y-55252380D01*
X203911904Y-55252380D01*
X114907142Y-67552380D02*
X114573809Y-67076190D01*
X114335714Y-67552380D02*
X114335714Y-66552380D01*
X114716666Y-66552380D01*
X114811904Y-66600000D01*
X114859523Y-66647619D01*
X114907142Y-66742857D01*
X114907142Y-66885714D01*
X114859523Y-66980952D01*
X114811904Y-67028571D01*
X114716666Y-67076190D01*
X114335714Y-67076190D01*
X115240476Y-66552380D02*
X115859523Y-66552380D01*
X115526190Y-66933333D01*
X115669047Y-66933333D01*
X115764285Y-66980952D01*
X115811904Y-67028571D01*
X115859523Y-67123809D01*
X115859523Y-67361904D01*
X115811904Y-67457142D01*
X115764285Y-67504761D01*
X115669047Y-67552380D01*
X115383333Y-67552380D01*
X115288095Y-67504761D01*
X115240476Y-67457142D01*
X116430952Y-66980952D02*
X116335714Y-66933333D01*
X116288095Y-66885714D01*
X116240476Y-66790476D01*
X116240476Y-66742857D01*
X116288095Y-66647619D01*
X116335714Y-66600000D01*
X116430952Y-66552380D01*
X116621428Y-66552380D01*
X116716666Y-66600000D01*
X116764285Y-66647619D01*
X116811904Y-66742857D01*
X116811904Y-66790476D01*
X116764285Y-66885714D01*
X116716666Y-66933333D01*
X116621428Y-66980952D01*
X116430952Y-66980952D01*
X116335714Y-67028571D01*
X116288095Y-67076190D01*
X116240476Y-67171428D01*
X116240476Y-67361904D01*
X116288095Y-67457142D01*
X116335714Y-67504761D01*
X116430952Y-67552380D01*
X116621428Y-67552380D01*
X116716666Y-67504761D01*
X116764285Y-67457142D01*
X116811904Y-67361904D01*
X116811904Y-67171428D01*
X116764285Y-67076190D01*
X116716666Y-67028571D01*
X116621428Y-66980952D01*
X114807142Y-48002380D02*
X114473809Y-47526190D01*
X114235714Y-48002380D02*
X114235714Y-47002380D01*
X114616666Y-47002380D01*
X114711904Y-47050000D01*
X114759523Y-47097619D01*
X114807142Y-47192857D01*
X114807142Y-47335714D01*
X114759523Y-47430952D01*
X114711904Y-47478571D01*
X114616666Y-47526190D01*
X114235714Y-47526190D01*
X115140476Y-47002380D02*
X115759523Y-47002380D01*
X115426190Y-47383333D01*
X115569047Y-47383333D01*
X115664285Y-47430952D01*
X115711904Y-47478571D01*
X115759523Y-47573809D01*
X115759523Y-47811904D01*
X115711904Y-47907142D01*
X115664285Y-47954761D01*
X115569047Y-48002380D01*
X115283333Y-48002380D01*
X115188095Y-47954761D01*
X115140476Y-47907142D01*
X116235714Y-48002380D02*
X116426190Y-48002380D01*
X116521428Y-47954761D01*
X116569047Y-47907142D01*
X116664285Y-47764285D01*
X116711904Y-47573809D01*
X116711904Y-47192857D01*
X116664285Y-47097619D01*
X116616666Y-47050000D01*
X116521428Y-47002380D01*
X116330952Y-47002380D01*
X116235714Y-47050000D01*
X116188095Y-47097619D01*
X116140476Y-47192857D01*
X116140476Y-47430952D01*
X116188095Y-47526190D01*
X116235714Y-47573809D01*
X116330952Y-47621428D01*
X116521428Y-47621428D01*
X116616666Y-47573809D01*
X116664285Y-47526190D01*
X116711904Y-47430952D01*
X108507142Y-66202380D02*
X108173809Y-65726190D01*
X107935714Y-66202380D02*
X107935714Y-65202380D01*
X108316666Y-65202380D01*
X108411904Y-65250000D01*
X108459523Y-65297619D01*
X108507142Y-65392857D01*
X108507142Y-65535714D01*
X108459523Y-65630952D01*
X108411904Y-65678571D01*
X108316666Y-65726190D01*
X107935714Y-65726190D01*
X109364285Y-65535714D02*
X109364285Y-66202380D01*
X109126190Y-65154761D02*
X108888095Y-65869047D01*
X109507142Y-65869047D01*
X110078571Y-65202380D02*
X110173809Y-65202380D01*
X110269047Y-65250000D01*
X110316666Y-65297619D01*
X110364285Y-65392857D01*
X110411904Y-65583333D01*
X110411904Y-65821428D01*
X110364285Y-66011904D01*
X110316666Y-66107142D01*
X110269047Y-66154761D01*
X110173809Y-66202380D01*
X110078571Y-66202380D01*
X109983333Y-66154761D01*
X109935714Y-66107142D01*
X109888095Y-66011904D01*
X109840476Y-65821428D01*
X109840476Y-65583333D01*
X109888095Y-65392857D01*
X109935714Y-65297619D01*
X109983333Y-65250000D01*
X110078571Y-65202380D01*
X111407142Y-47902380D02*
X111073809Y-47426190D01*
X110835714Y-47902380D02*
X110835714Y-46902380D01*
X111216666Y-46902380D01*
X111311904Y-46950000D01*
X111359523Y-46997619D01*
X111407142Y-47092857D01*
X111407142Y-47235714D01*
X111359523Y-47330952D01*
X111311904Y-47378571D01*
X111216666Y-47426190D01*
X110835714Y-47426190D01*
X112264285Y-47235714D02*
X112264285Y-47902380D01*
X112026190Y-46854761D02*
X111788095Y-47569047D01*
X112407142Y-47569047D01*
X113311904Y-47902380D02*
X112740476Y-47902380D01*
X113026190Y-47902380D02*
X113026190Y-46902380D01*
X112930952Y-47045238D01*
X112835714Y-47140476D01*
X112740476Y-47188095D01*
X108507142Y-64002380D02*
X108173809Y-63526190D01*
X107935714Y-64002380D02*
X107935714Y-63002380D01*
X108316666Y-63002380D01*
X108411904Y-63050000D01*
X108459523Y-63097619D01*
X108507142Y-63192857D01*
X108507142Y-63335714D01*
X108459523Y-63430952D01*
X108411904Y-63478571D01*
X108316666Y-63526190D01*
X107935714Y-63526190D01*
X109364285Y-63335714D02*
X109364285Y-64002380D01*
X109126190Y-62954761D02*
X108888095Y-63669047D01*
X109507142Y-63669047D01*
X109840476Y-63097619D02*
X109888095Y-63050000D01*
X109983333Y-63002380D01*
X110221428Y-63002380D01*
X110316666Y-63050000D01*
X110364285Y-63097619D01*
X110411904Y-63192857D01*
X110411904Y-63288095D01*
X110364285Y-63430952D01*
X109792857Y-64002380D01*
X110411904Y-64002380D01*
X111807142Y-52552380D02*
X111473809Y-52076190D01*
X111235714Y-52552380D02*
X111235714Y-51552380D01*
X111616666Y-51552380D01*
X111711904Y-51600000D01*
X111759523Y-51647619D01*
X111807142Y-51742857D01*
X111807142Y-51885714D01*
X111759523Y-51980952D01*
X111711904Y-52028571D01*
X111616666Y-52076190D01*
X111235714Y-52076190D01*
X112664285Y-51885714D02*
X112664285Y-52552380D01*
X112426190Y-51504761D02*
X112188095Y-52219047D01*
X112807142Y-52219047D01*
X113092857Y-51552380D02*
X113711904Y-51552380D01*
X113378571Y-51933333D01*
X113521428Y-51933333D01*
X113616666Y-51980952D01*
X113664285Y-52028571D01*
X113711904Y-52123809D01*
X113711904Y-52361904D01*
X113664285Y-52457142D01*
X113616666Y-52504761D01*
X113521428Y-52552380D01*
X113235714Y-52552380D01*
X113140476Y-52504761D01*
X113092857Y-52457142D01*
X107507142Y-114007142D02*
X107459523Y-114054761D01*
X107316666Y-114102380D01*
X107221428Y-114102380D01*
X107078571Y-114054761D01*
X106983333Y-113959523D01*
X106935714Y-113864285D01*
X106888095Y-113673809D01*
X106888095Y-113530952D01*
X106935714Y-113340476D01*
X106983333Y-113245238D01*
X107078571Y-113150000D01*
X107221428Y-113102380D01*
X107316666Y-113102380D01*
X107459523Y-113150000D01*
X107507142Y-113197619D01*
X107840476Y-113102380D02*
X108459523Y-113102380D01*
X108126190Y-113483333D01*
X108269047Y-113483333D01*
X108364285Y-113530952D01*
X108411904Y-113578571D01*
X108459523Y-113673809D01*
X108459523Y-113911904D01*
X108411904Y-114007142D01*
X108364285Y-114054761D01*
X108269047Y-114102380D01*
X107983333Y-114102380D01*
X107888095Y-114054761D01*
X107840476Y-114007142D01*
X109078571Y-113102380D02*
X109173809Y-113102380D01*
X109269047Y-113150000D01*
X109316666Y-113197619D01*
X109364285Y-113292857D01*
X109411904Y-113483333D01*
X109411904Y-113721428D01*
X109364285Y-113911904D01*
X109316666Y-114007142D01*
X109269047Y-114054761D01*
X109173809Y-114102380D01*
X109078571Y-114102380D01*
X108983333Y-114054761D01*
X108935714Y-114007142D01*
X108888095Y-113911904D01*
X108840476Y-113721428D01*
X108840476Y-113483333D01*
X108888095Y-113292857D01*
X108935714Y-113197619D01*
X108983333Y-113150000D01*
X109078571Y-113102380D01*
X94307142Y-113742857D02*
X94354761Y-113790476D01*
X94402380Y-113933333D01*
X94402380Y-114028571D01*
X94354761Y-114171428D01*
X94259523Y-114266666D01*
X94164285Y-114314285D01*
X93973809Y-114361904D01*
X93830952Y-114361904D01*
X93640476Y-114314285D01*
X93545238Y-114266666D01*
X93450000Y-114171428D01*
X93402380Y-114028571D01*
X93402380Y-113933333D01*
X93450000Y-113790476D01*
X93497619Y-113742857D01*
X93497619Y-113361904D02*
X93450000Y-113314285D01*
X93402380Y-113219047D01*
X93402380Y-112980952D01*
X93450000Y-112885714D01*
X93497619Y-112838095D01*
X93592857Y-112790476D01*
X93688095Y-112790476D01*
X93830952Y-112838095D01*
X94402380Y-113409523D01*
X94402380Y-112790476D01*
X93830952Y-112219047D02*
X93783333Y-112314285D01*
X93735714Y-112361904D01*
X93640476Y-112409523D01*
X93592857Y-112409523D01*
X93497619Y-112361904D01*
X93450000Y-112314285D01*
X93402380Y-112219047D01*
X93402380Y-112028571D01*
X93450000Y-111933333D01*
X93497619Y-111885714D01*
X93592857Y-111838095D01*
X93640476Y-111838095D01*
X93735714Y-111885714D01*
X93783333Y-111933333D01*
X93830952Y-112028571D01*
X93830952Y-112219047D01*
X93878571Y-112314285D01*
X93926190Y-112361904D01*
X94021428Y-112409523D01*
X94211904Y-112409523D01*
X94307142Y-112361904D01*
X94354761Y-112314285D01*
X94402380Y-112219047D01*
X94402380Y-112028571D01*
X94354761Y-111933333D01*
X94307142Y-111885714D01*
X94211904Y-111838095D01*
X94021428Y-111838095D01*
X93926190Y-111885714D01*
X93878571Y-111933333D01*
X93830952Y-112028571D01*
X85207142Y-97807142D02*
X85159523Y-97854761D01*
X85016666Y-97902380D01*
X84921428Y-97902380D01*
X84778571Y-97854761D01*
X84683333Y-97759523D01*
X84635714Y-97664285D01*
X84588095Y-97473809D01*
X84588095Y-97330952D01*
X84635714Y-97140476D01*
X84683333Y-97045238D01*
X84778571Y-96950000D01*
X84921428Y-96902380D01*
X85016666Y-96902380D01*
X85159523Y-96950000D01*
X85207142Y-96997619D01*
X85588095Y-96997619D02*
X85635714Y-96950000D01*
X85730952Y-96902380D01*
X85969047Y-96902380D01*
X86064285Y-96950000D01*
X86111904Y-96997619D01*
X86159523Y-97092857D01*
X86159523Y-97188095D01*
X86111904Y-97330952D01*
X85540476Y-97902380D01*
X86159523Y-97902380D01*
X86492857Y-96902380D02*
X87159523Y-96902380D01*
X86730952Y-97902380D01*
X78007142Y-98892857D02*
X78054761Y-98940476D01*
X78102380Y-99083333D01*
X78102380Y-99178571D01*
X78054761Y-99321428D01*
X77959523Y-99416666D01*
X77864285Y-99464285D01*
X77673809Y-99511904D01*
X77530952Y-99511904D01*
X77340476Y-99464285D01*
X77245238Y-99416666D01*
X77150000Y-99321428D01*
X77102380Y-99178571D01*
X77102380Y-99083333D01*
X77150000Y-98940476D01*
X77197619Y-98892857D01*
X77197619Y-98511904D02*
X77150000Y-98464285D01*
X77102380Y-98369047D01*
X77102380Y-98130952D01*
X77150000Y-98035714D01*
X77197619Y-97988095D01*
X77292857Y-97940476D01*
X77388095Y-97940476D01*
X77530952Y-97988095D01*
X78102380Y-98559523D01*
X78102380Y-97940476D01*
X77102380Y-97083333D02*
X77102380Y-97273809D01*
X77150000Y-97369047D01*
X77197619Y-97416666D01*
X77340476Y-97511904D01*
X77530952Y-97559523D01*
X77911904Y-97559523D01*
X78007142Y-97511904D01*
X78054761Y-97464285D01*
X78102380Y-97369047D01*
X78102380Y-97178571D01*
X78054761Y-97083333D01*
X78007142Y-97035714D01*
X77911904Y-96988095D01*
X77673809Y-96988095D01*
X77578571Y-97035714D01*
X77530952Y-97083333D01*
X77483333Y-97178571D01*
X77483333Y-97369047D01*
X77530952Y-97464285D01*
X77578571Y-97511904D01*
X77673809Y-97559523D01*
X189583333Y-62707142D02*
X189535714Y-62754761D01*
X189392857Y-62802380D01*
X189297619Y-62802380D01*
X189154761Y-62754761D01*
X189059523Y-62659523D01*
X189011904Y-62564285D01*
X188964285Y-62373809D01*
X188964285Y-62230952D01*
X189011904Y-62040476D01*
X189059523Y-61945238D01*
X189154761Y-61850000D01*
X189297619Y-61802380D01*
X189392857Y-61802380D01*
X189535714Y-61850000D01*
X189583333Y-61897619D01*
X190154761Y-62230952D02*
X190059523Y-62183333D01*
X190011904Y-62135714D01*
X189964285Y-62040476D01*
X189964285Y-61992857D01*
X190011904Y-61897619D01*
X190059523Y-61850000D01*
X190154761Y-61802380D01*
X190345238Y-61802380D01*
X190440476Y-61850000D01*
X190488095Y-61897619D01*
X190535714Y-61992857D01*
X190535714Y-62040476D01*
X190488095Y-62135714D01*
X190440476Y-62183333D01*
X190345238Y-62230952D01*
X190154761Y-62230952D01*
X190059523Y-62278571D01*
X190011904Y-62326190D01*
X189964285Y-62421428D01*
X189964285Y-62611904D01*
X190011904Y-62707142D01*
X190059523Y-62754761D01*
X190154761Y-62802380D01*
X190345238Y-62802380D01*
X190440476Y-62754761D01*
X190488095Y-62707142D01*
X190535714Y-62611904D01*
X190535714Y-62421428D01*
X190488095Y-62326190D01*
X190440476Y-62278571D01*
X190345238Y-62230952D01*
X109507142Y-109757142D02*
X109459523Y-109804761D01*
X109316666Y-109852380D01*
X109221428Y-109852380D01*
X109078571Y-109804761D01*
X108983333Y-109709523D01*
X108935714Y-109614285D01*
X108888095Y-109423809D01*
X108888095Y-109280952D01*
X108935714Y-109090476D01*
X108983333Y-108995238D01*
X109078571Y-108900000D01*
X109221428Y-108852380D01*
X109316666Y-108852380D01*
X109459523Y-108900000D01*
X109507142Y-108947619D01*
X109840476Y-108852380D02*
X110459523Y-108852380D01*
X110126190Y-109233333D01*
X110269047Y-109233333D01*
X110364285Y-109280952D01*
X110411904Y-109328571D01*
X110459523Y-109423809D01*
X110459523Y-109661904D01*
X110411904Y-109757142D01*
X110364285Y-109804761D01*
X110269047Y-109852380D01*
X109983333Y-109852380D01*
X109888095Y-109804761D01*
X109840476Y-109757142D01*
X110840476Y-108947619D02*
X110888095Y-108900000D01*
X110983333Y-108852380D01*
X111221428Y-108852380D01*
X111316666Y-108900000D01*
X111364285Y-108947619D01*
X111411904Y-109042857D01*
X111411904Y-109138095D01*
X111364285Y-109280952D01*
X110792857Y-109852380D01*
X111411904Y-109852380D01*
X104507142Y-115407142D02*
X104459523Y-115454761D01*
X104316666Y-115502380D01*
X104221428Y-115502380D01*
X104078571Y-115454761D01*
X103983333Y-115359523D01*
X103935714Y-115264285D01*
X103888095Y-115073809D01*
X103888095Y-114930952D01*
X103935714Y-114740476D01*
X103983333Y-114645238D01*
X104078571Y-114550000D01*
X104221428Y-114502380D01*
X104316666Y-114502380D01*
X104459523Y-114550000D01*
X104507142Y-114597619D01*
X104840476Y-114502380D02*
X105459523Y-114502380D01*
X105126190Y-114883333D01*
X105269047Y-114883333D01*
X105364285Y-114930952D01*
X105411904Y-114978571D01*
X105459523Y-115073809D01*
X105459523Y-115311904D01*
X105411904Y-115407142D01*
X105364285Y-115454761D01*
X105269047Y-115502380D01*
X104983333Y-115502380D01*
X104888095Y-115454761D01*
X104840476Y-115407142D01*
X106411904Y-115502380D02*
X105840476Y-115502380D01*
X106126190Y-115502380D02*
X106126190Y-114502380D01*
X106030952Y-114645238D01*
X105935714Y-114740476D01*
X105840476Y-114788095D01*
X93907142Y-107507142D02*
X93859523Y-107554761D01*
X93716666Y-107602380D01*
X93621428Y-107602380D01*
X93478571Y-107554761D01*
X93383333Y-107459523D01*
X93335714Y-107364285D01*
X93288095Y-107173809D01*
X93288095Y-107030952D01*
X93335714Y-106840476D01*
X93383333Y-106745238D01*
X93478571Y-106650000D01*
X93621428Y-106602380D01*
X93716666Y-106602380D01*
X93859523Y-106650000D01*
X93907142Y-106697619D01*
X94288095Y-106697619D02*
X94335714Y-106650000D01*
X94430952Y-106602380D01*
X94669047Y-106602380D01*
X94764285Y-106650000D01*
X94811904Y-106697619D01*
X94859523Y-106792857D01*
X94859523Y-106888095D01*
X94811904Y-107030952D01*
X94240476Y-107602380D01*
X94859523Y-107602380D01*
X95335714Y-107602380D02*
X95526190Y-107602380D01*
X95621428Y-107554761D01*
X95669047Y-107507142D01*
X95764285Y-107364285D01*
X95811904Y-107173809D01*
X95811904Y-106792857D01*
X95764285Y-106697619D01*
X95716666Y-106650000D01*
X95621428Y-106602380D01*
X95430952Y-106602380D01*
X95335714Y-106650000D01*
X95288095Y-106697619D01*
X95240476Y-106792857D01*
X95240476Y-107030952D01*
X95288095Y-107126190D01*
X95335714Y-107173809D01*
X95430952Y-107221428D01*
X95621428Y-107221428D01*
X95716666Y-107173809D01*
X95764285Y-107126190D01*
X95811904Y-107030952D01*
X189407142Y-123292857D02*
X189454761Y-123340476D01*
X189502380Y-123483333D01*
X189502380Y-123578571D01*
X189454761Y-123721428D01*
X189359523Y-123816666D01*
X189264285Y-123864285D01*
X189073809Y-123911904D01*
X188930952Y-123911904D01*
X188740476Y-123864285D01*
X188645238Y-123816666D01*
X188550000Y-123721428D01*
X188502380Y-123578571D01*
X188502380Y-123483333D01*
X188550000Y-123340476D01*
X188597619Y-123292857D01*
X189502380Y-122340476D02*
X189502380Y-122911904D01*
X189502380Y-122626190D02*
X188502380Y-122626190D01*
X188645238Y-122721428D01*
X188740476Y-122816666D01*
X188788095Y-122911904D01*
X188502380Y-121435714D02*
X188502380Y-121911904D01*
X188978571Y-121959523D01*
X188930952Y-121911904D01*
X188883333Y-121816666D01*
X188883333Y-121578571D01*
X188930952Y-121483333D01*
X188978571Y-121435714D01*
X189073809Y-121388095D01*
X189311904Y-121388095D01*
X189407142Y-121435714D01*
X189454761Y-121483333D01*
X189502380Y-121578571D01*
X189502380Y-121816666D01*
X189454761Y-121911904D01*
X189407142Y-121959523D01*
X200007142Y-114792857D02*
X200054761Y-114840476D01*
X200102380Y-114983333D01*
X200102380Y-115078571D01*
X200054761Y-115221428D01*
X199959523Y-115316666D01*
X199864285Y-115364285D01*
X199673809Y-115411904D01*
X199530952Y-115411904D01*
X199340476Y-115364285D01*
X199245238Y-115316666D01*
X199150000Y-115221428D01*
X199102380Y-115078571D01*
X199102380Y-114983333D01*
X199150000Y-114840476D01*
X199197619Y-114792857D01*
X200102380Y-113840476D02*
X200102380Y-114411904D01*
X200102380Y-114126190D02*
X199102380Y-114126190D01*
X199245238Y-114221428D01*
X199340476Y-114316666D01*
X199388095Y-114411904D01*
X199435714Y-112983333D02*
X200102380Y-112983333D01*
X199054761Y-113221428D02*
X199769047Y-113459523D01*
X199769047Y-112840476D01*
X78557142Y-88416666D02*
X78604761Y-88464285D01*
X78652380Y-88607142D01*
X78652380Y-88702380D01*
X78604761Y-88845238D01*
X78509523Y-88940476D01*
X78414285Y-88988095D01*
X78223809Y-89035714D01*
X78080952Y-89035714D01*
X77890476Y-88988095D01*
X77795238Y-88940476D01*
X77700000Y-88845238D01*
X77652380Y-88702380D01*
X77652380Y-88607142D01*
X77700000Y-88464285D01*
X77747619Y-88416666D01*
X77652380Y-88083333D02*
X77652380Y-87464285D01*
X78033333Y-87797619D01*
X78033333Y-87654761D01*
X78080952Y-87559523D01*
X78128571Y-87511904D01*
X78223809Y-87464285D01*
X78461904Y-87464285D01*
X78557142Y-87511904D01*
X78604761Y-87559523D01*
X78652380Y-87654761D01*
X78652380Y-87940476D01*
X78604761Y-88035714D01*
X78557142Y-88083333D01*
X74883333Y-80007142D02*
X74835714Y-80054761D01*
X74692857Y-80102380D01*
X74597619Y-80102380D01*
X74454761Y-80054761D01*
X74359523Y-79959523D01*
X74311904Y-79864285D01*
X74264285Y-79673809D01*
X74264285Y-79530952D01*
X74311904Y-79340476D01*
X74359523Y-79245238D01*
X74454761Y-79150000D01*
X74597619Y-79102380D01*
X74692857Y-79102380D01*
X74835714Y-79150000D01*
X74883333Y-79197619D01*
X75740476Y-79435714D02*
X75740476Y-80102380D01*
X75502380Y-79054761D02*
X75264285Y-79769047D01*
X75883333Y-79769047D01*
X196683333Y-54607142D02*
X196635714Y-54654761D01*
X196492857Y-54702380D01*
X196397619Y-54702380D01*
X196254761Y-54654761D01*
X196159523Y-54559523D01*
X196111904Y-54464285D01*
X196064285Y-54273809D01*
X196064285Y-54130952D01*
X196111904Y-53940476D01*
X196159523Y-53845238D01*
X196254761Y-53750000D01*
X196397619Y-53702380D01*
X196492857Y-53702380D01*
X196635714Y-53750000D01*
X196683333Y-53797619D01*
X197016666Y-53702380D02*
X197683333Y-53702380D01*
X197254761Y-54702380D01*
X109607142Y-52416666D02*
X109654761Y-52464285D01*
X109702380Y-52607142D01*
X109702380Y-52702380D01*
X109654761Y-52845238D01*
X109559523Y-52940476D01*
X109464285Y-52988095D01*
X109273809Y-53035714D01*
X109130952Y-53035714D01*
X108940476Y-52988095D01*
X108845238Y-52940476D01*
X108750000Y-52845238D01*
X108702380Y-52702380D01*
X108702380Y-52607142D01*
X108750000Y-52464285D01*
X108797619Y-52416666D01*
X109702380Y-51940476D02*
X109702380Y-51750000D01*
X109654761Y-51654761D01*
X109607142Y-51607142D01*
X109464285Y-51511904D01*
X109273809Y-51464285D01*
X108892857Y-51464285D01*
X108797619Y-51511904D01*
X108750000Y-51559523D01*
X108702380Y-51654761D01*
X108702380Y-51845238D01*
X108750000Y-51940476D01*
X108797619Y-51988095D01*
X108892857Y-52035714D01*
X109130952Y-52035714D01*
X109226190Y-51988095D01*
X109273809Y-51940476D01*
X109321428Y-51845238D01*
X109321428Y-51654761D01*
X109273809Y-51559523D01*
X109226190Y-51511904D01*
X109130952Y-51464285D01*
X116807142Y-64642857D02*
X116854761Y-64690476D01*
X116902380Y-64833333D01*
X116902380Y-64928571D01*
X116854761Y-65071428D01*
X116759523Y-65166666D01*
X116664285Y-65214285D01*
X116473809Y-65261904D01*
X116330952Y-65261904D01*
X116140476Y-65214285D01*
X116045238Y-65166666D01*
X115950000Y-65071428D01*
X115902380Y-64928571D01*
X115902380Y-64833333D01*
X115950000Y-64690476D01*
X115997619Y-64642857D01*
X116902380Y-63690476D02*
X116902380Y-64261904D01*
X116902380Y-63976190D02*
X115902380Y-63976190D01*
X116045238Y-64071428D01*
X116140476Y-64166666D01*
X116188095Y-64261904D01*
X115902380Y-63071428D02*
X115902380Y-62976190D01*
X115950000Y-62880952D01*
X115997619Y-62833333D01*
X116092857Y-62785714D01*
X116283333Y-62738095D01*
X116521428Y-62738095D01*
X116711904Y-62785714D01*
X116807142Y-62833333D01*
X116854761Y-62880952D01*
X116902380Y-62976190D01*
X116902380Y-63071428D01*
X116854761Y-63166666D01*
X116807142Y-63214285D01*
X116711904Y-63261904D01*
X116521428Y-63309523D01*
X116283333Y-63309523D01*
X116092857Y-63261904D01*
X115997619Y-63214285D01*
X115950000Y-63166666D01*
X115902380Y-63071428D01*
X103907142Y-53392857D02*
X103954761Y-53440476D01*
X104002380Y-53583333D01*
X104002380Y-53678571D01*
X103954761Y-53821428D01*
X103859523Y-53916666D01*
X103764285Y-53964285D01*
X103573809Y-54011904D01*
X103430952Y-54011904D01*
X103240476Y-53964285D01*
X103145238Y-53916666D01*
X103050000Y-53821428D01*
X103002380Y-53678571D01*
X103002380Y-53583333D01*
X103050000Y-53440476D01*
X103097619Y-53392857D01*
X104002380Y-52440476D02*
X104002380Y-53011904D01*
X104002380Y-52726190D02*
X103002380Y-52726190D01*
X103145238Y-52821428D01*
X103240476Y-52916666D01*
X103288095Y-53011904D01*
X104002380Y-51488095D02*
X104002380Y-52059523D01*
X104002380Y-51773809D02*
X103002380Y-51773809D01*
X103145238Y-51869047D01*
X103240476Y-51964285D01*
X103288095Y-52059523D01*
X104607142Y-64692857D02*
X104654761Y-64740476D01*
X104702380Y-64883333D01*
X104702380Y-64978571D01*
X104654761Y-65121428D01*
X104559523Y-65216666D01*
X104464285Y-65264285D01*
X104273809Y-65311904D01*
X104130952Y-65311904D01*
X103940476Y-65264285D01*
X103845238Y-65216666D01*
X103750000Y-65121428D01*
X103702380Y-64978571D01*
X103702380Y-64883333D01*
X103750000Y-64740476D01*
X103797619Y-64692857D01*
X104702380Y-63740476D02*
X104702380Y-64311904D01*
X104702380Y-64026190D02*
X103702380Y-64026190D01*
X103845238Y-64121428D01*
X103940476Y-64216666D01*
X103988095Y-64311904D01*
X103797619Y-63359523D02*
X103750000Y-63311904D01*
X103702380Y-63216666D01*
X103702380Y-62978571D01*
X103750000Y-62883333D01*
X103797619Y-62835714D01*
X103892857Y-62788095D01*
X103988095Y-62788095D01*
X104130952Y-62835714D01*
X104702380Y-63407142D01*
X104702380Y-62788095D01*
X111507142Y-70407142D02*
X111459523Y-70454761D01*
X111316666Y-70502380D01*
X111221428Y-70502380D01*
X111078571Y-70454761D01*
X110983333Y-70359523D01*
X110935714Y-70264285D01*
X110888095Y-70073809D01*
X110888095Y-69930952D01*
X110935714Y-69740476D01*
X110983333Y-69645238D01*
X111078571Y-69550000D01*
X111221428Y-69502380D01*
X111316666Y-69502380D01*
X111459523Y-69550000D01*
X111507142Y-69597619D01*
X112459523Y-70502380D02*
X111888095Y-70502380D01*
X112173809Y-70502380D02*
X112173809Y-69502380D01*
X112078571Y-69645238D01*
X111983333Y-69740476D01*
X111888095Y-69788095D01*
X112792857Y-69502380D02*
X113411904Y-69502380D01*
X113078571Y-69883333D01*
X113221428Y-69883333D01*
X113316666Y-69930952D01*
X113364285Y-69978571D01*
X113411904Y-70073809D01*
X113411904Y-70311904D01*
X113364285Y-70407142D01*
X113316666Y-70454761D01*
X113221428Y-70502380D01*
X112935714Y-70502380D01*
X112840476Y-70454761D01*
X112792857Y-70407142D01*
X115307142Y-53592857D02*
X115354761Y-53640476D01*
X115402380Y-53783333D01*
X115402380Y-53878571D01*
X115354761Y-54021428D01*
X115259523Y-54116666D01*
X115164285Y-54164285D01*
X114973809Y-54211904D01*
X114830952Y-54211904D01*
X114640476Y-54164285D01*
X114545238Y-54116666D01*
X114450000Y-54021428D01*
X114402380Y-53878571D01*
X114402380Y-53783333D01*
X114450000Y-53640476D01*
X114497619Y-53592857D01*
X115402380Y-52640476D02*
X115402380Y-53211904D01*
X115402380Y-52926190D02*
X114402380Y-52926190D01*
X114545238Y-53021428D01*
X114640476Y-53116666D01*
X114688095Y-53211904D01*
X114402380Y-51783333D02*
X114402380Y-51973809D01*
X114450000Y-52069047D01*
X114497619Y-52116666D01*
X114640476Y-52211904D01*
X114830952Y-52259523D01*
X115211904Y-52259523D01*
X115307142Y-52211904D01*
X115354761Y-52164285D01*
X115402380Y-52069047D01*
X115402380Y-51878571D01*
X115354761Y-51783333D01*
X115307142Y-51735714D01*
X115211904Y-51688095D01*
X114973809Y-51688095D01*
X114878571Y-51735714D01*
X114830952Y-51783333D01*
X114783333Y-51878571D01*
X114783333Y-52069047D01*
X114830952Y-52164285D01*
X114878571Y-52211904D01*
X114973809Y-52259523D01*
X95907142Y-118742857D02*
X95954761Y-118790476D01*
X96002380Y-118933333D01*
X96002380Y-119028571D01*
X95954761Y-119171428D01*
X95859523Y-119266666D01*
X95764285Y-119314285D01*
X95573809Y-119361904D01*
X95430952Y-119361904D01*
X95240476Y-119314285D01*
X95145238Y-119266666D01*
X95050000Y-119171428D01*
X95002380Y-119028571D01*
X95002380Y-118933333D01*
X95050000Y-118790476D01*
X95097619Y-118742857D01*
X95002380Y-118409523D02*
X95002380Y-117790476D01*
X95383333Y-118123809D01*
X95383333Y-117980952D01*
X95430952Y-117885714D01*
X95478571Y-117838095D01*
X95573809Y-117790476D01*
X95811904Y-117790476D01*
X95907142Y-117838095D01*
X95954761Y-117885714D01*
X96002380Y-117980952D01*
X96002380Y-118266666D01*
X95954761Y-118361904D01*
X95907142Y-118409523D01*
X95002380Y-117457142D02*
X95002380Y-116838095D01*
X95383333Y-117171428D01*
X95383333Y-117028571D01*
X95430952Y-116933333D01*
X95478571Y-116885714D01*
X95573809Y-116838095D01*
X95811904Y-116838095D01*
X95907142Y-116885714D01*
X95954761Y-116933333D01*
X96002380Y-117028571D01*
X96002380Y-117314285D01*
X95954761Y-117409523D01*
X95907142Y-117457142D01*
X69983333Y-90507142D02*
X69935714Y-90554761D01*
X69792857Y-90602380D01*
X69697619Y-90602380D01*
X69554761Y-90554761D01*
X69459523Y-90459523D01*
X69411904Y-90364285D01*
X69364285Y-90173809D01*
X69364285Y-90030952D01*
X69411904Y-89840476D01*
X69459523Y-89745238D01*
X69554761Y-89650000D01*
X69697619Y-89602380D01*
X69792857Y-89602380D01*
X69935714Y-89650000D01*
X69983333Y-89697619D01*
X70935714Y-90602380D02*
X70364285Y-90602380D01*
X70650000Y-90602380D02*
X70650000Y-89602380D01*
X70554761Y-89745238D01*
X70459523Y-89840476D01*
X70364285Y-89888095D01*
X70507142Y-77816666D02*
X70554761Y-77864285D01*
X70602380Y-78007142D01*
X70602380Y-78102380D01*
X70554761Y-78245238D01*
X70459523Y-78340476D01*
X70364285Y-78388095D01*
X70173809Y-78435714D01*
X70030952Y-78435714D01*
X69840476Y-78388095D01*
X69745238Y-78340476D01*
X69650000Y-78245238D01*
X69602380Y-78102380D01*
X69602380Y-78007142D01*
X69650000Y-77864285D01*
X69697619Y-77816666D01*
X69697619Y-77435714D02*
X69650000Y-77388095D01*
X69602380Y-77292857D01*
X69602380Y-77054761D01*
X69650000Y-76959523D01*
X69697619Y-76911904D01*
X69792857Y-76864285D01*
X69888095Y-76864285D01*
X70030952Y-76911904D01*
X70602380Y-77483333D01*
X70602380Y-76864285D01*
X83607142Y-87066666D02*
X83654761Y-87114285D01*
X83702380Y-87257142D01*
X83702380Y-87352380D01*
X83654761Y-87495238D01*
X83559523Y-87590476D01*
X83464285Y-87638095D01*
X83273809Y-87685714D01*
X83130952Y-87685714D01*
X82940476Y-87638095D01*
X82845238Y-87590476D01*
X82750000Y-87495238D01*
X82702380Y-87352380D01*
X82702380Y-87257142D01*
X82750000Y-87114285D01*
X82797619Y-87066666D01*
X82702380Y-86161904D02*
X82702380Y-86638095D01*
X83178571Y-86685714D01*
X83130952Y-86638095D01*
X83083333Y-86542857D01*
X83083333Y-86304761D01*
X83130952Y-86209523D01*
X83178571Y-86161904D01*
X83273809Y-86114285D01*
X83511904Y-86114285D01*
X83607142Y-86161904D01*
X83654761Y-86209523D01*
X83702380Y-86304761D01*
X83702380Y-86542857D01*
X83654761Y-86638095D01*
X83607142Y-86685714D01*
X83707142Y-82016666D02*
X83754761Y-82064285D01*
X83802380Y-82207142D01*
X83802380Y-82302380D01*
X83754761Y-82445238D01*
X83659523Y-82540476D01*
X83564285Y-82588095D01*
X83373809Y-82635714D01*
X83230952Y-82635714D01*
X83040476Y-82588095D01*
X82945238Y-82540476D01*
X82850000Y-82445238D01*
X82802380Y-82302380D01*
X82802380Y-82207142D01*
X82850000Y-82064285D01*
X82897619Y-82016666D01*
X82802380Y-81159523D02*
X82802380Y-81350000D01*
X82850000Y-81445238D01*
X82897619Y-81492857D01*
X83040476Y-81588095D01*
X83230952Y-81635714D01*
X83611904Y-81635714D01*
X83707142Y-81588095D01*
X83754761Y-81540476D01*
X83802380Y-81445238D01*
X83802380Y-81254761D01*
X83754761Y-81159523D01*
X83707142Y-81111904D01*
X83611904Y-81064285D01*
X83373809Y-81064285D01*
X83278571Y-81111904D01*
X83230952Y-81159523D01*
X83183333Y-81254761D01*
X83183333Y-81445238D01*
X83230952Y-81540476D01*
X83278571Y-81588095D01*
X83373809Y-81635714D01*
X166063947Y-61208098D02*
X166063947Y-60208098D01*
X166444899Y-60208098D01*
X166540138Y-60255718D01*
X166587757Y-60303337D01*
X166635376Y-60398575D01*
X166635376Y-60541432D01*
X166587757Y-60636670D01*
X166540138Y-60684289D01*
X166444899Y-60731908D01*
X166063947Y-60731908D01*
X167063947Y-61208098D02*
X167063947Y-60208098D01*
X167302042Y-60208098D01*
X167444899Y-60255718D01*
X167540138Y-60350956D01*
X167587757Y-60446194D01*
X167635376Y-60636670D01*
X167635376Y-60779527D01*
X167587757Y-60970003D01*
X167540138Y-61065241D01*
X167444899Y-61160479D01*
X167302042Y-61208098D01*
X167063947Y-61208098D01*
X167825852Y-61303337D02*
X168587757Y-61303337D01*
X168825852Y-61208098D02*
X168825852Y-60208098D01*
X169159185Y-60922384D01*
X169492518Y-60208098D01*
X169492518Y-61208098D01*
X170111566Y-61208098D02*
X170016328Y-61160479D01*
X169968709Y-61112860D01*
X169921090Y-61017622D01*
X169921090Y-60731908D01*
X169968709Y-60636670D01*
X170016328Y-60589051D01*
X170111566Y-60541432D01*
X170254423Y-60541432D01*
X170349661Y-60589051D01*
X170397280Y-60636670D01*
X170444899Y-60731908D01*
X170444899Y-61017622D01*
X170397280Y-61112860D01*
X170349661Y-61160479D01*
X170254423Y-61208098D01*
X170111566Y-61208098D01*
X170873471Y-60541432D02*
X170873471Y-61208098D01*
X170873471Y-60636670D02*
X170921090Y-60589051D01*
X171016328Y-60541432D01*
X171159185Y-60541432D01*
X171254423Y-60589051D01*
X171302042Y-60684289D01*
X171302042Y-61208098D01*
X171540138Y-61303337D02*
X172302042Y-61303337D01*
X173063947Y-61208098D02*
X172492518Y-61208098D01*
X172778233Y-61208098D02*
X172778233Y-60208098D01*
X172682995Y-60350956D01*
X172587757Y-60446194D01*
X172492518Y-60493813D01*
X120778233Y-46255718D02*
X120682995Y-46208098D01*
X120540138Y-46208098D01*
X120397280Y-46255718D01*
X120302042Y-46350956D01*
X120254423Y-46446194D01*
X120206804Y-46636670D01*
X120206804Y-46779527D01*
X120254423Y-46970003D01*
X120302042Y-47065241D01*
X120397280Y-47160479D01*
X120540138Y-47208098D01*
X120635376Y-47208098D01*
X120778233Y-47160479D01*
X120825852Y-47112860D01*
X120825852Y-46779527D01*
X120635376Y-46779527D01*
X121254423Y-47208098D02*
X121254423Y-46208098D01*
X121825852Y-47208098D01*
X121825852Y-46208098D01*
X122302042Y-47208098D02*
X122302042Y-46208098D01*
X122540138Y-46208098D01*
X122682995Y-46255718D01*
X122778233Y-46350956D01*
X122825852Y-46446194D01*
X122873471Y-46636670D01*
X122873471Y-46779527D01*
X122825852Y-46970003D01*
X122778233Y-47065241D01*
X122682995Y-47160479D01*
X122540138Y-47208098D01*
X122302042Y-47208098D01*
X131063947Y-47112860D02*
X131016328Y-47160479D01*
X130873471Y-47208098D01*
X130778233Y-47208098D01*
X130635376Y-47160479D01*
X130540138Y-47065241D01*
X130492518Y-46970003D01*
X130444899Y-46779527D01*
X130444899Y-46636670D01*
X130492518Y-46446194D01*
X130540138Y-46350956D01*
X130635376Y-46255718D01*
X130778233Y-46208098D01*
X130873471Y-46208098D01*
X131016328Y-46255718D01*
X131063947Y-46303337D01*
X131349661Y-46541432D02*
X131730614Y-46541432D01*
X131492518Y-46208098D02*
X131492518Y-47065241D01*
X131540138Y-47160479D01*
X131635376Y-47208098D01*
X131730614Y-47208098D01*
X132063947Y-47208098D02*
X132063947Y-46541432D01*
X132063947Y-46731908D02*
X132111566Y-46636670D01*
X132159185Y-46589051D01*
X132254423Y-46541432D01*
X132349661Y-46541432D01*
X132825852Y-47208098D02*
X132730614Y-47160479D01*
X132682995Y-47065241D01*
X132682995Y-46208098D01*
X132968709Y-47303337D02*
X133730614Y-47303337D01*
X133968709Y-47208098D02*
X133968709Y-46208098D01*
X134444899Y-46541432D02*
X134444899Y-47208098D01*
X134444899Y-46636670D02*
X134492518Y-46589051D01*
X134587757Y-46541432D01*
X134730614Y-46541432D01*
X134825852Y-46589051D01*
X134873471Y-46684289D01*
X134873471Y-47208098D01*
X135111566Y-47303337D02*
X135873471Y-47303337D01*
X136063947Y-46303337D02*
X136111566Y-46255718D01*
X136206804Y-46208098D01*
X136444899Y-46208098D01*
X136540138Y-46255718D01*
X136587757Y-46303337D01*
X136635376Y-46398575D01*
X136635376Y-46493813D01*
X136587757Y-46636670D01*
X136016328Y-47208098D01*
X136635376Y-47208098D01*
X141928709Y-60968098D02*
X141928709Y-59968098D01*
X142166804Y-59968098D01*
X142309661Y-60015718D01*
X142404899Y-60110956D01*
X142452518Y-60206194D01*
X142500138Y-60396670D01*
X142500138Y-60539527D01*
X142452518Y-60730003D01*
X142404899Y-60825241D01*
X142309661Y-60920479D01*
X142166804Y-60968098D01*
X141928709Y-60968098D01*
X142928709Y-60968098D02*
X142928709Y-60301432D01*
X142928709Y-59968098D02*
X142881090Y-60015718D01*
X142928709Y-60063337D01*
X142976328Y-60015718D01*
X142928709Y-59968098D01*
X142928709Y-60063337D01*
X143262042Y-60301432D02*
X143642995Y-60301432D01*
X143404899Y-60968098D02*
X143404899Y-60110956D01*
X143452518Y-60015718D01*
X143547757Y-59968098D01*
X143642995Y-59968098D01*
X143833471Y-60301432D02*
X144214423Y-60301432D01*
X143976328Y-60968098D02*
X143976328Y-60110956D01*
X144023947Y-60015718D01*
X144119185Y-59968098D01*
X144214423Y-59968098D01*
X144309661Y-61063337D02*
X145071566Y-61063337D01*
X145500138Y-59968098D02*
X145690614Y-59968098D01*
X145785852Y-60015718D01*
X145881090Y-60110956D01*
X145928709Y-60301432D01*
X145928709Y-60634765D01*
X145881090Y-60825241D01*
X145785852Y-60920479D01*
X145690614Y-60968098D01*
X145500138Y-60968098D01*
X145404899Y-60920479D01*
X145309661Y-60825241D01*
X145262042Y-60634765D01*
X145262042Y-60301432D01*
X145309661Y-60110956D01*
X145404899Y-60015718D01*
X145500138Y-59968098D01*
X146785852Y-60301432D02*
X146785852Y-60968098D01*
X146357280Y-60301432D02*
X146357280Y-60825241D01*
X146404899Y-60920479D01*
X146500138Y-60968098D01*
X146642995Y-60968098D01*
X146738233Y-60920479D01*
X146785852Y-60872860D01*
X147119185Y-60301432D02*
X147500138Y-60301432D01*
X147262042Y-59968098D02*
X147262042Y-60825241D01*
X147309661Y-60920479D01*
X147404899Y-60968098D01*
X147500138Y-60968098D01*
X147595376Y-61063337D02*
X148357280Y-61063337D01*
X149119185Y-60968098D02*
X148547757Y-60968098D01*
X148833471Y-60968098D02*
X148833471Y-59968098D01*
X148738233Y-60110956D01*
X148642995Y-60206194D01*
X148547757Y-60253813D01*
X178849661Y-61208098D02*
X178849661Y-60208098D01*
X179230614Y-60208098D01*
X179325852Y-60255718D01*
X179373471Y-60303337D01*
X179421090Y-60398575D01*
X179421090Y-60541432D01*
X179373471Y-60636670D01*
X179325852Y-60684289D01*
X179230614Y-60731908D01*
X178849661Y-60731908D01*
X179849661Y-61208098D02*
X179849661Y-60208098D01*
X180087757Y-60208098D01*
X180230614Y-60255718D01*
X180325852Y-60350956D01*
X180373471Y-60446194D01*
X180421090Y-60636670D01*
X180421090Y-60779527D01*
X180373471Y-60970003D01*
X180325852Y-61065241D01*
X180230614Y-61160479D01*
X180087757Y-61208098D01*
X179849661Y-61208098D01*
X180611566Y-61303337D02*
X181373471Y-61303337D01*
X181611566Y-61208098D02*
X181611566Y-60208098D01*
X182087757Y-60541432D02*
X182087757Y-61208098D01*
X182087757Y-60636670D02*
X182135376Y-60589051D01*
X182230614Y-60541432D01*
X182373471Y-60541432D01*
X182468709Y-60589051D01*
X182516328Y-60684289D01*
X182516328Y-61208098D01*
X182754423Y-61303337D02*
X183516328Y-61303337D01*
X184278233Y-61208098D02*
X183706804Y-61208098D01*
X183992518Y-61208098D02*
X183992518Y-60208098D01*
X183897280Y-60350956D01*
X183802042Y-60446194D01*
X183706804Y-60493813D01*
X87940476Y-84102380D02*
X87940476Y-83102380D01*
X87940476Y-83578571D02*
X88511904Y-83578571D01*
X88511904Y-84102380D02*
X88511904Y-83102380D01*
X89130952Y-84102380D02*
X89035714Y-84054761D01*
X88988095Y-84007142D01*
X88940476Y-83911904D01*
X88940476Y-83626190D01*
X88988095Y-83530952D01*
X89035714Y-83483333D01*
X89130952Y-83435714D01*
X89273809Y-83435714D01*
X89369047Y-83483333D01*
X89416666Y-83530952D01*
X89464285Y-83626190D01*
X89464285Y-83911904D01*
X89416666Y-84007142D01*
X89369047Y-84054761D01*
X89273809Y-84102380D01*
X89130952Y-84102380D01*
X90035714Y-84102380D02*
X89940476Y-84054761D01*
X89892857Y-83959523D01*
X89892857Y-83102380D01*
X90845238Y-84102380D02*
X90845238Y-83102380D01*
X90845238Y-84054761D02*
X90750000Y-84102380D01*
X90559523Y-84102380D01*
X90464285Y-84054761D01*
X90416666Y-84007142D01*
X90369047Y-83911904D01*
X90369047Y-83626190D01*
X90416666Y-83530952D01*
X90464285Y-83483333D01*
X90559523Y-83435714D01*
X90750000Y-83435714D01*
X90845238Y-83483333D01*
X91083333Y-84197619D02*
X91845238Y-84197619D01*
X92607142Y-84102380D02*
X92035714Y-84102380D01*
X92321428Y-84102380D02*
X92321428Y-83102380D01*
X92226190Y-83245238D01*
X92130952Y-83340476D01*
X92035714Y-83388095D01*
X131063947Y-61112860D02*
X131016328Y-61160479D01*
X130873471Y-61208098D01*
X130778233Y-61208098D01*
X130635376Y-61160479D01*
X130540138Y-61065241D01*
X130492518Y-60970003D01*
X130444899Y-60779527D01*
X130444899Y-60636670D01*
X130492518Y-60446194D01*
X130540138Y-60350956D01*
X130635376Y-60255718D01*
X130778233Y-60208098D01*
X130873471Y-60208098D01*
X131016328Y-60255718D01*
X131063947Y-60303337D01*
X131349661Y-60541432D02*
X131730614Y-60541432D01*
X131492518Y-60208098D02*
X131492518Y-61065241D01*
X131540138Y-61160479D01*
X131635376Y-61208098D01*
X131730614Y-61208098D01*
X132063947Y-61208098D02*
X132063947Y-60541432D01*
X132063947Y-60731908D02*
X132111566Y-60636670D01*
X132159185Y-60589051D01*
X132254423Y-60541432D01*
X132349661Y-60541432D01*
X132825852Y-61208098D02*
X132730614Y-61160479D01*
X132682995Y-61065241D01*
X132682995Y-60208098D01*
X132968709Y-61303337D02*
X133730614Y-61303337D01*
X133968709Y-61208098D02*
X133968709Y-60208098D01*
X134444899Y-60541432D02*
X134444899Y-61208098D01*
X134444899Y-60636670D02*
X134492518Y-60589051D01*
X134587757Y-60541432D01*
X134730614Y-60541432D01*
X134825852Y-60589051D01*
X134873471Y-60684289D01*
X134873471Y-61208098D01*
X135111566Y-61303337D02*
X135873471Y-61303337D01*
X136635376Y-61208098D02*
X136063947Y-61208098D01*
X136349661Y-61208098D02*
X136349661Y-60208098D01*
X136254423Y-60350956D01*
X136159185Y-60446194D01*
X136063947Y-60493813D01*
X118492518Y-61112860D02*
X118444899Y-61160479D01*
X118302042Y-61208098D01*
X118206804Y-61208098D01*
X118063947Y-61160479D01*
X117968709Y-61065241D01*
X117921090Y-60970003D01*
X117873471Y-60779527D01*
X117873471Y-60636670D01*
X117921090Y-60446194D01*
X117968709Y-60350956D01*
X118063947Y-60255718D01*
X118206804Y-60208098D01*
X118302042Y-60208098D01*
X118444899Y-60255718D01*
X118492518Y-60303337D01*
X118778233Y-60541432D02*
X119159185Y-60541432D01*
X118921090Y-60208098D02*
X118921090Y-61065241D01*
X118968709Y-61160479D01*
X119063947Y-61208098D01*
X119159185Y-61208098D01*
X119492518Y-61208098D02*
X119492518Y-60541432D01*
X119492518Y-60731908D02*
X119540138Y-60636670D01*
X119587757Y-60589051D01*
X119682995Y-60541432D01*
X119778233Y-60541432D01*
X120254423Y-61208098D02*
X120159185Y-61160479D01*
X120111566Y-61065241D01*
X120111566Y-60208098D01*
X120397280Y-61303337D02*
X121159185Y-61303337D01*
X121587757Y-60208098D02*
X121778233Y-60208098D01*
X121873471Y-60255718D01*
X121968709Y-60350956D01*
X122016328Y-60541432D01*
X122016328Y-60874765D01*
X121968709Y-61065241D01*
X121873471Y-61160479D01*
X121778233Y-61208098D01*
X121587757Y-61208098D01*
X121492518Y-61160479D01*
X121397280Y-61065241D01*
X121349661Y-60874765D01*
X121349661Y-60541432D01*
X121397280Y-60350956D01*
X121492518Y-60255718D01*
X121587757Y-60208098D01*
X122873471Y-60541432D02*
X122873471Y-61208098D01*
X122444899Y-60541432D02*
X122444899Y-61065241D01*
X122492518Y-61160479D01*
X122587757Y-61208098D01*
X122730614Y-61208098D01*
X122825852Y-61160479D01*
X122873471Y-61112860D01*
X123206804Y-60541432D02*
X123587757Y-60541432D01*
X123349661Y-60208098D02*
X123349661Y-61065241D01*
X123397280Y-61160479D01*
X123492518Y-61208098D01*
X123587757Y-61208098D01*
X123682995Y-61303337D02*
X124444899Y-61303337D01*
X125206804Y-61208098D02*
X124635376Y-61208098D01*
X124921090Y-61208098D02*
X124921090Y-60208098D01*
X124825852Y-60350956D01*
X124730614Y-60446194D01*
X124635376Y-60493813D01*
X166063947Y-47208098D02*
X166063947Y-46208098D01*
X166444899Y-46208098D01*
X166540138Y-46255718D01*
X166587757Y-46303337D01*
X166635376Y-46398575D01*
X166635376Y-46541432D01*
X166587757Y-46636670D01*
X166540138Y-46684289D01*
X166444899Y-46731908D01*
X166063947Y-46731908D01*
X167063947Y-47208098D02*
X167063947Y-46208098D01*
X167302042Y-46208098D01*
X167444899Y-46255718D01*
X167540138Y-46350956D01*
X167587757Y-46446194D01*
X167635376Y-46636670D01*
X167635376Y-46779527D01*
X167587757Y-46970003D01*
X167540138Y-47065241D01*
X167444899Y-47160479D01*
X167302042Y-47208098D01*
X167063947Y-47208098D01*
X167825852Y-47303337D02*
X168587757Y-47303337D01*
X168825852Y-47208098D02*
X168825852Y-46208098D01*
X169159185Y-46922384D01*
X169492518Y-46208098D01*
X169492518Y-47208098D01*
X170111566Y-47208098D02*
X170016328Y-47160479D01*
X169968709Y-47112860D01*
X169921090Y-47017622D01*
X169921090Y-46731908D01*
X169968709Y-46636670D01*
X170016328Y-46589051D01*
X170111566Y-46541432D01*
X170254423Y-46541432D01*
X170349661Y-46589051D01*
X170397280Y-46636670D01*
X170444899Y-46731908D01*
X170444899Y-47017622D01*
X170397280Y-47112860D01*
X170349661Y-47160479D01*
X170254423Y-47208098D01*
X170111566Y-47208098D01*
X170873471Y-46541432D02*
X170873471Y-47208098D01*
X170873471Y-46636670D02*
X170921090Y-46589051D01*
X171016328Y-46541432D01*
X171159185Y-46541432D01*
X171254423Y-46589051D01*
X171302042Y-46684289D01*
X171302042Y-47208098D01*
X171540138Y-47303337D02*
X172302042Y-47303337D01*
X172492518Y-46303337D02*
X172540138Y-46255718D01*
X172635376Y-46208098D01*
X172873471Y-46208098D01*
X172968709Y-46255718D01*
X173016328Y-46303337D01*
X173063947Y-46398575D01*
X173063947Y-46493813D01*
X173016328Y-46636670D01*
X172444899Y-47208098D01*
X173063947Y-47208098D01*
X155206804Y-47208098D02*
X154873471Y-46731908D01*
X154635376Y-47208098D02*
X154635376Y-46208098D01*
X155016328Y-46208098D01*
X155111566Y-46255718D01*
X155159185Y-46303337D01*
X155206804Y-46398575D01*
X155206804Y-46541432D01*
X155159185Y-46636670D01*
X155111566Y-46684289D01*
X155016328Y-46731908D01*
X154635376Y-46731908D01*
X156016328Y-47160479D02*
X155921090Y-47208098D01*
X155730614Y-47208098D01*
X155635376Y-47160479D01*
X155587757Y-47065241D01*
X155587757Y-46684289D01*
X155635376Y-46589051D01*
X155730614Y-46541432D01*
X155921090Y-46541432D01*
X156016328Y-46589051D01*
X156063947Y-46684289D01*
X156063947Y-46779527D01*
X155587757Y-46874765D01*
X156349661Y-46541432D02*
X156730614Y-46541432D01*
X156492518Y-47208098D02*
X156492518Y-46350956D01*
X156540138Y-46255718D01*
X156635376Y-46208098D01*
X156730614Y-46208098D01*
X156825852Y-47303337D02*
X157587757Y-47303337D01*
X157825852Y-47208098D02*
X157825852Y-46208098D01*
X158302042Y-46541432D02*
X158302042Y-47208098D01*
X158302042Y-46636670D02*
X158349661Y-46589051D01*
X158444899Y-46541432D01*
X158587757Y-46541432D01*
X158682995Y-46589051D01*
X158730614Y-46684289D01*
X158730614Y-47208098D01*
X158968709Y-47303337D02*
X159730614Y-47303337D01*
X159921090Y-46303337D02*
X159968709Y-46255718D01*
X160063947Y-46208098D01*
X160302042Y-46208098D01*
X160397280Y-46255718D01*
X160444899Y-46303337D01*
X160492518Y-46398575D01*
X160492518Y-46493813D01*
X160444899Y-46636670D01*
X159873471Y-47208098D01*
X160492518Y-47208098D01*
X178849661Y-47208098D02*
X178849661Y-46208098D01*
X179230614Y-46208098D01*
X179325852Y-46255718D01*
X179373471Y-46303337D01*
X179421090Y-46398575D01*
X179421090Y-46541432D01*
X179373471Y-46636670D01*
X179325852Y-46684289D01*
X179230614Y-46731908D01*
X178849661Y-46731908D01*
X179849661Y-47208098D02*
X179849661Y-46208098D01*
X180087757Y-46208098D01*
X180230614Y-46255718D01*
X180325852Y-46350956D01*
X180373471Y-46446194D01*
X180421090Y-46636670D01*
X180421090Y-46779527D01*
X180373471Y-46970003D01*
X180325852Y-47065241D01*
X180230614Y-47160479D01*
X180087757Y-47208098D01*
X179849661Y-47208098D01*
X180611566Y-47303337D02*
X181373471Y-47303337D01*
X181611566Y-47208098D02*
X181611566Y-46208098D01*
X182087757Y-46541432D02*
X182087757Y-47208098D01*
X182087757Y-46636670D02*
X182135376Y-46589051D01*
X182230614Y-46541432D01*
X182373471Y-46541432D01*
X182468709Y-46589051D01*
X182516328Y-46684289D01*
X182516328Y-47208098D01*
X182754423Y-47303337D02*
X183516328Y-47303337D01*
X183706804Y-46303337D02*
X183754423Y-46255718D01*
X183849661Y-46208098D01*
X184087757Y-46208098D01*
X184182995Y-46255718D01*
X184230614Y-46303337D01*
X184278233Y-46398575D01*
X184278233Y-46493813D01*
X184230614Y-46636670D01*
X183659185Y-47208098D01*
X184278233Y-47208098D01*
X141968709Y-47208098D02*
X141968709Y-46208098D01*
X142206804Y-46208098D01*
X142349661Y-46255718D01*
X142444899Y-46350956D01*
X142492518Y-46446194D01*
X142540138Y-46636670D01*
X142540138Y-46779527D01*
X142492518Y-46970003D01*
X142444899Y-47065241D01*
X142349661Y-47160479D01*
X142206804Y-47208098D01*
X141968709Y-47208098D01*
X142968709Y-47208098D02*
X142968709Y-46541432D01*
X142968709Y-46208098D02*
X142921090Y-46255718D01*
X142968709Y-46303337D01*
X143016328Y-46255718D01*
X142968709Y-46208098D01*
X142968709Y-46303337D01*
X143302042Y-46541432D02*
X143682995Y-46541432D01*
X143444899Y-47208098D02*
X143444899Y-46350956D01*
X143492518Y-46255718D01*
X143587757Y-46208098D01*
X143682995Y-46208098D01*
X143873471Y-46541432D02*
X144254423Y-46541432D01*
X144016328Y-47208098D02*
X144016328Y-46350956D01*
X144063947Y-46255718D01*
X144159185Y-46208098D01*
X144254423Y-46208098D01*
X144349661Y-47303337D02*
X145111566Y-47303337D01*
X145540138Y-46208098D02*
X145730614Y-46208098D01*
X145825852Y-46255718D01*
X145921090Y-46350956D01*
X145968709Y-46541432D01*
X145968709Y-46874765D01*
X145921090Y-47065241D01*
X145825852Y-47160479D01*
X145730614Y-47208098D01*
X145540138Y-47208098D01*
X145444899Y-47160479D01*
X145349661Y-47065241D01*
X145302042Y-46874765D01*
X145302042Y-46541432D01*
X145349661Y-46350956D01*
X145444899Y-46255718D01*
X145540138Y-46208098D01*
X146825852Y-46541432D02*
X146825852Y-47208098D01*
X146397280Y-46541432D02*
X146397280Y-47065241D01*
X146444899Y-47160479D01*
X146540138Y-47208098D01*
X146682995Y-47208098D01*
X146778233Y-47160479D01*
X146825852Y-47112860D01*
X147159185Y-46541432D02*
X147540138Y-46541432D01*
X147302042Y-46208098D02*
X147302042Y-47065241D01*
X147349661Y-47160479D01*
X147444899Y-47208098D01*
X147540138Y-47208098D01*
X147635376Y-47303337D02*
X148397280Y-47303337D01*
X148587757Y-46303337D02*
X148635376Y-46255718D01*
X148730614Y-46208098D01*
X148968709Y-46208098D01*
X149063947Y-46255718D01*
X149111566Y-46303337D01*
X149159185Y-46398575D01*
X149159185Y-46493813D01*
X149111566Y-46636670D01*
X148540138Y-47208098D01*
X149159185Y-47208098D01*
X155206804Y-61208098D02*
X154873471Y-60731908D01*
X154635376Y-61208098D02*
X154635376Y-60208098D01*
X155016328Y-60208098D01*
X155111566Y-60255718D01*
X155159185Y-60303337D01*
X155206804Y-60398575D01*
X155206804Y-60541432D01*
X155159185Y-60636670D01*
X155111566Y-60684289D01*
X155016328Y-60731908D01*
X154635376Y-60731908D01*
X156016328Y-61160479D02*
X155921090Y-61208098D01*
X155730614Y-61208098D01*
X155635376Y-61160479D01*
X155587757Y-61065241D01*
X155587757Y-60684289D01*
X155635376Y-60589051D01*
X155730614Y-60541432D01*
X155921090Y-60541432D01*
X156016328Y-60589051D01*
X156063947Y-60684289D01*
X156063947Y-60779527D01*
X155587757Y-60874765D01*
X156349661Y-60541432D02*
X156730614Y-60541432D01*
X156492518Y-61208098D02*
X156492518Y-60350956D01*
X156540138Y-60255718D01*
X156635376Y-60208098D01*
X156730614Y-60208098D01*
X156825852Y-61303337D02*
X157587757Y-61303337D01*
X157825852Y-61208098D02*
X157825852Y-60208098D01*
X158302042Y-60541432D02*
X158302042Y-61208098D01*
X158302042Y-60636670D02*
X158349661Y-60589051D01*
X158444899Y-60541432D01*
X158587757Y-60541432D01*
X158682995Y-60589051D01*
X158730614Y-60684289D01*
X158730614Y-61208098D01*
X158968709Y-61303337D02*
X159730614Y-61303337D01*
X160492518Y-61208098D02*
X159921090Y-61208098D01*
X160206804Y-61208098D02*
X160206804Y-60208098D01*
X160111566Y-60350956D01*
X160016328Y-60446194D01*
X159921090Y-60493813D01*
X86464285Y-61202380D02*
X86464285Y-60202380D01*
X86702380Y-60202380D01*
X86845238Y-60250000D01*
X86940476Y-60345238D01*
X86988095Y-60440476D01*
X87035714Y-60630952D01*
X87035714Y-60773809D01*
X86988095Y-60964285D01*
X86940476Y-61059523D01*
X86845238Y-61154761D01*
X86702380Y-61202380D01*
X86464285Y-61202380D01*
X87464285Y-61202380D02*
X87464285Y-60535714D01*
X87464285Y-60202380D02*
X87416666Y-60250000D01*
X87464285Y-60297619D01*
X87511904Y-60250000D01*
X87464285Y-60202380D01*
X87464285Y-60297619D01*
X87797619Y-60535714D02*
X88178571Y-60535714D01*
X87940476Y-61202380D02*
X87940476Y-60345238D01*
X87988095Y-60250000D01*
X88083333Y-60202380D01*
X88178571Y-60202380D01*
X88369047Y-60535714D02*
X88750000Y-60535714D01*
X88511904Y-61202380D02*
X88511904Y-60345238D01*
X88559523Y-60250000D01*
X88654761Y-60202380D01*
X88750000Y-60202380D01*
X88845238Y-61297619D02*
X89607142Y-61297619D01*
X89845238Y-61202380D02*
X89845238Y-60202380D01*
X90178571Y-60916666D01*
X90511904Y-60202380D01*
X90511904Y-61202380D01*
X91130952Y-61202380D02*
X91035714Y-61154761D01*
X90988095Y-61107142D01*
X90940476Y-61011904D01*
X90940476Y-60726190D01*
X90988095Y-60630952D01*
X91035714Y-60583333D01*
X91130952Y-60535714D01*
X91273809Y-60535714D01*
X91369047Y-60583333D01*
X91416666Y-60630952D01*
X91464285Y-60726190D01*
X91464285Y-61011904D01*
X91416666Y-61107142D01*
X91369047Y-61154761D01*
X91273809Y-61202380D01*
X91130952Y-61202380D01*
X91892857Y-60535714D02*
X91892857Y-61202380D01*
X91892857Y-60630952D02*
X91940476Y-60583333D01*
X92035714Y-60535714D01*
X92178571Y-60535714D01*
X92273809Y-60583333D01*
X92321428Y-60678571D01*
X92321428Y-61202380D01*
X92559523Y-61297619D02*
X93321428Y-61297619D01*
X94083333Y-61202380D02*
X93511904Y-61202380D01*
X93797619Y-61202380D02*
X93797619Y-60202380D01*
X93702380Y-60345238D01*
X93607142Y-60440476D01*
X93511904Y-60488095D01*
X86464285Y-47202380D02*
X86464285Y-46202380D01*
X86702380Y-46202380D01*
X86845238Y-46250000D01*
X86940476Y-46345238D01*
X86988095Y-46440476D01*
X87035714Y-46630952D01*
X87035714Y-46773809D01*
X86988095Y-46964285D01*
X86940476Y-47059523D01*
X86845238Y-47154761D01*
X86702380Y-47202380D01*
X86464285Y-47202380D01*
X87464285Y-47202380D02*
X87464285Y-46535714D01*
X87464285Y-46202380D02*
X87416666Y-46250000D01*
X87464285Y-46297619D01*
X87511904Y-46250000D01*
X87464285Y-46202380D01*
X87464285Y-46297619D01*
X87797619Y-46535714D02*
X88178571Y-46535714D01*
X87940476Y-47202380D02*
X87940476Y-46345238D01*
X87988095Y-46250000D01*
X88083333Y-46202380D01*
X88178571Y-46202380D01*
X88369047Y-46535714D02*
X88750000Y-46535714D01*
X88511904Y-47202380D02*
X88511904Y-46345238D01*
X88559523Y-46250000D01*
X88654761Y-46202380D01*
X88750000Y-46202380D01*
X88845238Y-47297619D02*
X89607142Y-47297619D01*
X89845238Y-47202380D02*
X89845238Y-46202380D01*
X90178571Y-46916666D01*
X90511904Y-46202380D01*
X90511904Y-47202380D01*
X91130952Y-47202380D02*
X91035714Y-47154761D01*
X90988095Y-47107142D01*
X90940476Y-47011904D01*
X90940476Y-46726190D01*
X90988095Y-46630952D01*
X91035714Y-46583333D01*
X91130952Y-46535714D01*
X91273809Y-46535714D01*
X91369047Y-46583333D01*
X91416666Y-46630952D01*
X91464285Y-46726190D01*
X91464285Y-47011904D01*
X91416666Y-47107142D01*
X91369047Y-47154761D01*
X91273809Y-47202380D01*
X91130952Y-47202380D01*
X91892857Y-46535714D02*
X91892857Y-47202380D01*
X91892857Y-46630952D02*
X91940476Y-46583333D01*
X92035714Y-46535714D01*
X92178571Y-46535714D01*
X92273809Y-46583333D01*
X92321428Y-46678571D01*
X92321428Y-47202380D01*
X92559523Y-47297619D02*
X93321428Y-47297619D01*
X93511904Y-46297619D02*
X93559523Y-46250000D01*
X93654761Y-46202380D01*
X93892857Y-46202380D01*
X93988095Y-46250000D01*
X94035714Y-46297619D01*
X94083333Y-46392857D01*
X94083333Y-46488095D01*
X94035714Y-46630952D01*
X93464285Y-47202380D01*
X94083333Y-47202380D01*
X99902380Y-122816666D02*
X99902380Y-123292857D01*
X98902380Y-123292857D01*
X98902380Y-122578571D02*
X98902380Y-121959523D01*
X99283333Y-122292857D01*
X99283333Y-122150000D01*
X99330952Y-122054761D01*
X99378571Y-122007142D01*
X99473809Y-121959523D01*
X99711904Y-121959523D01*
X99807142Y-122007142D01*
X99854761Y-122054761D01*
X99902380Y-122150000D01*
X99902380Y-122435714D01*
X99854761Y-122530952D01*
X99807142Y-122578571D01*
X88602380Y-113216666D02*
X88602380Y-113692857D01*
X87602380Y-113692857D01*
X87697619Y-112930952D02*
X87650000Y-112883333D01*
X87602380Y-112788095D01*
X87602380Y-112550000D01*
X87650000Y-112454761D01*
X87697619Y-112407142D01*
X87792857Y-112359523D01*
X87888095Y-112359523D01*
X88030952Y-112407142D01*
X88602380Y-112978571D01*
X88602380Y-112359523D01*
X174073380Y-130313666D02*
X173597190Y-130647000D01*
X174073380Y-130885095D02*
X173073380Y-130885095D01*
X173073380Y-130504142D01*
X173121000Y-130408904D01*
X173168619Y-130361285D01*
X173263857Y-130313666D01*
X173406714Y-130313666D01*
X173501952Y-130361285D01*
X173549571Y-130408904D01*
X173597190Y-130504142D01*
X173597190Y-130885095D01*
X174073380Y-129885095D02*
X173073380Y-129885095D01*
X173073380Y-129504142D01*
X173121000Y-129408904D01*
X173168619Y-129361285D01*
X173263857Y-129313666D01*
X173406714Y-129313666D01*
X173501952Y-129361285D01*
X173549571Y-129408904D01*
X173597190Y-129504142D01*
X173597190Y-129885095D01*
X174073380Y-128361285D02*
X174073380Y-128932714D01*
X174073380Y-128647000D02*
X173073380Y-128647000D01*
X173216238Y-128742238D01*
X173311476Y-128837476D01*
X173359095Y-128932714D01*
X81416666Y-97528571D02*
X81083333Y-97528571D01*
X81083333Y-98052380D02*
X81083333Y-97052380D01*
X81559523Y-97052380D01*
X82273809Y-97528571D02*
X82416666Y-97576190D01*
X82464285Y-97623809D01*
X82511904Y-97719047D01*
X82511904Y-97861904D01*
X82464285Y-97957142D01*
X82416666Y-98004761D01*
X82321428Y-98052380D01*
X81940476Y-98052380D01*
X81940476Y-97052380D01*
X82273809Y-97052380D01*
X82369047Y-97100000D01*
X82416666Y-97147619D01*
X82464285Y-97242857D01*
X82464285Y-97338095D01*
X82416666Y-97433333D01*
X82369047Y-97480952D01*
X82273809Y-97528571D01*
X81940476Y-97528571D01*
X83464285Y-98052380D02*
X82892857Y-98052380D01*
X83178571Y-98052380D02*
X83178571Y-97052380D01*
X83083333Y-97195238D01*
X82988095Y-97290476D01*
X82892857Y-97338095D01*
X80800000Y-72061904D02*
X80752380Y-72157142D01*
X80752380Y-72300000D01*
X80800000Y-72442857D01*
X80895238Y-72538095D01*
X80990476Y-72585714D01*
X81180952Y-72633333D01*
X81323809Y-72633333D01*
X81514285Y-72585714D01*
X81609523Y-72538095D01*
X81704761Y-72442857D01*
X81752380Y-72300000D01*
X81752380Y-72204761D01*
X81704761Y-72061904D01*
X81657142Y-72014285D01*
X81323809Y-72014285D01*
X81323809Y-72204761D01*
X81752380Y-71585714D02*
X80752380Y-71585714D01*
X81752380Y-71014285D01*
X80752380Y-71014285D01*
X81752380Y-70538095D02*
X80752380Y-70538095D01*
X80752380Y-70300000D01*
X80800000Y-70157142D01*
X80895238Y-70061904D01*
X80990476Y-70014285D01*
X81180952Y-69966666D01*
X81323809Y-69966666D01*
X81514285Y-70014285D01*
X81609523Y-70061904D01*
X81704761Y-70157142D01*
X81752380Y-70300000D01*
X81752380Y-70538095D01*
X77388095Y-77521428D02*
X78150000Y-77521428D01*
X77769047Y-77902380D02*
X77769047Y-77140476D01*
X79150000Y-77902380D02*
X78578571Y-77902380D01*
X78864285Y-77902380D02*
X78864285Y-76902380D01*
X78769047Y-77045238D01*
X78673809Y-77140476D01*
X78578571Y-77188095D01*
X79530952Y-76997619D02*
X79578571Y-76950000D01*
X79673809Y-76902380D01*
X79911904Y-76902380D01*
X80007142Y-76950000D01*
X80054761Y-76997619D01*
X80102380Y-77092857D01*
X80102380Y-77188095D01*
X80054761Y-77330952D01*
X79483333Y-77902380D01*
X80102380Y-77902380D01*
X80388095Y-76902380D02*
X80721428Y-77902380D01*
X81054761Y-76902380D01*
X77388095Y-65621428D02*
X78150000Y-65621428D01*
X79150000Y-66002380D02*
X78578571Y-66002380D01*
X78864285Y-66002380D02*
X78864285Y-65002380D01*
X78769047Y-65145238D01*
X78673809Y-65240476D01*
X78578571Y-65288095D01*
X79530952Y-65097619D02*
X79578571Y-65050000D01*
X79673809Y-65002380D01*
X79911904Y-65002380D01*
X80007142Y-65050000D01*
X80054761Y-65097619D01*
X80102380Y-65192857D01*
X80102380Y-65288095D01*
X80054761Y-65430952D01*
X79483333Y-66002380D01*
X80102380Y-66002380D01*
X80388095Y-65002380D02*
X80721428Y-66002380D01*
X81054761Y-65002380D01*
X172564285Y-142621428D02*
X173326190Y-142621428D01*
X172945238Y-143002380D02*
X172945238Y-142240476D01*
X174278571Y-142002380D02*
X173802380Y-142002380D01*
X173754761Y-142478571D01*
X173802380Y-142430952D01*
X173897619Y-142383333D01*
X174135714Y-142383333D01*
X174230952Y-142430952D01*
X174278571Y-142478571D01*
X174326190Y-142573809D01*
X174326190Y-142811904D01*
X174278571Y-142907142D01*
X174230952Y-142954761D01*
X174135714Y-143002380D01*
X173897619Y-143002380D01*
X173802380Y-142954761D01*
X173754761Y-142907142D01*
X174611904Y-142002380D02*
X174945238Y-143002380D01*
X175278571Y-142002380D01*
X74288095Y-87152380D02*
X74288095Y-87961904D01*
X74335714Y-88057142D01*
X74383333Y-88104761D01*
X74478571Y-88152380D01*
X74669047Y-88152380D01*
X74764285Y-88104761D01*
X74811904Y-88057142D01*
X74859523Y-87961904D01*
X74859523Y-87152380D01*
X75859523Y-88152380D02*
X75288095Y-88152380D01*
X75573809Y-88152380D02*
X75573809Y-87152380D01*
X75478571Y-87295238D01*
X75383333Y-87390476D01*
X75288095Y-87438095D01*
X99788095Y-108052380D02*
X99788095Y-108861904D01*
X99835714Y-108957142D01*
X99883333Y-109004761D01*
X99978571Y-109052380D01*
X100169047Y-109052380D01*
X100264285Y-109004761D01*
X100311904Y-108957142D01*
X100359523Y-108861904D01*
X100359523Y-108052380D01*
X100883333Y-109052380D02*
X101073809Y-109052380D01*
X101169047Y-109004761D01*
X101216666Y-108957142D01*
X101311904Y-108814285D01*
X101359523Y-108623809D01*
X101359523Y-108242857D01*
X101311904Y-108147619D01*
X101264285Y-108100000D01*
X101169047Y-108052380D01*
X100978571Y-108052380D01*
X100883333Y-108100000D01*
X100835714Y-108147619D01*
X100788095Y-108242857D01*
X100788095Y-108480952D01*
X100835714Y-108576190D01*
X100883333Y-108623809D01*
X100978571Y-108671428D01*
X101169047Y-108671428D01*
X101264285Y-108623809D01*
X101311904Y-108576190D01*
X101359523Y-108480952D01*
D16*
X127507619Y-140843333D02*
X129602857Y-140843333D01*
X127088571Y-142100476D02*
X128555238Y-137700476D01*
X130021904Y-142100476D01*
X131488571Y-142100476D02*
X131488571Y-137700476D01*
X133164761Y-137700476D01*
X133583809Y-137910000D01*
X133793333Y-138119523D01*
X134002857Y-138538571D01*
X134002857Y-139167142D01*
X133793333Y-139586190D01*
X133583809Y-139795714D01*
X133164761Y-140005238D01*
X131488571Y-140005238D01*
X138821904Y-142519523D02*
X138402857Y-142310000D01*
X137983809Y-141890952D01*
X137355238Y-141262380D01*
X136936190Y-141052857D01*
X136517142Y-141052857D01*
X136726666Y-142100476D02*
X136307619Y-141890952D01*
X135888571Y-141471904D01*
X135679047Y-140633809D01*
X135679047Y-139167142D01*
X135888571Y-138329047D01*
X136307619Y-137910000D01*
X136726666Y-137700476D01*
X137564761Y-137700476D01*
X137983809Y-137910000D01*
X138402857Y-138329047D01*
X138612380Y-139167142D01*
X138612380Y-140633809D01*
X138402857Y-141471904D01*
X137983809Y-141890952D01*
X137564761Y-142100476D01*
X136726666Y-142100476D01*
M02*
